<?xml version="1.0" encoding="utf-8" ?>
<svg baseProfile="full" height="300mm" version="1.1" viewBox="0,0,200,300" width="200mm" xmlns="http://www.w3.org/2000/svg" xmlns:ev="http://www.w3.org/2001/xml-events" xmlns:xlink="http://www.w3.org/1999/xlink"><defs /><rect fill="#222222" height="300" width="200" x="0" y="0" /><text fill="#FFFFFF" style="font-size:12px; font-family:Arial; font-weight:bold;" x="10" y="20">Over 10km Runs</text><text fill="#FFFFFF" style="font-size:4px; font-family:Arial" x="10" y="280">ATHLETE</text><text fill="#FFFFFF" style="font-size:9px; font-family:Arial" x="10" y="290">skyline09</text><text fill="#FFFFFF" style="font-size:4px; font-family:Arial" x="120" y="280">STATISTICS</text><text fill="#FFFFFF" style="font-size:3px; font-family:Arial" x="120" y="285">Number: 7</text><text fill="#FFFFFF" style="font-size:3px; font-family:Arial" x="120" y="290">Weekly: 1.2</text><text fill="#FFFFFF" style="font-size:3px; font-family:Arial" x="141" y="285">Total: 87.9 km</text><text fill="#FFFFFF" style="font-size:3px; font-family:Arial" x="141" y="290">Avg: 12.6 km</text><text fill="#FFFFFF" style="font-size:3px; font-family:Arial" x="167" y="285">Min: 10.0 km</text><text fill="#FFFFFF" style="font-size:3px; font-family:Arial" x="167" y="290">Max: 21.7 km</text><polyline fill="none" points="23.10106382984668,69.616620485991 26.5,59.9447547440941 26.882978723268025,59.05791890324326 27.2898936169222,58.72535471775336 27.433510638191365,57.94937003753148 28.031914893654175,57.56137686758302 29.85106382984668,57.78308731818106 32.244680851115845,57.67223211546661 33.92021276592277,58.087938892742386 35.35638297861442,57.81080111177289 36.912234042421915,58.14336641508271 37.941489361575805,57.97708381424309 38.946808510576375,58.2265076773765 39.18617021269165,58.50364503491437 41.62765957438387,58.614499898976646 42.920212765806355,58.33736265430343 44.404255319037475,58.58678618716658 45.55319148930721,58.28193517148611 47.874999999883585,58.614499898976646 49.14361702115275,58.2542214258865 51.0824468084611,58.28193517148611 51.728723404114135,58.53135875519365 53.428191489190795,58.36507639143383 53.64361702115275,57.72765972246998 53.882978723268025,58.30964891426265 57.21010638284497,58.75306841536076 58.023936170036905,58.64221360787633 58.742021276499145,59.002491567254765 58.81382978707552,59.30734177562408 60.058510638191365,59.14105988614028 60.82446808507666,59.27962813444901 61.42287234030664,59.69533245605999 66.21010638296138,59.861614006891614 66.88031914888415,59.77847324413597 67.0,59.52905080362689 66.6648936169222,56.7022471652308 66.0664893615758,57.090241560305 65.34840425522998,56.009398655296536 64.65425531903747,55.7045447518758 63.93617021269165,55.926256715494674 62.42819148930721,56.92395831589238 61.039893617038615,57.228810852975585 59.890957446652465,56.89624443190405 58.670212765806355,55.870828741492005 57.808510638191365,55.6491167327913 55.989361702115275,56.2311103703978 54.76861702115275,56.92395831589238 53.06914893607609,57.03481382346945 52.80585106369108,57.228810852975585 52.734042553114705,56.979386075312505 51.968085106345825,56.50824976025615 51.56117021269165,56.425107972929254 51.17819148930721,55.815400756313466 49.9574468084611,56.009398655296536 48.85638297861442,55.53826066068723 48.11436170199886,55.621402718970785 47.037234042421915,56.14796849832055 46.199468084960245,55.870828741492005 45.4574468084611,56.17568245853181 44.691489361575805,55.926256715494674 43.351063829730265,56.06482660092297 42.465425531729124,56.286538270971505 40.837765957345255,55.59368870241451 40.47872340423055,54.40198331748252 39.09042553184554,52.62827261388884 38.085106382961385,50.30025976797333 37.630319148884155,50.05082863869029 34.734042553114705,50.43883251873194 34.51861702115275,50.85455034757615 34.92553191492334,52.600558292353526 34.47074468084611,54.374269176623784 34.710106382961385,54.817695091012865 34.01595744676888,55.815400756313466 30.688829787191935,55.621402718970785 29.659574468038045,55.732258757198 29.30053191492334,56.20339641592 28.39095744676888,56.25882432208164 26.85904255323112,56.06482660092297 25.75797872338444,55.28883433327428 23.50797872338444,55.17797811437049 22.550531914806925,55.39969050697982 20.99468085099943,54.90083736955421 20.731382978730835,54.65141045776545 18.7925531915389,54.54055397922639 18.098404255346395,55.89854272984667 16.97340425522998,59.41819631221006 17.5,59.61219164257636 19.175531914806925,59.25191449045087 19.86968085099943,58.69764101723558 25.51861702115275,57.78308731818106 26.42819148930721,57.11795542456093 27.36170212761499,57.03481382346945 28.175531914806925,57.478235402086284 29.324468085193075,57.699945920408936 32.005319148884155,57.64451830778853 33.896276595653035,58.00479758813162 36.696808510576375,58.087938892742386 37.797872340423055,57.97708381424309 38.874999999883585,58.17108017200371 39.09042553184554,58.42050385737093 40.64627659576945,58.53135875519365 43.01595744676888,58.36507639143383 44.499999999883585,58.614499898976646 45.481382978730835,58.30964891426265 47.63563829776831,58.64221360787633 50.484042553114705,58.80849580228096 51.56117021269165,58.42050385737093 52.853723404114135,58.33736265430343 53.35638297861442,58.614499898976646 54.07446808507666,58.33736265430343 57.329787233960815,58.75306841536076 58.191489361575805,58.58678618716658 58.76595744676888,59.002491567254765 58.837765957345255,59.30734177562408 60.17819148930721,59.11334622793947 61.398936170036905,59.63990524987457 65.15691489342134,59.80618683458306 66.97606382961385,59.58447803228046 66.61702127649914,56.646819349349244 66.01861702115275,57.06252769328421 65.51595744665246,56.14796849832055 64.70212765934411,55.78768675940228 64.22340425522998,55.84311475031427 62.88297872338444,56.7022471652308 61.30319148930721,57.11795542456093 60.154255319037475,56.95167219705763 58.550531914806925,55.78768675940228 57.76063829776831,55.621402718970785 56.03723404253833,56.14796849832055 54.48138297861442,56.95167219705763 53.428191489190795,57.06252769328421 53.212765957345255,56.81310276314616 52.30319148930721,56.78538886795286 51.58510638284497,56.03711262947763 51.010638297651894,55.732258757198 50.05319148930721,56.009398655296536 48.712765957345255,55.45511857699603 47.06117021269165,56.09254056963255 46.271276595653035,55.815400756313466 45.4574468084611,56.17568245853181 44.691489361575805,55.89854272984667 42.872340425499715,56.314252216980094 42.417553191422485,56.25882432208164 40.86170212761499,55.56597468291875 39.30585106369108,52.68370124840294 38.7074468084611,51.1871241532499 38.085106382961385,50.21711608351325 37.654255319037475,50.078543219919084 34.781914893421344,50.46654706035042 34.94946808507666,52.96084425153094 34.542553191422485,54.374269176623784 34.734042553114705,54.706838680198416 33.992021276499145,55.759972759726224 31.64627659576945,55.759972759726224 30.56914893607609,55.510546635545325 29.755319148884155,55.621402718970785 29.15691489353776,56.17568245853181 27.52925531915389,56.009398655296536 27.313829787191935,56.17568245853181 25.66223404253833,55.23340622946853 24.609042553114705,55.34426242572954 23.603723404114135,55.15026405255776 22.430851063807495,55.37197646780987 21.0425531915389,54.95626554105547 20.68351063830778,54.62369634237257 18.768617021269165,54.54055397922639 18.074468084960245,55.78768675940228 16.877659574500285,59.08563256706111 17.3324468084611,59.58447803228046 19.34308510646224,59.22420084348414 19.845744680729695,58.72535471775336 25.446808510576375,57.81080111177289 26.5,57.145669285877375 27.409574468038045,57.11795542456093 29.731382978730835,57.699945920408936 32.005319148884155,57.64451830778853 33.75265957438387,58.032511359167984 35.404255319037475,57.81080111177289 36.912234042421915,58.115652655338636 38.109042553114705,57.94937003753148 39.01861702115275,58.17108017200371 39.210106382961385,58.44821758606122 40.742021276499145,58.53135875519365 43.063829787191935,58.36507639143383 44.52393617015332,58.58678618716658 45.50531914876774,58.2542214258865 47.420212765806355,58.614499898976646 48.952127659576945,58.50364503491437 50.46010638284497,58.83620949141914 51.53723404253833,58.42050385737093 53.71542553184554,58.39279012582847 54.76861702115275,58.115652655338636 54.26595744676888,58.28193517148611 55.630319148884155,58.64221360787633 58.33510638284497,58.47593131187023 58.76595744676888,59.22420084348414 60.226063829730265,59.08563256706111 61.351063829730265,59.58447803228046 65.77925531903747,59.80618683458306 66.73670212749857,59.72304605485988 66.97606382961385,59.50133718500729 66.6648936169222,56.7022471652308 66.04255319142248,57.06252769328421 65.44414893607609,56.03711262947763 64.63031914888415,55.6491167327913 61.97340425522998,56.92395831589238 61.159574468038045,57.090241560305 59.675531914806925,56.72996106898063 58.81382978707552,55.95397069820319 57.76063829776831,55.59368870241451 55.869680850883015,56.12025453537353 54.505319148884155,56.92395831589238 53.54787234030664,57.090241560305 52.279255319037475,56.8408166556037 51.513297872268595,56.34196616022382 51.53723404253833,55.95397069820319 50.962765957345255,55.7045447518758 49.933510638191365,55.981684678117745 48.329787233960815,55.53826066068723 46.749999999883585,56.03711262947763 46.271276595653035,55.815400756313466 45.93617021269165,55.37197646780987 45.69680851069279,54.73455278715119 45.218085106345825,52.24027185610612 45.33776595746167,51.630555261828704 43.87765957438387,51.658269682113314 44.23670212761499,52.01855688903015 44.380319148884155,51.60284083877923 44.571808510576375,52.01855688903015 45.050531914806925,54.54055397922639 43.49468085099943,54.95626554105547 42.034574468038045,54.54055397922639 40.88563829776831,53.87541415911983 39.473404255346395,51.99084250544547 38.587765957345255,51.630555261828704 37.989361702115275,50.18940151645802 34.94946808507666,50.327974323765375 34.710106382961385,51.020837301184656 34.97340425522998,53.48741517984308 34.51861702115275,54.374269176623784 34.614361702115275,54.873123279510764 34.087765957345255,55.59368870241451 30.25797872338444,55.482832607696764 29.7074468084611,55.56597468291875 29.15691489353776,56.12025453537353 27.505319148884155,56.06482660092297 27.21808510622941,56.25882432208164 25.75797872338444,55.23340622946853 23.484042553114705,55.17797811437049 22.406914893654175,55.39969050697982 21.0425531915389,54.9839796226006 20.68351063830778,54.65141045776545 18.72074468084611,54.54055397922639 18.457446808577515,54.706838680198416 17.1648936169222,58.198793926043436 16.997340425499715,59.39048268223996 17.3324468084611,59.55676441939431 17.97872340423055,59.44590993929887 19.34308510646224,59.11334622793947 19.86968085099943,58.64221360787633 19.989361702115275,58.75306841536076 21.64095744676888,58.2542214258865 25.566489361808635,57.699945920408936 26.5,57.090241560305 27.2898936169222,57.00709995077341 28.247340425499715,57.422807744238526 29.85106382984668,57.64451830778853 32.124999999883585,57.53366304858355 33.680851063807495,57.92165625805501 35.236702127498575,57.72765972246998 36.744680851115845,58.00479758813162 37.821808510576375,57.86622869063285 38.851063829730265,58.060225127410376 39.09042553184554,58.36507639143383 41.843085106345825,58.50364503491437 42.800531914806925,58.28193517148611 44.97872340423055,58.50364503491437 45.481382978730835,58.2265076773765 46.31914893607609,58.2542214258865 47.75531914876774,58.50364503491437 48.952127659576945,58.39279012582847 50.36436170199886,58.72535471775336 52.949468084960245,58.2542214258865 53.882978723268025,57.58909068381763 53.954787233960815,58.30964891426265 55.654255319037475,58.55907247256255 57.976063829730265,58.39279012582847 58.88563829776831,58.891636861342704 58.933510638191365,59.22420084348414 60.82446808507666,59.05791890324326 61.44680851045996,59.55676441939431 63.76861702115275,59.72304605485988 66.52127659553662,59.72304605485988 66.97606382961385,59.50133718500729 66.6648936169222,56.7022471652308 66.01861702115275,57.03481382346945 65.44414893607609,56.09254056963255 64.5824468084611,55.732258757198 63.76861702115275,55.95397069820319 62.35638297861442,56.81310276314616 61.207446808344685,57.06252769328421 60.537234042421915,57.00709995077341 58.550531914806925,55.870828741492005 57.59308510622941,55.59368870241451 55.869680850883015,56.06482660092297 54.648936170036905,56.72996106898063 53.691489361575805,56.8408166556037 52.375,57.339666236395715 52.51861702115275,57.03481382346945 51.58510638284497,56.314252216980094 51.489361702115275,55.870828741492005 51.03457446792163,55.67683074375964 49.742021276499145,55.95397069820319 48.6648936169222,55.53826066068723 46.917553191422485,56.06482660092297 46.12765957438387,55.84311475031427 45.4574468084611,56.14796849832055 44.571808510576375,55.870828741492005 43.2074468084611,55.95397069820319 42.489361702115275,56.2311103703978 40.7898936169222,55.482832607696764 40.454787233960815,54.374269176623784 39.80851063830778,53.847699964710046 38.82712765946053,52.15712876463658 38.013297872268595,50.18940151645802 35.81117021269165,50.18940151645802 34.734042553114705,50.63283425121335 34.9973404253833,53.127129917935235 34.566489361575805,54.40198331748252 34.82978723407723,54.706838680198416 34.32712765946053,55.53826066068723 33.92021276592277,55.759972759726224 31.50265957438387,55.67683074375964 30.497340425499715,55.482832607696764 29.61170212761499,55.67683074375964 29.204787233960815,56.09254056963255 28.27127659576945,56.17568245853181 27.385638297884725,55.759972759726224 26.78723404253833,55.981684678117745 25.781914893654175,55.23340622946853 23.603723404114135,55.12254998800927 22.47872340423055,55.34426242572954 20.99468085099943,54.95626554105547 20.563829787191935,54.65141045776545 18.481382978730835,54.65141045776545 16.925531914806925,59.11334622793947 17.14095744676888,59.47362356353551 19.29521276592277,59.19648719383986 19.845744680729695,58.75306841536076 21.80851063830778,58.2542214258865 25.542553191422485,57.81080111177289 21.52127659576945,58.39279012582847 19.77393617015332,58.780782110319706 19.31914893607609,59.25191449045087 17.52393617015332,59.58447803228046 16.997340425499715,59.52905080362689 17.04521276592277,58.94706421994488 16.75797872338444,60.388171580736525 15.704787233960815,62.30039841137477 15.130319148884155,64.43431683562812 14.24468085099943,66.09709881304298 13.0,69.94917136130971" stroke="#ff0000" stroke-linecap="round" stroke-linejoin="round" stroke-width="0.5"><title>2024-09-22 21.7km</title><desc>12471705291</desc></polyline><polyline fill="none" points="138.42622338444926,68.01083838455088 138.70862906251568,67.10001504990214 139.15240941359662,66.5161520352267 139.2532685843762,65.76880520743725 139.61636159883346,64.90468240174232 139.69704893545713,64.25074946547102 141.31079566688277,59.860008599454886 141.43182667170186,59.62645619857358 141.73440418380778,59.41625883436063 141.81509152043145,58.785665585673996 142.25887187151238,58.411979879281716 144.7601793052163,58.52875672793016 145.5468808368314,58.43533525375824 147.07994023163337,58.762310246849665 148.33059394860175,58.575467450747965 149.90399701159913,58.83237625610491 150.32760552864056,58.738954905667924 151.5379155772971,58.879086917149834 151.73963391862344,59.112640079227276 152.04221143072937,59.15935068311228 154.14008218166418,59.20606127748033 154.98729921563063,59.06592946581077 155.39073589851614,59.20606127748033 156.17743743001483,59.27612715115538 156.68173328356352,59.22941657106276 157.10534180060495,59.0425741555955 159.2838998879306,59.18270598151139 160.25214792683255,58.99586352793267 161.20022413157858,58.94915289073833 161.66417631681543,58.94915289073833 162.22898767283186,59.135995382326655 164.00410907738842,58.9725082104851 165.6783713112818,59.25277186227322 166.36421367211733,59.22941657106276 167.02988419879694,59.34619300349732 167.81658573029563,59.27612715115538 168.3007097496884,59.649811449387926 168.32088158396073,59.860008599454886 169.69256630563177,59.71987718748278 170.21703399333637,60.04685034893919 170.58012700791005,60.11691596570017 174.09002614871133,60.30375750582607 175.03810235345736,60.186981561157154 176.934254762833,59.55639043186966 177.3175196115626,59.62645619857358 178.16473664552905,59.533035171582014 179.61710870370734,58.9725082104851 180.0608890549047,58.879086917149834 180.46432573790662,58.411979879281716 181.53343294735532,58.20178140178905 182.5218528204132,58.29520297111594 183.0664923422737,58.45869062584825 185.22487859555986,58.318558357525035 185.74934628326446,58.20178140178905 186.13261113187764,57.94487188993662 186.4755323122954,58.27184758237854 187.0,58.225136797715095 185.89054912212305,57.45440747705288 185.85020545392763,57.641251186592854 186.09226746368222,57.898161038639955 185.70900261495262,58.17842600350559 185.00298841984477,58.34191374150396 183.18752334697638,58.48204599560995 181.93686963024084,58.99586352793267 181.73515128879808,58.9725082104851 181.55360478151124,58.575467450747965 181.29137093760073,56.75374221018865 180.88793425471522,55.2823381809867 180.34329473297112,55.39911662344821 180.3029510647757,55.77280723978765 179.9196862159297,55.796162883067154 179.5364213672001,56.19320845522452 178.99178184533957,56.1698528524139 178.30593948450405,56.33334202245169 178.20508031384088,56.49683107594319 178.32611131865997,56.800453294592444 178.28576765034813,57.12743061892979 177.66044079198036,57.12743061892979 177.35786327987444,56.917230963968905 177.1763167725876,56.63696445761889 177.27717594325077,56.19320845522452 176.0063503922429,56.30998643381463 175.82480388495605,56.89387543480552 175.94583488977514,56.40340877392737 175.8853193874238,56.05307480243209 175.64325737766922,55.842874162553926 175.32050803140737,55.842874162553926 174.75569667539094,56.02971918527328 174.85655584617052,56.917230963968905 174.63466567057185,56.89387543480552 174.0496824803995,57.29091910623538 173.5050429586554,56.87051990334294 172.96040343667846,56.82380883327278 172.4762794172857,56.96394201503426 171.99215539789293,57.314274594944436 171.2861412029015,57.6879620901891 170.27754949580412,57.921516465517925 169.36981695936993,57.7813838688744 168.62345909606665,57.3609855651157 168.1595069108298,56.917230963968905 167.3728053792147,56.63696445761889 165.9204333210364,56.96394201503426 165.51699663803447,57.29091910623538 165.05304445279762,57.431052002633805 164.66977960406803,57.71131753840018 164.26634292129893,57.804739307568525 163.8427344042575,57.7813838688744 163.76204706763383,57.54782935079129 163.64101606281474,57.524473885889165 163.1770638775779,57.734672984224744 162.7937990288483,57.6879620901891 162.5315651849378,57.431052002633805 162.20881583867595,57.314274594944436 162.18864400452003,56.98729753706721 161.74486365332268,56.75374221018865 161.099364960799,56.87051990334294 160.59506910736673,56.917230963968905 159.6671647366602,56.520186645546346 158.29548001498915,57.08071960113011 157.5894658199977,56.87051990334294 157.10534180060495,57.12743061892979 156.35898393730167,56.94058649067301 155.93537542026024,57.08071960113011 155.18901755695697,57.057364088715985 154.54351886443328,57.267563615198014 153.99887934257276,56.96394201503426 153.4138961524004,56.84716436949384 153.17183414276224,56.68367556577141 152.82891296222806,55.842874162553926 152.8894284646958,55.65602898763609 152.22375793813262,54.95535822559032 151.61860291368794,53.624077878994285 150.7713858797215,52.129297751991544 150.40829286526423,52.05922969446692 148.18939110951032,52.24607780024235 147.94732909975573,52.4796377185412 147.88681359728798,52.736553353825 148.22973477770574,53.90434806799749 148.1692192753544,55.16555967902241 147.84646992909256,55.679384642789955 148.0280164363794,56.0063635657134 147.90698543156032,56.30998643381463 147.66492342180572,56.6603200128593 147.40268957801163,56.82380883327278 146.35375420260243,56.73038666440698 145.08292865159456,56.75374221018865 144.4979454614222,56.63696445761889 143.77175943227485,56.707031116297 143.36832274938934,57.15078612428624 142.84385506168474,57.057364088715985 142.6623085543979,57.220852625963744 142.1580127008492,57.12743061892979 141.81509152043145,57.197497127752285 141.41165483754594,57.12743061892979 140.8266716473736,56.75374221018865 140.62495330604725,56.473475503968075 140.40306313033216,56.40340877392737 138.78931639890652,56.380053192478954 137.7000373553019,56.49683107594319 137.11505416524597,56.23991965383175 136.44938363844994,56.09978602951742 136.22749346285127,55.88958543255285 134.47254389245063,55.842874162553926 133.98841987305786,56.84716436949384 133.0,59.55639043186966 133.02017183427233,59.860008599454886 133.20171834144276,60.04685034893919 134.73477773636114,59.81329813829507 135.01718341431115,59.71987718748278 135.40044826304074,59.392903559753904 135.58199477032758,59.439614106551744 136.30818079959136,59.29948243760737 137.17556966771372,58.99586352793267 137.53866268217098,58.99586352793267 138.89017556980252,58.69224421615945 140.14082928653806,58.622178164019715 140.84684348164592,58.225136797715095 141.00821815477684,58.01493814896094 141.93612252536695,57.99158273162902 142.50093388126697,58.24849219128373 143.91296227124985,58.505401362941484 145.74859917827416,58.411979879281716 147.30183040723205,58.69224421615945 148.8147179678781,58.505401362941484 149.82330967497546,58.738954905667924 150.58983937255107,58.622178164019715 150.9125887188129,58.66888886784727 151.5580874113366,58.80902092211181 151.77997758693527,59.0425741555955 154.01905117672868,59.18270598151139 154.8259245424997,58.99586352793267 156.07657825935166,59.22941657106276 156.70190511771943,59.15935068311228 157.00448262994178,58.9725082104851 159.18304071726743,59.18270598151139 160.21180425852071,58.879086917149834 160.87747478520032,58.94915289073833 161.68434815097135,58.8557315877988 162.22898767283186,58.99586352793267 163.49981322383974,58.90244224402704 163.68135973112658,58.8557315877988 163.82256257010158,58.52875672793016 164.14531191636343,58.411979879281716 164.46806126274168,58.66888886784727 164.38737392611802,58.90244224402704 164.52857676509302,59.01921884296462 166.727306686691,59.18270598151139 167.7762420619838,59.112640079227276 168.24019424733706,59.462969376385445 168.24019424733706,59.71987718748278 168.34105341811664,59.766587667618296 169.7127381397877,59.57974568984355 170.05565932020545,59.69652194371156 170.43892416893505,60.00013992575987 172.94023160263896,60.257047135120956 174.87672768032644,60.21033675482613 175.15913335827645,60.02349513860827 174.89689951448236,57.617895731236786 174.67500933876727,57.641251186592854 174.41277549497318,57.898161038639955 173.9286514755804,57.15078612428624 173.5453866268508,56.87051990334294 173.16212177823763,56.75374221018865 172.5973104222212,56.87051990334294 171.50803137850016,57.54782935079129 170.3784086664673,57.921516465517925 169.26895778859034,57.734672984224744 168.36122525215615,56.98729753706721 167.41314904752653,56.63696445761889 165.85991781856865,57.10407511118683 164.83115427719895,57.6879620901891 164.46806126274168,57.75802842773555 162.91483003366739,57.75802842773555 162.39036234596279,57.3609855651157 162.1483003362082,57.29091910623538 162.1281285021687,56.96394201503426 162.0070974973496,56.84716436949384 161.52297347784042,56.800453294592444 160.8371311170049,56.98729753706721 160.1916324243648,56.707031116297 159.6469929026207,56.61360889990465 159.04183787829243,56.75374221018865 158.53754202474374,57.03400857381348 158.17444901005365,57.03400857381348 157.71049682493322,56.87051990334294 157.0448262981372,57.17414162721252 156.48001494212076,56.96394201503426 156.03623459103983,57.08071960113011 155.39073589851614,57.01065305659722 154.5636906985892,57.24420812174503 153.95853567437734,56.94058649067301 153.373552484205,56.7770977535838 153.43406798667274,56.59025333990576 153.43406798667274,56.68367556577141 153.19200597691815,56.75374221018865 152.80874112818856,55.842874162553926 152.8490847965004,55.585962007782655 151.75980575277936,54.18461791437585 150.7713858797215,52.19936578812485 150.3881210311083,52.03587367046566 148.37093761679716,52.222721795376856 147.92715726571623,52.456281737438985 148.22973477770574,54.558310510008596 147.80612626089714,55.70274029558641 148.0481882704189,55.98300794386887 147.56406425114255,56.68367556577141 147.14045573410112,56.84716436949384 146.27306686597876,56.707031116297 145.30481882707682,56.800453294592444 144.69966380286496,56.63696445761889 143.9533059395617,56.68367556577141 143.63055659329984,56.450119929693756 143.24729174457025,56.380053192478954 142.56144938373473,56.40340877392737 142.25887187151238,56.707031116297 141.8554351887433,58.27184758237854 141.91595069109462,58.505401362941484 142.05715353018604,58.552112090575974 142.33955920813605,58.318558357525035 143.16660440794658,58.24849219128373 144.33657078829128,58.43533525375824 145.70825550996233,58.34191374150396 147.12028390006162,58.69224421615945 148.61299962643534,58.52875672793016 149.84348150913138,58.762310246849665 150.6503548749024,58.59882280859165 151.5580874113366,58.785665585673996 151.6992902503116,59.01921884296462 153.57527082553133,59.15935068311228 155.10833022056613,58.99586352793267 156.17743743001483,59.18270598151139 157.10534180060495,58.99586352793267 158.43668285408057,59.08928477369773 159.04183787829243,59.25277186227322 160.23197609279305,58.92579756853229 161.68434815097135,58.92579756853229 162.32984684349503,59.08928477369773 164.52857676509302,58.94915289073833 165.43630930152722,59.20606127748033 166.727306686691,59.29948243760737 167.7762420619838,59.15935068311228 168.24019424733706,59.48632464384718 168.26036608149298,59.766587667618296 169.5917071348522,59.55639043186966 169.95480014954228,59.649811449387926 170.33806499827188,60.02349513860827 174.09002614871133,60.257047135120956 174.9574150168337,60.21033675482613 175.11878968996461,60.04685034893919 174.91707134852186,57.54782935079129 174.75569667539094,57.54782935079129 174.53380649990868,57.828094743876136 174.37243182666134,57.87480560943368 173.88830780726857,57.057364088715985 173.2428091147449,56.7770977535838 172.63765409053303,56.84716436949384 172.11318640271202,57.220852625963744 170.9028763541719,57.828094743876136 170.01531565189362,57.94487188993662 169.04706761299167,57.617895731236786 167.99813223758247,56.800453294592444 167.33246171090286,56.6603200128593 165.90026148676407,57.10407511118683 165.57751214050222,57.3609855651157 164.5084049309371,57.7813838688744 163.76204706763383,57.6879620901891 163.6208442285424,57.524473885889165 163.1972357117338,57.6879620901891 162.87448636547197,57.6879620901891 162.4307060141582,57.33763008119422 162.10795666801278,57.24420812174503 162.1281285021687,56.89387543480552 161.82555098994635,56.7770977535838 161.56331714603584,56.75374221018865 160.77661561453715,56.98729753706721 160.01008591719437,56.59025333990576 159.6671647366602,56.543542212675675 159.22338438557927,56.59025333990576 158.3761673514964,57.01065305659722 157.73066865897272,56.82380883327278 157.10534180060495,57.10407511118683 156.35898393730167,56.917230963968905 155.93537542026024,57.057364088715985 155.3705640642438,56.98729753706721 154.5636906985892,57.220852625963744 154.07956667919643,56.96394201503426 153.45423982071225,56.82380883327278 153.33320881589316,56.707031116297 153.43406798667274,56.56689777743304 153.33320881589316,56.73038666440698 153.17183414276224,56.63696445761889 152.78856929403264,55.866229798746645 152.8490847965004,55.65602898763609 152.42547627945896,55.23562678731105 151.5580874113366,53.76421301632945 151.033619723632,52.38621377975505 150.7713858797215,52.03587367046566 150.56966753839515,51.98916161543457 148.00784460222349,52.222721795376856 147.92715726571623,52.6898414415482 148.10870377300307,53.086892392573645 148.20956294366624,54.60502204159275 147.84646992909256,55.63267333008116 147.98767276806757,55.91294106395799 147.66492342180572,56.49683107594319 147.20097123645246,56.800453294592444 146.212551363511,56.6603200128593 145.06275681743864,56.73038666440698 144.53828912973404,56.59025333990576 143.79193126643077,56.6603200128593 143.46918192016892,57.03400857381348 143.1867762421025,57.08071960113011 142.8035113933729,57.01065305659722 142.60179305193014,57.15078612428624 141.95629435940646,56.917230963968905 142.07732536422554,57.08071960113011 141.31079566688277,57.01065305659722 140.4232349646045,56.33334202245169 139.49533059401438,56.40340877392737 138.5069107209565,56.263275249511935 137.6798655212624,56.40340877392737 136.55024280922953,56.076430417160736" stroke="#4dd2ff" stroke-linecap="round" stroke-linejoin="round" stroke-width="0.5"><title>2024-09-17 15.3km</title><desc>12429392363</desc></polyline><polyline fill="none" points="20.63430725724902,129.87033849739237 21.117813383578323,128.63290279640933 21.372290292056277,127.51331355393631 21.77945334580727,126.71781330127851 22.441093308036216,124.5375421368517 22.771913289325312,124.06612999498611 23.20452403393574,123.09384002620936 23.357210179092363,122.3572545410425 24.095193214016035,120.14748683269136 24.4260131950723,119.52874884958146 24.731385485385545,119.351966325572 24.731385485385545,118.85108192102052 24.833176248706877,118.49751593676046 25.214891611598432,118.11448563283193 25.469368520309217,117.99663005268667 26.436380772851408,117.93770224464242 28.523091423208825,118.23234116498497 29.591894439188763,118.14394952039584 30.508011310128495,118.32073278256576 31.525918944273144,118.67429898286355 31.85673892556224,118.70376281341305 33.48539114033338,118.4680520852271 33.81621112162247,118.4680520852271 34.93590951920487,118.70376281341305 35.62299717240967,118.58590747334529 36.05560791713651,118.556443630805 36.61545711592771,118.73322664093575 37.07351555139758,118.67429898286355 37.2262016965542,118.76269046546076 37.40433553245384,119.05732854560483 39.69462770980317,119.2046474730887 40.05089538160246,119.14571991108824 40.58529688976705,119.1751836935291 41.425070688012056,119.02786475108587 41.730442978441715,119.02786475108587 42.08671065035742,119.14571991108824 43.155513666337356,119.23411124962149 43.715362865128554,119.1751836935291 44.12252591899596,118.96893715299666 44.555136663489975,119.02786475108587 45.03864278981928,118.99840095356922 45.394910461851396,119.11625612553325 46.794533459004015,119.26357502309838 47.2780395852169,119.2046474730887 47.91423185670283,118.96893715299666 48.67766258248594,118.99840095356922 49.21206409053411,118.91000954297488 49.8991517436225,118.88054573349655 50.61168708757032,119.05732854560483 51.731385485385545,118.96893715299666 52.06220546644181,119.08679233703879 52.18944392085541,119.26357502309838 52.393025447498076,119.11625612553325 53.05466540995985,118.96893715299666 53.18190386437345,119.05732854560483 53.79264844476711,119.08679233703879 54.78510838828515,119.29303879354848 55.5739868049277,119.29303879354848 56.59189443918876,119.41089384563384 57.55890669184737,119.23411124962149 57.83883129118476,119.52874884958146 58.06786050891969,119.7055312654702 58.16965127235744,119.97070468682796 58.296889726654626,120.00016838533338 59.620169651228935,119.7055312654702 59.92554194154218,119.7055312654702 60.40904806787148,119.85284986282932 60.714420358184725,120.20641419064486 61.01979264849797,120.29480520510697 61.65598491986748,120.26534153652028 62.72478793584742,120.4126598489238 65.52403393038549,120.4715871528606 66.7200754005462,120.38319619250251 66.97455230914056,120.20641419064486 66.77097078226507,118.79215428690077 66.84731385484338,118.05555784885655 66.66918001882732,117.20110363070853 66.46559849195182,117.17163964716019 66.08388312917668,117.55467119949753 65.93119698402006,117.55467119949753 65.44769085769076,116.70021550200181 65.09142318565864,116.37611095650936 64.7097078228835,116.19932650591363 64.27709707827307,116.14039833168499 63.69180018850602,116.2582546681806 63.131950989714824,116.75914356214344 61.70688030158635,117.46627934786375 61.04524033924099,117.58413514404674 60.51083883130923,117.58413514404674 59.97643732326105,117.46627934786375 59.391140433494,117.23056761134649 59.060320452437736,117.02431968436576 58.144203581498004,116.16986242029816 57.48256361926906,115.87522139929933 57.202639019698836,115.84575728062191 56.71913289348595,115.9636137370835 56.08294062211644,116.31718281831127 55.2431668236386,116.61182338919025 53.94533458992373,117.2894955634838 53.38548539113253,117.40735143166967 52.67295004718471,117.3778874691343 52.49481621105224,117.20110363070853 52.41847313847393,117.3778874691343 51.655042412807234,117.43681539123645 51.19698397733737,117.2894955634838 50.84071630530525,116.93592767059454 50.48444863338955,116.7886075877177 50.509896324248984,116.34664688885096 49.95004712534137,116.08147014549468 49.61922714416869,116.11093424013234 49.161168708698824,116.31718281831127 48.703110273345374,116.37611095650936 48.04147031100001,116.05200604788843 47.4816211120924,115.90468551486265 46.794533459004015,115.9636137370835 46.00565504236147,116.37611095650936 45.776625824626535,116.4645031413529 45.394910461851396,116.43503908268758 44.83506126294378,116.16986242029816 44.631479736068286,116.2582546681806 44.45334590005223,116.4645031413529 44.173421300714836,116.52343124942854 43.842601319542155,116.49396719684592 43.28275212063454,116.28771874474478 42.646559849148616,116.49396719684592 42.11215834110044,116.37611095650936 41.730442978441715,116.40557502108277 41.017907634261064,116.70021550200181 40.203581526875496,116.28771874474478 39.440150801092386,116.11093424013234 39.23656927421689,115.93414962742827 38.67672007542569,114.96183232666226 38.80395852972288,114.69665431388421 38.473138548550196,114.40201179220458 38.142318567377515,113.78326151994406 37.86239396792371,113.5180824266863 37.53157398675103,113.01718792048632 37.0226201696787,111.83860919059953 36.920829406240955,111.36717635407695 36.43732328002807,110.42430837606662 36.18284637131728,110.18859090129263 35.57210179080721,110.12966150257853 33.536286522168666,110.30644966257387 33.0782280866988,110.36537902534474 32.7219604147831,110.51270237949211 32.620169651228935,111.04306583327707 32.90009425068274,111.66182196690352 32.950989632401615,112.16271882003639 32.79830348736141,113.10558113173465 32.82375117810443,114.13683326615137 32.747408105409704,114.46094032053952 32.49293119693175,114.60826158884447 32.44203581532929,114.72611854950082 32.46748350607231,114.84397546204855 32.67106503294781,115.05022494363948 32.238454288453795,115.66897250586771 31.93308199814055,115.9636137370835 31.678605089429766,116.05200604788843 31.322337417514063,116.05200604788843 30.533459000987932,115.90468551486265 29.515551366610453,116.02254194731358 28.090480678714812,115.8162931589759 27.250706880236976,115.93414962742827 26.91988689918071,116.37611095650936 26.66540999058634,116.52343124942854 26.181903864257038,116.4645031413529 26.054665410076268,116.4645031413529 25.876531573943794,116.61182338919025 25.723845428787172,116.61182338919025 24.884071630542167,116.2582546681806 24.93496701226104,116.52343124942854 24.833176248706877,116.58235934562981 24.858623939566314,116.55289529910078 24.62959472183138,116.43503908268758 24.324222431750968,116.40557502108277 24.120640904759057,116.28771874474478 23.2554194155382,115.61004422363476 21.83034872764256,115.66897250586771 20.939679547562264,115.49218762319651 20.456173421349376,115.46272346551996 19.641847313847393,115.66897250586771 18.751178133883514,115.3448668050114 17.96229971712455,115.22701009642333 17.784165881224908,114.99129653535783 16.944392082863487,114.99129653535783 16.206409047939815,114.78504701182828 15.722902921726927,114.78504701182828 15.44297832227312,114.9323681150272 15.31573986809235,115.22701009642333 15.137606031959876,115.99307784365374 14.170593779534101,118.11448563283193 13.916116870823316,119.11625612553325 13.763430725666694,119.381430087029 13.712535344064236,119.58767633355455 13.763430725666694,119.91177728091134 14.094250706839375,120.08855946274707 14.80678605090361,120.00016838533338 15.035815268638544,120.05909577320563 16.231856738915667,119.79392243296024 16.4608859566506,119.49928510302561 16.74081055598799,119.32250256102998 16.868049010285176,119.26357502309838 17.04618284641765,119.29303879354848 17.504241281887516,119.11625612553325 18.140433553257026,119.02786475108587 18.420358152710833,118.70376281341305 18.445805843453854,118.82161810545949 18.59849198872689,118.85108192102052 19.387370405253023,118.85108192102052 20.125353440176696,118.73322664093575 21.499528746469878,118.3501966491167 22.899151743622497,118.23234116498497 23.30631479737349,117.93770224464242 23.738925541867502,117.73145482176915 23.891611687024124,117.43681539123645 24.34967012249399,117.40735143166967 24.705937794409692,117.43681539123645 24.807728557963856,117.64306302421028 24.807728557963856,117.58413514404674 25.03675777569879,117.61359908559825 25.1131008482771,117.52520725189243 25.291234684176743,117.61359908559825 25.69839773804415,117.90823833606555 26.25824693683535,117.84931051003514 27.276154571212828,118.08502174232854 28.14137606031727,118.11448563283193 29.642789820907637,117.99663005268667 29.94816211122088,118.02609395227046 31.118755890638568,118.37966051261174 31.754948162124492,118.49751593676046 32.34024505177513,118.43858823075425 33.027332704979926,118.23234116498497 33.35815268615261,118.20287728650146 34.045240339357406,118.29126891304622 34.83411875599995,118.52697978523793 36.157398680457845,118.3501966491167 37.07351555139758,118.58590747334529 37.32799245987553,118.88054573349655 39.69462770980317,119.05732854560483 40.6870876532048,119.02786475108587 41.45051837887149,118.88054573349655 41.730442978441715,118.91000954297488 42.11215834110044,119.05732854560483 42.9773798303213,119.14571991108824 43.68991517438553,118.99840095356922 44.07163053727709,118.76269046546076 44.300659754895605,118.73322664093575 44.7078228086466,118.79215428690077 45.11498586239759,118.79215428690077 45.36946277099196,118.96893715299666 45.70028275216464,118.96893715299666 46.66729500470683,119.14571991108824 47.2780395852169,119.05732854560483 48.06691800185945,118.79215428690077 48.83034872752614,118.91000954297488 49.61922714416869,118.79215428690077 50.15362865221687,118.82161810545949 50.22997172479518,118.91000954297488 50.63713477854617,118.99840095356922 51.807728557963856,118.85108192102052 52.16399622987956,118.91000954297488 52.16399622987956,119.11625612553325 52.80018850136548,118.91000954297488 53.207351555116475,118.91000954297488 54.759660697425716,119.23411124962149 55.49764373234939,119.1751836935291 56.66823751188349,119.23411124962149 57.38077285583131,119.08679233703879 57.711592836887576,119.14571991108824 57.88972667302005,119.23411124962149 58.22054665419273,119.5582125930523 58.22054665419273,119.85284986282932 59.620169651228935,119.64660380553687 60.281809613574296,119.73499499101308 60.51083883130923,119.91177728091134 60.587181903771125,120.05909577320563 60.94344957591966,120.26534153652028 62.80113100842573,120.32426887055044 65.34590009425301,120.32426887055044 65.90574929316062,120.4126598489238 66.82186616410036,120.32426887055044 66.97455230914056,120.23587786511052 67.0,120.11802314923261 66.77097078226507,118.52697978523793 66.64373232796788,117.05378368296078 66.41470311023295,117.083247678529 66.13477851089556,117.3778874691343 65.95664467476308,117.40735143166967 65.65127238456625,116.81807161032339 65.34590009425301,116.43503908268758 64.68426013190765,116.08147014549468 64.37888784171082,116.08147014549468 63.64090480678715,116.28771874474478 63.25918944389559,116.61182338919025 61.73232799244579,117.31895953498315 61.07068803010043,117.46627934786375 59.950989632401615,117.43681539123645 59.46748350607231,117.23056761134649 58.780395852867514,116.7886075877177 58.37323279923294,116.34664688885096 57.635249764309265,116.02254194731358 57.202639019698836,115.93414962742827 56.64278982090764,116.05200604788843 55.599434495787136,116.43503908268758 55.29406220559031,116.4645031413529 54.937794533441775,116.72967953354237 54.3270499529317,116.90646366000874 53.716305372305214,117.20110363070853 52.5966069746064,117.34842350360123 52.49481621105224,117.23056761134649 51.68049010366667,117.43681539123645 51.32422243163455,117.34842350360123 51.01885014132131,116.99485568271484 50.56079170596786,116.7886075877177 50.509896324248984,116.37611095650936 50.179076343076304,116.11093424013234 49.72101790760644,116.08147014549468 49.1357210179558,116.34664688885096 48.83034872752614,116.37611095650936 48.11781338369474,116.05200604788843 47.50706880306825,115.87522139929933 46.81998114986345,115.9636137370835 45.67483506118879,116.49396719684592 45.47125353442971,116.4645031413529 44.809613572084345,116.16986242029816 44.07163053727709,116.4645031413529 43.43543826579116,116.19932650591363 43.18096135719679,116.16986242029816 42.570216776570305,116.40557502108277 41.95947219606023,116.34664688885096 41.170593779417686,116.6412874298112 40.94156456168275,116.6412874298112 40.203581526875496,116.19932650591363 39.618284637108445,116.11093424013234 39.21112158347387,115.75736490671989 38.75306314788759,114.9323681150272 38.80395852972288,114.66719007518259 38.269557021558285,114.01897606541752 37.86239396792371,113.45915370617877 37.506126296008006,112.81093698943732 37.07351555139758,112.22164780454477 36.64090480678715,111.21985343509004 36.51366635248996,110.66002565863892 36.335532516473904,110.30644966257387 35.87747408100404,110.12966150257853 33.409048067755066,110.33591434554546 32.950989632401615,110.42430837606662 32.747408105409704,110.60109635602566 32.7219604147831,110.9546719918435 33.00188501412049,111.77968012812198 32.92554194154218,112.39843468609615 33.00188501412049,113.25290309023694 32.90009425068274,113.78326151994406 32.7219604147831,114.1662975588697 32.7219604147831,114.40201179220458 32.543826578650624,114.69665431388421 32.59472196048591,114.84397546204855 32.747408105409704,114.96183232666226 32.747408105409704,115.10915333995945 32.41658812435344,115.8162931589759 32.28934967017267,115.93414962742827 32.060320452437736,116.05200604788843 29.057492931257002,116.02254194731358 28.65032987750601,115.93414962742827 28.21771913289558,115.93414962742827 27.70876531570684,116.05200604788843 27.37794533453416,116.02254194731358 27.021677662502043,116.43503908268758 26.8435438266024,116.49396719684592 26.614514608867466,116.55289529910078 26.23279924597591,116.43503908268758 25.952874646522105,116.58235934562981 25.316682375152595,116.4645031413529 24.731385485385545,116.2582546681806 24.247879359056242,116.22879058853141 23.53534401510842,115.87522139929933 23.229971724795178,115.61004422363476 22.644674835028127,115.5805800780654 21.983034872682765,115.66897250586771 20.71065032982733,115.52165177781717 20.405278039514087,115.52165177781717 19.641847313847393,115.6984366425313 18.445805843453854,115.31540263240458 18.1913289349759,115.28593845680007 17.835061262943782,114.96183232666226 16.28275212063454,114.75558278217795 15.49387370410841,114.84397546204855 15.061262959381565,116.22879058853141 14.67954759649001,117.02431968436576 14.323279924457893,118.23234116498497 13.788878416642547,119.58767633355455 13.814326107385568,120.0296320807829 13.687087653088383,120.38319619250251 13.737983034807257,121.03139594150707 13.330819981056266,121.44388593474287 13.178133835899644,121.50281302869553 13.0,122.3572545410425" stroke="#4dd2ff" stroke-linecap="round" stroke-linejoin="round" stroke-width="0.5"><title>2024-09-15 10.2km</title><desc>12412483970</desc></polyline><polyline fill="none" points="140.7433962263167,129.68796184659004 141.86415094335098,126.94532995854388 142.19528301886749,125.85416811352479 142.44999999995343,125.0579122803174 143.16320754704066,123.49488520331215 144.48773584899027,119.83795870377799 144.89528301882092,118.9237198625924 145.55754716985393,118.36337850088603 147.41698113211896,118.54032852174714 149.9641509434441,118.48134519348969 152.4603773583658,118.89422823901987 154.0905660376884,118.80575335025787 155.8735849056393,118.83524498291081 157.45283018855844,119.3955854313972 160.63679245277308,119.48406013991917 162.3179245282663,119.5135517033923 163.66792452824302,119.48406013991917 164.1518867922714,119.24812752378057 164.99245283019263,119.27761911126436 167.2594339621719,119.48406013991917 168.15094339614734,119.18914433970349 169.8830188678112,119.10066954095964 170.7490566036431,119.33660227735527 172.1754716980504,119.27761911126436 172.3792452829657,119.57253482140368 173.27075471682474,119.33660227735527 175.74150943383574,119.5135517033923 177.57547169795725,119.48406013991917 178.03396226407494,119.8084671733377 178.26320754701737,120.0443993328372 178.39056603761856,120.30982278272859 179.71509433956817,120.07389083923772 180.65754716971423,120.57524598922464 182.66981132060755,120.78168609272689 185.77735849039163,120.87016037770081 187.0,120.54575453381403 186.59245283005293,117.53761030721944 186.3886792451376,117.53761030721944 186.00660377345048,117.89151125002536 185.11509433935862,116.71183975849999 184.12169811304193,116.4759048834967 182.82264150923584,117.27218431627261 181.21792452817317,117.97998641809681 180.30094339617062,117.86201952132978 179.33301886776462,117.4786267747113 177.57547169795725,116.3579373738321 176.58207547152415,116.29895360104274 175.23207547166385,116.88879078865284 173.88207547157072,117.65557733626338 172.6849056603387,117.74405257642502 172.25188679236453,117.95049469842343 171.8698113206774,117.65557733626338 171.43679245270323,117.68506908594281 170.5707547168713,117.18370893181418 170.5452830187278,116.7413316044258 170.03584905643947,116.41692113468889 169.0679245282663,116.6823479096347 168.63490566029213,116.65285605782992 167.89622641494498,116.29895360104274 166.72452830185648,116.3579373738321 165.6037735848222,116.97726626312942 164.9669811319327,116.62336420291103 164.40660377359018,116.85929895783192 163.69339622627012,116.88879078865284 162.69999999983702,116.85929895783192 161.60471698106267,116.829807123926 160.94245283014607,117.0952335204056 159.46509433956817,116.53488862022641 158.6754716980504,115.32571961457143 158.72641509433743,114.94232350966195 157.8603773585055,113.93959283496952 157.1981132074725,112.73041299101897 156.9179245281266,112.55345941949054 156.68867924518418,111.55072047174326 156.07735849055462,110.43000812642276 153.96320754720364,110.66594792791875 152.84245283016935,110.81341020634864 152.6132075471105,111.1968117787037 152.86792452819645,112.02259805620997 152.6132075471105,114.82435537516722 152.51132075476926,115.17825963429641 152.51132075476926,115.67962326089037 152.00188679236453,116.4759048834967 150.6518867923878,116.3579373738321 149.3018867924111,116.3579373738321 148.23207547166385,116.23996981617529 147.3405660376884,116.26946171012241 147.06037735845894,116.65285605782992 146.47452830185648,116.88879078865284 145.99056603759527,116.88879078865284 145.0226415094221,116.71183975849999 144.13113207544666,116.71183975849999 143.23962264147121,115.97454263569671 142.2207547168946,115.97454263569671 140.84528301877435,115.82708298583748 139.62264150939882,116.00403455659398 138.01792452821974,115.59114738984499 137.66132075467613,115.29622762458166 135.39433962269686,115.38470358567429 134.06981132086366,118.89422823901987 133.76415094349068,120.30982278272859 134.22264150937553,120.54575453381403 136.26037735852879,120.16236534059863 136.71886792453006,119.74948410334764 137.279245282989,119.57253482140368 138.85849056614097,119.24812752378057 141.68584905657917,118.74677007604623 143.08679245284293,118.45185352486442 143.79999999993015,117.97998641809681 144.7169811320491,118.06846155924723 144.94622641510796,117.95049469842343 145.73584905662574,118.36337850088603 147.26415094337426,118.54032852174714 149.73490566038527,118.45185352486442 151.64528301893733,118.83524498291081 154.06509433954488,118.80575335025787 155.44056603766512,118.86473661242053 156.96886792441364,119.04168632693472 159.8726415092824,119.5135517033923 161.19716981123202,119.30711069577956 162.1396226414945,119.48406013991917 163.61698113195598,119.45456857341924 164.43207547150087,119.30711069577956 166.2405660377117,119.5135517033923 167.33584905648604,119.42507700395072 168.20188679231796,119.1596527430811 169.9084905659547,119.13016114357742 170.7490566036431,119.3955854313972 172.32830188656226,119.13016114357742 172.7103773583658,118.9827031006862 172.91415094339754,118.95321148319636 173.47452830185648,119.30711069577956 174.79905660368968,119.54304326392594 176.02169811318163,119.60202637600014 177.72830188658554,119.42507700395072 178.1103773583891,119.8084671733377 178.21226415096316,120.19185683506657 179.56226415082347,120.07389083923772 180.35188679234125,120.22134832644952 181.090566037572,120.63422889087815 185.19150943378918,120.81117752403952 186.92358490545303,120.6932117806864 186.8726415092824,120.1328738432203 186.59245283005293,117.50811854243511 185.98113207530696,117.89151125002536 185.59905660361983,117.33116789074847 184.60566037730314,116.4759048834967 183.76509433949832,116.59387234499445 182.18584905646276,117.62608558344073 180.70849056588486,117.97998641809681 179.38396226393525,117.68506908594281 178.23773584887385,116.65285605782992 177.3207547168713,116.26946171012241 176.4801886791829,116.26946171012241 175.76698113197926,116.56438048416749 174.87547169800382,117.06574171062675 173.57641509419773,117.65557733626338 172.50660377345048,117.62608558344073 172.40471698099282,117.4786267747113 171.30943396221846,117.62608558344073 170.82547169795725,117.27218431627261 170.44339622638654,116.94777444130159 170.16320754704066,116.44641301064985 169.14433962258045,116.65285605782992 168.5839622640051,116.62336420291103 167.41226415080018,116.18098601931706 166.69905660359655,116.3579373738321 165.4509433960775,116.77082344720839 164.43207547150087,116.77082344720839 163.82075471698772,116.829807123926 162.72547169809695,116.80031528705149 161.47735849046148,116.85929895783192 160.81509433954488,117.00675808195956 159.41415094339754,116.44641301064985 158.72641509433743,115.32571961457143 158.24245283007622,114.470450683526 157.65660377359018,113.58568706188817 157.0452830187278,112.43549031179282 156.51037735841237,110.57747052493505 155.84811320749577,110.31203815338085 153.12264150939882,110.66594792791875 152.587735848967,111.13782695445116 152.84245283016935,112.49447487172438 152.89339622633997,113.85111643225537 152.66415094328113,114.55892689703614 152.4349056603387,115.17825963429641 152.53679245267995,115.53216346079716 151.9254716980504,116.44641301064985 150.70283018867485,116.38742925575934 147.92641509429086,116.26946171012241 147.21320754708722,116.3579373738321 146.57641509431414,116.91828261644696 145.8377358490834,116.97726626312942 144.74245283007622,116.62336420291103 144.2075471697608,116.77082344720839 143.29056603764184,115.97454263569671 142.44999999995343,115.8860668547859 140.84528301877435,115.79759104680852 139.2915094338823,115.8860668547859 138.22169811313506,115.73860715984483 136.10754716966767,115.17825963429641 135.11415094335098,116.03352647460997 134.88490566029213,116.91828261644696 134.22264150937553,118.45185352486442 133.71320754708722,120.0149078235263 133.56037735857535,120.78168609272689 133.43301886785775,120.6932117806864 133.56037735857535,120.72270322102122 133.56037735857535,121.28304001703509 133.20377358491533,121.75490174116567" stroke="#4dd2ff" stroke-linecap="round" stroke-linejoin="round" stroke-width="0.5"><title>2024-09-07 10.2km</title><desc>12344991930</desc></polyline><polyline fill="none" points="19.927038626396097,190.1967080606555 20.622317596455105,188.79545153010986 21.36909871234093,186.7979040297796 21.600858369027264,186.02273267219425 21.85836909862701,185.27737366201472 22.321888411883265,183.84627904265653 22.78540772513952,182.95184135300224 23.68669527885504,180.41758639138425 24.356223175884224,179.19517321357853 24.871244635083713,177.97275493104826 25.772532188682817,177.85349433746887 27.240343347657472,178.0323852095753 30.716738197254017,178.27090620232048 32.879828326171264,178.15164573019138 33.47210300411098,178.2410910888575 35.58369098708499,178.33053642010782 36.278969957027584,178.50942700071028 36.89699570799712,178.68831747191143 37.721030042856,178.8672078338568 39.98712446342688,179.01628305204213 40.99141630891245,178.77776266663568 41.81545064365491,178.92683793025208 43.90128755348269,178.68831747191143 45.13733905565459,178.8672078338568 46.32188841199968,179.0460980865173 47.40343347634189,178.8970228835533 47.99570815451443,178.6286873270583 49.69527896982618,178.68831747191143 50.98283261794131,178.8970228835533 52.32188841199968,178.50942700071028 52.96566523599904,178.68831747191143 53.86695278971456,178.8672078338568 55.334763948456384,179.0460980865173 57.523605150170624,179.01628305204213 57.935622317600064,179.31443326047156 58.27038626605645,179.82128791790456 59.12017167371232,179.82128791790456 60.407725321827456,179.85110287036514 64.34763948491309,180.35795659874566 66.79399141634349,180.23869697685586 66.69098712434061,178.00257007178152 66.45922746765427,176.92922309000278 65.9442060085712,177.31682106520748 65.09442060079891,176.09439493875834 64.24463519302662,175.8260568131518 63.13733905577101,176.42236342505203 61.978540772455744,177.10811452695634 59.4291845492553,177.10811452695634 57.78111587965395,176.0049489243247 56.622317596455105,175.79624145067646 55.02575107291341,176.3031021998613 54.09871244628448,176.75033154370612 52.60515021451283,177.16774498159066 51.70386266079731,177.52552745465073 51.446351931313984,177.2870058545377 50.7768240342848,176.80996207139106 50.31330472091213,176.42236342505203 49.87553648056928,175.8856875289639 48.896995708113536,176.0645796036406 48.22746781120077,176.0049489243247 46.8884120171424,175.67697997036157 45.111587982741185,176.1838409260381 44.41630901279859,176.0645796036406 43.746781115885824,176.42236342505203 42.45922746765427,176.3031021998613 40.63090128742624,176.48199401938473 39.13733905577101,175.9453182326979 38.699570815311745,175.31919523800025 38.39055793976877,174.39491598855238 36.94849785394035,172.33763879461912 36.61373390536755,171.4729817454936 36.20171673805453,170.31016306587844 35.789699570741504,169.89273984904867 33.21459227451123,169.92255581289646 32.31330472079571,170.04181963767041 32.23605150205549,170.4890585480607 32.59656652342528,171.80095540956245 32.57081545051187,173.3215557782678 32.33905579382554,174.0371296891244 32.00429184548557,174.60362446130603 32.31330472079571,175.05085640170728 31.489270386169665,175.97513358001015 30.072961373254657,175.73661071658717 27.93562231748365,175.5577184414724 26.51931330456864,176.15402559997165 25.643776823882945,176.1838409260381 25.360515021253377,176.39254812325817 24.021459227311425,176.33291751064826 23.06866952776909,175.67697997036157 22.39914163085632,175.25956440673326 20.23605150205549,175.17011813711724 18.3304721028544,175.1403027077613 17.403433476225473,174.81233278519358 15.98712446342688,174.57380897420808 14.982832617941312,174.6632554261014 13.772532188682817,177.67460335601936 13.180257510626689,179.58276818846934 13.669527896796353,180.089622381347 15.291845493367873,179.73184304212919 15.858369098510593,179.40387826380902 16.527896995539777,179.2548032430641 17.660944205825217,179.07591311796568 18.89699570799712,178.71813253988512 19.87553648056928,178.5988722499751 21.394849785254337,178.41998172414606 22.527896995656192,178.30072131269844 23.12017167371232,177.85349433746887 24.04721030034125,177.4658970728633 24.3304721028544,177.25719064089935 24.459227467654273,177.34663627282134 25.30901287542656,177.79386402247474 26.055793991312385,177.88330949036754 27.600858369027264,178.00257007178152 29.14592274662573,177.88330949036754 31.10300429177005,178.2410910888575 33.111587982741185,178.15164573019138 34.708154506399296,178.39016662578797 36.74248927028384,178.44979681930272 36.974248926970176,178.80757772544166 37.59227467805613,178.7479476047156 40.34763948491309,178.95665297383675 41.84120171656832,178.92683793025208 43.41201716719661,178.8672078338568 44.33905579382554,178.8970228835533 45.39484978525434,178.83739278119174 46.5536480685696,178.95665297383675 47.635193133028224,178.68831747191143 48.6652360514272,178.71813253988512 49.74678111576941,178.6286873270583 52.03862660937011,178.71813253988512 52.19313304696698,178.5988722499751 52.733905579312705,178.65850240099826 55.412017167313024,178.8970228835533 56.75107296137139,179.13554317181115 57.85836909862701,179.16535819415003 58.244635193026625,179.73184304212919 58.60515021451283,179.61258316528983 59.635193133028224,179.49332323975977 60.587982832454145,180.0001775874989 65.66094420594163,180.29832679391257 66.94849785394035,180.0299925217987 66.35622317600064,176.95903833705233 65.96995708148461,177.2870058545377 64.7081545063993,175.85587217260036 63.96137339039706,175.85587217260036 62.957081545027904,176.51180931204 61.46351931313984,177.25719064089935 59.944206008454785,177.137929755816 57.90987124457024,175.85587217260036 56.57081545062829,175.79624145067646 55.05150214594323,176.3627328184375 54.15021459222771,176.8397773305769 52.86266094411258,177.2273754242342 52.52789699565619,177.04848406015662 51.13733905565459,177.04848406015662 50.33905579394195,176.60125517167035 49.824034334742464,175.8856875289639 47.557939914171584,175.76642608520342 46.39914163085632,175.8856875289639 45.24034334742464,176.21365624910686 44.622317596455105,175.91550288235885 44.08154506422579,176.2434715689742 43.51502145919949,176.3031021998613 42.97424892685376,175.97513358001015 41.686695278971456,176.1242102709366 40.52789699565619,176.45217872373178 39.24034334754106,175.85587217260036 39.08583690971136,175.64716459272313 38.545064377598464,175.2893798238365 38.23605150205549,174.69307090397342 38.467811158741824,174.33528496898361 37.721030042856,173.64952737122076 37.28326180251315,173.0233994658629 36.81974248914048,172.2183759052714 36.45922746777069,170.39961082060472 35.48068669508211,169.8032919393736 33.34334763942752,170.04181963767041 32.36480686685536,170.071635586326 32.18454935611226,170.87666505094967 32.36480686685536,171.35371850366937 32.467811158741824,173.26192454015836 32.03004291828256,174.0371296891244 32.23605150205549,174.84214824790251 31.90128755348269,175.76642608520342 30.6652360514272,175.91550288235885 29.63519313291181,175.85587217260036 28.09012875519693,175.70679534503142 26.828326180111617,175.70679534503142 26.36480686685536,176.2434715689742 25.74678111576941,176.1838409260381 25.103004291653633,176.27328688590205 24.40772532171104,176.09439493875834 23.866952789598145,176.1242102709366 22.733905579312705,175.40864146203967 21.36909871234093,175.34901064899168 19.669527896796353,175.25956440673326 18.150214592111297,175.11048727546586 17.14592274662573,174.78251731942873 15.060085836797953,174.54399348419975 14.751072961254977,175.2893798238365 14.004291845369153,177.137929755816 13.463519313139841,178.50942700071028 13.154506437596865,179.79147296235897" stroke="#4dd2ff" stroke-linecap="round" stroke-linejoin="round" stroke-width="0.5"><title>2024-08-31 10.2km</title><desc>12285168865</desc></polyline><polyline fill="none" points="139.8210526314797,190.23085867243935 141.00956937798765,187.65826495038345 141.1904306219658,186.88049962208606 141.6813397129299,185.41470552101964 141.86220095690805,184.69676288447226 142.5598086124519,182.87198411813006 144.52344497607555,178.2651151556056 145.50526315788738,177.84630530324648 147.67559808609076,178.17537023761543 149.48421052633785,178.05571030409192 151.24114832526539,178.44460490954225 154.49665071768686,178.50443480315153 156.8478468899848,178.7138393347268 159.30239234457258,179.0429032970569 161.05933014361653,178.86341390875168 162.76459330145735,179.10273306880845 163.74641148326918,178.80358408836764 164.90909090917557,178.9531586166704 166.45933014363982,179.10273306880845 167.64784689003136,178.7437542557018 168.7588516746182,178.86341390875168 169.9732057416113,178.7138393347268 170.46411483245902,178.92324371705763 172.04019138764124,178.77366917356267 172.1952153109014,178.92324371705763 172.60861244017724,178.7138393347268 175.6574162679026,179.01298840667005 177.28516746417154,179.01298840667005 177.93110047851223,179.40188174461946 178.1636363636935,179.76085975338356 179.01626794261392,179.64120046576136 180.3339712918969,179.7907745676348 180.51483253587503,180.23949641594663 182.50430622010026,180.35915545973694 186.76746411493514,180.32924070337322 187.0,179.9403485932853 186.66411483252887,177.00868380698375 186.30239234445617,177.12834416693659 185.96650717698503,177.3377496796893 185.3464114832459,176.3505509554816 184.4162679426372,175.84199274197454 183.71866028709337,176.08131436395342 181.96172248804942,177.09842908155406 181.23827751202043,177.36766474082833 180.25645933009218,177.30783461558167 178.6028708133381,176.26080545244622 177.6727272727294,175.7522470835247 176.45837320573628,175.84199274197454 175.24401913874317,176.23089027858805 174.41722488042433,176.64970243439893 173.20287081343122,177.18817432876676 171.44593301438726,177.2180894050107 170.9808612440247,177.06851399308653 170.30909090908244,176.58987216305104 169.9732057416113,175.8719079553848 168.8363636363065,176.1112295529456 167.88038277509622,175.7522470835247 167.0277511960594,175.63258616282837 165.8133971291827,176.26080545244622 165.2449760765303,176.32063579079113 163.90143540664576,176.29072062313207 162.89377990434878,176.08131436395342 161.62775119615253,176.26080545244622 160.69760765554383,176.47021158365533 159.09569377999287,175.8719079553848 158.7081339713186,175.3334336479311 158.39808612444904,174.5556356831803 157.80382775119506,173.62825849460205 157.0545454544481,172.58121621381724 156.79617224889807,172.10256707074586 156.07272727275267,170.60678347109933 155.37511961720884,169.76914132758975 153.07559808611404,170.038383705687 152.09377990441862,170.30762583695468 152.5330143540632,172.07265147348517 152.3263157894835,173.68808936924324 151.96459330129437,174.52572033560136 152.19712918659206,174.9744502278627 151.39617224875838,175.9018231657683 150.49186602863483,175.7821623060736 148.76076555030886,175.84199274197454 147.08133971283678,175.7522470835247 146.61626794259064,176.02148397671408 146.02200956933666,176.38046611714526 145.3502392343944,176.4103812756657 144.7818181818584,176.29072062313207 144.16172248800285,176.14114473894006 143.0507177032996,175.7821623060736 142.50813397136517,175.3334336479311 141.24210526316892,175.42317943440867 138.91674641147256,175.51292519341223 137.34066985640675,175.0342808282876 137.10813397122547,174.7351277039852 134.83444976073224,174.58555102758692 134.52440191386268,175.3334336479311 133.46507177024614,177.99588031912572 133.0,179.46171144317486 133.25837320566643,180.06000775893335 135.60956937796436,179.67111529235262 136.07464114832692,179.1625628284237 136.53971291868947,179.0429032970569 138.11578947352245,178.7138393347268 141.1904306219658,178.20528521330561 142.48229665064719,177.8762203125516 143.20574162667617,177.42749485373497 144.16172248800285,177.6069851195498 145.2727272727061,177.8762203125516 147.0038277512649,178.08562529203482 149.12248803826515,177.9659653220442 151.1636363635771,178.35486004629638 152.79138755972963,178.11554027689272 155.34928229660727,178.35486004629638 156.3311004784191,178.5642646845372 156.95119617215823,178.89332881447626 161.0851674641017,178.8334990000585 162.2220095694065,178.98307351322728 163.33301435410976,178.9531586166704 164.26315789471846,178.8334990000585 164.90909090917557,178.89332881447626 166.33014354063198,179.10273306880845 167.72535885160323,178.7138393347268 168.8363636363065,178.89332881447626 169.6889952152269,178.7437542557018 170.6966507177567,178.8334990000585 172.14354066981468,178.98307351322728 172.1952153109014,178.92324371705763 172.86698564596009,178.7437542557018 174.62392344500404,179.1326479500567 175.83827751188073,179.01298840667005 176.82009569380898,179.01298840667005 177.6727272727294,179.10273306880845 178.1636363636935,179.49162628795602 178.18947368417867,179.76085975338356 178.68038277502637,179.70103011571337 179.76555023924448,179.58137080387678 180.51483253587503,180.17966687574517 186.81913875602186,180.26941118150717 186.58660287084058,176.8890233981947 186.09569377999287,177.30783461558167 185.39808612433262,176.4103812756657 184.59712918661535,175.93173837309587 183.89952153118793,176.02148397671408 183.02105263166595,176.76936294077314 181.13492822961416,177.39757979879505 180.04976076551247,177.27791954844724 178.8095693780342,176.67961756556178 177.64688995224424,175.8719079553848 176.7942583732074,175.7821623060736 175.68325358862057,176.20097510173218 174.7789473683806,176.50012673303718 173.51291866030078,177.06851399308653 172.60861244017724,177.038598901534 172.58277511957567,177.12834416693659 171.2650717702927,177.3377496796893 171.08421052631456,177.06851399308653 170.30909090908244,176.58987216305104 169.94736842100974,175.93173837309587 168.6813397128135,176.1112295529456 167.88038277509622,175.81207752556656 166.33014354063198,175.8719079553848 165.0899521530373,176.38046611714526 163.79808612447232,176.38046611714526 163.04880382772535,176.08131436395342 162.37703349278308,176.20097510173218 160.90430622012354,176.44029643115937 159.7933014354203,176.02148397671408 159.1473684210796,175.72233185797813 159.1473684210796,175.45309469042695 159.37990430614445,174.76504303017282 159.2765550238546,174.9744502278627 159.12153110047802,175.3334336479311 158.99234449747019,175.2137725566572 159.1990430621663,175.57275568431942 159.22488038276788,175.69241662925924 159.40574162674602,176.14114473894006 158.94066985638347,175.8719079553848 158.65645933011547,175.2736031083914 158.39808612444904,174.31631281797308 157.72631578939036,173.4487657972495 157.15789473685436,172.4316384404665 156.5377990429988,171.41450756113045 155.400956937694,169.76914132758975 152.30047846888192,170.1879626979353 152.48133971286006,171.7136640677345 152.40382775117178,173.0000335740333 151.93875598092563,174.07698975788662 151.93875598092563,174.64538170723245 152.06794258370064,175.0342808282876 151.42200956947636,175.7821623060736 150.00095693778712,175.69241662925924 148.4248803827213,175.81207752556656 147.02966507163364,175.7821623060736 146.30622009560466,176.26080545244622 145.53110047837254,176.23089027858805 145.19521531101782,176.38046611714526 144.31674641137943,176.05139917181805 142.6114832535386,175.3334336479311 141.13875598087907,175.36334891308798 138.9684210526757,175.45309469042695 137.46985645929817,175.0641961239744 137.18564593303017,174.7351277039852" stroke="#4dd2ff" stroke-linecap="round" stroke-linejoin="round" stroke-width="0.5"><title>2024-08-24 10.0km</title><desc>12225850149</desc></polyline><polyline fill="none" points="20.420827389345504,249.58790368560585 21.11412268190179,247.9528064475162 21.65335235360544,246.05013631415204 21.91012838797178,245.60419620771427 22.012838801485486,244.97987891422235 22.60342368041165,243.7906994234072 23.014265335164964,242.5123260676628 23.912981455097906,240.2528617932112 24.426533523364924,239.89610267753596 24.426533523364924,239.95556256044074 24.477888730354607,239.92583262053085 24.55492154066451,238.9744729437225 25.09415121236816,238.52852202780196 27.174037089804187,238.85555276609375 31.59058487880975,239.09339307286427 34.72325249644928,239.182583137881 36.31526390858926,239.21231315357727 36.880171183962375,239.3312331858906 37.239657631958835,239.5690731050272 40.192582025541924,239.71772295612027 41.86162624810822,239.71772295612027 43.29957203997765,239.74745291727595 43.96718972886447,239.50961314339656 45.86733238236047,239.6879929919669 46.611982881557196,239.74745291727595 47.61340941512026,239.36096318633645 48.563480741810054,239.45015316971694 49.66761768900324,239.36096318633645 50.92582025669981,239.5690731050272 52.31241084157955,239.45015316971694 52.46647646208294,239.21231315357727 52.92867332370952,239.27177317577298 53.18544935795944,239.36096318633645 54.546362339518964,239.71772295612027 56.035663338028826,239.65826302481582 56.52353780309204,239.80691283056512 57.78174037090503,239.77718287534663 58.16690442233812,240.37178140162723 60.01569186861161,240.2825916998263 60.529243937227875,240.6690802105004 63.86733238236047,241.0258383815817 65.87018544937018,240.9366488797241 66.94864479312673,240.81772950146114 66.76890156918671,239.50961314339656 66.30670470744371,237.66634832520504 65.99857346643694,237.96364988959976 65.63908701867331,237.36904645786854 64.38088445086032,236.59606018592604 62.429386590607464,237.60688797596958 60.7089871611679,237.99338002939476 59.52781740366481,237.78526898723794 58.60342368041165,237.27985583868576 57.03708987159189,236.41767844784772 55.907275320845656,236.7744418149814 54.72610556345899,237.27985583868576 53.621968616265804,237.7258086623042 52.646219686139375,237.93391974680708 51.51640513550956,237.81499914522283 50.746077032759786,237.33931625453988 50.283880171133205,237.04201405425556 49.87303851637989,236.5365996186738 49.025677603436634,236.80417207590654 47.818830242496915,236.3879481476033 46.63766048499383,236.3879481476033 45.40513552061748,236.80417207590654 44.68616262474097,236.62579046507017 43.63338088442106,236.9230930893391 42.50356633379124,236.89336284046294 41.06562054203823,237.10147451848025 39.75606276735198,236.62579046507017 38.85734664753545,236.20956628231215 38.47218259621877,235.43657693977002 37.8559201140888,234.54466361613595 37.36804564902559,233.7716698644508 36.880171183962375,232.49325262877392 35.442225392209366,230.50128903219593 32.46362339518964,230.7985978947254 32.25820256781299,231.21482979363645 32.617689015576616,232.6716367652698 32.746077032759786,233.5040946273366 32.41226818819996,235.49603773103445 32.07845934375655,236.23929660080466 31.51355206849985,236.59606018592604 30.17831669037696,236.3879481476033 28.098430812940933,236.23929660080466 26.96861626242753,236.3582178442448 26.455064193927683,236.89336284046294 25.8388017116813,236.80417207590654 25.504992867354304,236.95282333504292 24.55492154066451,236.8636325886473 24.323823109734803,236.89336284046294 23.784593437914737,236.8636325886473 22.988587731844746,236.09064497821964 22.243937232531607,235.97172362564015 20.112696148455143,235.8825325795042 18.366619115462527,235.70415040533408 17.288159771705978,235.34738573001232 15.33666191145312,235.19873365320382 14.925820256699808,235.49603773103445 14.001426533446647,238.02311016622116 13.256776034133509,240.34205150409252 13.693295292323455,240.69881007485674 15.773181169759482,240.34205150409252 15.875891583389603,240.163672055176 16.594864479266107,239.80691283056512 17.955777460709214,239.50961314339656 18.109843081329018,239.42042317832238 19.23965763184242,239.3312331858906 22.269614835851826,238.91501286090352 22.65477888728492,238.64744233866804 23.32239657617174,238.37987157108728 24.19543509266805,238.11230055824853 25.325249643297866,238.4096016685071 27.199714693357237,238.73663254000712 31.46219686162658,239.00420298051904 32.82310984306969,238.82582271416322 33.850213980069384,238.91501286090352 35.211126961396076,238.9744729437225 36.44365192565601,239.15285311930347 36.95720399415586,239.24204316624673 38.62624821672216,239.59880308134598 40.038516405038536,239.6879929919669 41.24536376609467,239.45015316971694 43.248216832987964,239.65826302481582 44.403708987054415,239.50961314339656 45.04564907273743,239.50961314339656 46.12410841649398,239.65826302481582 47.253922967240214,239.59880308134598 47.99857346643694,239.36096318633645 49.28245363757014,239.27177317577298 50.36091298132669,239.4798831580556 51.41369472176302,239.39069318387192 52.33808844501618,239.12312309758272 52.56918687582947,238.9744729437225 52.671897289459594,238.85555276609375 53.442225392209366,239.42042317832238 55.0599144079024,239.6879929919669 56.497860199655406,239.77718287534663 57.83309557766188,239.80691283056512 58.192582025541924,240.37178140162723 58.75748930091504,240.40151129616424 59.912981455097906,240.31232160356012 60.58059914410114,240.81772950146114 65.71611982875038,240.96637871675193 66.94864479312673,240.60962047302746 66.6148359485669,237.63661815211526 66.43509272462688,237.5771577967389 65.9728958630003,237.93391974680708 65.22824536368717,236.8636325886473 64.27817403699737,236.5365996186738 63.07132667629048,237.16093497065594 61.58202567754779,237.8744594520831 60.24679029954132,237.93391974680708 58.629101283848286,237.16093497065594 57.19115549209528,236.3879481476033 55.83024251065217,236.80417207590654 55.08559201145545,236.98255357774906 53.41654778888915,237.75553882628446 52.59486447938252,237.75553882628446 51.38801711832639,237.90418960092939 51.079885877203196,237.99338002939476 51.028530670446344,237.6960784952098 50.72039942932315,237.27985583868576 50.30955777456984,237.04201405425556 50.181169757503085,236.62579046507017 49.590584878693335,236.44740874509444 48.74322396563366,236.71498128405074 46.94579172611702,236.32848753794678 45.86733238236047,236.80417207590654 44.81455064192414,236.59606018592604 43.9928673323011,236.95282333504292 43.222539229667746,236.74471155108768 42.58059914398473,236.95282333504292 40.885877317981794,237.10147451848025 39.85877318121493,236.6555207411002 39.345221112598665,236.44740874509444 39.42225392302498,236.09064497821964 39.216833095648326,236.32848753794678 38.90870185440872,236.44740874509444 38.83166904421523,235.97172362564015 38.60057061340194,235.13927280137432 37.36804564902559,233.3851722208783 36.46932952920906,231.54186872631544 35.51925820251927,230.41209631439415 32.977175463573076,230.59048172272742 32.437945791636594,230.8580596310203 32.41226818819996,231.482407129457 32.64336661901325,232.0770225530141 32.669044222449884,233.8014004311699 32.07845934375655,235.0798119373503 32.23252496425994,235.64468965644483 31.51355206849985,236.50686933047837 30.229671897133812,236.41767844784772 27.867332382244058,236.26902691618307 26.68616262485739,236.74471155108768 26.121255349484272,236.9230930893391 25.633380884421058,236.9230930893391 24.914407988544554,236.80417207590654 23.83594864467159,236.89336284046294 22.65477888728492,235.94199327999377 20.36947218258865,235.8825325795042 19.2139800285222,236.06091464462224 17.23680456483271,235.37711613625288 15.079885877203196,235.2879249083635 14.64336661901325,236.5365996186738 13.256776034133509,240.01502243129653 13.128388017066754,240.9366488797241 13.0,241.70962365737068" stroke="#4dd2ff" stroke-linecap="round" stroke-linejoin="round" stroke-width="0.5"><title>2024-08-11 10.2km</title><desc>12116913505</desc></polyline></svg>