<?xml version="1.0" encoding="utf-8" ?>
<svg baseProfile="full" height="300mm" version="1.1" viewBox="0,0,200,300" width="200mm" xmlns="http://www.w3.org/2000/svg" xmlns:ev="http://www.w3.org/2001/xml-events" xmlns:xlink="http://www.w3.org/1999/xlink"><defs /><rect fill="#222222" height="300" width="200" x="0" y="0" /><text fill="#FFFFFF" style="font-size:12px; font-family:Arial; font-weight:bold;" x="10" y="20">Over 10km Runs</text><text fill="#FFFFFF" style="font-size:4px; font-family:Arial" x="10" y="280">ATHLETE</text><text fill="#FFFFFF" style="font-size:9px; font-family:Arial" x="10" y="290">skyline09</text><text fill="#FFFFFF" style="font-size:4px; font-family:Arial" x="120" y="280">STATISTICS</text><text fill="#FFFFFF" style="font-size:3px; font-family:Arial" x="120" y="285">Number: 1</text><text fill="#FFFFFF" style="font-size:3px; font-family:Arial" x="120" y="290">Weekly: 1.0</text><text fill="#FFFFFF" style="font-size:3px; font-family:Arial" x="141" y="285">Total: 10.2 km</text><text fill="#FFFFFF" style="font-size:3px; font-family:Arial" x="141" y="290">Avg: 10.2 km</text><text fill="#FFFFFF" style="font-size:3px; font-family:Arial" x="167" y="285">Min: 10.2 km</text><text fill="#FFFFFF" style="font-size:3px; font-family:Arial" x="167" y="290">Max: 10.2 km</text><polyline fill="none" points="41.26248216815293,178.76371105678845 43.342368045821786,173.85841934249038 44.96005706116557,168.15040894242702 45.73038516426459,166.8125886231428 46.038516405038536,164.93963674263796 47.810271041467786,161.3720982702216 49.042796005960554,157.5369782029302 51.738944365642965,150.7585853796336 53.27960057044402,149.6883080325788 53.27960057044402,149.86668768135132 53.43366619106382,149.77749786159256 53.66476462222636,146.9234188311384 55.28245363757014,145.58556608343497 61.52211126964539,146.56665829825215 74.77175463642925,147.28017921856372 84.16975748958066,147.54774941364303 88.9457917260006,147.6369394607027 90.64051355235279,147.99369955761358 91.71897289576009,148.7072193151107 100.57774607697502,149.1531688683317 105.5848787445575,149.1531688683317 109.89871612004936,149.24235875182785 111.90156918670982,148.5288394301897 117.60199714731425,149.06397897592979 119.83594864513725,149.24235875182785 122.84022824559361,148.08288955903845 125.69044222543016,148.35045950917993 129.00285306712613,148.08288955903845 132.77746077021584,148.7072193151107 136.9372325250879,148.35045950917993 137.39942938648164,147.6369394607027 138.78601997159421,147.81531952734804 139.55634807422757,148.08288955903845 143.6390870185569,149.1531688683317 148.1069900142029,148.97478907444747 149.57061340939254,149.42073849163717 153.3452211129479,149.33154862606898 154.5007132673636,151.1153442048817 160.0470756064169,150.8477750994498 161.5877318121493,152.00724063144298 171.60199714731425,153.07751514477422 177.61055634822696,152.80994663917227 180.8459343793802,152.45318850438343 180.3067047074437,148.5288394301897 178.9201141227968,142.9990449755569 177.99572039954364,143.8909496688284 176.91726105613634,142.1071393736638 173.14265335258096,139.7881805577781 167.2881597718224,142.82066392787965 162.1269614836201,143.98014008824248 158.58345221122727,143.35580696171382 155.8102710414678,141.8395675160573 151.1112696151249,139.25303534354316 147.72182596288621,140.3233254449442 144.17831669049338,141.8395675160573 140.86590584926307,143.17742598691257 137.93865905841812,143.80175924039213 134.5492154066451,143.44499743566848 132.23823109874502,142.01794876356144 130.85164051363245,141.12604216276668 129.61911554960534,139.60979885596316 127.07703281054273,140.4125162277487 123.45649072760716,139.16384444280993 119.91298145521432,139.16384444280993 116.21540656220168,140.4125162277487 114.05848787445575,139.8773713952396 110.90014265337959,140.76927926798817 107.51069900160655,140.68008852138883 103.1968616261147,141.30442355544074 99.26818830240518,139.8773713952396 96.57203994272277,138.62869884690735 95.41654778877273,136.30973081931006 93.56776034226641,133.63399084843695 92.10413694754243,131.31500959332334 90.64051355235279,127.47975788632175 86.32667617686093,121.50386709655868 77.39087018556893,122.39579368417617 76.77460770355538,123.64448938093847 77.85306704696268,128.01491029578028 78.23823109874502,130.512283882068 77.23680456448346,136.48811319307424 76.2353780316189,138.717889802414 74.54065620573238,139.7881805577781 70.53495007148013,139.16384444280993 64.29529243893921,138.717889802414 60.90584878763184,139.07465353270527 59.365192582365125,140.68008852138883 57.51640513539314,140.4125162277487 56.51497860206291,140.85847000515787 53.66476462222636,140.59089776594192 52.97146932967007,140.68008852138883 51.353780313860625,140.59089776594192 48.96576319541782,138.27193493465893 46.73181169759482,137.91517087689135 40.33808844536543,137.64759773854166 35.09985734662041,137.11245121597312 31.864479315001518,136.04215718997875 26.009985734708607,135.59620095958235 24.77746077021584,136.48811319307424 22.004279600456357,144.06933049869258 19.770328102633357,151.02615451230668 21.079885877203196,152.09643022459932 27.319543509278446,151.02615451230668 27.627674750518054,150.49101616552798 29.78459343779832,149.42073849163717 33.86733238212764,148.5288394301897 34.329529243987054,148.26126953499625 37.71897289576009,147.99369955761358 46.80884450767189,146.74503858271055 47.96433666208759,145.94232701603323 49.96718972874805,145.13961471320363 52.58630527788773,144.3369016746874 55.97574893012643,145.22880500555038 61.599144080188125,146.20989762002137 74.38659058511257,147.01260894158622 78.4693295294419,146.47746814246057 81.55064194044098,146.74503858271055 85.63338088430464,146.9234188311384 89.33095577731729,147.4585593578522 90.871611982584,147.72612949868198 95.87874465063214,148.79640924406704 100.1155492151156,149.06397897592979 103.73609129851684,148.35045950917993 109.74465049896389,148.97478907444747 113.21112696127966,148.5288394301897 115.13694721832871,148.5288394301897 118.37232524948195,148.97478907444747 121.76176890172064,148.79640924406704 123.99572039954364,148.08288955903845 127.84736091317609,147.81531952734804 131.08273894432932,148.4396494741668 134.24108416587114,148.17207955161575 137.01426533516496,147.36936929274816 137.70756062772125,146.9234188311384 138.01569186896086,146.56665829825215 140.32667617686093,148.26126953499625 145.1797432238236,149.06397897592979 149.4935805988498,149.33154862606898 153.49928673310205,149.42073849163717 154.57774607697502,151.1153442048817 156.2724679033272,151.20453388849273 159.73894436564296,150.93696481065126 161.7417974327691,152.45318850438343 177.14835948683321,152.8991361502558 180.8459343793802,151.82886141905328 179.84450784604996,142.90985445631668 179.30527817411348,142.7314733902458 177.91868758946657,143.80175924039213 175.6847360911779,140.59089776594192 172.83452211134136,139.60979885596316 169.21398002887145,141.48280491196783 164.74607703275979,143.6233783562202 160.74037089850754,143.80175924039213 155.88730385154486,141.48280491196783 151.57346647651866,139.16384444280993 147.49072753218934,140.4125162277487 145.25677603436634,140.94766073324718 140.24964336678386,143.2666164788534 137.78459343826398,143.2666164788534 134.1640513553284,143.71256880275905 133.2396576316096,143.98014008824248 133.08559201145545,143.08823548565852 132.16119828820229,141.8395675160573 130.92867332417518,141.12604216276668 130.5435092728585,139.8773713952396 128.7717546359636,139.3422262353124 126.22967189736664,140.1449438521522 120.83737517846748,138.98546261381125 117.60199714731425,140.4125162277487 114.44365192577243,139.7881805577781 111.97860199725255,140.85847000515787 109.66761768935248,140.23413465323392 107.74179743230343,140.85847000515787 102.65763195417821,141.30442355544074 99.57631954364479,139.96656222327147 98.03566333791241,139.3422262353124 98.26676176907495,138.27193493465893 97.6504992870614,138.98546261381125 96.72610556334257,139.3422262353124 96.49500713311136,137.91517087689135 95.80171184055507,135.41781840409385 92.10413694754243,130.1555166626349 89.40798858786002,124.62560617894633 86.5577746075578,121.23628894315334 78.9315263913013,121.77144516818225 77.3138373750262,122.57417889306089 77.23680456448346,124.44722138840007 77.93009985703975,126.23106765904231 78.00713266758248,131.40420129348058 76.2353780316189,135.23943581205094 76.69757489301264,136.93406896933448 74.54065620573238,139.5206079914351 70.68901569163427,139.25303534354316 63.60199714684859,138.8070807485492 60.05848787492141,140.23413465323392 58.36376604856923,140.76927926798817 56.90014265337959,140.76927926798817 54.74322396563366,140.4125162277487 51.50784593448043,140.68008852138883 47.96433666208759,137.8259798399522 41.108416547998786,137.64759773854166 37.64194008568302,138.18274393386673 31.710413694847375,136.13134840875864 25.23965763160959,135.86377472506138 23.93009985703975,139.60979885596316 19.770328102633357,150.04506729386048 19.38516405131668,152.80994663917227 19.0,155.12887097214116" stroke="#4DD2FF" stroke-linecap="round" stroke-linejoin="round" stroke-width="0.5"><title>2024-08-11 10.2km</title><desc>12116913505</desc></polyline></svg>