<?xml version="1.0" encoding="utf-8" ?>
<svg baseProfile="full" height="300mm" version="1.1" viewBox="0,0,200,300" width="200mm" xmlns="http://www.w3.org/2000/svg" xmlns:ev="http://www.w3.org/2001/xml-events" xmlns:xlink="http://www.w3.org/1999/xlink"><defs /><rect fill="#222222" height="300" width="200" x="0" y="0" /><text fill="#FFFFFF" style="font-size:12px; font-family:Arial; font-weight:bold;" x="10" y="20">Over 10km Runs</text><text fill="#FFFFFF" style="font-size:4px; font-family:Arial" x="10" y="280">ATHLETE</text><text fill="#FFFFFF" style="font-size:9px; font-family:Arial" x="10" y="290">skyline09</text><text fill="#FFFFFF" style="font-size:4px; font-family:Arial" x="120" y="280">STATISTICS</text><text fill="#FFFFFF" style="font-size:3px; font-family:Arial" x="120" y="285">Number: 3</text><text fill="#FFFFFF" style="font-size:3px; font-family:Arial" x="120" y="290">Weekly: 1.0</text><text fill="#FFFFFF" style="font-size:3px; font-family:Arial" x="141" y="285">Total: 30.5 km</text><text fill="#FFFFFF" style="font-size:3px; font-family:Arial" x="141" y="290">Avg: 10.2 km</text><text fill="#FFFFFF" style="font-size:3px; font-family:Arial" x="167" y="285">Min: 10.0 km</text><text fill="#FFFFFF" style="font-size:3px; font-family:Arial" x="167" y="290">Max: 10.2 km</text><polyline fill="none" points="24.890557939652354,90.29506209096871 25.933476394740865,88.19317729515024 27.0536480685696,85.1968560446694 27.401287553599104,84.03409900824772 27.78755364799872,82.91606049300754 28.482832617824897,80.7694185639557 29.178111587883905,79.4277620294888 30.530042918398976,75.62637958704727 31.534334763884544,73.79275982035324 32.30686695268378,71.95913239655783 33.65879828319885,71.7802415061742 35.86051502148621,72.04857781433384 41.07510729599744,72.40635930345161 44.31974248914048,72.22746859528706 45.20815450628288,72.36163663325715 48.375536480685696,72.49580463016173 49.41845493554138,72.76414050103631 50.34549356205389,73.0324762078526 51.58154506445862,73.30081175078521 54.980686695314944,73.52442457806319 56.487124463310465,73.16664399992442 57.72317596548237,73.39025689536356 60.85193133028224,73.0324762078526 62.7060085835401,73.30081175078521 64.48283261805773,73.56914712977596 66.10515021462925,73.34553432531538 66.99356223177165,72.94303099057288 69.54291845485568,73.0324762078526 71.47424892685376,73.34553432531538 73.48283261805773,72.76414050103631 74.44849785394035,73.0324762078526 75.80042918445542,73.30081175078521 78.00214592274278,73.56914712977596 81.28540772525594,73.52442457806319 81.90343347634189,73.97164989070734 82.40557939908467,74.73193187682773 83.68025751062669,74.73193187682773 85.6115879828576,74.77665430554771 91.52145922742784,75.53693489811849 95.19098712457344,75.35804546525469 95.03648068662733,72.00385510767228 94.68884120159782,70.39383463497506 93.91630901279859,70.97523159781122 92.64163090125658,69.14159240812296 91.36695278948173,68.73908521971316 89.7060085835401,69.63354513756349 87.96781115862541,70.66217179043451 84.14377682399936,70.66217179043451 81.67167381942272,69.00742338647251 79.93347639474086,68.69436217597104 77.53862660937011,69.45465329976287 76.14806866948493,70.12549731554464 73.90772532182746,70.75161747238599 72.55579399131238,71.28829118193244 72.16952789691277,70.93050878177746 71.1652360514272,70.21494310707203 70.4699570813682,69.63354513756349 69.81330472091213,68.8285312934313 68.34549356228672,69.09686940544634 67.34120171680115,69.00742338647251 65.33261802559718,68.51546995551325 62.667381974169984,69.27576138902805 61.624463519314304,69.09686940544634 60.620171673828736,69.63354513756349 58.688841201597825,69.45465329976287 55.94635193119757,69.72299102903344 53.70600858377293,68.91797734901775 53.04935622308403,67.97879285697127 52.58583690971136,66.59237398279947 50.422746781026945,63.50645819189958 49.92060085805133,62.209472618211294 49.30257510719821,60.46524459880311 48.68454935611226,59.839109773543896 44.821888411883265,59.883833719359245 43.46995708136819,60.062729456520174 43.354077253025025,60.73358782206196 43.89484978537075,62.70143311432912 43.85622317576781,64.98233366740169 43.508583690738305,66.05569453368662 43.00643776822835,66.90543669194449 43.46995708136819,67.57628460254637 42.23390557942912,68.96270036997157 40.109442059881985,68.6049160748662 36.90343347634189,68.33657766217948 34.778969956794754,69.23103839994292 33.465665235882625,69.27576138902805 33.040772532112896,69.58882218488725 31.03218884114176,69.49937626597239 29.603004291653633,68.51546995551325 28.598712446400896,67.88934661008534 25.354077253025025,67.75517720563221 22.4957081542816,67.71045406162739 21.105150214396417,67.21849917777581 18.980686695082113,66.86071346129756 17.47424892685376,66.99488313912298 15.658798283198848,71.51190503401449 14.770386265823618,74.37415228266036 15.504291845252737,75.13443357200595 17.937768239993602,74.59776456319378 18.78755364799872,74.10581739569898 19.79184549348429,73.88220486458158 21.491416308796033,73.61386967691942 23.34549356205389,73.07719880982768 24.81330472091213,72.8983083749481 27.092274677939713,72.62997258617543 28.79184549348429,72.45108196901856 29.68025751062669,71.7802415061742 31.070815450511873,71.19884560926585 31.4957081542816,70.88578596134903 31.688841201597825,71.01995440918836 32.96351931313984,71.690796033683 34.08369098720141,71.82496423553675 36.401287553599104,72.00385510767228 38.7188841199968,71.82496423553675 41.65450643771328,72.36163663325715 44.667381974169984,72.22746859528706 47.06223175954074,72.58524993868195 50.11373390536755,72.67469522895408 50.46137339039706,73.21136658816249 51.3884120171424,73.12192140705884 55.52145922742784,73.43497946072603 57.76180257485248,73.39025689536356 60.11802575085312,73.30081175078521 61.508583690971136,73.34553432531538 63.09227467793971,73.25608917177306 64.8304721028544,73.43497946072603 66.45278969965875,73.0324762078526 67.99785407725722,73.07719880982768 69.62017167382874,72.94303099057288 73.057939914288,73.07719880982768 73.28969957050867,72.8983083749481 74.10085836891085,72.98775360148284 78.11802575108595,73.34553432531538 80.12660944205709,73.70331475770217 81.78755364799872,73.74803729119594 82.36695278948173,74.59776456319378 82.90772532182746,74.41887474793475 84.45278969965875,74.239984859596 85.88197424868122,75.00026638124837 93.49141630902886,75.4474901908543 95.42274678102694,75.04498878266895 94.53433476411738,70.4385575055494 93.95493562240154,70.93050878177746 92.06223175954074,68.78380825888598 90.942060085712,68.78380825888598 89.43562231748365,69.76771396803088 87.19527896982618,70.88578596134903 84.91630901279859,70.70689463370945 81.86480686697178,68.78380825888598 79.85622317600064,68.69436217597104 77.57725321897306,69.54409922764171 76.22532188845798,70.25966599586536 74.29399141622707,70.84106313632219 73.79184549348429,70.57272609020583 71.7060085835401,70.57272609020583 70.50858369097114,69.90188275749097 69.7360515021719,68.8285312934313 66.33690987131558,68.64963912777603 64.59871244616807,68.8285312934313 62.86051502125338,69.32048437363119 61.933476394740865,68.87325432349462 61.12231759633869,69.3652073534613 60.27253218879923,69.45465329976287 59.46137339039706,68.96270036997157 57.530042918398976,69.1863154064049 55.79184549348429,69.67826808558311 53.86051502125338,68.78380825888598 53.62875536456704,68.47074688909925 52.8175965663977,67.93406973572564 52.354077253257856,67.03960635591648 52.70171673828736,66.50292745346087 51.58154506445862,65.47429105680203 50.92489270376973,64.53509919875069 50.22961373371072,63.32756385789253 49.688841201597825,60.59941623089253 48.221030042739585,59.70493790906039 45.01502145919949,60.062729456520174 43.54721030034125,60.107453379489016 43.27682403405197,61.31499757640995 43.54721030034125,62.03057775547495 43.70171673805453,64.89288681023754 43.045064377365634,66.05569453368662 43.354077253025025,67.26322237181012 42.85193133028224,68.64963912777603 40.997854077257216,68.87325432349462 39.45278969942592,68.78380825888598 37.135193133028224,68.56019301753258 35.242489270167425,68.56019301753258 34.54721030034125,69.3652073534613 33.620171673828736,69.27576138902805 32.65450643748045,69.40993032883853 31.61158798262477,69.14159240812296 30.800429184455425,69.1863154064049 29.10085836891085,68.1129621930304 27.0536480685696,68.02351597347297 24.504291845252737,67.88934661008534 22.225321888225153,67.66573091316968 20.7188841199968,67.1737759791431 17.59012875519693,66.81599022628507 17.126609442057088,67.93406973572564 16.006437768228352,70.70689463370945 15.195278969826177,72.76414050103631 14.731759656453505,74.68720944353845" stroke="#4dd2ff" stroke-linecap="round" stroke-linejoin="round" stroke-width="0.5"><title>2024-08-31 10.2km</title><desc>12285168865</desc></polyline><polyline fill="none" points="114.73157894727774,90.34628800864448 116.51435406692326,86.48739742554608 116.78564593289047,85.32074943309999 117.52200956945308,83.12205828150036 117.79330143542029,82.04514432669384 118.83971291873604,79.30797617719509 121.78516746405512,72.3976727333793 123.25789473694749,71.76945795485517 126.51339712925255,72.26305535639403 129.22631578939036,72.08356545609422 131.86172248795629,72.66690736429882 136.7449760765303,72.75665220472729 140.2717703350354,73.0707590020902 143.95358851691708,73.56435494558536 146.588995215483,73.29512086312752 149.14688995224424,73.65409960318357 150.61961722490378,73.20537613250781 152.36363636376336,73.42973792497651 154.68899521557614,73.65409960318357 156.47177033498883,73.11563138352358 158.13827751181088,73.29512086312752 159.95980861247517,73.0707590020902 160.69617224880494,73.38486557555734 163.06028708140366,73.16050376032945 163.2928229663521,73.38486557555734 163.91291866032407,73.0707590020902 168.4861244019121,73.51948260999052 170.9277511963155,73.51948260999052 171.89665071782656,74.10282261690008 172.24545454559848,74.64128963006078 173.52440191386268,74.46180069862748 175.50095693790354,74.6861618514231 175.77224880387075,75.35924462389085 178.7564593302086,75.5387331895763 185.1511961724609,75.49386105505982 185.5,74.91052288989886 184.9961722488515,70.51302571047563 184.45358851668425,70.69251625039033 183.94976076553576,71.00662451953394 183.01961722504348,69.52582643320784 181.6244019139558,68.7629891129618 180.57799043064006,69.12197154591559 177.94258373207413,70.64764362230198 176.85741626797244,71.0514971112134 175.3846889953129,70.9617519233434 172.90430622012354,69.39120817865478 171.50909090903588,68.62837062525796 169.68755980860442,68.7629891129618 167.86602870817296,69.34633541785297 166.6258373206947,69.97455365161295 164.80430622026324,70.78226149312104 162.1688995216973,70.82713410750148 161.47129186615348,70.60277098961524 160.46363636362366,69.88480824456201 159.95980861247517,68.80786193307722 158.25454545463435,69.16684432938928 156.82057416276075,68.62837062525796 155.54162679426372,68.44887924424256 153.72009569383226,69.39120817865478 152.86746411491185,69.48095368617214 150.85215311008506,69.43608093468356 149.34066985640675,69.12197154591559 147.4416267941706,69.39120817865478 146.04641148331575,69.70531737545389 143.6435406699311,68.80786193307722 143.0622009569779,68.00015047189663 142.59712918661535,66.83345352477045 141.705741626909,65.44238774187397 140.58181818178855,63.871824320725864 140.1942583732307,63.153850606118795 139.109090909129,60.91017520663445 138.06267942581326,59.65371199135552 134.61339712934569,60.057575558515964 133.14066985668615,60.461438755417475 133.79952153097838,63.108977210184094 133.48947368422523,65.53213405385031 132.94688995205797,66.78858050340204 133.2956937798299,67.46167534179403 132.09425837313756,68.85273474862333 130.73779904306866,68.67324345908128 128.1411483255215,68.7629891129618 125.62200956931338,68.62837062525796 124.92440191400237,69.03222596505657 124.0330143540632,69.57069917570334 123.02535885153338,69.61557191348402 122.1727272728458,69.43608093468356 121.24258373188786,69.21171710838098 119.57607655483298,68.67324345908128 118.76220095693134,68.00015047189663 116.86315789469518,68.13476915159845 113.37511961720884,68.26938779008924 111.01100478461012,67.55142124241684 110.6622009568382,67.1026915559778 107.25167464115657,66.87832654136582 106.78660287079401,68.00015047189663 105.19760765554383,71.99382047867402 104.5,74.19256716474774 104.88755980855785,75.09001163838548 108.41435406706296,74.50667293849983 109.11196172237396,73.74384424259188 109.80956937815063,73.56435494558536 112.17368421051651,73.0707590020902 116.78564593289047,72.30792781992932 118.7234449761454,71.81433046879829 119.80861244001426,71.14124228057335 121.24258373188786,71.41047767928103 122.90909090894274,71.81433046879829 125.50574162695557,72.12843793802313 128.68373205745593,71.94894798303721 131.74545454536565,72.53229006944457 134.18708133976907,72.17331041532452 138.0239234447945,72.53229006944457 139.49665071768686,72.84639702679124 140.42679425841197,73.33999322168529 146.62775119626895,73.25024850005866 148.33301435410976,73.47461026982637 149.99952153116465,73.42973792497651 151.3947368422523,73.25024850005866 152.36363636376336,73.33999322168529 154.49521531094797,73.65409960318357 156.58803827734664,73.0707590020902 158.25454545463435,73.33999322168529 159.53349282289855,73.11563138352358 161.04497607657686,73.25024850005866 163.21531100478023,73.47461026982637 163.2928229663521,73.38486557555734 164.30047846888192,73.11563138352358 166.93588516744785,73.69897192507051 168.7574162678793,73.51948260999052 170.23014354077168,73.51948260999052 171.50909090903588,73.65409960318357 172.24545454559848,74.23743943191948 172.2842105263844,74.64128963006078 173.02057416248135,74.55154517357005 174.64832535898313,74.37205620581517 175.77224880387075,75.26950031361775 185.2287081340328,75.40411677223165 184.87990430626087,70.33353509724839 184.1435406699311,70.9617519233434 183.09712918661535,69.61557191348402 181.89569377992302,68.89760755960015 180.8492822968401,69.03222596505657 179.53157894755714,70.15404441111605 176.70239234459586,71.09636969817802 175.07464114832692,70.91687932264176 173.21435406710953,70.01942634829902 171.47033492848277,68.80786193307722 170.1913875597529,68.67324345908128 168.52488038293086,69.30146265259827 167.16842105262913,69.75019009952666 165.26937799039297,70.60277098961524 163.91291866032407,70.55789835227188 163.8741626793053,70.69251625039033 161.89760765549727,71.00662451953394 161.62631578953005,70.60277098961524 160.46363636362366,69.88480824456201 159.92105263168924,68.89760755960015 158.02200956922024,69.16684432938928 156.82057416276075,68.7181162883353 154.49521531094797,68.80786193307722 152.63492822973058,69.57069917570334 150.69712918670848,69.57069917570334 149.57320574158803,69.12197154591559 148.56555023929104,69.30146265259827 146.35645933030173,69.6604446467245 144.68995215324685,69.03222596505657 143.7210526317358,68.58349778692354 143.7210526317358,68.17964203562587 144.0698564592749,67.14756454524468 143.9148325358983,67.46167534179403 143.68229665071703,68.00015047189663 143.4885167463217,67.82065883497125 143.79856459330767,68.35913352645002 143.8373205740936,68.53862494387431 144.10861244006082,69.21171710838098 143.41100478474982,68.80786193307722 142.9846889951732,67.91040466257255 142.59712918661535,66.47446922693052 141.58947368431836,65.17314869584516 140.73684210539795,63.647457660670625 139.80669856444,62.12176134166657 138.1014354065992,59.65371199135552 133.4507177034393,60.28194404687383 133.7220095694065,62.57049610160175 133.60574162681587,64.50005036103539 132.90813397150487,66.11548463680083 132.90813397150487,66.96807256081956 133.10191387566738,67.55142124241684 132.13301435415633,68.67324345908128 130.0014354067389,68.53862494387431 127.63732057414018,68.7181162883353 125.54449760750867,68.67324345908128 124.45933014340699,69.39120817865478 123.29665071773343,69.34633541785297 122.79282296658494,69.57069917570334 121.47511961706914,69.07709875769797 118.91722488030791,68.00015047189663 116.7081339713186,68.04502336963196 113.45263157901354,68.17964203562587 111.20478468900546,67.5962941859616 110.77846889942884,67.1026915559778" stroke="#4dd2ff" stroke-linecap="round" stroke-linejoin="round" stroke-width="0.5"><title>2024-08-24 10.0km</title><desc>12225850149</desc></polyline><polyline fill="none" points="25.631241084076464,239.38185552839423 26.671184022910893,236.9292096712452 27.480028530582786,234.0752044712135 27.865192582132295,233.4062943115714 28.019258202519268,232.46981837131898 28.905135520733893,230.6860491351108 29.521398002980277,228.7684891014651 30.869472182821482,225.3792926898168 31.63980028522201,224.8441540162894 31.63980028522201,224.93334384067566 31.71683309553191,224.88874893079628 31.83238231111318,223.4617094155692 32.64122681878507,222.79278304171748 35.7610556348227,223.28332914912608 42.385877318214625,223.64008960928186 47.08487874479033,223.77387470682152 49.4728958630003,223.81846973035135 50.32025677617639,223.9968497788068 50.859486447880045,224.35360965755535 55.28887303848751,224.57658443416585 57.79243937227875,224.57658443416585 59.94935806002468,224.62117937591393 60.95078459335491,224.26441971509485 63.800998573657125,224.5319894879649 64.91797432256863,224.62117937591393 66.4201141227968,224.04144477951922 67.84522111271508,224.17522975458996 69.50142653356306,224.04144477951922 71.38873038510792,224.35360965755535 73.46861626254395,224.17522975458996 73.69971469324082,223.81846973035135 74.39300998579711,223.90765976367402 74.77817403711379,224.04144477951922 76.81954350927845,224.57658443416585 79.05349500710145,224.48739453722374 79.78530670469627,224.71036924581858 81.67261055647396,224.6657743130345 82.2503566336818,225.55767210244085 85.02353780320846,225.4238875497249 85.79386590607464,226.0036203157215 90.80099857365713,226.5387575723871 93.80527817411348,226.40497331958613 95.4229671896901,226.22659425219172 95.15335235372186,224.26441971509485 94.4600570613984,221.49952248777845 93.99786019977182,221.9454748344142 93.45863052806817,221.0535696868319 91.57132667629048,219.89409027888905 88.6440798859112,221.41033196393983 86.06348074181005,221.99007004412124 84.29172610561363,221.6779034808569 82.9051355207339,220.91978375802864 80.55563480756246,219.62651767177158 78.86091298144311,220.1616627224721 77.08915834524669,220.91978375802864 75.43295292463154,221.58871299345628 73.96932952920906,221.90087962019606 72.27460770332254,221.72249871783424 71.11911554937251,221.00897438178072 70.42582025681622,220.56302108138334 69.80955777480267,219.80489942798158 68.53851640527137,220.20625811387436 66.72824536380358,219.58192222140497 64.95649072760716,219.58192222140497 63.10770328110084,220.20625811387436 62.029243937227875,219.9386856976198 60.450071326689795,220.38463963399408 58.75534950080328,220.3400442606944 56.59843081305735,220.65221177772037 54.63409415120259,219.9386856976198 53.286019971361384,219.31434942345368 52.708273894386366,218.15486540965503 51.783880171133205,216.81699542421848 51.052068473771214,215.65750479666167 50.32025677617639,213.73987894316087 48.163338088430464,210.75193354827934 43.695435092784464,211.19789684208808 43.38730385177769,211.82224469046923 43.92653352348134,214.00745514789014 44.11911554937251,215.256141941034 43.61840228224173,218.24405659653712 43.11768901580945,219.358944901207 42.27032810286619,219.89409027888905 40.26747503574006,219.58192222140497 37.14764621946961,219.358944901207 35.45292439381592,219.53732676635263 34.68259629118256,220.3400442606944 33.75820256769657,220.20625811387436 33.257489301031455,220.42923500257893 31.83238231111318,220.29544888297096 31.485734664835036,220.3400442606944 30.676890156930313,220.29544888297096 29.48288159770891,219.13596746732946 28.36590584879741,218.95758543844568 25.169044222682714,218.82379886927083 22.549928673310205,218.55622560798656 20.93223965750076,218.02107859498938 18.004992867354304,217.79810047979117 17.38873038510792,218.24405659653712 16.00213980022818,222.0346652493463 14.885164051316679,225.51307725615334 15.539942938601598,226.04821511229966 18.659771754639223,225.51307725615334 18.813837375259027,225.245508082764 19.89229671889916,224.71036924581858 21.93366619106382,224.26441971509485 22.164764621993527,224.13063476749812 23.859486447880045,223.9968497788068 28.404422253835946,223.37251929135527 28.982168331043795,222.97116350801662 29.983594864374027,222.5698073566018 31.293152638943866,222.1684508373437 32.987874465063214,222.6144025027752 35.79957204009406,223.10494881001068 42.193295292556286,223.5063044707931 44.23466476472095,223.23873407123028 45.77532097022049,223.37251929135527 47.81669044215232,223.4617094155692 49.66547788865864,223.7292796789261 50.435805991292,223.863064749341 52.93937232531607,224.39820462203352 55.0577746075578,224.5319894879649 56.86804564925842,224.17522975458996 59.872325249481946,224.48739453722374 61.60556348063983,224.26441971509485 62.56847360916436,224.26441971509485 64.18616262474097,224.48739453722374 65.88088445086032,224.39820462203352 66.99786019977182,224.04144477951922 68.92368045658804,223.90765976367402 70.54136947216466,224.2198247370834 72.12054208293557,224.08603977580788 73.50713266758248,223.68468464637408 73.85378031386063,223.4617094155692 74.00784593448043,223.28332914912608 75.16333808843046,224.13063476749812 77.5898716119118,224.5319894879649 79.7467902994249,224.6657743130345 81.74964336655103,224.71036924581858 82.28887303848751,225.55767210244085 83.1362339516636,225.60226694424637 84.86947218282148,225.46848240532563 85.87089871638454,226.22659425219172 93.57417974341661,226.4495680751279 95.4229671896901,225.91443070952664 94.92225392302498,221.45492722815834 94.65263908705674,221.3657366951229 93.95934379473329,221.90087962019606 92.84236804558896,220.29544888297096 91.41726105567068,219.80489942798158 89.60699001443572,220.74140245598392 87.37303851637989,221.8116891781101 85.37018544925377,221.90087962019606 82.94365192577243,220.74140245598392 80.78673323825933,219.58192222140497 78.74536376609467,220.20625811387436 77.62838801718317,220.4738303666236 75.12482168339193,221.6333082394267 73.89229671913199,221.6333082394267 72.0820256776642,221.85628440137953 71.6198288158048,221.99007004412124 71.54279600572772,221.54411774282926 71.08059914410114,220.91978375802864 70.46433666208759,220.56302108138334 70.27175463642925,219.9386856976198 69.3858773179818,219.6711131176562 68.11483594868332,220.0724719260761 65.41868758923374,219.49273130690563 63.800998573657125,220.20625811387436 62.221825962886214,219.89409027888905 60.98930099862628,220.42923500257893 59.83380884467624,220.11706732661696 58.870898716151714,220.42923500257893 56.32881597708911,220.65221177772037 54.78815977182239,219.98328111163573 54.017831668956205,219.6711131176562 54.13338088453747,219.13596746732946 53.8252496435307,219.49273130690563 53.363052781671286,219.6711131176562 53.24750356655568,218.95758543844568 52.900855920277536,217.70890920204693 51.052068473771214,215.07775833131745 49.70399429393001,212.31280308947316 48.2788873037789,210.61814447157667 44.46576319565065,210.88572258409113 43.6569186875131,211.28708944653044 43.61840228224173,212.22361069420003 43.965049928519875,213.11553382952115 44.00356633379124,215.7021006467403 43.11768901580945,217.61971790602547 43.34878744650632,218.46703448466724 42.27032810286619,219.76030399571755 40.344507845817134,219.62651767177158 36.800998573424295,219.4035403742746 35.029243937460706,220.11706732661696 34.181883024284616,220.38463963399408 33.450071326689795,220.38463963399408 32.37161198281683,220.20625811387436 30.753922967240214,220.3400442606944 28.982168331043795,218.9129899199761 25.554208273999393,218.82379886927083 23.82097004284151,219.09137196693337 20.855206847423688,218.06567420437932 17.619828815804794,217.9318873625307 16.965049928519875,219.80489942798158 14.885164051316679,225.02253364693024 14.69258202565834,226.40497331958613 14.5,227.56443548607058" stroke="#4dd2ff" stroke-linecap="round" stroke-linejoin="round" stroke-width="0.5"><title>2024-08-11 10.2km</title><desc>12116913505</desc></polyline></svg>