<?xml version="1.0" encoding="utf-8" ?>
<svg baseProfile="full" height="300mm" version="1.1" viewBox="0,0,200,300" width="200mm" xmlns="http://www.w3.org/2000/svg" xmlns:ev="http://www.w3.org/2001/xml-events" xmlns:xlink="http://www.w3.org/1999/xlink"><defs /><rect fill="#222222" height="300" width="200" x="0" y="0" /><text fill="#FFFFFF" style="font-size:12px; font-family:Arial; font-weight:bold;" x="10" y="20">Over 10km Runs</text><text fill="#FFFFFF" style="font-size:4px; font-family:Arial" x="10" y="280">ATHLETE</text><text fill="#FFFFFF" style="font-size:9px; font-family:Arial" x="10" y="290">skyline09</text><text fill="#FFFFFF" style="font-size:4px; font-family:Arial" x="120" y="280">STATISTICS</text><text fill="#FFFFFF" style="font-size:3px; font-family:Arial" x="120" y="285">Number: 6</text><text fill="#FFFFFF" style="font-size:3px; font-family:Arial" x="120" y="290">Weekly: 1.0</text><text fill="#FFFFFF" style="font-size:3px; font-family:Arial" x="141" y="285">Total: 66.2 km</text><text fill="#FFFFFF" style="font-size:3px; font-family:Arial" x="141" y="290">Avg: 11.0 km</text><text fill="#FFFFFF" style="font-size:3px; font-family:Arial" x="167" y="285">Min: 10.0 km</text><text fill="#FFFFFF" style="font-size:3px; font-family:Arial" x="167" y="290">Max: 15.3 km</text><polyline fill="none" points="21.2349645125214,80.68111784607754 21.611505416571163,79.46668673321255 22.203212551306933,78.68820271361619 22.33769144571852,77.691740276583 22.821815465111285,76.53957653566613 22.92939858045429,75.66766595395165 25.08106088906061,69.81334479927318 25.24243556219153,69.5019415980787 25.64587224496063,69.22167844581418 25.753455360536464,68.38088744756533 26.345162495272234,67.88263983905199 29.680239073582925,68.03834230391658 30.729174448992126,67.91378033833462 32.77325364202261,68.34974699580926 34.44079193135258,68.10062326767365 36.538662682054564,68.44316834147321 37.103474038071,68.31860654088086 38.71722076961305,68.50544922286645 38.986178558086976,68.8168534389697 39.38961524097249,68.87913424414 42.186776242102496,68.94141503662104 43.316398954135366,68.75457262108102 43.854314531199634,68.94141503662104 44.903249906608835,69.0348362015502 45.575644377968274,68.97255542807397 46.140455734101124,68.72343220748007 49.045199850574136,68.91027464202489 50.33619723562151,68.6611513705866 51.60029884206597,68.59887052097474 52.21890175563749,68.59887052097474 52.97198356373701,68.84799384311191 55.338812103145756,68.63001094732317 57.57116174825933,69.0036958163546 58.48561822937336,68.97255542807397 59.37317893165164,69.12825733798672 60.42211430706084,69.0348362015502 61.067612999584526,69.53308193251723 61.09450877853669,69.81334479927318 62.92342174076475,69.6265029166243 63.62271199107636,70.06246713193832 64.10683601046912,70.1558879542572 68.7867015314987,70.40501000775839 70.05080313782673,70.24930874819984 72.5790063503664,69.40852057581651 73.09002614871133,69.5019415980787 74.21964886062779,69.37738022877602 76.15614493831526,68.63001094732317 76.74785207316745,68.50544922286645 77.28576765046455,67.88263983905199 78.71124392969068,67.6023752023757 80.02913709380664,67.72693729482125 80.755323122954,67.94492083447403 83.63317146059126,67.75807781002368 84.33246171090286,67.6023752023757 84.84348150913138,67.25982918657246 85.3007097496884,67.69579677650472 86.0,67.6335157302965 84.52073216275312,66.60587663605111 84.46694060508162,66.8550015821238 84.78968995145988,67.19754805151024 84.27867015311494,67.57123467134079 83.33731789304875,67.78921832199558 80.9166977959685,67.97606132747023 79.24915950687137,68.6611513705866 78.98020171828102,68.63001094732317 78.73813970864285,68.10062326767365 78.38849458342884,65.67165628023213 77.85057900624815,63.7097842413059 77.12439297721721,63.86548883127398 77.07060141954571,64.36374298637384 76.55958162120078,64.39488384409924 76.04856182285585,64.92427794029936 75.32237579370849,64.89313713653246 74.40791931259446,65.11112269660225 74.2734404184157,65.32910810125759 74.43481509143021,65.73393772612326 74.38102353375871,66.16990749188699 73.54725438926835,66.16990749188699 73.14381770638283,65.88964128529187 72.90175569674466,65.51595261014882 73.03623459092341,64.92427794029936 71.34180052287411,65.07998191175284 71.09973851311952,65.8585005797213 71.26111318636686,65.20454503191286 71.18042584974319,64.73743306990946 70.85767650348134,64.4571655500622 70.42734404176008,64.4571655500622 69.67426223389339,64.70629224702134 69.80874112807214,65.88964128529187 69.51288756064605,65.8585005797213 68.73290997382719,66.38789214164717 68.00672394479625,65.82735987112392 67.28053791553248,65.765078444354 66.63503922300879,65.95192268671235 65.9895405304851,66.41903279325925 65.0481882704189,66.9172827869188 63.70339932758361,67.22868862070027 62.4930892791599,67.0418451584992 61.49794546130579,66.48131408682093 60.87934254773427,65.88964128529187 59.83040717220865,65.51595261014882 57.89391109463759,65.95192268671235 57.35599551734049,66.38789214164717 56.73739260365255,66.57473600350204 56.226372805424035,66.94842338454328 55.68845722824335,67.0729857434053 55.12364587234333,67.0418451584992 55.0160627567675,66.73043913437868 54.854688083636574,66.69929851451889 54.23608516994864,66.97956397896633 53.72506537172012,66.9172827869188 53.37542024650611,66.57473600350204 52.945087784784846,66.41903279325925 52.918192005949095,65.98306338276598 52.32648487109691,65.67165628023213 51.46581994765438,65.82735987112392 50.79342547629494,65.88964128529187 49.55621964880265,65.36024886072846 47.72730668657459,66.10762613482075 46.78595442662481,65.82735987112392 46.140455734101124,66.16990749188699 45.145311916363426,65.92078198757372 44.580500560230576,66.10762613482075 43.58535674260929,66.07648545160191 42.724691819166765,66.35675148692098 41.99850579001941,65.95192268671235 41.21852820320055,65.79621915932512 40.895778856938705,65.57823408767581 40.438550616265275,64.4571655500622 40.51923795288894,64.20803865016205 39.63167725072708,63.273810967453755 38.82480388483964,61.498770505335415 37.695181172923185,59.505730335979024 37.21105715353042,59.412306259269826 34.25252147926949,59.66143706697039 33.92977213289123,59.97285029137856 33.84908479638398,60.31540447176667 34.30631303694099,61.87246409067302 34.22562570043374,63.55407957202988 33.795293238712475,64.23917952371994 34.037355248467065,64.6751514209318 33.87598057533614,65.07998191175284 33.553231228957884,65.54709335046937 33.203586103976704,65.765078444354 31.805005603353493,65.64051555254264 30.11057153530419,65.67165628023213 29.330593948368914,65.51595261014882 28.362345909699798,65.60937482173904 27.824430332519114,66.20104816570529 27.12514008220751,66.07648545160191 26.883078072452918,66.29447016795166 26.21068360109348,66.16990749188699 25.753455360536464,66.26332950367942 25.215539783239365,66.16990749188699 24.43556219653692,65.67165628023213 24.16660440794658,65.2979673386144 23.87075084040407,65.20454503191286 21.719088531797752,65.1734042566386 20.266716473619454,65.32910810125759 19.48673888691701,64.98655953843263 18.599178184522316,64.79971470602322 18.303324617096223,64.5194472433941 15.96339185652323,64.4571655500622 15.317893163999543,65.79621915932512 14.0,69.40852057581651 14.026895778952166,69.81334479927318 14.268957788590342,70.06246713193832 16.31303698173724,69.75106418438372 16.689577885670587,69.6265029166243 17.20059768401552,69.19053807965247 17.44265969377011,69.25281880871626 18.410907732672058,69.06597658348619 19.56742622354068,68.6611513705866 20.05155024281703,68.6611513705866 21.853567426325753,68.25632562153623 23.52110571542289,68.16290421868325 24.462457975372672,67.6335157302965 24.67762420629151,67.35325086527155 25.914830033667386,67.322110308829 26.667911841650493,67.66465625504497 28.55061636166647,68.00720181723591 30.998132237582467,67.88263983905199 33.06910720956512,68.25632562153623 35.08629062375985,68.00720181723591 36.431079566595145,68.31860654088086 37.45311916328501,68.16290421868325 37.88345162500627,68.22518515712 38.7441165484488,68.41202789614908 39.03997011575848,68.72343220748007 42.02540156885516,68.91027464202489 43.101232723216526,68.6611513705866 44.768771012313664,68.97255542807397 45.60254015692044,68.87913424414 46.00597683980595,68.63001094732317 48.910720956278965,68.91027464202489 50.282405678066425,68.50544922286645 51.16996638022829,68.59887052097474 52.24579753447324,68.47430878374144 52.97198356373701,68.6611513705866 54.66641763178632,68.53658965870272 54.90847964142449,68.47430878374144 55.096750093391165,68.03834230391658 55.52708255511243,67.88263983905199 55.95741501683369,68.22518515712 55.84983190137427,68.53658965870272 56.03810235345736,68.69229179061949 58.969742248766124,68.91027464202489 60.36832274927292,68.8168534389697 60.98692566307727,69.28395916850423 60.98692566307727,69.6265029166243 61.12140455737244,69.6887835568341 62.9503175196005,69.4396609198011 63.40754576027393,69.59536259161541 63.918565558386035,70.00018656768952 67.25364213681314,70.34272951350431 69.83563690702431,70.28044900644454 70.21217781095766,70.03132685145829 69.86253268586006,66.82386097498238 69.56667911831755,66.8550015821238 69.21703399333637,67.19754805151024 68.57153530057985,66.20104816570529 68.06051550246775,65.82735987112392 67.54949570423923,65.67165628023213 66.79641389613971,65.82735987112392 65.344041837845,66.73043913437868 63.83787822187878,67.22868862070027 62.35861038474832,66.97956397896633 61.148300336208194,65.98306338276598 59.884198729880154,65.51595261014882 57.81322375801392,66.13876681489637 56.44153903622646,66.9172827869188 55.95741501683369,67.01070457030437 53.88644004485104,67.01070457030437 53.18714979453944,66.48131408682093 52.86440044816118,66.38789214164717 52.83750466944184,65.95192268671235 52.67612999631092,65.79621915932512 52.030631303670816,65.73393772612326 51.116174822556786,65.98306338276598 50.25550989911426,65.60937482173904 49.52932387008332,65.48481186653953 48.722450504195876,65.67165628023213 48.05005603283644,66.04534476509434 47.565932013327256,66.04534476509434 46.947329099755734,65.82735987112392 46.059768397477455,66.23218883626396 45.30668658937793,65.95192268671235 44.71497945464216,66.10762613482075 43.854314531199634,66.01420407547266 42.751587598002516,66.32561082899338 41.94471423246432,65.92078198757372 41.16473664552905,65.7027970047784 41.245423982152715,65.45367111987434 41.245423982152715,65.57823408767581 40.922674635774456,65.67165628023213 40.41165483742952,64.4571655500622 40.46544639521744,64.11461601036717 39.01307433692273,62.2461572191678 37.695181172923185,59.59915438416647 37.18416137469467,59.38116489397362 34.49458348902408,59.63029572716914 33.902876354171894,59.94170898324228 34.30631303694099,62.744414013344795 33.74150168104097,64.27032039410551 34.0642510271864,64.64401059181546 33.41875233477913,65.57823408767581 32.85394097864628,65.79621915932512 31.697422487894073,65.60937482173904 30.40642510273028,65.73393772612326 29.59955173707567,65.51595261014882 28.604407919337973,65.57823408767581 28.17407545761671,65.2668265729153 27.663055659388192,65.1734042566386 26.748599178274162,65.20454503191286 26.345162495272234,65.60937482173904 25.807246918207966,67.69579677650472 25.88793425471522,68.00720181723591 26.076204706798308,68.06948278742493 26.45274561084807,67.75807781002368 27.555472543812357,67.66465625504497 29.11542771756649,67.91378033833462 30.94434067979455,67.78921832199558 32.82704519992694,68.25632562153623 34.81733283516951,68.03834230391658 36.45797534554731,68.34974699580926 37.53380649979226,68.13176374477916 38.7441165484488,68.38088744756533 38.932387000415474,68.69229179061949 41.43369443400297,68.87913424414 43.47777362726629,68.6611513705866 44.903249906608835,68.91027464202489 46.140455734101124,68.6611513705866 47.91557713865768,68.78571303159697 48.722450504195876,69.0036958163546 50.309301456902176,68.56773009136668 52.24579753447324,68.56773009136668 53.10646245791577,68.78571303159697 56.03810235345736,68.59887052097474 57.24841240188107,68.94141503662104 58.969742248766124,69.06597658348619 60.36832274927292,68.87913424414 60.98692566307727,69.31509952511988 61.013821441913024,69.6887835568341 62.788942846353166,69.40852057581651 63.27306686586235,69.53308193251723 63.78408666420728,70.03132685145829 68.7867015314987,70.34272951350431 69.9432200222509,70.28044900644454 70.15838625316974,70.06246713193832 69.88942846469581,66.73043913437868 69.67426223389339,66.73043913437868 69.3784086664673,67.10412632516818 69.16324243554845,67.1664074792352 68.51774374302477,66.07648545160191 67.65707881946582,65.7027970047784 66.85020545392763,65.79621915932512 66.15091520361602,66.29447016795166 64.53716847219039,67.10412632516818 63.353754202486016,67.25982918657246 62.062756817322224,66.82386097498238 60.66417631669901,65.73393772612326 59.776615614420734,65.54709335046937 57.86701531568542,66.13876681489637 57.43668285396416,66.48131408682093 56.011206574505195,67.0418451584992 55.0160627567675,66.9172827869188 54.82779230468441,66.69929851451889 54.26298094878439,66.9172827869188 53.83264848717954,66.9172827869188 53.24094135221094,66.45017344158259 52.81060889060609,66.32561082899338 52.83750466944184,65.8585005797213 52.43406798655633,65.7027970047784 52.08442286134232,65.67165628023213 51.03548748593312,65.98306338276598 50.01344788947608,65.45367111987434 49.55621964880265,65.3913896169106 48.96451251395047,65.45367111987434 47.8348898019176,66.01420407547266 46.974224878591485,65.765078444354 46.140455734101124,66.13876681489637 45.145311916363426,65.88964128529187 44.580500560230576,66.07648545160191 43.82741875236388,65.98306338276598 42.751587598002516,66.29447016795166 42.10608890559524,65.95192268671235 41.272319760988466,65.765078444354 41.11094508774113,65.60937482173904 41.245423982152715,65.42253036992042 41.11094508774113,65.64051555254264 40.895778856938705,65.51595261014882 40.38475905859377,64.48830639832886 40.46544639521744,64.20803865016205 39.900635039201006,63.647502383071696 38.7441165484488,61.68561735510593 38.044826298137195,59.848285039683105 37.695181172923185,59.38116489397362 37.42622338433284,59.31888215392246 34.0104594695149,59.63029572716914 33.902876354171894,60.25312192205456 34.14493836381007,60.78252319007879 34.27941725810524,62.806696055456996 33.795293238712475,64.17689777343185 33.98356369067915,64.55058808525791 33.553231228957884,65.32910810125759 32.93462831526995,65.73393772612326 31.616735151270404,65.54709335046937 30.083675756468438,65.64051555254264 29.384385506156832,65.45367111987434 28.389241688419133,65.54709335046937 27.95890922669787,66.04534476509434 27.582368322764523,66.10762613482075 27.07134852441959,66.01420407547266 26.80239073582925,66.20104816570529 25.94172581238672,65.88964128529187 26.103100485517643,66.10762613482075 25.08106088906061,66.01420407547266 23.897646619356237,65.11112269660225 22.660440791863948,65.20454503191286 21.342547627864406,65.01770033268258 20.239820694900118,65.20454503191286 18.733657078817487,64.76857388953795" stroke="#4dd2ff" stroke-linecap="round" stroke-linejoin="round" stroke-width="0.5"><title>2024-09-17 15.3km</title><desc>12429392363</desc></polyline><polyline fill="none" points="124.17907634295989,83.16045132986619 124.82375117810443,81.5105370618985 125.1630537227029,80.01775140527752 125.70593779440969,78.95708440174349 126.58812441071495,76.05005618248833 127.02921771910042,75.42150666000089 127.60603204520885,74.12512003496522 127.80961357208434,73.14300605474273 128.79359095194377,70.19664911029395 129.23468425997999,69.37166513278498 129.6418473138474,69.13595510079176 129.6418473138474,68.46810922803706 129.77756833157036,67.99668791570002 130.2865221487591,67.48598084380501 130.62582469370682,67.3288400702586 131.91517436376307,67.25026965956204 134.6974552309839,67.6431215533521 136.12252591887955,67.52526602722355 137.34401508013252,67.76097704345011 138.70122525899205,68.23239864385687 139.14231856737752,68.2716837512271 141.31385485373903,67.9574027803319 141.7549481621245,67.9574027803319 143.24787935893983,68.2716837512271 144.16399622976314,68.11454329782282 144.7408105561044,68.07525817441638 145.48727615445387,68.310968854581 146.09802073508035,68.23239864385687 146.30160226207227,68.35025395394769 146.53911404323298,68.74310472747311 149.592836946249,68.93952996414737 150.06786050880328,68.86095988145098 150.78039585298393,68.90024492473458 151.90009425068274,68.7038196681533 152.30725730443373,68.7038196681533 152.78228086710442,68.86095988145098 154.20735155511647,68.97881499951473 154.95381715346593,68.90024492473458 155.49670122528914,68.62524953737739 156.07351555128116,68.7038196681533 156.7181903863093,68.66453460478806 157.19321394897997,68.82167483406374 159.0593779453775,69.01810003080755 159.7040527802892,68.93952996414737 160.55230914230924,68.62524953737739 161.5702167765703,68.66453460478806 162.28275212063454,68.54667939065257 163.19886899145786,68.50739431133843 164.14891611679923,68.74310472747311 165.6418473138474,68.62524953737739 166.08294062200002,68.78238978274749 166.25259189435747,69.01810003080755 166.52403393003624,68.82167483406374 167.40622054657433,68.62524953737739 167.5758718190482,68.74310472747311 168.39019792631734,68.78238978274749 169.71347785100807,69.05738505811314 170.7653157399036,69.05738505811314 172.12252591876313,69.21452512755059 173.41187558905222,68.97881499951473 173.78510838828515,69.37166513278498 174.0904806785984,69.60737502065604 174.22620169643778,69.96093958243728 174.39585296879523,70.00022451378754 176.16022620163858,69.60737502065604 176.56738925527316,69.60737502065604 177.2120640904177,69.80379981713486 177.6192271441687,70.27521892089862 178.02639019791968,70.3930736068287 178.8746465598233,70.35378871535067 180.29971724771895,70.5502131319081 184.03204524039757,70.6287828705099 185.62676720065065,70.51092825669912 185.96606974548195,70.27521892089862 185.69462770968676,68.38953904921073 185.7964184731245,67.40741046515177 185.55890669184737,66.26813817431685 185.28746465593576,66.22885286289966 184.77851083874702,66.73956159935915 184.57492931187153,66.73956159935915 183.93025447695982,65.60028733601212 183.45523091417272,65.16814794205129 182.9462770971004,64.93243534123758 182.36946277099196,64.85386444226606 181.58906691800803,65.0110062242602 180.84260131954215,65.67885808288702 178.94250706862658,66.62170579718077 178.0603204522049,66.77884685873869 177.3477851083735,66.77884685873869 176.63524976430926,66.62170579718077 175.85485391132534,66.30742348180502 175.4137606031727,66.03242624585982 174.19227144191973,64.89314989375998 173.31008482561447,64.50029519907548 172.93685202626511,64.46100970753469 172.292177191237,64.61815164948348 171.44392082944978,65.08957709110109 170.32422243151814,65.4824311856064 168.59377945319284,66.38599408464506 167.84731385484338,66.54313524221652 166.897266729502,66.50384995888453 166.65975494799204,66.26813817431685 166.5579641845543,66.50384995888453 165.54005655040964,66.5824205216777 164.92931196978316,66.38599408464506 164.45428840711247,65.91457022746908 163.9792648444418,65.71814345029998 164.01319509895984,65.12886251849704 163.26672950037755,64.77529352737474 162.82563619222492,64.81457898684312 162.21489161159843,65.08957709110109 161.60414703108836,65.16814794205129 160.72196041466668,64.73600806389004 159.9754948160844,64.53958068651264 159.0593779453775,64.61815164948348 158.00754005648196,65.16814794205129 157.7021677660523,65.28600418849965 157.19321394897997,65.24671877693618 156.44674835063051,64.89314989375998 156.1753063147189,65.0110062242602 155.93779453332536,65.28600418849965 155.56456173420884,65.36457499925746 155.1234684259398,65.32528959581396 154.3770028273575,65.05029165968881 153.5287464655703,65.32528959581396 152.81621112138964,65.16814794205129 152.30725730443373,65.2074333614728 151.35721017897595,65.60028733601212 150.2714420357952,65.05029165968881 149.2535344014177,64.81457898684312 148.98209236562252,64.57886616993346 148.23562676715665,63.28244310224545 148.4052780395141,62.92887241853168 147.96418473136146,62.53601572295884 147.5230914230924,61.71101535993512 147.14985862385947,61.357443235610845 146.70876531570684,60.689583894010866 146.03016022616066,59.11814558747574 145.89443920820486,58.489568472112296 145.24976437329315,57.23241116810823 144.91046182834543,56.9181212017138 144.09613572107628,56.83954867013381 141.38171536277514,57.07526621679426 140.77097078226507,57.153838700498454 140.29594721959438,57.35026983934222 140.16022620152216,58.057421111065196 140.53345900087152,58.88242928922409 140.6013195097912,59.55029176006792 140.39773798303213,60.80744150897954 140.43166823743377,62.182444354868494 140.3298774738796,62.614587094052695 139.99057492928114,62.81101545182173 139.92271442036144,62.968158066039905 139.95664467464667,63.125300616113236 140.22808671055827,63.40029992489144 139.65127238444984,64.22529667449999 139.24410933081526,64.61815164948348 138.90480678598396,64.73600806389004 138.42978322331328,64.73600806389004 137.37794533453416,64.53958068651264 136.0207351554418,64.69672259644722 134.12064090487547,64.42172421197756 133.00094250694383,64.57886616993346 132.5598491989076,65.16814794205129 132.22054665407632,65.36457499925746 131.57587181893177,65.28600418849965 131.40622054669075,65.28600418849965 131.16870876518078,65.4824311856064 130.96512723830529,65.4824311856064 129.8454288407229,65.0110062242602 129.91328934952617,65.36457499925746 129.77756833157036,65.44314579418278 129.81149858608842,65.40386039880104 129.50612629577518,65.24671877693618 129.098963242257,65.2074333614728 128.8275212063454,65.05029165968881 127.67389255401213,64.14672563152271 125.7737983034458,64.22529667449999 124.58623939671088,63.989583497605054 123.94156456168275,63.95029795405571 122.85579641838558,64.22529667449999 121.66823751176707,63.79315574001521 120.61639962287154,63.63601346191717 120.37888784171082,63.321728713810444 119.25918944377918,63.321728713810444 118.27521206391975,63.04672934912378 117.63053722889163,63.04672934912378 117.25730442965869,63.24315748672234 117.08765315741766,63.63601346191717 116.8501413759077,64.65743712490075 115.56079170596786,67.48598084380501 115.22148916102014,68.82167483406374 115.01790763414465,69.17524011607748 114.95004712534137,69.45023511143518 115.01790763414465,69.88236970789148 115.4590009424137,70.11807928368216 116.40904806787148,70.00022451378754 116.71442035818473,70.07879436429357 118.30914231843781,69.72522991066216 118.61451460875105,69.33238013740629 118.98774740798399,69.09667008140241 119.15739868034143,69.01810003080755 119.39491046173498,69.05738505811314 120.00565504247788,68.82167483406374 120.85391140426509,68.7038196681533 121.22714420349803,68.2716837512271 121.26107445778325,68.42882414060296 121.46465598489158,68.46810922803706 122.51649387355428,68.46810922803706 123.50047125353012,68.310968854581 125.33270499517675,67.80026219884166 127.19886899134144,67.6431215533521 127.74175306316465,67.25026965956204 128.31856738915667,66.9752730957116 128.52214891603217,66.5824205216777 129.13289349654224,66.54313524221652 129.60791705921292,66.5824205216777 129.74363807728514,66.85741736565251 129.74363807728514,66.77884685873869 130.04901036759838,66.81813211416011 130.15080113103613,66.70027633590507 130.38831291219685,66.81813211416011 130.93119698402006,67.2109844481165 131.67766258236952,67.13241401340929 133.03487276146188,67.44669565645745 134.18850141367875,67.48598084380501 136.19038642779924,67.3288400702586 136.59754948155023,67.36812526971335 138.1583411875181,67.83954735018779 139.0065975494217,67.99668791570002 139.78699340240564,67.91811764103477 140.70311027322896,67.6431215533521 141.144203581498,67.60383638204075 142.06032045243774,67.72169188410044 143.11215834121685,68.03597304702271 144.8765315739438,67.80026219884166 146.09802073508035,68.11454329782282 146.43732327979524,68.50739431133843 149.592836946249,68.74310472747311 150.91611687082332,68.7038196681533 151.93402450508438,68.50739431133843 152.30725730443373,68.54667939065257 152.81621112138964,68.74310472747311 153.96983977372292,68.86095988145098 154.9198868990643,68.66453460478806 155.42884071625303,68.35025395394769 155.73421300644986,68.310968854581 156.27709707815666,68.38953904921073 156.81998114986345,68.38953904921073 157.15928369457833,68.62524953737739 157.60037700284738,68.62524953737739 158.88972667290363,68.86095988145098 159.7040527802892,68.74310472747311 160.75589066906832,68.38953904921073 161.7737983033294,68.54667939065257 162.82563619222492,68.38953904921073 163.53817153617274,68.42882414060296 163.6399622997269,68.54667939065257 164.18284637131728,68.66453460478806 165.74363807716873,68.46810922803706 166.2186616398394,68.54667939065257 166.2186616398394,68.82167483406374 167.06691800185945,68.54667939065257 167.60980207344983,68.54667939065257 169.67954759649,68.97881499951473 170.66352497646585,68.90024492473458 172.2243166824337,68.97881499951473 173.17436380765866,68.78238978274749 173.6154571158113,68.86095988145098 173.85296889720485,68.97881499951473 174.2940622054739,69.41095012406004 174.2940622054739,69.80379981713486 176.16022620163858,69.52880507404916 177.04241281806026,69.64665998803684 177.3477851083735,69.88236970789148 177.44957587169483,70.07879436429357 177.92459943448193,70.35378871535067 180.4015080111567,70.43235849411576 183.7945334588876,70.43235849411576 184.5409990574699,70.5502131319081 185.76248821872286,70.43235849411576 185.96606974548195,70.31450382017647 186.0,70.15736419902532 185.69462770968676,68.03597304702271 185.5249764372129,66.07171157732955 185.21960414689966,66.11099690472474 184.84637134778313,66.50384995888453 184.60885956638958,66.54313524221652 184.201696512755,65.75742881378392 183.7945334588876,65.24671877693618 182.91234684246592,64.77529352737474 182.50518378883135,64.77529352737474 181.52120640897192,65.05029165968881 181.0122525918996,65.4824311856064 178.97643732326105,66.42527938002604 178.09425070683938,66.62170579718077 176.60131950990763,66.5824205216777 175.95664467476308,66.30742348180502 175.04052780370694,65.71814345029998 174.49764373223297,65.12886251849704 173.51366635237355,64.69672259644722 172.93685202626511,64.57886616993346 172.19038642779924,64.73600806389004 170.79924599430524,65.24671877693618 170.39208294067066,65.28600418849965 169.91705937788356,65.63957271142863 169.102733270498,65.87528488005046 168.288407162996,66.26813817431685 166.79547596606426,66.464564671478 166.65975494799204,66.30742348180502 165.57398680481128,66.5824205216777 165.098963242257,66.464564671478 164.6918001883896,65.99314091031556 164.08105560787953,65.71814345029998 164.01319509895984,65.16814794205129 163.5721017906908,64.81457898684312 162.96135721018072,64.77529352737474 162.1809613573132,65.12886251849704 161.7737983033294,65.16814794205129 160.82375117822085,64.73600806389004 160.00942507060245,64.50029519907548 159.09330819977913,64.61815164948348 157.5664467482129,65.32528959581396 157.29500471241772,65.28600418849965 156.41281809599604,64.89314989375998 155.42884071625303,65.28600418849965 154.580584354233,64.93243534123758 154.2412818095181,64.89314989375998 153.42695570213255,65.2074333614728 152.61262959463056,65.12886251849704 151.56079170573503,65.521716573101 151.2554194155382,65.521716573101 150.2714420357952,64.93243534123758 149.49104618269484,64.81457898684312 148.94816211122088,64.34315320898895 148.33741753047798,63.24315748672234 148.4052780395141,62.88958676694892 147.69274269544985,62.02530142056639 147.14985862385947,61.27887160828686 146.6748350611888,60.4145826526219 146.09802073508035,59.628863739431836 145.52120640908834,58.2931379134825 145.35155513661448,57.54670087818522 145.11404335522093,57.07526621679426 144.50329877459444,56.83954867013381 141.21206409030128,57.114552460756386 140.6013195097912,57.23241116810823 140.3298774738796,57.46812847474939 140.29594721959438,57.939562655839836 140.66918001882732,59.039573504182044 140.56738925538957,59.86457958148094 140.66918001882732,61.00387078701169 140.53345900087152,61.71101535993512 140.29594721959438,62.22173007854144 140.29594721959438,62.53601572295884 140.05843543808442,62.92887241853168 140.12629594723694,63.125300616113236 140.3298774738796,63.28244310224545 140.3298774738796,63.47887111996533 139.8887841658434,64.42172421197756 139.71913289348595,64.57886616993346 139.4137606031727,64.73600806389004 135.40999057493173,64.69672259644722 134.86710650322493,64.57886616993346 134.2902921771165,64.57886616993346 133.61168708757032,64.73600806389004 133.1705937794177,64.69672259644722 132.69557021663059,65.24671877693618 132.45805843535345,65.32528959581396 132.1526861450402,65.40386039880104 131.64373232785147,65.24671877693618 131.27049952861853,65.44314579418278 130.42224316683132,65.28600418849965 129.6418473138474,65.0110062242602 128.99717247870285,64.97172078469885 128.04712535336148,64.50029519907548 127.63996229961049,64.14672563152271 126.85956644662656,64.1074401040969 125.97737983020488,64.22529667449999 124.28086710628122,64.02886903710896 123.87370405264664,64.02886903710896 122.85579641838558,64.26458219008055 121.26107445778325,63.75387017655885 120.92177191318478,63.71458460908616 120.4467483505141,63.28244310224545 118.37700282747392,63.00744370961911 117.3251649386948,63.125300616113236 116.74835061246995,64.97172078469885 116.23939679528121,66.03242624585982 115.76437323261052,67.6431215533521 115.05183788877912,69.45023511143518 115.08576814306434,70.03950944106327 114.9161168707069,70.51092825669912 114.98397737974301,71.3751945887052 114.44109330803622,71.92518124633352 114.23751178116072,72.00375070495647 114.0,73.14300605474273" stroke="#4dd2ff" stroke-linecap="round" stroke-linejoin="round" stroke-width="0.5"><title>2024-09-15 10.2km</title><desc>12412483970</desc></polyline><polyline fill="none" points="24.324528301949613,162.91728246214916 25.818867924506776,159.26043994474458 26.2603773586452,157.80555748470942 26.600000000093132,156.7438830404135 27.550943396170624,154.65984693777864 29.316981132142246,149.78394493839005 29.860377358621918,148.56495981680928 30.74339622654952,147.81783800121048 33.222641509608366,148.05377136234893 36.61886792466976,147.97512692466262 39.94716981134843,148.5256376520265 42.12075471703429,148.40767113369657 44.49811320763547,148.44699331055745 46.60377358493861,149.1941139085393 50.84905660385266,149.3120801865589 53.09056603780482,149.35140227118973 54.89056603773497,149.3120801865589 55.53584905655589,148.99750336506986 56.65660377370659,149.0368254816858 59.67924528301228,149.3120801865589 60.867924528196454,148.91885911961435 63.17735849041492,148.80089272130863 64.33207547152415,149.11546970315976 66.2339622641448,149.0368254816858 66.50566037732642,149.43004642854794 67.69433962262701,149.11546970315976 70.98867924523074,149.35140227118973 73.43396226398181,149.3120801865589 74.0452830188442,149.7446228977933 74.35094339621719,150.0591991104593 74.52075471694116,150.41309704363812 76.28679245279636,150.09852111901273 77.54339622636326,150.76699465233833 80.22641509422101,151.04224812364555 84.36981132056098,151.16021383696352 86.0,150.72767271174234 85.45660377352033,146.71681374296895 85.1849056603387,146.71681374296895 84.67547169793397,147.18868166671018 83.48679245263338,145.61578634465695 82.16226415080018,145.30120651135803 80.43018867913634,146.36291242172592 78.29056603764184,147.30664855748182 77.0679245282663,147.14935936179245 75.77735849050805,146.6381690329581 73.43396226398181,145.1439164984913 72.10943396226503,145.0652714680764 70.30943396233488,145.85172105155652 68.5094339621719,146.87410311502754 66.91320754727349,146.99207010192913 66.33584905671887,147.26732626458397 65.82641509431414,146.87410311502754 65.24905660375953,146.91342544797226 64.0943396226503,146.2449452424189 64.06037735845894,145.65510880592046 63.38113207544666,145.22256151292822 62.09056603780482,145.57646387952263 61.51320754713379,145.5371414104884 60.52830188674852,145.0652714680764 58.966037735925056,145.1439164984913 57.47169811313506,145.96968835082953 56.62264150939882,145.49781893723411 55.87547169823665,145.81239861046197 54.9245283016935,145.85172105155652 53.59999999997672,145.81239861046197 52.13962264161091,145.77307616526377 51.256603773566894,146.12697802722687 49.28679245291278,145.37985149363521 48.23396226414479,143.7676261527522 48.30188679252751,143.25643134626443 47.14716981141828,141.919457113283 46.26415094337426,140.30721732135862 45.890566037618555,140.07127922598738 45.58490566036198,138.73429396233405 44.7698113208171,137.24001083523035 41.95094339642674,137.5545972372347 40.45660377363674,137.75121360848425 40.150943396263756,138.26241570495768 40.49056603771169,139.36346407496603 40.150943396263756,143.09914050024236 40.015094339847565,143.57101284572855 40.015094339847565,144.23949768120656 39.335849056602456,145.30120651135803 37.53584905655589,145.1439164984913 35.735849056742154,145.1439164984913 34.30943396233488,144.98662642159616 33.1207547171507,145.02594894682989 32.747169811395,145.5371414104884 31.96603773604147,145.85172105155652 31.32075471698772,145.85172105155652 30.030188679345883,145.61578634465695 28.841509434045292,145.61578634465695 27.6528301887447,144.63272351428168 26.29433962260373,144.63272351428168 24.46037735848222,144.4361106478027 22.830188679276034,144.67204607548774 20.690566037781537,144.12152985314606 20.215094339684583,143.72830349946162 17.192452830378897,143.84627144757542 15.42641509452369,148.5256376520265 15.01886792469304,150.41309704363812 15.630188679206185,150.72767271174234 18.34716981148813,150.21648712083697 18.95849056611769,149.66597880449262 19.705660377512686,149.43004642854794 21.81132075493224,148.99750336506986 25.581132075516507,148.32902676807134 27.44905660394579,147.93580469983863 28.400000000023283,147.30664855748182 29.622641509515233,147.42461541233934 29.92830188688822,147.26732626458397 30.98113207553979,147.81783800121048 33.01886792469304,148.05377136234893 36.31320754729677,147.93580469983863 38.86037735873833,148.44699331055745 42.08679245284293,148.40767113369657 43.92075471696444,148.48631548325648 45.958490566001274,148.72224843592267 49.830188679276034,149.35140227118973 51.59622641513124,149.07614759440185 52.852830188698135,149.3120801865589 54.82264150946867,149.27275809794082 55.90943396219518,149.07614759440185 58.32075471698772,149.35140227118973 59.781132075353526,149.23343600527733 60.93584905646276,148.8795369908039 63.21132075472269,148.84021485812264 64.33207547152415,149.1941139085393 66.43773584882729,148.84021485812264 66.94716981123202,148.64360413426766 67.21886792464647,148.60428197760484 67.96603773580864,149.07614759440185 69.73207547166385,149.39072435192065 71.36226415098645,149.46936850136262 73.63773584889714,149.23343600527733 74.14716981130186,149.7446228977933 74.28301886795089,150.2558091134415 76.08301886788104,150.09852111901273 77.1358490565326,150.2951311019424 78.12075471691787,150.84563852119027 83.58867924520746,151.0815700320527 85.89811320742592,150.92428237429704 85.8301886790432,150.17716512430343 85.45660377352033,146.67749138991348 84.64150943385903,147.18868166671018 84.13207547168713,146.44155718770344 82.80754716985393,145.30120651135803 81.68679245270323,145.4584964600217 79.58113207540009,146.83478077795007 77.61132075462956,147.30664855748182 75.84528301865794,146.91342544797226 74.31698113190942,145.5371414104884 73.0943396226503,145.02594894682989 71.97358490561601,145.02594894682989 71.0226415094221,145.41917397890938 69.83396226412151,146.0876556141884 68.10188679234125,146.87410311502754 66.67547169805039,146.83478077795007 66.53962264151778,146.6381690329581 65.07924528303556,146.83478077795007 64.43396226409823,146.36291242172592 63.92452830192633,145.93036592175486 63.550943396170624,145.2618840142095 62.19245283014607,145.5371414104884 61.44528301875107,145.49781893723411 59.88301886781119,144.90798135910882 58.93207547161728,145.1439164984913 57.26792452821974,145.69443126296392 55.90943396219518,145.69443126296392 55.094339622650295,145.77307616526377 53.633962264168076,145.73375371607835 51.96981132077053,145.81239861046197 51.08679245284293,146.00901077597518 49.218867924646474,145.2618840142095 48.30188679252751,143.7676261527522 47.65660377359018,142.62726757806377 46.87547169823665,141.44758274918422 46.060377358458936,139.91398708240013 45.347169811371714,137.43662736660917 44.46415094344411,137.08271753787994 40.830188679276034,137.5545972372347 40.1169811320724,138.18376927261124 40.45660377363674,139.99263316229917 40.52452830190305,141.8014885763405 40.218867924413644,142.74523586273426 39.91320754715707,143.57101284572855 40.04905660380609,144.04288461443502 39.23396226414479,145.2618840142095 37.60377358493861,145.18323900771793 33.90188679250423,145.02594894682989 32.95094339631032,145.1439164984913 32.10188679257408,145.89104348863475 31.116981132188812,145.96968835082953 29.656603773473762,145.49781893723411 28.943396226502955,145.69443126296392 27.720754717011005,144.63272351428168 26.600000000093132,144.51475580642 24.46037735848222,144.39678806244046 22.38867924537044,144.51475580642 20.962264150963165,144.3181428798125 18.143396226339974,143.57101284572855 16.81886792462319,144.7113686328521 16.513207547250204,145.89104348863475 15.630188679206185,147.93580469983863 14.950943396193907,150.01987709806417 14.747169811511412,151.04224812364555 14.577358490554616,150.92428237429704 14.747169811511412,150.96360429469496 14.747169811511412,151.71072002273286 14.271698113298044,152.3398689882597" stroke="#4dd2ff" stroke-linecap="round" stroke-linejoin="round" stroke-width="0.5"><title>2024-09-07 10.2km</title><desc>12344991930</desc></polyline><polyline fill="none" points="123.23605150193907,163.59561074752128 124.16309012868442,161.72726870680344 125.15879828308243,159.06387203969643 125.46781115862541,158.03031022954383 125.81115879816934,157.03649821598083 126.42918454913888,155.12837205684627 127.04721030022483,153.93578847064055 128.2489270385122,150.5567818551499 129.14163090114016,148.9268976181047 129.82832618011162,147.2970065747213 131.03004291828256,147.1379924499197 132.9871244635433,147.37651361274766 137.6223175963387,147.69454160306486 140.50643776822835,147.53552764025517 141.29613733885344,147.65478811843786 144.11158798274118,147.77404856012436 145.0386266093701,148.01256933424156 145.86266094411258,148.25108996251947 146.96137339051347,148.4896104451327 149.9828326179413,148.68837740272284 151.32188841188326,148.3703502221615 152.42060085828416,148.5691172403167 155.20171673805453,148.25108996251947 156.84978540753946,148.4896104451327 158.4291845493717,148.72813078202307 159.8712446350837,148.52936384471832 160.66094420594163,148.17158310272498 162.9270386265125,148.25108996251947 164.64377682388294,148.52936384471832 166.4291845492553,148.01256933424156 167.2875536478823,148.25108996251947 168.48927038616966,148.4896104451327 170.44635193131398,148.72813078202307 173.36480686685536,148.68837740272284 173.9141630900558,149.08591101397178 174.3605150213698,149.76171722385334 175.49356223153882,149.76171722385334 177.21030042914208,149.80147049381048 182.46351931325626,150.4772754649748 185.72532188845798,150.31826263578841 185.58798283245414,147.336760095699 185.27896995691117,145.90563078664127 184.59227467805613,146.4224280869239 183.4592274677707,144.79252658499172 182.32618025725242,144.43474241753574 180.84978540765587,145.22981790004997 179.30472102982458,146.14415270261816 175.90557939908467,146.14415270261816 173.70815450616647,144.67326523241354 172.163090128568,144.39498860086314 170.03433476388454,145.07080293312902 168.79828326182906,145.6671087249415 166.80686695268378,146.2236599754542 165.60515021439642,146.70070327282883 165.2618025750853,146.38267447269754 164.36909871234093,145.74661609515897 163.75107296125498,145.22981790004997 163.16738197405357,144.51425003859913 161.862660944229,144.75277280484443 160.9699570814846,144.67326523241354 159.18454935611226,144.23597329377662 156.8154506436549,144.91178790136473 155.88841201702598,144.75277280484443 154.99570815451443,145.22981790004997 153.27896995691117,145.07080293312902 150.84120171656832,145.30932535915053 148.8497854077723,144.5937576435681 148.26609442045446,143.75892698395182 147.85407725302503,142.52655465138378 145.93133047188167,139.7835183927964 145.48497854056768,138.6306423272763 144.93562231748365,137.08021742117126 144.3862660942832,136.5236531320552 140.95278969942592,136.56340775053832 139.75107296113856,136.72242618355085 139.6480686693685,137.3187447307282 140.12875536468346,139.06794054608326 140.0944206006825,141.09540770435706 139.78540772513952,142.04950625216588 139.33905579394195,142.8048326150747 139.75107296113856,143.40114186893334 138.6523605149705,144.63351143998443 136.76394849771168,144.31548095541075 133.9141630899394,144.07695792193408 132.02575107268058,144.87203413329553 130.8583690985106,144.91178790136473 130.4806866950821,145.19006416434422 128.69527896982618,145.11055668085464 127.42489270376973,144.23597329377662 126.53218884114176,143.67941920898738 123.64806866936851,143.56015751612722 121.1072961371392,143.5204036103387 119.8712446349673,143.0831103802484 117.98283261794131,142.76507863224833 116.64377682388294,142.88434056809638 115.03004291828256,146.89947114133975 114.24034334742464,149.44369091792032 114.89270386239514,150.11949650844326 117.05579399119597,149.64245738950558 117.81115879805293,149.20517101840232 118.70386266079731,149.00640432408545 120.21459227451123,148.76788415727788 121.86266094399616,148.2908433864941 123.16738197416998,148.13182966661407 125.19313304696698,147.89330896548927 126.70386266079731,147.73429508355912 127.49356223165523,147.1379924499197 128.72961373371072,146.62119609711226 129.1072961371392,146.34292085451307 129.27896995691117,146.46218169704662 130.41201716731302,147.05848536328995 131.40772532182746,147.1777459871373 133.46781115874182,147.336760095699 135.52789699553978,147.1777459871373 138.1373390556546,147.65478811843786 140.8154506436549,147.53552764025517 142.94420600845478,147.85355550103122 145.65665236033965,147.93306242572726 145.96566523588262,148.4101036339125 146.78969957085792,148.33059680627775 150.46351931313984,148.60887063175323 152.4549356221687,148.5691172403167 154.54935622296762,148.4896104451327 155.78540772513952,148.52936384471832 157.19313304696698,148.44985704158898 158.73819742479827,148.60887063175323 160.1802575107431,148.25108996251947 161.55364806868602,148.2908433864941 162.99570815439802,148.17158310272498 166.05150214594323,148.2908433864941 166.2575107293669,148.13182966661407 166.97854077233933,148.21133653464494 170.54935622308403,148.52936384471832 172.3347639485728,148.8473908957385 173.81115879816934,148.8871442588279 174.32618025736883,149.64245738950558 174.80686695256736,149.48344422038645 176.1802575107431,149.32443098630756 177.45064377668314,150.00023678332218 184.21459227451123,150.39776905853068 185.93133047199808,150.03999002903583 185.14163090125658,145.9453844493837 184.62660944194067,146.38267447269754 182.94420600845478,144.4744962301338 181.94849785394035,144.4744962301338 180.6094420599984,145.34907908269088 178.61802575085312,146.34292085451307 176.59227467805613,146.1839063410589 173.87982832617126,144.4744962301338 172.0944206007989,144.39498860086314 170.0686695278855,145.15031042456394 168.86695278959814,145.78636977411225 167.1502145921113,146.30316723228316 166.7038626607973,146.06464541351306 164.84978540765587,146.06464541351306 163.78540772525594,145.4683402288938 163.09871244628448,144.51425003859913 160.07725321885664,144.35523478023242 158.53218884102535,144.51425003859913 156.98712446331047,144.9515416654467 156.163090128568,144.55400384310633 155.442060085712,144.99129542527953 154.68669527885504,145.07080293312902 153.96566523588262,144.63351143998443 152.2489270385122,144.8322803612391 150.7038626607973,145.26957163162297 148.98712446331047,144.4744962301338 148.78111587965395,144.19621945696417 148.06008583679795,143.71917309841956 147.64806866948493,142.92409453858272 147.9570815450279,142.44704662528238 146.96137339051347,141.53270316161797 146.37768240331206,140.69786595445476 145.7596566522261,139.62450120702852 145.27896995691117,137.19948109411052 143.97424892685376,136.40438925247872 141.1244635191979,136.72242618355085 139.81974248914048,136.76218078177772 139.579399141483,137.83555340126622 139.81974248914048,138.47162467151065 139.9570815449115,141.0158993868681 139.37339055771008,142.04950625216588 139.6480686693685,143.12286433050758 139.20171673805453,144.35523478023242 137.5536480685696,144.55400384310633 136.1802575106267,144.4744962301338 134.12017167371232,144.27572712668916 132.43776824011002,144.27572712668916 131.81974248914048,144.99129542527953 130.99570815439802,144.91178790136473 130.13733905553818,145.03104918118333 129.21030042902566,144.79252658499172 128.48927038605325,144.8322803612391 126.97854077233933,143.87818861601409 125.15879828308243,143.79868086532224 122.89270386239514,143.67941920898738 120.86695278959814,143.48064970059204 119.52789699553978,143.04335642588558 116.746781115653,142.72532464558026 116.33476394845638,143.71917309841956 115.33905579382554,146.1839063410589 114.61802575085312,148.01256933424156 114.20600858342368,149.72196394982166" stroke="#4dd2ff" stroke-linecap="round" stroke-linejoin="round" stroke-width="0.5"><title>2024-08-31 10.2km</title><desc>12285168865</desc></polyline><polyline fill="none" points="23.094736842089333,243.6411448965664 24.67942583723925,240.2110199338058 24.92057416262105,239.17399949609535 25.575119617278688,237.21960736133042 25.816267942544073,236.26235051261028 26.746411483269185,233.82931215749704 29.36459330143407,227.68682020745473 30.673684210516512,227.1284070709953 33.56746411486529,227.56716031680116 35.97894736845046,227.40761373876012 38.32153110043146,227.92613987938967 42.66220095695462,228.0059130708687 45.79712918656878,228.28511911295936 49.0698564593913,228.72387106274255 51.41244019148871,228.48455187832587 53.68612440198194,228.8036440917058 54.995215311064385,228.4047787844611 56.54545454564504,228.60421148885507 58.61244019155856,228.8036440917058 60.19712918670848,228.32500567423995 61.67846889945213,228.48455187832587 63.297607655636966,228.28511911295936 63.95215311006177,228.56432495603804 66.0535885168938,228.3648922314169 66.26028708124068,228.56432495603804 66.81148325360846,228.28511911295936 70.87655502394773,228.68398454220733 73.0468899521511,228.68398454220733 73.90813397138845,229.20250899280654 74.21818181837443,229.68114633782534 75.35502392344642,229.52160062102485 77.11196172249038,229.7210327568173 77.35311004787218,230.3193285545567 80.00574162683915,230.47887394629652 85.68995215324685,230.43898760448792 86.0,229.92046479100827 85.55215311003849,226.01157840932137 85.0698564593913,226.17112555590575 84.62200956942979,226.4503329062427 83.79521531099454,225.13406794064213 82.55502392363269,224.45599032263272 81.62488038279116,224.77508581857546 79.28229665081017,226.131238775386 78.31770334939938,226.49021965442807 77.00861244020052,226.4104461540992 74.80382775119506,225.0144072698895 73.56363636360038,224.3363294446608 71.94449760764837,224.45599032263272 70.32535885169636,224.97452037141193 69.22296650719363,225.53293657919858 67.60382775124162,226.25089910498355 65.26124401926063,226.29078587333788 64.64114832540508,226.09135199076263 63.74545454536565,225.45316288404865 63.297607655636966,224.49587727384642 61.78181818174198,224.81497273725108 60.50717703346163,224.3363294446608 59.37033492815681,224.17678155042813 57.7511961722048,225.0144072698895 56.99330143537372,225.09418105438817 55.20191387552768,225.054294164147 53.85837320575956,224.77508581857546 52.170334928203374,225.0144072698895 50.93014354072511,225.29361544485437 48.79425837332383,224.49587727384642 48.27751196175814,223.77791153057478 47.864114832598716,222.74084757757373 47.07177033496555,221.50434465945 46.07272727263626,220.10828828508966 45.72822966519743,219.47008942766115 44.76363636367023,217.4757112947991 43.83349282294512,216.3588551034045 40.76746411493514,216.7178449408966 39.458373205852695,217.0768344492535 40.04401913867332,219.43020196462749 39.768421052605845,221.5841191589716 39.286124401842244,222.70096044745878 39.59617224871181,223.2992669704836 38.52822966501117,224.5357642210147 37.32248803821858,224.376216408069 35.014354067039676,224.45599032263272 32.77511961723212,224.3363294446608 32.15502392349299,224.6953119689424 31.362679425859824,225.17395482285065 30.466985645936802,225.21384170089732 29.709090909105726,225.054294164147 28.88229665067047,224.85485965191037 27.40095693769399,224.376216408069 26.67751196178142,223.77791153057478 24.98947368422523,223.89757257921156 21.888995215296745,224.0172335912066 19.787559808581136,223.37904110437375 19.47751196171157,222.98017027197056 16.445933014387265,222.78073470343952 16.03253588511143,223.77791153057478 14.620095693739131,227.32784042548155 14.0,229.28228192421375 14.34449760755524,230.08001034523477 17.479425837285817,229.56148705646046 18.099521531024948,228.88341710454552 18.719617224880494,228.72387106274255 20.821052631479688,228.28511911295936 24.92057416262105,227.60704695104505 26.64306220097933,227.16829375003 27.6076555022737,226.5699931382842 28.88229665067047,226.80931349270395 30.36363636353053,227.16829375003 32.67177033505868,227.44750038936036 35.49665071768686,227.2879537626868 38.2181818181416,227.8064800617285 40.388516746344976,227.48738703585695 43.79904306214303,227.8064800617285 45.108133971341886,228.0856862460205 45.93492822966073,228.52443841926288 51.44688995217439,228.44466533340164 52.96267942583654,228.64409801762667 54.44401913881302,228.60421148885507 55.684210526407696,228.44466533340164 56.54545454564504,228.52443841926288 58.44019138754811,228.8036440917058 60.30047846888192,228.28511911295936 61.78181818174198,228.52443841926288 62.918660287046805,228.32500567423995 64.26220095693134,228.44466533340164 66.19138755975291,228.64409801762667 66.26028708124068,228.56432495603804 67.15598086128011,228.32500567423995 69.49856459326111,228.8435306000465 71.11770334932953,228.68398454220733 72.42679425841197,228.68398454220733 73.56363636360038,228.8036440917058 74.21818181837443,229.32216838392196 74.25263157894369,229.68114633782534 74.9071770333685,229.60137348761782 76.35406698577572,229.44182773851207 77.35311004787218,230.2395558343269 85.7588516746182,230.35921490864712 85.44880382774863,225.85203119757352 84.79425837332383,226.4104461540992 83.8641148324823,225.21384170089732 82.79617224878166,224.57565116410842 81.86602870828938,224.6953119689424 80.69473684229888,225.69248392098234 78.17990430619102,226.5301063983643 76.73301435413305,226.37055939791026 75.07942583737895,225.57282342071994 73.52918660303112,224.49587727384642 72.39234449760988,224.376216408069 70.91100478474982,224.93463346897624 69.70526315795723,225.33350231070654 68.01722488040105,226.09135199076263 66.81148325360846,226.0514652020065 66.77703349280637,226.17112555590575 65.02009569376241,226.4503329062427 64.77894736838061,226.09135199076263 63.74545454536565,225.45316288404865 63.26315789471846,224.57565116410842 61.57511961716227,224.81497273725108 60.50717703346163,224.41610336740268 58.44019138754811,224.49587727384642 56.78660287079401,225.17395482285065 55.064114832668565,225.17395482285065 54.06507177022286,224.77508581857546 53.16937799041625,224.93463346897624 51.20574162679259,225.25372857486946 49.724401913932525,224.6953119689424 48.86315789481159,224.29644247726537 48.86315789481159,223.93745958720683 49.17320574156474,223.02005737356376 49.03540669858921,223.2992669704836 48.82870813389309,223.77791153057478 48.65645932999905,223.61836340886657 48.93205741629936,224.09700757908286 48.96650717698503,224.256555505679 49.20765550236683,224.85485965191037 48.5875598086277,224.49587727384642 48.20861244027037,223.6981374778552 47.864114832598716,222.421750423935 46.96842105255928,221.26502106297994 46.21052631584462,219.9088512539165 45.38373205740936,218.55267674816423 43.86794258351438,216.3588551034045 39.73397129192017,216.91728359722765 39.975119617185555,218.95155209032237 39.871770335012116,220.6667114320444 39.251674641272984,222.1026530104864 39.251674641272984,222.8605089429475 39.423923445050605,223.37904110437375 38.56267942592967,224.376216408069 36.66794258367736,224.256555505679 34.566507177078165,224.41610336740268 32.70622009562794,224.376216408069 31.741626794217154,225.0144072698895 30.708133971202187,224.97452037141193 30.26028708135709,225.17395482285065 29.08899521525018,224.735198895738 26.815311004640535,223.77791153057478 24.851674641133286,223.81779855076456 21.957894736900926,223.93745958720683 19.959808612358756,223.4189281652798 19.580861244001426,222.98017027197056" stroke="#4dd2ff" stroke-linecap="round" stroke-linejoin="round" stroke-width="0.5"><title>2024-08-24 10.0km</title><desc>12225850149</desc></polyline><polyline fill="none" points="123.89443651912734,242.7838715807884 124.81883024249692,240.6037419299828 125.53780313814059,238.06684841882088 125.88017118396237,237.4722616102663 126.01711840205826,236.63983855227707 126.80456490721554,235.05426589786657 127.35235378029756,233.34976809017826 128.55064194009174,230.33714905759552 129.23537803115323,229.8614702366758 129.23537803115323,229.94075008056825 129.303851640434,229.9011101606884 129.40656205418054,228.6326305916009 130.1255349498242,228.0380293703929 132.8987161197001,228.47407035474316 138.78744650504086,228.79119076378993 142.96433666185476,228.9101108504983 145.08701854478568,228.94975087139755 145.84022824536078,229.108310914482 146.31954350916203,229.42543080670293 150.2567760341335,229.62363060811185 152.48216833081096,229.62363060811185 154.39942938659806,229.66327055636793 155.28958630515262,229.34615085783298 157.8231098430697,229.58399065595586 158.8159771753708,229.66327055636793 160.15121255349368,229.14795091509586 161.4179743224522,229.26687089295592 162.89015691867098,229.14795091509586 164.5677603422664,229.42543080670293 166.41654778877273,229.26687089295592 166.62196861603297,228.94975087139755 167.23823109839577,229.02903090103064 167.58059914398473,229.14795091509586 169.39514978590887,229.62363060811185 171.3808844506275,229.54435069975443 172.03138373745605,229.7425504407147 173.7089871611679,229.70291050046217 174.22253922978416,230.49570853548357 176.68758915818762,230.37678893309203 177.37232524959836,230.89210694731446 181.8231098430697,231.3677845087659 184.49358059919905,231.24886517296545 185.93152639083564,231.0903060019482 185.6918687588768,229.34615085783298 185.07560627663042,226.8884644335776 184.6647646218771,227.28486651944695 184.18544935819227,226.49206194383441 182.50784593448043,225.46141358124441 179.905848787399,226.80918396794004 177.6119828815572,227.32450670585968 176.0370898715919,227.04702531630755 174.80456490721554,226.37314111823798 172.71611982875038,225.22357126377756 171.209700427833,225.69925575330853 169.6348074178677,226.37314111823798 168.16262482176535,226.96774488303345 166.86162624810822,227.245226329047 165.35520684730727,227.08666552696377 164.328102710424,226.45242167267133 163.71184022829402,226.0560187389783 163.164051355212,225.38213282485958 162.03423680446576,225.73889610121842 160.42510698991828,225.18393086345168 158.85021397995297,225.18393086345168 157.2068473608233,225.73889610121842 156.24821683298796,225.5010539534269 154.84450784581713,225.89745745243272 153.3380884451326,225.85781712058815 151.4208273893455,226.13529935796396 149.67475035658572,225.5010539534269 148.47646219667513,224.9460883763968 147.9629101282917,223.91543591968366 147.14122681878507,222.72621815485763 146.49072753207292,221.69555981922895 145.84022824536078,219.9910035050125 143.9229671896901,217.3350520429085 139.95149786013644,217.73146385961445 139.67760342371184,218.2864397248486 140.1569186875131,220.22884902032092 140.328102710424,221.3387928364391 139.88302425085567,223.9947169747029 139.4379457916366,224.98572880105348 138.68473609129433,225.46141358124441 136.90442225383595,225.18393086345168 134.13124108396005,224.98572880105348 132.6248216832755,225.14429045896395 131.9400855919812,225.85781712058815 131.11840228235815,225.73889610121842 130.67332382302266,225.93709778005723 129.40656205418054,225.81817678484367 129.09843081305735,225.85781712058815 128.37945791718084,225.81817678484367 127.31811697571538,224.7875266376068 126.32524964329787,224.62896483417717 123.48359486449044,224.51004343933892 121.15549215383362,224.27220054040663 119.71754636219703,223.796514306654 117.11554921523202,223.5983115375857 116.56776034226641,223.9947169747029 115.33523537789006,227.36414688828518 114.34236804547254,230.45606867212337 114.92439372313675,230.93174676646595 117.69757489301264,230.45606867212337 117.83452211122494,230.21822940689162 118.79315263894387,229.7425504407147 120.60770328098442,229.34615085783298 120.81312410836108,229.22723090442014 122.31954350904562,229.108310914482 126.35948644788004,228.55335048117558 126.87303851637989,228.19658978490043 127.76319543493446,227.8398287614109 128.92724679014646,227.48306741096894 130.4336661909474,227.8794688913331 132.9329529243987,228.31551005330402 138.61626248212997,228.67227064070175 140.4308131240541,228.43443028553156 141.80028530664276,228.55335048117558 143.6148359485669,228.6326305916009 145.25820256758016,228.87047082569916 145.94293865887448,228.98939088830957 148.16833095566835,229.46507077512797 150.05135520675685,229.58399065595586 151.66048502142075,229.26687089295592 154.33095577731729,229.54435069975443 155.87161198281683,229.34615085783298 156.72753209702205,229.34615085783298 158.16547788865864,229.54435069975443 159.671897289576,229.46507077512797 160.6647646218771,229.14795091509586 162.37660485017113,229.02903090103064 163.81455064180773,229.30651087738806 165.21825962909497,229.18759091180982 166.4507845933549,228.83083079676726 166.7589158344781,228.6326305916009 166.8958630526904,228.47407035474316 167.9229671896901,229.22723090442014 170.0798858773196,229.58399065595586 171.99714693275746,229.70291050046217 173.77746077021584,229.7425504407147 174.2567760341335,230.49570853548357 175.0099857345922,230.53534839488566 176.55064194009174,230.41642880471773 177.44079885887913,231.0903060019482 184.28815977170598,231.28850495564984 185.93152639083564,230.81282729734085 185.48644793150015,226.84882420281065 185.24679029954132,226.7695437289658 184.63052781741135,227.245226329047 183.63766048499383,225.81817678484367 182.3708987160353,225.38213282485958 180.76176890160423,226.2145799608552 178.7760342367692,227.1659459360817 176.9957203993108,227.245226329047 174.8388017116813,226.2145799608552 172.92154065612704,225.18393086345168 171.1069900142029,225.73889610121842 170.1141226819018,225.9767381036654 167.88873038510792,227.00738510172232 166.79315263906028,227.00738510172232 165.18402282439638,227.2055861345434 164.77318116964307,227.32450670585968 164.70470756059512,226.92810466027004 164.2938659057254,226.37314111823798 163.74607703275979,226.0560187389783 163.5748930099653,225.5010539534269 162.78744650492445,225.2632116601162 161.6576319541782,225.61997504538158 159.2610556348227,225.1046500505763 157.8231098430697,225.73889610121842 156.41940085589886,225.46141358124441 155.3238231097348,225.93709778005723 154.29671897285152,225.65961540141143 153.4407988586463,225.93709778005723 151.18116975738667,226.13529935796396 149.81169757491443,225.54069432144752 149.1269614835037,225.2632116601162 149.22967189736664,224.7875266376068 148.95577746082563,225.1046500505763 148.5449358058395,225.2632116601162 148.44222539232578,224.62896483417717 148.1340941512026,223.51903040180332 146.49072753207292,221.18022962781833 145.29243937227875,218.72249163509696 144.02567760332022,217.2161284191825 140.63623395154718,217.45397563028382 139.91726105555426,217.81074617465492 139.88302425085567,218.64320950594265 140.19115549197886,219.43603007067577 140.22539229667746,221.7352005748544 139.4379457916366,223.43974924978102 139.64336661901325,224.19291954190703 138.68473609129433,225.34249244062812 136.9728958628839,225.22357126377756 133.82310984295327,225.02536922154832 132.24821683310438,225.65961540141143 131.4950071326457,225.89745745243272 130.84450784581713,225.89745745243272 129.8858773180982,225.73889610121842 128.44793152622879,225.85781712058815 126.87303851637989,224.58932437331532 123.8259629100794,224.51004343933892 122.28530670469627,224.74788619281026 119.64907275314908,223.83615484830807 116.77318116964307,223.71723321112222 116.19115549197886,225.38213282485958 114.34236804547254,230.02002990836627 114.17118402279448,231.24886517296545 114.0,232.27949820982758" stroke="#4dd2ff" stroke-linecap="round" stroke-linejoin="round" stroke-width="0.5"><title>2024-08-11 10.2km</title><desc>12116913505</desc></polyline></svg>