<?xml version="1.0" encoding="utf-8" ?>
<svg baseProfile="full" height="300mm" version="1.1" viewBox="0,0,200,300" width="200mm" xmlns="http://www.w3.org/2000/svg" xmlns:ev="http://www.w3.org/2001/xml-events" xmlns:xlink="http://www.w3.org/1999/xlink"><defs /><rect fill="#222222" height="300" width="200" x="0" y="0" /><text fill="#FFFFFF" style="font-size:12px; font-family:Arial; font-weight:bold;" x="10" y="20">Over 10km Runs</text><text fill="#FFFFFF" style="font-size:4px; font-family:Arial" x="10" y="280">ATHLETE</text><text fill="#FFFFFF" style="font-size:9px; font-family:Arial" x="10" y="290">skyline09</text><text fill="#FFFFFF" style="font-size:4px; font-family:Arial" x="120" y="280">STATISTICS</text><text fill="#FFFFFF" style="font-size:3px; font-family:Arial" x="120" y="285">Number: 5</text><text fill="#FFFFFF" style="font-size:3px; font-family:Arial" x="120" y="290">Weekly: 1.0</text><text fill="#FFFFFF" style="font-size:3px; font-family:Arial" x="141" y="285">Total: 50.9 km</text><text fill="#FFFFFF" style="font-size:3px; font-family:Arial" x="141" y="290">Avg: 10.2 km</text><text fill="#FFFFFF" style="font-size:3px; font-family:Arial" x="167" y="285">Min: 10.0 km</text><text fill="#FFFFFF" style="font-size:3px; font-family:Arial" x="167" y="290">Max: 10.2 km</text><polyline fill="none" points="24.17907634295989,83.16045132986619 24.82375117810443,81.5105370618985 25.163053722702898,80.01775140527752 25.705937794409692,78.95708440174349 26.588124410714954,76.05005618248833 27.029217719100416,75.42150666000089 27.60603204520885,74.12512003496522 27.809613572084345,73.14300605474273 28.79359095194377,70.19664911029395 29.234684259979986,69.37166513278498 29.641847313847393,69.13595510079176 29.641847313847393,68.46810922803706 29.777568331570365,67.99668791570002 30.286522148759104,67.48598084380501 30.625824693706818,67.3288400702586 31.91517436376307,67.25026965956204 34.697455230983905,67.6431215533521 36.122525918879546,67.52526602722355 37.34401508013252,67.76097704345011 38.701225258992054,68.23239864385687 39.142318567377515,68.2716837512271 41.31385485373903,67.9574027803319 41.75494816212449,67.9574027803319 43.24787935893983,68.2716837512271 44.16399622976314,68.11454329782282 44.74081055610441,68.07525817441638 45.487276154453866,68.310968854581 46.098020735080354,68.23239864385687 46.301602262072265,68.35025395394769 46.539114043232985,68.74310472747311 49.59283694624901,68.93952996414737 50.06786050880328,68.86095988145098 50.78039585298393,68.90024492473458 51.90009425068274,68.7038196681533 52.30725730443373,68.7038196681533 52.78228086710442,68.86095988145098 54.207351555116475,68.97881499951473 54.953817153465934,68.90024492473458 55.496701225289144,68.62524953737739 56.07351555128116,68.7038196681533 56.71819038630929,68.66453460478806 57.193213948979974,68.82167483406374 59.05937794537749,69.01810003080755 59.7040527802892,68.93952996414737 60.55230914230924,68.62524953737739 61.570216776570305,68.66453460478806 62.28275212063454,68.54667939065257 63.19886899145786,68.50739431133843 64.14891611679923,68.74310472747311 65.64184731384739,68.62524953737739 66.08294062200002,68.78238978274749 66.25259189435747,69.01810003080755 66.52403393003624,68.82167483406374 67.40622054657433,68.62524953737739 67.57587181904819,68.74310472747311 68.39019792631734,68.78238978274749 69.71347785100807,69.05738505811314 70.7653157399036,69.05738505811314 72.12252591876313,69.21452512755059 73.41187558905222,68.97881499951473 73.78510838828515,69.37166513278498 74.0904806785984,69.60737502065604 74.22620169643778,69.96093958243728 74.39585296879523,70.00022451378754 76.16022620163858,69.60737502065604 76.56738925527316,69.60737502065604 77.2120640904177,69.80379981713486 77.61922714416869,70.27521892089862 78.02639019791968,70.3930736068287 78.8746465598233,70.35378871535067 80.29971724771895,70.5502131319081 84.03204524039757,70.6287828705099 85.62676720065065,70.51092825669912 85.96606974548195,70.27521892089862 85.69462770968676,68.38953904921073 85.7964184731245,67.40741046515177 85.55890669184737,66.26813817431685 85.28746465593576,66.22885286289966 84.77851083874702,66.73956159935915 84.57492931187153,66.73956159935915 83.93025447695982,65.60028733601212 83.45523091417272,65.16814794205129 82.94627709710039,64.93243534123758 82.36946277099196,64.85386444226606 81.58906691800803,65.0110062242602 80.84260131954215,65.67885808288702 78.94250706862658,66.62170579718077 78.0603204522049,66.77884685873869 77.3477851083735,66.77884685873869 76.63524976430926,66.62170579718077 75.85485391132534,66.30742348180502 75.4137606031727,66.03242624585982 74.19227144191973,64.89314989375998 73.31008482561447,64.50029519907548 72.93685202626511,64.46100970753469 72.29217719123699,64.61815164948348 71.44392082944978,65.08957709110109 70.32422243151814,65.4824311856064 68.59377945319284,66.38599408464506 67.84731385484338,66.54313524221652 66.89726672950201,66.50384995888453 66.65975494799204,66.26813817431685 66.5579641845543,66.50384995888453 65.54005655040964,66.5824205216777 64.92931196978316,66.38599408464506 64.45428840711247,65.91457022746908 63.979264844441786,65.71814345029998 64.01319509895984,65.12886251849704 63.26672950037755,64.77529352737474 62.82563619222492,64.81457898684312 62.21489161159843,65.08957709110109 61.60414703108836,65.16814794205129 60.72196041466668,64.73600806389004 59.97549481608439,64.53958068651264 59.05937794537749,64.61815164948348 58.00754005648196,65.16814794205129 57.7021677660523,65.28600418849965 57.193213948979974,65.24671877693618 56.446748350630514,64.89314989375998 56.17530631471891,65.0110062242602 55.93779453332536,65.28600418849965 55.56456173420884,65.36457499925746 55.12346842593979,65.32528959581396 54.3770028273575,65.05029165968881 53.52874646557029,65.32528959581396 52.81621112138964,65.16814794205129 52.30725730443373,65.2074333614728 51.35721017897595,65.60028733601212 50.27144203579519,65.05029165968881 49.25353440141771,64.81457898684312 48.98209236562252,64.57886616993346 48.235626767156646,63.28244310224545 48.40527803951409,62.92887241853168 47.964184731361456,62.53601572295884 47.52309142309241,61.71101535993512 47.14985862385947,61.357443235610845 46.70876531570684,60.689583894010866 46.03016022616066,59.11814558747574 45.89443920820486,58.489568472112296 45.24976437329315,57.23241116810823 44.91046182834543,56.9181212017138 44.09613572107628,56.83954867013381 41.38171536277514,57.07526621679426 40.77097078226507,57.153838700498454 40.29594721959438,57.35026983934222 40.160226201522164,58.057421111065196 40.53345900087152,58.88242928922409 40.60131950979121,59.55029176006792 40.39773798303213,60.80744150897954 40.43166823743377,62.182444354868494 40.329877473879606,62.614587094052695 39.99057492928114,62.81101545182173 39.922714420361444,62.968158066039905 39.95664467464667,63.125300616113236 40.22808671055827,63.40029992489144 39.65127238444984,64.22529667449999 39.24410933081526,64.61815164948348 38.904806785983965,64.73600806389004 38.42978322331328,64.73600806389004 37.37794533453416,64.53958068651264 36.0207351554418,64.69672259644722 34.12064090487547,64.42172421197756 33.00094250694383,64.57886616993346 32.559849198907614,65.16814794205129 32.220546654076315,65.36457499925746 31.575871818931773,65.28600418849965 31.406220546690747,65.28600418849965 31.16870876518078,65.4824311856064 30.965127238305286,65.4824311856064 29.84542884072289,65.0110062242602 29.913289349526167,65.36457499925746 29.777568331570365,65.44314579418278 29.81149858608842,65.40386039880104 29.506126295775175,65.24671877693618 29.098963242257014,65.2074333614728 28.82752120634541,65.05029165968881 27.673892554012127,64.14672563152271 25.7737983034458,64.22529667449999 24.58623939671088,63.989583497605054 23.941564561682753,63.95029795405571 22.85579641838558,64.22529667449999 21.668237511767074,63.79315574001521 20.61639962287154,63.63601346191717 20.37888784171082,63.321728713810444 19.259189443779178,63.321728713810444 18.275212063919753,63.04672934912378 17.630537228891626,63.04672934912378 17.25730442965869,63.24315748672234 17.087653157417662,63.63601346191717 16.850141375907697,64.65743712490075 15.560791705967858,67.48598084380501 15.221489161020145,68.82167483406374 15.017907634144649,69.17524011607748 14.95004712534137,69.45023511143518 15.017907634144649,69.88236970789148 15.459000942413695,70.11807928368216 16.40904806787148,70.00022451378754 16.714420358184725,70.07879436429357 18.309142318437807,69.72522991066216 18.61451460875105,69.33238013740629 18.98774740798399,69.09667008140241 19.15739868034143,69.01810003080755 19.39491046173498,69.05738505811314 20.005655042477883,68.82167483406374 20.85391140426509,68.7038196681533 21.227144203498028,68.2716837512271 21.261074457783252,68.42882414060296 21.46465598489158,68.46810922803706 22.516493873554282,68.46810922803706 23.500471253530122,68.310968854581 25.332704995176755,67.80026219884166 27.198868991341442,67.6431215533521 27.74175306316465,67.25026965956204 28.31856738915667,66.9752730957116 28.522148916032165,66.5824205216777 29.132893496542238,66.54313524221652 29.607917059212923,66.5824205216777 29.74363807728514,66.85741736565251 29.74363807728514,66.77884685873869 30.049010367598385,66.81813211416011 30.150801131036133,66.70027633590507 30.388312912196852,66.81813211416011 30.931196984020062,67.2109844481165 31.67766258236952,67.13241401340929 33.034872761461884,67.44669565645745 34.18850141367875,67.48598084380501 36.19038642779924,67.3288400702586 36.59754948155023,67.36812526971335 38.15834118751809,67.83954735018779 39.00659754942171,67.99668791570002 39.78699340240564,67.91811764103477 40.70311027322896,67.6431215533521 41.144203581498004,67.60383638204075 42.060320452437736,67.72169188410044 43.112158341216855,68.03597304702271 44.876531573943794,67.80026219884166 46.098020735080354,68.11454329782282 46.43732327979524,68.50739431133843 49.59283694624901,68.74310472747311 50.916116870823316,68.7038196681533 51.93402450508438,68.50739431133843 52.30725730443373,68.54667939065257 52.81621112138964,68.74310472747311 53.969839773722924,68.86095988145098 54.919886899064295,68.66453460478806 55.428840716253035,68.35025395394769 55.73421300644986,68.310968854581 56.27709707815666,68.38953904921073 56.81998114986345,68.38953904921073 57.159283694578335,68.62524953737739 57.60037700284738,68.62524953737739 58.889726672903635,68.86095988145098 59.7040527802892,68.74310472747311 60.75589066906832,68.38953904921073 61.773798303329386,68.54667939065257 62.82563619222492,68.38953904921073 63.53817153617274,68.42882414060296 63.6399622997269,68.54667939065257 64.18284637131728,68.66453460478806 65.74363807716873,68.46810922803706 66.21866163983941,68.54667939065257 66.21866163983941,68.82167483406374 67.06691800185945,68.54667939065257 67.60980207344983,68.54667939065257 69.67954759649001,68.97881499951473 70.66352497646585,68.90024492473458 72.22431668243371,68.97881499951473 73.17436380765866,68.78238978274749 73.6154571158113,68.86095988145098 73.85296889720485,68.97881499951473 74.29406220547389,69.41095012406004 74.29406220547389,69.80379981713486 76.16022620163858,69.52880507404916 77.04241281806026,69.64665998803684 77.3477851083735,69.88236970789148 77.44957587169483,70.07879436429357 77.92459943448193,70.35378871535067 80.4015080111567,70.43235849411576 83.7945334588876,70.43235849411576 84.54099905746989,70.5502131319081 85.76248821872286,70.43235849411576 85.96606974548195,70.31450382017647 86.0,70.15736419902532 85.69462770968676,68.03597304702271 85.5249764372129,66.07171157732955 85.21960414689966,66.11099690472474 84.84637134778313,66.50384995888453 84.60885956638958,66.54313524221652 84.201696512755,65.75742881378392 83.7945334588876,65.24671877693618 82.91234684246592,64.77529352737474 82.50518378883135,64.77529352737474 81.52120640897192,65.05029165968881 81.0122525918996,65.4824311856064 78.97643732326105,66.42527938002604 78.09425070683938,66.62170579718077 76.60131950990763,66.5824205216777 75.95664467476308,66.30742348180502 75.04052780370694,65.71814345029998 74.49764373223297,65.12886251849704 73.51366635237355,64.69672259644722 72.93685202626511,64.57886616993346 72.19038642779924,64.73600806389004 70.79924599430524,65.24671877693618 70.39208294067066,65.28600418849965 69.91705937788356,65.63957271142863 69.10273327049799,65.87528488005046 68.28840716299601,66.26813817431685 66.79547596606426,66.464564671478 66.65975494799204,66.30742348180502 65.57398680481128,66.5824205216777 65.09896324225701,66.464564671478 64.6918001883896,65.99314091031556 64.08105560787953,65.71814345029998 64.01319509895984,65.16814794205129 63.572101790690795,64.81457898684312 62.96135721018072,64.77529352737474 62.18096135731321,65.12886251849704 61.773798303329386,65.16814794205129 60.823751178220846,64.73600806389004 60.00942507060245,64.50029519907548 59.09330819977913,64.61815164948348 57.56644674821291,65.32528959581396 57.29500471241772,65.28600418849965 56.412818095996045,64.89314989375998 55.428840716253035,65.28600418849965 54.580584354233,64.93243534123758 54.241281809518114,64.89314989375998 53.426955702132545,65.2074333614728 52.61262959463056,65.12886251849704 51.56079170573503,65.521716573101 51.2554194155382,65.521716573101 50.27144203579519,64.93243534123758 49.491046182694845,64.81457898684312 48.94816211122088,64.34315320898895 48.33741753047798,63.24315748672234 48.40527803951409,62.88958676694892 47.69274269544985,62.02530142056639 47.14985862385947,61.27887160828686 46.67483506118879,60.4145826526219 46.098020735080354,59.628863739431836 45.521206409088336,58.2931379134825 45.35155513661448,57.54670087818522 45.11404335522093,57.07526621679426 44.50329877459444,56.83954867013381 41.21206409030128,57.114552460756386 40.60131950979121,57.23241116810823 40.329877473879606,57.46812847474939 40.29594721959438,57.939562655839836 40.66918001882732,59.039573504182044 40.56738925538957,59.86457958148094 40.66918001882732,61.00387078701169 40.53345900087152,61.71101535993512 40.29594721959438,62.22173007854144 40.29594721959438,62.53601572295884 40.058435438084416,62.92887241853168 40.12629594723694,63.125300616113236 40.329877473879606,63.28244310224545 40.329877473879606,63.47887111996533 39.88878416584339,64.42172421197756 39.71913289348595,64.57886616993346 39.413760603172705,64.73600806389004 35.409990574931726,64.69672259644722 34.86710650322493,64.57886616993346 34.2902921771165,64.57886616993346 33.61168708757032,64.73600806389004 33.170593779417686,64.69672259644722 32.695570216630585,65.24671877693618 32.45805843535345,65.32528959581396 32.15268614504021,65.40386039880104 31.643732327851467,65.24671877693618 31.27049952861853,65.44314579418278 30.422243166831322,65.28600418849965 29.641847313847393,65.0110062242602 28.99717247870285,64.97172078469885 28.04712535336148,64.50029519907548 27.639962299610488,64.14672563152271 26.85956644662656,64.1074401040969 25.97737983020488,64.22529667449999 24.28086710628122,64.02886903710896 23.873704052646644,64.02886903710896 22.85579641838558,64.26458219008055 21.261074457783252,63.75387017655885 20.921771913184784,63.71458460908616 20.4467483505141,63.28244310224545 18.377002827473916,63.00744370961911 17.325164938694797,63.125300616113236 16.74835061246995,64.97172078469885 16.23939679528121,66.03242624585982 15.764373232610524,67.6431215533521 15.051837888779119,69.45023511143518 15.085768143064342,70.03950944106327 14.916116870706901,70.51092825669912 14.98397737974301,71.3751945887052 14.441093308036216,71.92518124633352 14.23751178116072,72.00375070495647 14.0,73.14300605474273" stroke="#4dd2ff" stroke-linecap="round" stroke-linejoin="round" stroke-width="0.5"><title>2024-09-15 10.2km</title><desc>12412483970</desc></polyline><polyline fill="none" points="124.32452830194961,82.91728246214916 125.81886792450678,79.26043994474458 126.2603773586452,77.80555748470942 126.60000000009313,76.7438830404135 127.55094339617062,74.65984693777864 129.31698113214225,69.78394493839005 129.86037735862192,68.56495981680928 130.74339622654952,67.81783800121048 133.22264150960837,68.05377136234893 136.61886792466976,67.97512692466262 139.94716981134843,68.52563765202649 142.1207547170343,68.40767113369657 144.49811320763547,68.44699331055745 146.6037735849386,69.1941139085393 150.84905660385266,69.31208018655889 153.09056603780482,69.35140227118973 154.89056603773497,69.31208018655889 155.5358490565559,68.99750336506986 156.6566037737066,69.03682548168581 159.67924528301228,69.31208018655889 160.86792452819645,68.91885911961435 163.17735849041492,68.80089272130863 164.33207547152415,69.11546970315976 166.2339622641448,69.03682548168581 166.50566037732642,69.43004642854794 167.694339622627,69.11546970315976 170.98867924523074,69.35140227118973 173.4339622639818,69.31208018655889 174.0452830188442,69.7446228977933 174.3509433962172,70.0591991104593 174.52075471694116,70.41309704363812 176.28679245279636,70.09852111901273 177.54339622636326,70.76699465233833 180.226415094221,71.04224812364555 184.36981132056098,71.16021383696352 186.0,70.72767271174234 185.45660377352033,66.71681374296895 185.1849056603387,66.71681374296895 184.67547169793397,67.18868166671018 183.48679245263338,65.61578634465695 182.16226415080018,65.30120651135803 180.43018867913634,66.36291242172592 178.29056603764184,67.30664855748182 177.0679245282663,67.14935936179245 175.77735849050805,66.6381690329581 173.4339622639818,65.14391649849131 172.10943396226503,65.06527146807639 170.30943396233488,65.85172105155652 168.5094339621719,66.87410311502754 166.9132075472735,66.99207010192913 166.33584905671887,67.26732626458397 165.82641509431414,66.87410311502754 165.24905660375953,66.91342544797226 164.0943396226503,66.24494524241891 164.06037735845894,65.65510880592046 163.38113207544666,65.22256151292822 162.09056603780482,65.57646387952263 161.5132075471338,65.5371414104884 160.52830188674852,65.06527146807639 158.96603773592506,65.14391649849131 157.47169811313506,65.96968835082953 156.62264150939882,65.49781893723411 155.87547169823665,65.81239861046197 154.9245283016935,65.85172105155652 153.59999999997672,65.81239861046197 152.1396226416109,65.77307616526377 151.2566037735669,66.12697802722687 149.28679245291278,65.37985149363521 148.2339622641448,63.7676261527522 148.3018867925275,63.256431346264435 147.14716981141828,61.91945711328299 146.26415094337426,60.30721732135862 145.89056603761856,60.07127922598738 145.58490566036198,58.73429396233405 144.7698113208171,57.24001083523035 141.95094339642674,57.5545972372347 140.45660377363674,57.75121360848425 140.15094339626376,58.262415704957675 140.4905660377117,59.36346407496603 140.15094339626376,63.099140500242356 140.01509433984756,63.571012845728546 140.01509433984756,64.23949768120656 139.33584905660246,65.30120651135803 137.5358490565559,65.14391649849131 135.73584905674215,65.14391649849131 134.30943396233488,64.98662642159616 133.1207547171507,65.02594894682989 132.747169811395,65.5371414104884 131.96603773604147,65.85172105155652 131.32075471698772,65.85172105155652 130.03018867934588,65.61578634465695 128.8415094340453,65.61578634465695 127.6528301887447,64.63272351428168 126.29433962260373,64.63272351428168 124.46037735848222,64.4361106478027 122.83018867927603,64.67204607548774 120.69056603778154,64.12152985314606 120.21509433968458,63.72830349946162 117.1924528303789,63.84627144757542 115.42641509452369,68.52563765202649 115.01886792469304,70.41309704363812 115.63018867920619,70.72767271174234 118.34716981148813,70.21648712083697 118.95849056611769,69.66597880449262 119.70566037751269,69.43004642854794 121.81132075493224,68.99750336506986 125.5811320755165,68.32902676807134 127.44905660394579,67.93580469983863 128.40000000002328,67.30664855748182 129.62264150951523,67.42461541233934 129.92830188688822,67.26732626458397 130.9811320755398,67.81783800121048 133.01886792469304,68.05377136234893 136.31320754729677,67.93580469983863 138.86037735873833,68.44699331055745 142.08679245284293,68.40767113369657 143.92075471696444,68.48631548325648 145.95849056600127,68.72224843592267 149.83018867927603,69.35140227118973 151.59622641513124,69.07614759440185 152.85283018869814,69.31208018655889 154.82264150946867,69.27275809794082 155.90943396219518,69.07614759440185 158.32075471698772,69.35140227118973 159.78113207535353,69.23343600527733 160.93584905646276,68.8795369908039 163.2113207547227,68.84021485812264 164.33207547152415,69.1941139085393 166.4377358488273,68.84021485812264 166.94716981123202,68.64360413426766 167.21886792464647,68.60428197760484 167.96603773580864,69.07614759440185 169.73207547166385,69.39072435192065 171.36226415098645,69.46936850136262 173.63773584889714,69.23343600527733 174.14716981130186,69.7446228977933 174.2830188679509,70.2558091134415 176.08301886788104,70.09852111901273 177.1358490565326,70.29513110194239 178.12075471691787,70.84563852119027 183.58867924520746,71.0815700320527 185.89811320742592,70.92428237429704 185.8301886790432,70.17716512430343 185.45660377352033,66.67749138991348 184.64150943385903,67.18868166671018 184.13207547168713,66.44155718770344 182.80754716985393,65.30120651135803 181.68679245270323,65.4584964600217 179.5811320754001,66.83478077795007 177.61132075462956,67.30664855748182 175.84528301865794,66.91342544797226 174.31698113190942,65.5371414104884 173.0943396226503,65.02594894682989 171.973584905616,65.02594894682989 171.0226415094221,65.41917397890938 169.8339622641215,66.0876556141884 168.10188679234125,66.87410311502754 166.6754716980504,66.83478077795007 166.53962264151778,66.6381690329581 165.07924528303556,66.83478077795007 164.43396226409823,66.36291242172592 163.92452830192633,65.93036592175486 163.55094339617062,65.2618840142095 162.19245283014607,65.5371414104884 161.44528301875107,65.49781893723411 159.8830188678112,64.90798135910882 158.93207547161728,65.14391649849131 157.26792452821974,65.69443126296392 155.90943396219518,65.69443126296392 155.0943396226503,65.77307616526377 153.63396226416808,65.73375371607835 151.96981132077053,65.81239861046197 151.08679245284293,66.00901077597518 149.21886792464647,65.2618840142095 148.3018867925275,63.7676261527522 147.65660377359018,62.627267578063766 146.87547169823665,61.44758274918422 146.06037735845894,59.913987082400126 145.3471698113717,57.43662736660917 144.4641509434441,57.082717537879944 140.83018867927603,57.5545972372347 140.1169811320724,58.183769272611244 140.45660377363674,59.99263316229917 140.52452830190305,61.80148857634049 140.21886792441364,62.74523586273426 139.91320754715707,63.571012845728546 140.0490566038061,64.04288461443502 139.2339622641448,65.2618840142095 137.6037735849386,65.18323900771793 133.90188679250423,65.02594894682989 132.95094339631032,65.14391649849131 132.10188679257408,65.89104348863475 131.1169811321888,65.96968835082953 129.65660377347376,65.49781893723411 128.94339622650295,65.69443126296392 127.720754717011,64.63272351428168 126.60000000009313,64.51475580642 124.46037735848222,64.39678806244046 122.38867924537044,64.51475580642 120.96226415096316,64.31814287981251 118.14339622633997,63.571012845728546 116.81886792462319,64.7113686328521 116.5132075472502,65.89104348863475 115.63018867920619,67.93580469983863 114.9509433961939,70.01987709806417 114.74716981151141,71.04224812364555 114.57735849055462,70.92428237429704 114.74716981151141,70.96360429469496 114.74716981151141,71.71072002273286 114.27169811329804,72.3398689882597" stroke="#4dd2ff" stroke-linecap="round" stroke-linejoin="round" stroke-width="0.5"><title>2024-09-07 10.2km</title><desc>12344991930</desc></polyline><polyline fill="none" points="23.236051501939073,163.59561074752128 24.163090128684416,161.72726870680344 25.158798283082433,159.06387203969643 25.46781115862541,158.03031022954383 25.811158798169345,157.03649821598083 26.42918454913888,155.12837205684627 27.047210300224833,153.93578847064055 28.248927038512193,150.5567818551499 29.14163090114016,148.9268976181047 29.828326180111617,147.2970065747213 31.03004291828256,147.1379924499197 32.987124463543296,147.37651361274766 37.62231759633869,147.69454160306486 40.50643776822835,147.53552764025517 41.29613733885344,147.65478811843786 44.111587982741185,147.77404856012436 45.03862660937011,148.01256933424156 45.86266094411258,148.25108996251947 46.96137339051347,148.4896104451327 49.98283261794131,148.68837740272284 51.321888411883265,148.3703502221615 52.42060085828416,148.5691172403167 55.20171673805453,148.25108996251947 56.84978540753946,148.4896104451327 58.42918454937171,148.72813078202307 59.87124463508371,148.52936384471832 60.66094420594163,148.17158310272498 62.92703862651251,148.25108996251947 64.64377682388294,148.52936384471832 66.4291845492553,148.01256933424156 67.2875536478823,148.25108996251947 68.48927038616966,148.4896104451327 70.44635193131398,148.72813078202307 73.36480686685536,148.68837740272284 73.91416309005581,149.08591101397178 74.36051502136979,149.76171722385334 75.49356223153882,149.76171722385334 77.21030042914208,149.80147049381048 82.46351931325626,150.4772754649748 85.72532188845798,150.31826263578841 85.58798283245414,147.336760095699 85.27896995691117,145.90563078664127 84.59227467805613,146.4224280869239 83.45922746777069,144.79252658499172 82.32618025725242,144.43474241753574 80.84978540765587,145.22981790004997 79.30472102982458,146.14415270261816 75.90557939908467,146.14415270261816 73.70815450616647,144.67326523241354 72.163090128568,144.39498860086314 70.03433476388454,145.07080293312902 68.79828326182906,145.6671087249415 66.80686695268378,146.2236599754542 65.60515021439642,146.70070327282883 65.26180257508531,146.38267447269754 64.36909871234093,145.74661609515897 63.75107296125498,145.22981790004997 63.16738197405357,144.51425003859913 61.86266094422899,144.75277280484443 60.96995708148461,144.67326523241354 59.18454935611226,144.23597329377662 56.81545064365491,144.91178790136473 55.888412017025985,144.75277280484443 54.99570815451443,145.22981790004997 53.27896995691117,145.07080293312902 50.84120171656832,145.30932535915053 48.84978540777229,144.5937576435681 48.266094420454465,143.75892698395182 47.854077253025025,142.52655465138378 45.931330471881665,139.7835183927964 45.48497854056768,138.6306423272763 44.93562231748365,137.08021742117126 44.3862660942832,136.5236531320552 40.95278969942592,136.56340775053832 39.75107296113856,136.72242618355085 39.64806866936851,137.3187447307282 40.12875536468346,139.06794054608326 40.0944206006825,141.09540770435706 39.78540772513952,142.04950625216588 39.33905579394195,142.8048326150747 39.75107296113856,143.40114186893334 38.652360514970496,144.63351143998443 36.76394849771168,144.31548095541075 33.91416308993939,144.07695792193408 32.02575107268058,144.87203413329553 30.858369098510593,144.91178790136473 30.480686695082113,145.19006416434422 28.695278969826177,145.11055668085464 27.42489270376973,144.23597329377662 26.53218884114176,143.67941920898738 23.648068669368513,143.56015751612722 21.1072961371392,143.5204036103387 19.871244634967297,143.0831103802484 17.982832617941312,142.76507863224833 16.643776823882945,142.88434056809638 15.030042918282561,146.89947114133975 14.240343347424641,149.44369091792032 14.892703862395138,150.11949650844326 17.05579399119597,149.64245738950558 17.81115879805293,149.20517101840232 18.703862660797313,149.00640432408545 20.214592274511233,148.76788415727788 21.86266094399616,148.2908433864941 23.167381974169984,148.13182966661407 25.193133046966977,147.89330896548927 26.703862660797313,147.73429508355912 27.493562231655233,147.1379924499197 28.72961373371072,146.62119609711226 29.1072961371392,146.34292085451307 29.27896995691117,146.46218169704662 30.412017167313024,147.05848536328995 31.407725321827456,147.1777459871373 33.467811158741824,147.336760095699 35.52789699553978,147.1777459871373 38.13733905565459,147.65478811843786 40.81545064365491,147.53552764025517 42.944206008454785,147.85355550103122 45.65665236033965,147.93306242572726 45.965665235882625,148.4101036339125 46.78969957085792,148.33059680627775 50.46351931313984,148.60887063175323 52.454935622168705,148.5691172403167 54.54935622296762,148.4896104451327 55.78540772513952,148.52936384471832 57.19313304696698,148.44985704158898 58.73819742479827,148.60887063175323 60.180257510743104,148.25108996251947 61.553648068686016,148.2908433864941 62.99570815439802,148.17158310272498 66.05150214594323,148.2908433864941 66.25751072936691,148.13182966661407 66.97854077233933,148.21133653464494 70.54935622308403,148.52936384471832 72.3347639485728,148.8473908957385 73.81115879816934,148.8871442588279 74.32618025736883,149.64245738950558 74.80686695256736,149.48344422038645 76.1802575107431,149.32443098630756 77.45064377668314,150.00023678332218 84.21459227451123,150.39776905853068 85.93133047199808,150.03999002903583 85.14163090125658,145.9453844493837 84.62660944194067,146.38267447269754 82.94420600845478,144.4744962301338 81.94849785394035,144.4744962301338 80.6094420599984,145.34907908269088 78.61802575085312,146.34292085451307 76.59227467805613,146.1839063410589 73.87982832617126,144.4744962301338 72.09442060079891,144.39498860086314 70.0686695278855,145.15031042456394 68.86695278959814,145.78636977411225 67.1502145921113,146.30316723228316 66.70386266079731,146.06464541351306 64.84978540765587,146.06464541351306 63.785407725255936,145.4683402288938 63.09871244628448,144.51425003859913 60.07725321885664,144.35523478023242 58.532188841025345,144.51425003859913 56.987124463310465,144.9515416654467 56.163090128568,144.55400384310633 55.442060085712,144.99129542527953 54.68669527885504,145.07080293312902 53.965665235882625,144.63351143998443 52.24892703851219,144.8322803612391 50.70386266079731,145.26957163162297 48.987124463310465,144.4744962301338 48.78111587965395,144.19621945696417 48.06008583679795,143.71917309841956 47.64806866948493,142.92409453858272 47.957081545027904,142.44704662528238 46.96137339051347,141.53270316161797 46.377682403312065,140.69786595445476 45.75965665222611,139.62450120702852 45.27896995691117,137.19948109411052 43.97424892685376,136.40438925247872 41.12446351919789,136.72242618355085 39.81974248914048,136.76218078177772 39.57939914148301,137.83555340126622 39.81974248914048,138.47162467151065 39.95708154491149,141.0158993868681 39.37339055771008,142.04950625216588 39.64806866936851,143.12286433050758 39.20171673805453,144.35523478023242 37.5536480685696,144.55400384310633 36.18025751062669,144.4744962301338 34.12017167371232,144.27572712668916 32.43776824011002,144.27572712668916 31.81974248914048,144.99129542527953 30.995708154398017,144.91178790136473 30.137339055538177,145.03104918118333 29.210300429025665,144.79252658499172 28.48927038605325,144.8322803612391 26.97854077233933,143.87818861601409 25.158798283082433,143.79868086532224 22.892703862395138,143.67941920898738 20.866952789598145,143.48064970059204 19.527896995539777,143.04335642588558 16.746781115652993,142.72532464558026 16.334763948456384,143.71917309841956 15.339055793825537,146.1839063410589 14.618025750853121,148.01256933424156 14.206008583423682,149.72196394982166" stroke="#4dd2ff" stroke-linecap="round" stroke-linejoin="round" stroke-width="0.5"><title>2024-08-31 10.2km</title><desc>12285168865</desc></polyline><polyline fill="none" points="123.09473684208933,163.6411448965664 124.67942583723925,160.2110199338058 124.92057416262105,159.17399949609535 125.57511961727869,157.21960736133042 125.81626794254407,156.26235051261028 126.74641148326918,153.82931215749704 129.36459330143407,147.68682020745473 130.6736842105165,147.1284070709953 133.5674641148653,147.56716031680116 135.97894736845046,147.40761373876012 138.32153110043146,147.92613987938967 142.66220095695462,148.0059130708687 145.79712918656878,148.28511911295936 149.0698564593913,148.72387106274255 151.4124401914887,148.48455187832587 153.68612440198194,148.8036440917058 154.99521531106438,148.4047787844611 156.54545454564504,148.60421148885507 158.61244019155856,148.8036440917058 160.19712918670848,148.32500567423995 161.67846889945213,148.48455187832587 163.29760765563697,148.28511911295936 163.95215311006177,148.56432495603804 166.0535885168938,148.3648922314169 166.26028708124068,148.56432495603804 166.81148325360846,148.28511911295936 170.87655502394773,148.68398454220733 173.0468899521511,148.68398454220733 173.90813397138845,149.20250899280654 174.21818181837443,149.68114633782534 175.35502392344642,149.52160062102485 177.11196172249038,149.7210327568173 177.35311004787218,150.3193285545567 180.00574162683915,150.47887394629652 185.68995215324685,150.43898760448792 186.0,149.92046479100827 185.5521531100385,146.01157840932137 185.0698564593913,146.17112555590575 184.6220095694298,146.4503329062427 183.79521531099454,145.13406794064213 182.5550239236327,144.45599032263272 181.62488038279116,144.77508581857546 179.28229665081017,146.131238775386 178.31770334939938,146.49021965442807 177.00861244020052,146.4104461540992 174.80382775119506,145.0144072698895 173.56363636360038,144.3363294446608 171.94449760764837,144.45599032263272 170.32535885169636,144.97452037141193 169.22296650719363,145.53293657919858 167.60382775124162,146.25089910498355 165.26124401926063,146.29078587333788 164.64114832540508,146.09135199076263 163.74545454536565,145.45316288404865 163.29760765563697,144.49587727384642 161.78181818174198,144.81497273725108 160.50717703346163,144.3363294446608 159.3703349281568,144.17678155042813 157.7511961722048,145.0144072698895 156.99330143537372,145.09418105438817 155.20191387552768,145.054294164147 153.85837320575956,144.77508581857546 152.17033492820337,145.0144072698895 150.9301435407251,145.29361544485437 148.79425837332383,144.49587727384642 148.27751196175814,143.77791153057478 147.86411483259872,142.74084757757373 147.07177033496555,141.50434465945 146.07272727263626,140.10828828508966 145.72822966519743,139.47008942766115 144.76363636367023,137.4757112947991 143.83349282294512,136.3588551034045 140.76746411493514,136.7178449408966 139.4583732058527,137.0768344492535 140.04401913867332,139.43020196462749 139.76842105260585,141.5841191589716 139.28612440184224,142.70096044745878 139.5961722487118,143.2992669704836 138.52822966501117,144.5357642210147 137.32248803821858,144.376216408069 135.01435406703968,144.45599032263272 132.77511961723212,144.3363294446608 132.155023923493,144.6953119689424 131.36267942585982,145.17395482285065 130.4669856459368,145.21384170089732 129.70909090910573,145.054294164147 128.88229665067047,144.85485965191037 127.40095693769399,144.376216408069 126.67751196178142,143.77791153057478 124.98947368422523,143.89757257921156 121.88899521529675,144.0172335912066 119.78755980858114,143.37904110437375 119.47751196171157,142.98017027197056 116.44593301438726,142.78073470343952 116.03253588511143,143.77791153057478 114.62009569373913,147.32784042548155 114.0,149.28228192421375 114.34449760755524,150.08001034523477 117.47942583728582,149.56148705646046 118.09952153102495,148.88341710454552 118.7196172248805,148.72387106274255 120.82105263147969,148.28511911295936 124.92057416262105,147.60704695104505 126.64306220097933,147.16829375003 127.6076555022737,146.5699931382842 128.88229665067047,146.80931349270395 130.36363636353053,147.16829375003 132.67177033505868,147.44750038936036 135.49665071768686,147.2879537626868 138.2181818181416,147.8064800617285 140.38851674634498,147.48738703585695 143.79904306214303,147.8064800617285 145.10813397134189,148.0856862460205 145.93492822966073,148.52443841926288 151.4468899521744,148.44466533340164 152.96267942583654,148.64409801762667 154.44401913881302,148.60421148885507 155.6842105264077,148.44466533340164 156.54545454564504,148.52443841926288 158.4401913875481,148.8036440917058 160.30047846888192,148.28511911295936 161.78181818174198,148.52443841926288 162.9186602870468,148.32500567423995 164.26220095693134,148.44466533340164 166.1913875597529,148.64409801762667 166.26028708124068,148.56432495603804 167.1559808612801,148.32500567423995 169.4985645932611,148.8435306000465 171.11770334932953,148.68398454220733 172.42679425841197,148.68398454220733 173.56363636360038,148.8036440917058 174.21818181837443,149.32216838392196 174.2526315789437,149.68114633782534 174.9071770333685,149.60137348761782 176.35406698577572,149.44182773851207 177.35311004787218,150.2395558343269 185.7588516746182,150.35921490864712 185.44880382774863,145.85203119757352 184.79425837332383,146.4104461540992 183.8641148324823,145.21384170089732 182.79617224878166,144.57565116410842 181.86602870828938,144.6953119689424 180.69473684229888,145.69248392098234 178.17990430619102,146.5301063983643 176.73301435413305,146.37055939791026 175.07942583737895,145.57282342071994 173.52918660303112,144.49587727384642 172.39234449760988,144.376216408069 170.91100478474982,144.93463346897624 169.70526315795723,145.33350231070654 168.01722488040105,146.09135199076263 166.81148325360846,146.0514652020065 166.77703349280637,146.17112555590575 165.0200956937624,146.4503329062427 164.7789473683806,146.09135199076263 163.74545454536565,145.45316288404865 163.26315789471846,144.57565116410842 161.57511961716227,144.81497273725108 160.50717703346163,144.41610336740268 158.4401913875481,144.49587727384642 156.786602870794,145.17395482285065 155.06411483266857,145.17395482285065 154.06507177022286,144.77508581857546 153.16937799041625,144.93463346897624 151.2057416267926,145.25372857486946 149.72440191393252,144.6953119689424 148.8631578948116,144.29644247726537 148.8631578948116,143.93745958720683 149.17320574156474,143.02005737356376 149.0354066985892,143.2992669704836 148.8287081338931,143.77791153057478 148.65645932999905,143.61836340886657 148.93205741629936,144.09700757908286 148.96650717698503,144.256555505679 149.20765550236683,144.85485965191037 148.5875598086277,144.49587727384642 148.20861244027037,143.6981374778552 147.86411483259872,142.421750423935 146.96842105255928,141.26502106297994 146.21052631584462,139.9088512539165 145.38373205740936,138.55267674816423 143.86794258351438,136.3588551034045 139.73397129192017,136.91728359722765 139.97511961718556,138.95155209032237 139.87177033501212,140.6667114320444 139.25167464127298,142.1026530104864 139.25167464127298,142.8605089429475 139.4239234450506,143.37904110437375 138.56267942592967,144.376216408069 136.66794258367736,144.256555505679 134.56650717707817,144.41610336740268 132.70622009562794,144.376216408069 131.74162679421715,145.0144072698895 130.7081339712022,144.97452037141193 130.2602870813571,145.17395482285065 129.08899521525018,144.735198895738 126.81531100464053,143.77791153057478 124.85167464113329,143.81779855076456 121.95789473690093,143.93745958720683 119.95980861235876,143.4189281652798 119.58086124400143,142.98017027197056" stroke="#4dd2ff" stroke-linecap="round" stroke-linejoin="round" stroke-width="0.5"><title>2024-08-24 10.0km</title><desc>12225850149</desc></polyline><polyline fill="none" points="23.89443651912734,242.7838715807884 24.818830242496915,240.6037419299828 25.53780313814059,238.06684841882088 25.880171183962375,237.4722616102663 26.01711840205826,236.63983855227707 26.804564907215536,235.05426589786657 27.352353780297562,233.34976809017826 28.550641940091737,230.33714905759552 29.235378031153232,229.8614702366758 29.235378031153232,229.94075008056825 29.303851640434004,229.9011101606884 29.40656205418054,228.6326305916009 30.125534949824214,228.0380293703929 32.89871611970011,228.47407035474316 38.78744650504086,228.79119076378993 42.96433666185476,228.9101108504983 45.08701854478568,228.94975087139755 45.84022824536078,229.108310914482 46.31954350916203,229.42543080670293 50.25677603413351,229.62363060811185 52.482168330810964,229.62363060811185 54.39942938659806,229.66327055636793 55.289586305152625,229.34615085783298 57.82310984306969,229.58399065595586 58.81597717537079,229.66327055636793 60.15121255349368,229.14795091509586 61.41797432245221,229.26687089295592 62.89015691867098,229.14795091509586 64.56776034226641,229.42543080670293 66.41654778877273,229.26687089295592 66.62196861603297,228.94975087139755 67.23823109839577,229.02903090103064 67.58059914398473,229.14795091509586 69.39514978590887,229.62363060811185 71.38088445062749,229.54435069975443 72.03138373745605,229.7425504407147 73.7089871611679,229.70291050046217 74.22253922978416,230.49570853548357 76.68758915818762,230.37678893309203 77.37232524959836,230.89210694731446 81.82310984306969,231.3677845087659 84.49358059919905,231.24886517296545 85.93152639083564,231.0903060019482 85.69186875887681,229.34615085783298 85.07560627663042,226.8884644335776 84.66476462187711,227.28486651944695 84.18544935819227,226.49206194383441 82.50784593448043,225.46141358124441 79.90584878739901,226.80918396794004 77.6119828815572,227.32450670585968 76.03708987159189,227.04702531630755 74.80456490721554,226.37314111823798 72.71611982875038,225.22357126377756 71.20970042783301,225.69925575330853 69.6348074178677,226.37314111823798 68.16262482176535,226.96774488303345 66.86162624810822,227.245226329047 65.35520684730727,227.08666552696377 64.32810271042399,226.45242167267133 63.71184022829402,226.0560187389783 63.164051355211996,225.38213282485958 62.03423680446576,225.73889610121842 60.42510698991828,225.18393086345168 58.85021397995297,225.18393086345168 57.2068473608233,225.73889610121842 56.248216832987964,225.5010539534269 54.844507845817134,225.89745745243272 53.3380884451326,225.85781712058815 51.420827389345504,226.13529935796396 49.67475035658572,225.5010539534269 48.47646219667513,224.9460883763968 47.962910128291696,223.91543591968366 47.14122681878507,222.72621815485763 46.490727532072924,221.69555981922895 45.84022824536078,219.9910035050125 43.9229671896901,217.3350520429085 39.95149786013644,217.73146385961445 39.677603423711844,218.2864397248486 40.1569186875131,220.22884902032092 40.32810271042399,221.3387928364391 39.88302425085567,223.9947169747029 39.437945791636594,224.98572880105348 38.684736091294326,225.46141358124441 36.904422253835946,225.18393086345168 34.13124108396005,224.98572880105348 32.62482168327551,225.14429045896395 31.940085591981187,225.85781712058815 31.118402282358147,225.73889610121842 30.673323823022656,225.93709778005723 29.40656205418054,225.81817678484367 29.098430813057348,225.85781712058815 28.379457917180844,225.81817678484367 27.318116975715384,224.7875266376068 26.325249643297866,224.62896483417717 23.483594864490442,224.51004343933892 21.15549215383362,224.27220054040663 19.717546362197027,223.796514306654 17.115549215232022,223.5983115375857 16.56776034226641,223.9947169747029 15.335235377890058,227.36414688828518 14.34236804547254,230.45606867212337 14.924393723136745,230.93174676646595 17.697574893012643,230.45606867212337 17.834522111224942,230.21822940689162 18.793152638943866,229.7425504407147 20.607703280984424,229.34615085783298 20.81312410836108,229.22723090442014 22.319543509045616,229.108310914482 26.359486447880045,228.55335048117558 26.873038516379893,228.19658978490043 27.76319543493446,227.8398287614109 28.927246790146455,227.48306741096894 30.433666190947406,227.8794688913331 32.932952924398705,228.31551005330402 38.61626248212997,228.67227064070175 40.43081312405411,228.43443028553156 41.80028530664276,228.55335048117558 43.614835948566906,228.6326305916009 45.258202567580156,228.87047082569916 45.94293865887448,228.98939088830957 48.16833095566835,229.46507077512797 50.05135520675685,229.58399065595586 51.660485021420754,229.26687089295592 54.330955777317286,229.54435069975443 55.87161198281683,229.34615085783298 56.72753209702205,229.34615085783298 58.16547788865864,229.54435069975443 59.67189728957601,229.46507077512797 60.66476462187711,229.14795091509586 62.376604850171134,229.02903090103064 63.81455064180773,229.30651087738806 65.21825962909497,229.18759091180982 66.45078459335491,228.83083079676726 66.7589158344781,228.6326305916009 66.8958630526904,228.47407035474316 67.9229671896901,229.22723090442014 70.07988587731961,229.58399065595586 71.99714693275746,229.70291050046217 73.77746077021584,229.7425504407147 74.25677603413351,230.49570853548357 75.00998573459219,230.53534839488566 76.55064194009174,230.41642880471773 77.44079885887913,231.0903060019482 84.28815977170598,231.28850495564984 85.93152639083564,230.81282729734085 85.48644793150015,226.84882420281065 85.24679029954132,226.7695437289658 84.63052781741135,227.245226329047 83.63766048499383,225.81817678484367 82.3708987160353,225.38213282485958 80.76176890160423,226.2145799608552 78.77603423676919,227.1659459360817 76.99572039931081,227.245226329047 74.8388017116813,226.2145799608552 72.92154065612704,225.18393086345168 71.10699001420289,225.73889610121842 70.11412268190179,225.9767381036654 67.88873038510792,227.00738510172232 66.79315263906028,227.00738510172232 65.18402282439638,227.2055861345434 64.77318116964307,227.32450670585968 64.70470756059512,226.92810466027004 64.2938659057254,226.37314111823798 63.746077032759786,226.0560187389783 63.57489300996531,225.5010539534269 62.787446504924446,225.2632116601162 61.657631954178214,225.61997504538158 59.2610556348227,225.1046500505763 57.82310984306969,225.73889610121842 56.41940085589886,225.46141358124441 55.3238231097348,225.93709778005723 54.29671897285152,225.65961540141143 53.4407988586463,225.93709778005723 51.18116975738667,226.13529935796396 49.81169757491443,225.54069432144752 49.12696148350369,225.2632116601162 49.22967189736664,224.7875266376068 48.95577746082563,225.1046500505763 48.544935805839486,225.2632116601162 48.44222539232578,224.62896483417717 48.13409415120259,223.51903040180332 46.490727532072924,221.18022962781833 45.29243937227875,218.72249163509696 44.02567760332022,217.2161284191825 40.63623395154718,217.45397563028382 39.91726105555426,217.81074617465492 39.88302425085567,218.64320950594265 40.19115549197886,219.43603007067577 40.225392296677455,221.7352005748544 39.437945791636594,223.43974924978102 39.64336661901325,224.19291954190703 38.684736091294326,225.34249244062812 36.97289586288389,225.22357126377756 33.82310984295327,225.02536922154832 32.24821683310438,225.65961540141143 31.495007132645696,225.89745745243272 30.844507845817134,225.89745745243272 29.88587731809821,225.73889610121842 28.447931526228786,225.85781712058815 26.873038516379893,224.58932437331532 23.825962910079397,224.51004343933892 22.285306704696268,224.74788619281026 19.649072753149085,223.83615484830807 16.773181169643067,223.71723321112222 16.19115549197886,225.38213282485958 14.34236804547254,230.02002990836627 14.171184022794478,231.24886517296545 14.0,232.27949820982758" stroke="#4dd2ff" stroke-linecap="round" stroke-linejoin="round" stroke-width="0.5"><title>2024-08-11 10.2km</title><desc>12116913505</desc></polyline></svg>