<?xml version="1.0" encoding="utf-8" ?>
<svg baseProfile="full" height="300mm" version="1.1" viewBox="0,0,200,300" width="200mm" xmlns="http://www.w3.org/2000/svg" xmlns:ev="http://www.w3.org/2001/xml-events" xmlns:xlink="http://www.w3.org/1999/xlink"><defs /><rect fill="#222222" height="300" width="200" x="0" y="0" /><text fill="#FFFFFF" style="font-size:12px; font-family:Arial; font-weight:bold;" x="10" y="20">Over 10km Runs</text><text fill="#FFFFFF" style="font-size:4px; font-family:Arial" x="10" y="280">ATHLETE</text><text fill="#FFFFFF" style="font-size:9px; font-family:Arial" x="10" y="290">skyline09</text><text fill="#FFFFFF" style="font-size:4px; font-family:Arial" x="120" y="280">STATISTICS</text><text fill="#FFFFFF" style="font-size:3px; font-family:Arial" x="120" y="285">Number: 4</text><text fill="#FFFFFF" style="font-size:3px; font-family:Arial" x="120" y="290">Weekly: 1.0</text><text fill="#FFFFFF" style="font-size:3px; font-family:Arial" x="141" y="285">Total: 40.7 km</text><text fill="#FFFFFF" style="font-size:3px; font-family:Arial" x="141" y="290">Avg: 10.2 km</text><text fill="#FFFFFF" style="font-size:3px; font-family:Arial" x="167" y="285">Min: 10.0 km</text><text fill="#FFFFFF" style="font-size:3px; font-family:Arial" x="167" y="290">Max: 10.2 km</text><polyline fill="none" points="26.115094339475036,89.53194276991417 27.796226415084675,85.41799493783037 28.29292452824302,83.78125217030174 28.674999999813735,82.5868684204761 29.7448113206774,80.24232780496823 31.73160377354361,74.75693805568153 32.342924528289586,73.38557979391771 33.33632075460628,72.5450677513436 36.125471698120236,72.81049278264982 39.94622641522437,72.72201779024908 43.690566037548706,73.3413423585298 46.13584905653261,73.20863002538681 48.810377358458936,73.25286747436621 51.17924528289586,74.09337814711034 55.955188679276034,74.22609020987875 58.47688679234125,74.27032755507389 60.501886792248115,74.22609020987875 61.22783018834889,73.8721912856854 62.48867924534716,73.91642866691109 65.88915094314143,74.22609020987875 67.22641509422101,73.78371650955523 69.82452830160037,73.65100431145402 71.12358490540646,74.0049034160329 73.26320754713379,73.91642866691109 73.56886792439036,74.35880223210552 74.90613207523711,74.0049034160329 78.61226415075362,74.27032755507389 81.36320754676126,74.22609020987875 82.05094339605421,74.71270076002111 82.39481132058427,75.0665989992558 82.58584905625321,75.46473417407833 84.57264150935225,75.11083625888568 85.98632075451314,75.86286898388062 89.0047169807367,76.17252913911943 93.66603773552924,76.30524056658032 95.5,75.8186318007065 94.8886792450212,71.30641546085826 94.58301886776462,71.30641546085826 94.0099056600593,71.83726687505259 92.67264150897972,70.06775963774999 91.18254716950469,69.7138573252596 89.23396226391196,70.90827647442347 86.82688679220155,71.96997962717433 85.45141509408131,71.79302928203833 83.99952830164693,71.2179401620815 81.36320754676126,69.53690606079181 79.87311320728622,69.44843040159321 77.84811320737936,70.33318618297926 75.82311320723966,71.48336600439507 74.02735849050805,71.61607886463753 73.37783018848859,71.92574204763514 72.8047169810161,71.48336600439507 72.15518867899664,71.52760362895788 70.85613207542337,70.77556339770672 70.81792452814989,70.1119974066387 70.05377358477563,69.62538170203334 68.60188679234125,70.0235218644666 67.95235849032179,69.97928408678854 66.84433962241746,69.44843040159321 65.08679245272651,69.53690606079181 63.405660377116874,70.46589939467958 62.45047169784084,69.93504630436655 61.609905660385266,70.28894843676244 60.54009433928877,70.33318618297926 59.049999999813735,70.28894843676244 57.407075471710414,70.24471068591811 56.41367924516089,70.64285028062295 54.19764150935225,69.80233293032506 53.01320754690096,67.98857942185714 53.08962264144793,67.41348526452202 51.79056603764184,65.90938925245428 50.79716981109232,64.09561948652845 50.376886792248115,63.83018912925036 50.033018867718056,62.32608070760034 49.11603773571551,60.645012189634144 45.944811320863664,60.998921891878126 44.263679245254025,61.22011530955206 43.919811320491135,61.79521766805556 44.30188679229468,63.03389708432951 43.919811320491135,67.23653306276537 43.76698113209568,67.76738945144461 43.76698113209568,68.5194348913501 43.00283018848859,69.7138573252596 40.97783018858172,69.53690606079181 38.95283018867485,69.53690606079181 37.348113207379356,69.35995472429204 36.01084905653261,69.40419256518362 35.590566037688404,69.97928408678854 34.71179245272651,70.33318618297926 33.98584905639291,70.33318618297926 32.53396226419136,70.06775963774999 31.19669811311178,70.06775963774999 29.8594339620322,68.96181395355961 28.331132075283676,68.96181395355961 26.267924528103322,68.74062447878532 24.433962264098227,69.00605183493462 22.026886792387813,68.38672108479659 21.49198113195598,67.94434143687249 18.091509433928877,68.07705537852598 16.104716981295496,73.3413423585298 15.646226415177807,75.46473417407833 16.333962264005095,75.8186318007065 19.39056603773497,75.2435480109416 20.07830188679509,74.62422615505056 20.918867924483493,74.35880223210552 23.28773584915325,73.8721912856854 27.52877358486876,73.12015511409845 29.6301886793226,72.67778028731118 30.699999999953434,71.96997962717433 32.07547169807367,72.10269233887084 32.41933962260373,71.92574204763514 33.60377358482219,72.5450677513436 35.89622641517781,72.81049278264982 39.602358490461484,72.67778028731118 42.467924528289586,73.25286747436621 46.09764150925912,73.20863002538681 48.160849056439474,73.2971049186599 50.45330188656226,73.56252949038753 54.808962263865396,74.27032755507389 56.79575471696444,73.96066604368389 58.20943396212533,74.22609020987875 60.42547169793397,74.18185286017251 61.64811320719309,73.96066604368389 64.36084905639291,74.27032755507389 66.00377358472906,74.13761550595518 67.30283018830232,73.73947911465075 69.86273584887385,73.69524171538069 71.12358490540646,74.09337814711034 73.49245282984339,73.69524171538069 74.0655660375487,73.47405465104384 74.37122641503811,73.42981722479453 75.21179245272651,73.96066604368389 77.1985849053599,74.31456489590346 79.03254716959782,74.40303956402931 81.59245282993652,74.13761550595518 82.16556603764184,74.71270076002111 82.31839622627012,75.28778525261441 84.34339622617699,75.11083625888568 85.52783018839546,75.33202248968882 86.63584905629978,75.95134333634633 92.78726415080018,76.21676628605928 95.38537735817954,76.0398176710587 95.3089622638654,75.19931076481589 94.8886792450212,71.26217781365267 93.97169811301865,71.83726687505259 93.39858490554616,70.99675183615182 91.90849056583829,69.7138573252596 90.64764150907286,69.89080851752078 88.27877358463593,71.43912837520475 86.06273584882729,71.96997962717433 84.07594339596108,71.52760362895788 82.35660377331078,69.97928408678854 80.98113207519054,69.40419256518362 79.72028301865794,69.40419256518362 78.6504716980271,69.84657072625123 77.31320754694752,70.59861256595468 75.36462264112197,71.48336600439507 73.7599056600593,71.43912837520475 73.60707547143102,71.2179401620815 71.9641509433277,71.43912837520475 71.23820754699409,70.90827647442347 70.6650943395216,70.42166166199604 70.2448113206774,69.66961951597477 68.71650943369605,69.97928408678854 67.87594339600764,69.93504630436655 66.11839622608386,69.27147902897559 65.04858490545303,69.53690606079181 63.176415094174445,70.15623517084168 61.64811320719309,70.15623517084168 60.731132075423375,70.24471068591811 59.08820754708722,70.20047293059179 57.21603773557581,70.28894843676244 56.22264150925912,70.51013712296844 54.12122641503811,69.66961951597477 53.08962264144793,67.98857942185714 52.36367924511433,66.70567602530355 51.484905660385266,65.37853059283225 50.56792452814989,63.65323546770378 49.76556603773497,60.86620578743168 48.77216981118545,60.46805723011494 44.68396226409823,60.998921891878126 43.88160377345048,61.70674043169129 44.263679245254025,63.74171230758657 44.34009433933534,65.7766746483976 43.99622641480528,66.83839034556877 43.65235849050805,67.76738945144461 43.805188679136336,68.29824519122485 42.88820754713379,69.66961951597477 41.05424528289586,69.58114388366812 36.88962264126167,69.40419256518362 35.81981132063083,69.53690606079181 34.86462264158763,70.37742392468499 33.75660377345048,70.46589939467958 32.11367924511433,69.93504630436655 31.31132075469941,70.15623517084168 29.935849056579173,68.96181395355961 28.674999999813735,68.8291002821934 26.267924528103322,68.69638657022733 23.937264150939882,68.8291002821934 22.332547169644386,68.6079107397527 19.16132075455971,67.76738945144461 17.671226415084675,69.05028971194406 17.327358490321785,70.37742392468499 16.333962264005095,72.67778028731118 15.569811320630834,75.02236173528945 15.340566037921235,76.17252913911943 15.149528301786631,76.0398176710587 15.340566037921235,76.08405483153183 15.340566037921235,76.92456002556719 14.805660377256572,77.6323526117776" stroke="#4dd2ff" stroke-linecap="round" stroke-linejoin="round" stroke-width="0.5"><title>2024-09-07 10.2km</title><desc>12344991930</desc></polyline><polyline fill="none" points="114.89055793965235,90.29506209096871 115.93347639474086,88.19317729515024 117.0536480685696,85.1968560446694 117.4012875535991,84.03409900824772 117.78755364799872,82.91606049300754 118.4828326178249,80.7694185639557 119.1781115878839,79.4277620294888 120.53004291839898,75.62637958704727 121.53433476388454,73.79275982035324 122.30686695268378,71.95913239655783 123.65879828319885,71.7802415061742 125.86051502148621,72.04857781433384 131.07510729599744,72.40635930345161 134.31974248914048,72.22746859528706 135.20815450628288,72.36163663325715 138.3755364806857,72.49580463016173 139.41845493554138,72.76414050103631 140.3454935620539,73.0324762078526 141.58154506445862,73.30081175078521 144.98068669531494,73.52442457806319 146.48712446331047,73.16664399992442 147.72317596548237,73.39025689536356 150.85193133028224,73.0324762078526 152.7060085835401,73.30081175078521 154.48283261805773,73.56914712977596 156.10515021462925,73.34553432531538 156.99356223177165,72.94303099057288 159.54291845485568,73.0324762078526 161.47424892685376,73.34553432531538 163.48283261805773,72.76414050103631 164.44849785394035,73.0324762078526 165.80042918445542,73.30081175078521 168.00214592274278,73.56914712977596 171.28540772525594,73.52442457806319 171.9034334763419,73.97164989070734 172.40557939908467,74.73193187682773 173.6802575106267,74.73193187682773 175.6115879828576,74.77665430554771 181.52145922742784,75.53693489811849 185.19098712457344,75.35804546525469 185.03648068662733,72.00385510767228 184.68884120159782,70.39383463497506 183.9163090127986,70.97523159781122 182.64163090125658,69.14159240812296 181.36695278948173,68.73908521971316 179.7060085835401,69.63354513756349 177.9678111586254,70.66217179043451 174.14377682399936,70.66217179043451 171.67167381942272,69.00742338647251 169.93347639474086,68.69436217597104 167.5386266093701,69.45465329976287 166.14806866948493,70.12549731554464 163.90772532182746,70.75161747238599 162.55579399131238,71.28829118193244 162.16952789691277,70.93050878177746 161.1652360514272,70.21494310707203 160.4699570813682,69.63354513756349 159.81330472091213,68.8285312934313 158.34549356228672,69.09686940544634 157.34120171680115,69.00742338647251 155.33261802559718,68.51546995551325 152.66738197416998,69.27576138902805 151.6244635193143,69.09686940544634 150.62017167382874,69.63354513756349 148.68884120159782,69.45465329976287 145.94635193119757,69.72299102903344 143.70600858377293,68.91797734901775 143.04935622308403,67.97879285697127 142.58583690971136,66.59237398279947 140.42274678102694,63.50645819189958 139.92060085805133,62.209472618211294 139.3025751071982,60.46524459880311 138.68454935611226,59.839109773543896 134.82188841188326,59.883833719359245 133.4699570813682,60.062729456520174 133.35407725302503,60.73358782206196 133.89484978537075,62.70143311432912 133.8562231757678,64.98233366740169 133.5085836907383,66.05569453368662 133.00643776822835,66.90543669194449 133.4699570813682,67.57628460254637 132.23390557942912,68.96270036997157 130.10944205988199,68.6049160748662 126.90343347634189,68.33657766217948 124.77896995679475,69.23103839994292 123.46566523588262,69.27576138902805 123.0407725321129,69.58882218488725 121.03218884114176,69.49937626597239 119.60300429165363,68.51546995551325 118.5987124464009,67.88934661008534 115.35407725302503,67.75517720563221 112.4957081542816,67.71045406162739 111.10515021439642,67.21849917777581 108.98068669508211,66.86071346129756 107.47424892685376,66.99488313912298 105.65879828319885,71.51190503401449 104.77038626582362,74.37415228266036 105.50429184525274,75.13443357200595 107.9377682399936,74.59776456319378 108.78755364799872,74.10581739569898 109.79184549348429,73.88220486458158 111.49141630879603,73.61386967691942 113.34549356205389,73.07719880982768 114.81330472091213,72.8983083749481 117.09227467793971,72.62997258617543 118.79184549348429,72.45108196901856 119.68025751062669,71.7802415061742 121.07081545051187,71.19884560926585 121.4957081542816,70.88578596134903 121.68884120159782,71.01995440918836 122.96351931313984,71.690796033683 124.08369098720141,71.82496423553675 126.4012875535991,72.00385510767228 128.7188841199968,71.82496423553675 131.65450643771328,72.36163663325715 134.66738197416998,72.22746859528706 137.06223175954074,72.58524993868195 140.11373390536755,72.67469522895408 140.46137339039706,73.21136658816249 141.3884120171424,73.12192140705884 145.52145922742784,73.43497946072603 147.76180257485248,73.39025689536356 150.11802575085312,73.30081175078521 151.50858369097114,73.34553432531538 153.0922746779397,73.25608917177306 154.8304721028544,73.43497946072603 156.45278969965875,73.0324762078526 157.99785407725722,73.07719880982768 159.62017167382874,72.94303099057288 163.057939914288,73.07719880982768 163.28969957050867,72.8983083749481 164.10085836891085,72.98775360148284 168.11802575108595,73.34553432531538 170.1266094420571,73.70331475770217 171.78755364799872,73.74803729119594 172.36695278948173,74.59776456319378 172.90772532182746,74.41887474793475 174.45278969965875,74.239984859596 175.88197424868122,75.00026638124837 183.49141630902886,75.4474901908543 185.42274678102694,75.04498878266895 184.53433476411738,70.4385575055494 183.95493562240154,70.93050878177746 182.06223175954074,68.78380825888598 180.942060085712,68.78380825888598 179.43562231748365,69.76771396803088 177.19527896982618,70.88578596134903 174.9163090127986,70.70689463370945 171.86480686697178,68.78380825888598 169.85622317600064,68.69436217597104 167.57725321897306,69.54409922764171 166.22532188845798,70.25966599586536 164.29399141622707,70.84106313632219 163.7918454934843,70.57272609020583 161.7060085835401,70.57272609020583 160.50858369097114,69.90188275749097 159.7360515021719,68.8285312934313 156.33690987131558,68.64963912777603 154.59871244616807,68.8285312934313 152.86051502125338,69.32048437363119 151.93347639474086,68.87325432349462 151.1223175963387,69.3652073534613 150.27253218879923,69.45465329976287 149.46137339039706,68.96270036997157 147.53004291839898,69.1863154064049 145.7918454934843,69.67826808558311 143.86051502125338,68.78380825888598 143.62875536456704,68.47074688909925 142.8175965663977,67.93406973572564 142.35407725325786,67.03960635591648 142.70171673828736,66.50292745346087 141.58154506445862,65.47429105680203 140.92489270376973,64.53509919875069 140.22961373371072,63.32756385789253 139.68884120159782,60.59941623089253 138.22103004273959,59.70493790906039 135.0150214591995,60.062729456520174 133.54721030034125,60.107453379489016 133.27682403405197,61.31499757640995 133.54721030034125,62.03057775547495 133.70171673805453,64.89288681023754 133.04506437736563,66.05569453368662 133.35407725302503,67.26322237181012 132.85193133028224,68.64963912777603 130.99785407725722,68.87325432349462 129.45278969942592,68.78380825888598 127.13519313302822,68.56019301753258 125.24248927016743,68.56019301753258 124.54721030034125,69.3652073534613 123.62017167382874,69.27576138902805 122.65450643748045,69.40993032883853 121.61158798262477,69.14159240812296 120.80042918445542,69.1863154064049 119.10085836891085,68.1129621930304 117.0536480685696,68.02351597347297 114.50429184525274,67.88934661008534 112.22532188822515,67.66573091316968 110.7188841199968,67.1737759791431 107.59012875519693,66.81599022628507 107.12660944205709,67.93406973572564 106.00643776822835,70.70689463370945 105.19527896982618,72.76414050103631 104.7317596564535,74.68720944353845" stroke="#4dd2ff" stroke-linecap="round" stroke-linejoin="round" stroke-width="0.5"><title>2024-08-31 10.2km</title><desc>12285168865</desc></polyline><polyline fill="none" points="24.73157894727774,240.34628800864448 26.51435406692326,236.48739742554608 26.785645932890475,235.3207494331 27.522009569453076,233.12205828150036 27.79330143542029,232.04514432669384 28.83971291873604,229.3079761771951 31.78516746405512,222.3976727333793 33.25789473694749,221.76945795485517 36.51339712925255,222.26305535639403 39.226315789390355,222.08356545609422 41.861722487956285,222.66690736429882 46.74497607653029,222.7566522047273 50.2717703350354,223.0707590020902 53.95358851691708,223.56435494558536 56.58899521548301,223.29512086312752 59.14688995224424,223.65409960318357 60.61961722490378,223.2053761325078 62.36363636376336,223.4297379249765 64.68899521557614,223.65409960318357 66.47177033498883,223.11563138352358 68.13827751181088,223.29512086312752 69.95980861247517,223.0707590020902 70.69617224880494,223.38486557555734 73.06028708140366,223.16050376032945 73.2928229663521,223.38486557555734 73.91291866032407,223.0707590020902 78.4861244019121,223.51948260999052 80.92775119631551,223.51948260999052 81.89665071782656,224.10282261690008 82.24545454559848,224.64128963006078 83.52440191386268,224.46180069862748 85.50095693790354,224.6861618514231 85.77224880387075,225.35924462389085 88.7564593302086,225.5387331895763 95.15119617246091,225.49386105505982 95.5,224.91052288989886 94.99617224885151,220.51302571047563 94.45358851668425,220.69251625039033 93.94976076553576,221.00662451953394 93.01961722504348,219.52582643320784 91.62440191395581,218.7629891129618 90.57799043064006,219.12197154591559 87.94258373207413,220.64764362230198 86.85741626797244,221.0514971112134 85.3846889953129,220.9617519233434 82.90430622012354,219.39120817865478 81.50909090903588,218.62837062525796 79.68755980860442,218.7629891129618 77.86602870817296,219.34633541785297 76.6258373206947,219.97455365161295 74.80430622026324,220.78226149312104 72.16889952169731,220.82713410750148 71.47129186615348,220.60277098961524 70.46363636362366,219.884808244562 69.95980861247517,218.80786193307722 68.25454545463435,219.16684432938928 66.82057416276075,218.62837062525796 65.54162679426372,218.44887924424256 63.72009569383226,219.39120817865478 62.867464114911854,219.48095368617214 60.852153110085055,219.43608093468356 59.34066985640675,219.12197154591559 57.44162679417059,219.39120817865478 56.04641148331575,219.7053173754539 53.6435406699311,218.80786193307722 53.062200956977904,218.00015047189663 52.59712918661535,216.83345352477045 51.705741626909,215.44238774187397 50.58181818178855,213.87182432072586 50.194258373230696,213.1538506061188 49.10909090912901,210.91017520663445 48.06267942581326,209.65371199135552 44.613397129345685,210.05757555851596 43.140669856686145,210.46143875541748 43.79952153097838,213.1089772101841 43.48947368422523,215.5321340538503 42.94688995205797,216.78858050340204 43.29569377982989,217.46167534179403 42.09425837313756,218.85273474862333 40.73779904306866,218.67324345908128 38.1411483255215,218.7629891129618 35.62200956931338,218.62837062525796 34.924401914002374,219.03222596505657 34.0330143540632,219.57069917570334 33.02535885153338,219.61557191348402 32.172727272845805,219.43608093468356 31.242583731887862,219.21171710838098 29.57607655483298,218.67324345908128 28.762200956931338,218.00015047189663 26.863157894695178,218.13476915159845 23.37511961720884,218.26938779008924 21.011004784610122,217.55142124241684 20.662200956838205,217.1026915559778 17.25167464115657,216.87832654136582 16.786602870794013,218.00015047189663 15.197607655543834,221.99382047867402 14.5,224.19256716474774 14.887559808557853,225.09001163838548 18.41435406706296,224.50667293849983 19.111961722373962,223.74384424259188 19.809569378150627,223.56435494558536 22.173684210516512,223.0707590020902 26.785645932890475,222.30792781992932 28.7234449761454,221.8143304687983 29.808612440014258,221.14124228057335 31.242583731887862,221.41047767928103 32.909090908942744,221.8143304687983 35.50574162695557,222.12843793802313 38.68373205745593,221.94894798303721 41.74545454536565,222.53229006944457 44.187081339769065,222.17331041532452 48.02392344479449,222.53229006944457 49.49665071768686,222.84639702679124 50.426794258411974,223.3399932216853 56.627751196268946,223.25024850005866 58.333014354109764,223.47461026982637 59.999521531164646,223.4297379249765 61.394736842252314,223.25024850005866 62.36363636376336,223.3399932216853 64.49521531094797,223.65409960318357 66.58803827734664,223.0707590020902 68.25454545463435,223.3399932216853 69.53349282289855,223.11563138352358 71.04497607657686,223.25024850005866 73.21531100478023,223.47461026982637 73.2928229663521,223.38486557555734 74.30047846888192,223.11563138352358 76.93588516744785,223.6989719250705 78.75741626787931,223.51948260999052 80.23014354077168,223.51948260999052 81.50909090903588,223.65409960318357 82.24545454559848,224.23743943191948 82.28421052638441,224.64128963006078 83.02057416248135,224.55154517357005 84.64832535898313,224.37205620581517 85.77224880387075,225.26950031361775 95.22870813403279,225.40411677223165 94.87990430626087,220.3335350972484 94.1435406699311,220.9617519233434 93.09712918661535,219.61557191348402 91.89569377992302,218.89760755960015 90.8492822968401,219.03222596505657 89.53157894755714,220.15404441111605 86.70239234459586,221.09636969817802 85.07464114832692,220.91687932264176 83.21435406710953,220.01942634829902 81.47033492848277,218.80786193307722 80.19138755975291,218.67324345908128 78.52488038293086,219.30146265259827 77.16842105262913,219.75019009952666 75.26937799039297,220.60277098961524 73.91291866032407,220.55789835227188 73.8741626793053,220.69251625039033 71.89760765549727,221.00662451953394 71.62631578953005,220.60277098961524 70.46363636362366,219.884808244562 69.92105263168924,218.89760755960015 68.02200956922024,219.16684432938928 66.82057416276075,218.7181162883353 64.49521531094797,218.80786193307722 62.634928229730576,219.57069917570334 60.69712918670848,219.57069917570334 59.573205741588026,219.12197154591559 58.56555023929104,219.30146265259827 56.35645933030173,219.6604446467245 54.68995215324685,219.03222596505657 53.7210526317358,218.58349778692354 53.7210526317358,218.17964203562587 54.06985645927489,217.14756454524468 53.91483253589831,217.46167534179403 53.682296650717035,218.00015047189663 53.48851674632169,217.82065883497125 53.798564593307674,218.35913352645002 53.83732057409361,218.5386249438743 54.108612440060824,219.21171710838098 53.41100478474982,218.80786193307722 52.9846889951732,217.91040466257255 52.59712918661535,216.47446922693052 51.589473684318364,215.17314869584516 50.736842105397955,213.64745766067063 49.80669856444001,212.12176134166657 48.101435406599194,209.65371199135552 43.450717703439295,210.28194404687383 43.72200956940651,212.57049610160175 43.60574162681587,214.5000503610354 42.90813397150487,216.11548463680083 42.90813397150487,216.96807256081956 43.10191387566738,217.55142124241684 42.13301435415633,218.67324345908128 40.00143540673889,218.5386249438743 37.637320574140176,218.7181162883353 35.544497607508674,218.67324345908128 34.45933014340699,219.39120817865478 33.29665071773343,219.34633541785297 32.792822966584936,219.57069917570334 31.47511961706914,219.07709875769797 28.917224880307913,218.00015047189663 26.708133971318603,218.04502336963196 23.45263157901354,218.17964203562587 21.204784689005464,217.5962941859616 20.778468899428844,217.1026915559778" stroke="#4dd2ff" stroke-linecap="round" stroke-linejoin="round" stroke-width="0.5"><title>2024-08-24 10.0km</title><desc>12225850149</desc></polyline><polyline fill="none" points="115.63124108407646,239.38185552839423 116.6711840229109,236.9292096712452 117.48002853058279,234.0752044712135 117.8651925821323,233.4062943115714 118.01925820251927,232.46981837131898 118.9051355207339,230.6860491351108 119.52139800298028,228.7684891014651 120.86947218282148,225.3792926898168 121.63980028522201,224.8441540162894 121.63980028522201,224.93334384067566 121.71683309553191,224.88874893079628 121.83238231111318,223.4617094155692 122.64122681878507,222.79278304171748 125.7610556348227,223.28332914912608 132.38587731821463,223.64008960928186 137.08487874479033,223.77387470682152 139.4728958630003,223.81846973035135 140.3202567761764,223.9968497788068 140.85948644788004,224.35360965755535 145.2888730384875,224.57658443416585 147.79243937227875,224.57658443416585 149.94935806002468,224.62117937591393 150.9507845933549,224.26441971509485 153.80099857365713,224.5319894879649 154.91797432256863,224.62117937591393 156.4201141227968,224.04144477951922 157.84522111271508,224.17522975458996 159.50142653356306,224.04144477951922 161.38873038510792,224.35360965755535 163.46861626254395,224.17522975458996 163.69971469324082,223.81846973035135 164.3930099857971,223.90765976367402 164.77817403711379,224.04144477951922 166.81954350927845,224.57658443416585 169.05349500710145,224.48739453722374 169.78530670469627,224.71036924581858 171.67261055647396,224.6657743130345 172.2503566336818,225.55767210244085 175.02353780320846,225.4238875497249 175.79386590607464,226.0036203157215 180.80099857365713,226.5387575723871 183.80527817411348,226.40497331958613 185.4229671896901,226.22659425219172 185.15335235372186,224.26441971509485 184.4600570613984,221.49952248777845 183.99786019977182,221.9454748344142 183.45863052806817,221.0535696868319 181.57132667629048,219.89409027888905 178.6440798859112,221.41033196393983 176.06348074181005,221.99007004412124 174.29172610561363,221.6779034808569 172.9051355207339,220.91978375802864 170.55563480756246,219.62651767177158 168.8609129814431,220.1616627224721 167.0891583452467,220.91978375802864 165.43295292463154,221.58871299345628 163.96932952920906,221.90087962019606 162.27460770332254,221.72249871783424 161.1191155493725,221.00897438178072 160.42582025681622,220.56302108138334 159.80955777480267,219.80489942798158 158.53851640527137,220.20625811387436 156.72824536380358,219.58192222140497 154.95649072760716,219.58192222140497 153.10770328110084,220.20625811387436 152.02924393722787,219.9386856976198 150.4500713266898,220.38463963399408 148.75534950080328,220.3400442606944 146.59843081305735,220.65221177772037 144.6340941512026,219.9386856976198 143.28601997136138,219.31434942345368 142.70827389438637,218.15486540965503 141.7838801711332,216.81699542421848 141.05206847377121,215.65750479666167 140.3202567761764,213.73987894316087 138.16333808843046,210.75193354827934 133.69543509278446,211.19789684208808 133.3873038517777,211.82224469046923 133.92653352348134,214.00745514789014 134.1191155493725,215.256141941034 133.61840228224173,218.24405659653712 133.11768901580945,219.358944901207 132.2703281028662,219.89409027888905 130.26747503574006,219.58192222140497 127.1476462194696,219.358944901207 125.45292439381592,219.53732676635263 124.68259629118256,220.3400442606944 123.75820256769657,220.20625811387436 123.25748930103146,220.42923500257893 121.83238231111318,220.29544888297096 121.48573466483504,220.3400442606944 120.67689015693031,220.29544888297096 119.48288159770891,219.13596746732946 118.36590584879741,218.95758543844568 115.16904422268271,218.82379886927083 112.5499286733102,218.55622560798656 110.93223965750076,218.02107859498938 108.0049928673543,217.79810047979117 107.38873038510792,218.24405659653712 106.00213980022818,222.0346652493463 104.88516405131668,225.51307725615334 105.5399429386016,226.04821511229966 108.65977175463922,225.51307725615334 108.81383737525903,225.245508082764 109.89229671889916,224.71036924581858 111.93366619106382,224.26441971509485 112.16476462199353,224.13063476749812 113.85948644788004,223.9968497788068 118.40442225383595,223.37251929135527 118.9821683310438,222.97116350801662 119.98359486437403,222.5698073566018 121.29315263894387,222.1684508373437 122.98787446506321,222.6144025027752 125.79957204009406,223.10494881001068 132.1932952925563,223.5063044707931 134.23466476472095,223.23873407123028 135.7753209702205,223.37251929135527 137.81669044215232,223.4617094155692 139.66547788865864,223.7292796789261 140.435805991292,223.863064749341 142.93937232531607,224.39820462203352 145.0577746075578,224.5319894879649 146.86804564925842,224.17522975458996 149.87232524948195,224.48739453722374 151.60556348063983,224.26441971509485 152.56847360916436,224.26441971509485 154.18616262474097,224.48739453722374 155.88088445086032,224.39820462203352 156.99786019977182,224.04144477951922 158.92368045658804,223.90765976367402 160.54136947216466,224.2198247370834 162.12054208293557,224.08603977580788 163.50713266758248,223.68468464637408 163.85378031386063,223.4617094155692 164.00784593448043,223.28332914912608 165.16333808843046,224.13063476749812 167.5898716119118,224.5319894879649 169.7467902994249,224.6657743130345 171.74964336655103,224.71036924581858 172.2888730384875,225.55767210244085 173.1362339516636,225.60226694424637 174.86947218282148,225.46848240532563 175.87089871638454,226.22659425219172 183.5741797434166,226.4495680751279 185.4229671896901,225.91443070952664 184.92225392302498,221.45492722815834 184.65263908705674,221.3657366951229 183.9593437947333,221.90087962019606 182.84236804558896,220.29544888297096 181.41726105567068,219.80489942798158 179.60699001443572,220.74140245598392 177.3730385163799,221.8116891781101 175.37018544925377,221.90087962019606 172.94365192577243,220.74140245598392 170.78673323825933,219.58192222140497 168.74536376609467,220.20625811387436 167.62838801718317,220.4738303666236 165.12482168339193,221.6333082394267 163.892296719132,221.6333082394267 162.0820256776642,221.85628440137953 161.6198288158048,221.99007004412124 161.54279600572772,221.54411774282926 161.08059914410114,220.91978375802864 160.4643366620876,220.56302108138334 160.27175463642925,219.9386856976198 159.3858773179818,219.6711131176562 158.11483594868332,220.0724719260761 155.41868758923374,219.49273130690563 153.80099857365713,220.20625811387436 152.22182596288621,219.89409027888905 150.98930099862628,220.42923500257893 149.83380884467624,220.11706732661696 148.87089871615171,220.42923500257893 146.3288159770891,220.65221177772037 144.7881597718224,219.98328111163573 144.0178316689562,219.6711131176562 144.13338088453747,219.13596746732946 143.8252496435307,219.49273130690563 143.36305278167129,219.6711131176562 143.24750356655568,218.95758543844568 142.90085592027754,217.70890920204693 141.05206847377121,215.07775833131745 139.70399429393,212.31280308947316 138.2788873037789,210.61814447157667 134.46576319565065,210.88572258409113 133.6569186875131,211.28708944653044 133.61840228224173,212.22361069420003 133.96504992851987,213.11553382952115 134.00356633379124,215.7021006467403 133.11768901580945,217.61971790602547 133.34878744650632,218.46703448466724 132.2703281028662,219.76030399571755 130.34450784581713,219.62651767177158 126.8009985734243,219.4035403742746 125.0292439374607,220.11706732661696 124.18188302428462,220.38463963399408 123.4500713266898,220.38463963399408 122.37161198281683,220.20625811387436 120.75392296724021,220.3400442606944 118.9821683310438,218.9129899199761 115.5542082739994,218.82379886927083 113.82097004284151,219.09137196693337 110.85520684742369,218.06567420437932 107.6198288158048,217.9318873625307 106.96504992851987,219.80489942798158 104.88516405131668,225.02253364693024 104.69258202565834,226.40497331958613 104.5,227.56443548607058" stroke="#4dd2ff" stroke-linecap="round" stroke-linejoin="round" stroke-width="0.5"><title>2024-08-11 10.2km</title><desc>12116913505</desc></polyline></svg>