<?xml version="1.0" encoding="utf-8" ?>
<svg baseProfile="full" height="300mm" version="1.1" viewBox="0,0,200,300" width="200mm" xmlns="http://www.w3.org/2000/svg" xmlns:ev="http://www.w3.org/2001/xml-events" xmlns:xlink="http://www.w3.org/1999/xlink"><defs /><rect fill="#222222" height="300" width="200" x="0" y="0" /><text fill="#FFFFFF" style="font-size:12px; font-family:Arial; font-weight:bold;" x="10" y="20">skyline09</text><text fill="#FFFFFF" style="font-size:4px; font-family:Arial" x="10" y="280">ATHLETE</text><text fill="#FFFFFF" style="font-size:9px; font-family:Arial" x="10" y="290">skyline09</text><text fill="#FFFFFF" style="font-size:4px; font-family:Arial" x="120" y="280">STATISTICS</text><text fill="#FFFFFF" style="font-size:3px; font-family:Arial" x="120" y="285">Number: 2</text><text fill="#FFFFFF" style="font-size:3px; font-family:Arial" x="120" y="290">Weekly: 1.0</text><text fill="#FFFFFF" style="font-size:3px; font-family:Arial" x="141" y="285">Total: 10.3 km</text><text fill="#FFFFFF" style="font-size:3px; font-family:Arial" x="141" y="290">Avg: 5.1 km</text><text fill="#FFFFFF" style="font-size:3px; font-family:Arial" x="167" y="285">Min: 5.1 km</text><text fill="#FFFFFF" style="font-size:3px; font-family:Arial" x="167" y="290">Max: 5.2 km</text><polyline fill="none" points="57.31831537699327,111.401951313077 57.31831537699327,110.72837987745879 57.52987267379649,110.17727541452041 57.95298726740293,109.38123474293388 58.005876591429114,109.01383100065868 58.64054848207161,107.91161842655856 58.957884426927194,106.93187222041888 59.539666993077844,106.07459298026515 59.69833496562205,105.70718721760204 59.69833496562205,104.78867182834074 59.909892262658104,104.11509298474994 60.3858961800579,103.07410601479933 60.59745347686112,102.09435192612 60.59745347686112,101.66570901032537 60.914789422182366,101.11459624103736 61.39079333981499,99.88989938964369 61.655239960644394,98.91014011227526 61.70812928513624,98.54272997181397 61.655239960644394,98.42025987524539 62.02546522999182,97.62420363834826 62.28991185105406,97.31802788190544 62.818805092945695,96.09332329744939 63.08325171400793,95.72591143561294 63.24191968655214,95.05232243932551 64.29970617033541,92.54166589531815 64.82859941222705,90.6433576461859 65.93927522050217,88.01021047425456 66.15083251707256,87.4590851883404 66.30950048961677,86.5405419220333 66.62683643470518,85.86694263509708 67.20861900108866,85.9894152887864 67.6317335946951,85.56076089147246 68.79529872676358,85.37705177051248 70.06464250735007,85.49952452408615 71.28109696367756,85.80570629896829 71.75710088131018,85.74446995637845 72.81488736532629,85.80570629896829 73.50244857976213,85.6832336076186 74.4015670910012,85.74446995637845 76.57002938282676,85.25457899196772 77.68070519110188,85.74446995637845 78.4211557295639,85.92817896511406 79.10871694399975,86.17312422278337 80.48383937310427,86.41806938062655 82.07051909901202,86.41806938062655 82.70519098942168,86.17312422278337 83.71008814894594,86.05065160640515 84.82076395698823,86.11188791773748 85.24387855059467,86.35683310049353 87.62389813899063,86.60177818348166 88.41723800217733,86.5405419220333 89.26346718892455,86.11188791773748 91.06170421140268,86.7242506876355 92.0137120471336,86.78548693022458 92.3839373162482,87.09166805027053 92.4368266405072,87.33661283378024 93.60039177257568,87.4590851883404 97.72575905988924,87.52032135613263 98.67776689515449,87.70402982219821 101.21645445656031,87.21414045442361 102.27424094034359,87.58155751763843 103.4906953969039,87.64279367297422 104.01958863856271,87.82650210190332 104.60137120448053,87.70402982219821 105.39471106766723,87.21414045442361 106.34671890316531,86.84672316681826 106.66405484825373,86.84672316681826 107.40450538694859,87.21414045442361 108.14495592564344,87.09166805027053 108.77962781582028,87.27537664730335 110.26052889344282,87.52032135613263 110.63075416255742,87.70402982219821 111.47698334953748,87.70402982219821 112.00587659142911,87.88773823226802 112.42899118503556,87.64279367297422 113.06366307544522,87.52032135613263 113.85700293839909,87.15290425543208 115.60235063638538,87.03043183882255 116.44857982359827,87.15290425543208 117.55925563187338,86.96919562102994 118.35259549459442,87.03043183882255 120.15083251707256,87.58155751763843 120.62683643493801,87.52032135613263 122.58374142996036,87.4590851883404 123.58863858948462,87.21414045442361 123.80019588652067,86.9079593969509 123.74730656202883,86.96919562102994 124.06464250735007,87.4590851883404 124.11753183160909,87.33661283378024 124.48775710095651,87.58155751763843 126.44466209574603,87.27537664730335 127.92556317336857,87.64279367297422 128.82468168460764,87.70402982219821 129.98824681690894,87.64279367297422 130.51714005880058,87.52032135613263 131.25759059749544,87.39784901414532 131.8393731636461,87.58155751763843 132.52693437808193,87.58155751763843 133.47894221358,87.4590851883404 133.95494613144547,87.21414045442361 134.5896180216223,87.15290425543208 134.95984329096973,87.4590851883404 135.43584720883518,88.07144658605102 135.43584720883518,88.19391879078466 135.96474045072682,88.56133525510086 136.017629774753,89.17369553021854 137.12830558256246,89.05122352519538 137.92164544551633,88.68380736024119 138.7149853084702,88.68380736024119 139.29676787462085,88.86751547077438 139.98432908928953,88.80627943988657 140.56611165544018,89.05122352519538 140.7247796279844,89.54111139604356 140.88344760029577,89.66358330147341 143.21057786466554,90.15347067330731 144.7972575908061,90.15347067330731 147.81194906961173,90.52088594023371 148.23506366321817,90.4596500780317 149.71596474037506,90.4596500780317 150.77375122439116,90.27594245399814 152.5719882468693,90.52088594023371 153.7355533791706,90.27594245399814 153.78844270319678,89.90852703718701 154.0,89.66358330147341 153.7355533791706,88.07144658605102 153.68266405491158,86.23436052171746 153.31243878533132,83.35624773486052 153.15377081278712,83.17253794014687 152.9951028402429,83.23377454449655 152.6777668951545,83.60119404026773 152.3075416260399,84.21355936740292 152.25465230154805,84.27479586575646 151.99020568071865,84.15232286287937 151.46131243905984,82.92759146017488 150.61508325161412,81.70285756269004 150.2448579822667,81.4579104835866 149.7688540648669,81.27420010918286 148.816846229136,81.15172649471788 148.34084231150337,81.21296330500627 147.3359451519791,81.58038403553655 145.64348677755333,82.86635482450947 143.9510284033604,83.72366715554381 143.47502448572777,83.84614024596522 143.10479921661317,84.15232286287937 141.2536728696432,84.39726884383708 139.5612144956831,84.09108635183657 138.66209598444402,83.72366715554381 136.22918707155623,81.5191472627921 134.5367286973633,80.78430550225312 133.5847208618652,80.84554234985262 132.8971596476622,81.02925285545643 131.89226248767227,81.76409431663342 131.20470127323642,81.76409431663342 130.51714005880058,82.00904127076501 129.82957884436473,82.07027799380012 129.3006856024731,82.56017155281734 127.81978452485055,82.98882808949566 127.29089128319174,83.35624773486052 126.60333006852306,83.66243060096167 124.75220372178592,83.72366715554381 124.96376101858914,83.60119404026773 124.91087169456296,83.53995747328736 124.38197845243849,83.84614024596522 123.64152791374363,83.72366715554381 122.74240940250456,83.78490370395593 122.31929480913095,83.96861331135733 121.6317335946951,83.53995747328736 121.42017629789189,83.23377454449655 121.26150832534768,82.92759146017488 120.94417238002643,82.62140821950743 120.30950048961677,82.68264488008572 120.15083251707256,82.62140821950743 120.09794319304638,82.4989348796662 120.15083251707256,81.64162080222741 119.83349657198414,81.5191472627921 119.25171400583349,81.02925285545643 118.93437806051224,80.96801602654159 118.35259549459442,80.96801602654159 117.40058765909635,81.3966736983275 116.55435847211629,81.58038403553655 115.86679725744762,81.4579104835866 114.59745347709395,80.72306864819257 113.9098922626581,80.47812117030844 113.59255631756969,80.47812117030844 112.79921645438299,80.84554234985262 112.27032321249135,80.90677919134032 111.79431929509155,81.27420010918286 110.26052889344282,81.9478045416181 109.73163565131836,81.9478045416181 109.1498530851677,81.76409431663342 108.14495592564344,81.27420010918286 107.19294809014536,81.88656780630117 106.61116552399471,82.07027799380012 106.24094025464728,82.07027799380012 105.5004897157196,81.58038403553655 104.91870714980178,81.4579104835866 103.9666993143037,82.00904127076501 103.70225269324146,82.1315147105488 102.00979431951419,81.76409431663342 101.48090107738972,81.88656780630117 100.74045053869486,82.25398812512867 99.89422135148197,82.3152248231927 99.15377081325278,81.8253310645232 98.62487757112831,81.64162080222741 97.99020568071865,81.3966736983275 97.14397649373859,81.27420010918286 96.35063663078472,80.66183178813662 95.92752203717828,79.62080421095015 95.66307541634887,79.25338228297187 95.34573947126046,78.57977483130526 95.45151811954565,78.15111515123863 95.45151811954565,77.96740376605885 94.92262487765402,77.53874364914373 94.49951028381474,76.92637152352836 94.44662095978856,76.68142249854282 94.18217433919199,76.49771066440735 93.65328109706752,75.76286276610335 93.07149853091687,74.4768767831265 92.70127326133661,73.98697663738858 92.64838393731043,73.80326397973113 92.75416258582845,73.55831368244253 92.5426052887924,73.68078884360148 92.0137120471336,73.19088804913918 91.53770812926814,71.53746992076049 91.06170421140268,70.74137808912201 90.58570029377006,69.70033333386527 90.00391772761941,68.96547712717438 88.89324191980995,68.59804868686479 85.40254652290605,69.08795322402148 83.3927522036247,69.14919126307359 83.07541625853628,69.27166732226033 82.91674828599207,69.51661936641904 82.86385896173306,70.06776110030478 83.1811949070543,70.74137808912201 83.33986287959851,71.78242104157107 83.3927522036247,72.51727380498778 83.49853085190989,72.76222452661023 83.44564152788371,72.88469984999392 83.55142017640173,73.61955126619432 83.55142017640173,75.70162540086312 83.71008814894594,76.62018522660946 83.55142017640173,77.11008322663838 82.70519098942168,77.84492947807303 82.59941234067082,78.45730066829128 83.02252693427727,79.1309082568041 82.86385896173306,79.55956723866984 82.1234084230382,80.72306864819257 81.64740450540558,81.15172649471788 81.11851126351394,81.3966736983275 80.80117531819269,81.3966736983275 79.79627815866843,81.15172649471788 77.9980411361903,80.96801602654159 75.6709108715877,81.15172649471788 74.08423114614561,80.72306864819257 73.55533790402114,80.72306864819257 72.23310479917563,81.02925285545643 71.704211557284,80.96801602654159 71.54554358473979,81.09048967820127 71.28109696367756,81.8253310645232 70.5406464249827,82.19275142095285 70.06464250735007,82.19275142095285 69.32419196842238,82.00904127076501 69.16552399587817,82.07027799380012 68.84818805102259,82.3152248231927 68.47796278167516,82.3152248231927 67.47306562191807,81.9478045416181 66.99706170428544,81.88656780630117 66.83839373174123,82.00904127076501 66.78550440724939,82.25398812512867 66.83839373174123,82.43769820046145 66.67972575919703,82.43769820046145 66.62683643470518,82.1315147105488 66.41527913813479,81.8253310645232 65.56904995092191,81.70285756269004 65.3046033300925,81.58038403553655 64.51126346713863,81.15172649471788 63.55925563164055,80.17193668225082 63.13614103826694,80.11069976596627 62.28991185105406,79.98822591465432 61.17923604301177,80.23317359219072 60.121449558995664,80.29441049613524 58.852105778642,79.98822591465432 58.16454456420615,79.9269889795687 57.31831537699327,79.98822591465432 56.472086190013215,80.23317359219072 55.99608227214776,80.29441049613524 55.57296767877415,80.17193668225082 53.721841332037,79.4370932750171 52.87561214505695,79.49833025992848 52.452497551450506,79.3758562838193 51.97649363381788,78.76348602940561 47.79823702247813,78.33482648001518 47.53379040164873,78.45730066829128 47.1635651323013,78.94719717116095 46.0,82.3152248231927" stroke="#4dd2ff" stroke-linecap="round" stroke-linejoin="round" stroke-width="0.5"><title>2024-07-15 5.1km</title><desc>11891120067</desc></polyline><polyline fill="none" points="56.80527086369693,231.96958832012024 56.96339677879587,230.9931971760234 57.38506588572636,229.95577984204283 57.96486090775579,229.4065581734758 58.333821376087144,228.55221235530917 58.86090775998309,227.02659179316834 58.966325036715716,226.9045419805334 59.44070278177969,225.62301744543947 59.70424597361125,225.07379180577118 60.125915080774575,224.52456566295587 60.23133235727437,222.8768842134741 60.389458272373304,222.08355449239025 60.705710102338344,221.0461217337288 60.8111273793038,220.19176399573917 60.9692532941699,219.76458466990152 61.285505124600604,218.17791593639413 61.54904831619933,217.50663174607325 61.70717423129827,216.7743208623142 61.81259150803089,216.59124300151598 62.181551976595074,216.4081650848384 62.55051244515926,215.98098306177417 63.49926793552004,214.45533049310325 63.65739385061897,213.84506837808294 64.2371888726484,212.56351591314888 64.28989751101471,212.19735756254522 64.60614934097975,211.40401370229665 64.816983894445,210.67169536021538 65.13323572464287,210.06142939155689 65.18594436324202,209.75629617419327 65.39677891647443,209.45116280158982 65.60761346993968,208.59678853105288 66.08199121523649,207.6203593016835 66.66178623726591,205.42338771786308 66.81991215236485,205.118252138549 67.50512445089407,205.05722500412958 67.71595900435932,204.6910620664712 68.13762811128981,204.44695331709227 69.4026354320813,204.3248989051208 70.35139092244208,204.50798051367747 71.87994143483229,204.87414356321096 72.88140556379221,204.99619786330732 74.62079062964767,204.93517071631504 75.88579795043916,204.81311640376225 77.30893118586391,204.87414356321096 79.0483162519522,205.1792792668566 79.99707174231298,205.484414815146 80.41874084924348,205.66749606939266 82.10541727673262,205.5454419060261 83.79209370422177,205.1792792668566 85.26793557824567,205.30133350472897 87.53440702776425,205.78955020778812 89.48462664708495,205.484414815146 91.69838945823722,206.03365841018967 92.48901903373189,206.5829015019699 96.8111273793038,206.8880363353528 98.70863836025819,206.8880363353528 99.86822840408422,206.5829015019699 100.86969253281131,206.4608475251007 101.44948755484074,206.5218745166785 102.55636896053329,206.8270093811443 104.66471449495293,206.9490632834495 105.66617862368003,206.7659824207658 106.35139092244208,206.21673949685646 106.82576866773888,205.97263136901893 108.09077598829754,205.7285231417627 108.03806734993123,205.484414815146 108.40702781849541,205.7285231417627 108.82869692519307,205.85057726775995 110.25183016085066,206.03365841018967 110.72620790614747,206.27776651334716 111.25329428981058,206.6439284811495 111.78038067370653,206.6439284811495 112.8345534405671,206.7659824207658 113.25622254773043,206.70495545415906 113.99414348462597,206.39982052735286 115.0483162519522,206.15571247413754 115.83894582744688,206.21673949685646 116.5241581259761,206.33879352349322 117.78916544653475,206.09468544536503 118.52708638343029,206.15571247413754 119.58125915098935,206.5218745166785 120.21376281115226,206.6439284811495 123.42898975103162,206.27776651334716 123.27086383593269,206.21673949685646 126.11713030748069,205.30133350472897 125.1156661787536,206.39982052735286 125.5900439240504,206.39982052735286 127.11859443620779,206.70495545415906 127.48755490477197,206.8270093811443 128.38360175699927,206.9490632834495 130.59736456815153,206.8880363353528 131.9677891654428,207.07111716107465 133.8653001463972,206.9490632834495 134.55051244515926,207.01009022520157 135.81551976595074,207.80343990330584 135.86822840408422,208.4137081716326 135.97364568081684,208.47473496437306 137.02781844791025,208.4137081716326 137.34407027810812,208.2306277564494 138.1346998536028,208.0475472850958 139.18887262092903,208.10857411532197 140.24304538802244,208.35268137283856 140.40117130312137,208.47473496437306 140.61200585658662,209.08500254910905 140.77013177168556,209.2070559912827 142.08784773061052,209.2680827032309 143.0893118593376,209.2070559912827 146.3572474378161,209.51218948850874 148.2547584187705,209.57321616919944 150.5739385066554,209.51218948850874 151.25915080541745,209.57321616919944 151.52269399701618,209.51218948850874 153.47291361633688,209.45116280158982 153.73645680816844,209.2680827032309 154.0,208.90192233899143 153.8418740851339,208.4137081716326 153.8418740851339,206.9490632834495 153.63103953143582,205.30133350472897 153.52562225493602,204.99619786330732 153.26207906310447,202.55510713742115 153.156661786139,202.3720249319449 152.84040995594114,202.49407974176574 152.15519765741192,203.40949002292473 151.94436310394667,203.40949002292473 151.6808199121151,203.10435341787525 150.67935578338802,201.39558555878466 150.31039531505667,201.02942038339097 149.46705710119568,200.6022273962153 148.2547584187705,200.41914459405234 147.51683748187497,200.66325498436345 146.93704245984554,201.02942038339097 146.04099560785107,201.88380544423126 144.03806734993123,203.04332607833203 142.56222547590733,203.53154462121893 140.506588579854,203.53154462121893 139.55783308926038,203.34846271423157 139.0834553441964,202.98229873232776 138.71449487563223,202.98229873232776 138.45095168380067,202.86024402204202 137.87115666177124,202.3720249319449 136.86969253304414,201.70072303380584 136.50073206447996,201.27353052503895 135.86822840408422,200.90736527525587 135.6573938508518,200.6022273962153 135.02489019045606,200.29708936152747 133.97071742312983,200.05297882214654 133.54904831643216,200.11400646623224 132.8638360176701,200.29708936152747 131.44070278201252,200.90736527525587 130.43923865328543,201.2125029989984 129.64860907779075,201.2125029989984 129.490483162459,201.33455804502591 129.38506588572636,201.57866806240054 129.016105417395,201.88380544423126 128.27818448026665,202.18894267088035 126.96046852134168,202.98229873232776 124.85212298668921,203.16538075119024 122.3221083455719,203.16538075119024 121.58418740844354,202.86024402204202 121.21522694011219,202.61613452684833 120.89897510991432,202.12791523797205 120.21376281115226,201.88380544423126 120.05563689628616,201.6396955511882 119.8975109809544,201.57866806240054 119.84480234258808,201.51764056738466 120.10834553441964,201.0904479281162 120.05563689628616,200.846337711846 118.89604685199447,200.17503410426434 116.94582723267376,200.846337711846 115.89165446558036,200.54119980178075 114.99560761335306,200.05297882214654 113.94143484625965,199.9919511715998 112.88726207916625,200.17503410426434 110.40995607618243,201.2125029989984 109.93557833088562,201.15147546678782 108.67057101009414,200.72428256634157 108.35431917989627,200.7853101423243 107.87994143483229,201.27353052503895 106.87847730587237,201.45661306619877 105.66617862368003,200.846337711846 105.24450951674953,200.72428256634157 104.29575402615592,201.27353052503895 103.82137628109194,201.33455804502591 102.92532942863181,201.15147546678782 102.08199121523649,201.0904479281162 100.92240117141046,201.57866806240054 100.18448023404926,201.6396955511882 98.55051244515926,200.846337711846 97.3909224011004,200.66325498436345 96.70571010257117,200.17503410426434 96.65300146420486,200.05297882214654 96.4948755488731,199.93092351505766 96.23133235727437,198.83242463268107 95.59882869687863,198.16111876862124 95.9150805270765,197.61186795664253 95.54612005874515,197.24570046912413 95.28257686668076,196.7574768040795 94.49194729141891,195.9030844332301 94.12298682285473,195.10971899796277 93.80673499265686,194.804578166164 93.5431918008253,194.07223953586072 92.80527086392976,193.0957866361714 92.43631039536558,192.42447434476344 92.12005856516771,192.05830368684838 91.22401171294041,190.04436106834328 90.64421669091098,189.0068728349288 90.38067349931225,188.33555596182123 89.90629575401545,188.03041167993797 89.48462664708495,188.09144054888748 83.63396778912283,188.4576136310934 83.58125915075652,188.76275769528002 83.26500732032582,189.25098787498428 83.26500732032582,189.80024635139853 83.9502196193207,191.75316130096326 83.9502196193207,192.18036059767473 83.79209370422177,192.8516731627751 83.73938506585546,194.31635251198895 83.8975109809544,194.92663451767294 83.79209370422177,196.0861686153803 83.58125915075652,196.57439282728592 82.94875549059361,197.24570046912413 82.8960468522273,197.42878424096853 82.94875549059361,197.6728958496824 83.21229868242517,198.03906307613943 83.26500732032582,198.16111876862124 83.21229868242517,198.3442022606032 82.31625183019787,199.86989585211268 82.05270863836631,200.17503410426434 81.57833089330234,200.48017220094334 77.9941434848588,200.23606173606822 76.30746705713682,200.29708936152747 74.83162518311292,199.93092351505766 73.61932650092058,199.86989585211268 72.67057101032697,199.9919511715998 72.24890190339647,199.93092351505766 71.82723279646598,200.11400646623224 71.4582723279018,200.7853101423243 71.03660322120413,201.15147546678782 70.4568081991747,201.27353052503895 69.50805270858109,201.15147546678782 69.08638360188343,201.45661306619877 68.87554904841818,201.45661306619877 67.97950219619088,201.15147546678782 65.18594436324202,200.846337711846 65.76573938503861,201.02942038339097 64.71156661794521,200.41914459405234 63.92093704245053,199.625785138458 62.97218155208975,199.32064660667675 62.234260614728555,199.2596188817406 60.91654465580359,199.4427020381554 59.546120058512315,199.19859115040163 57.80673499265686,199.19859115040163 56.12005856516771,199.56475744466297 55.065885797841474,199.19859115040163 54.27525622257963,198.6493412896525 52.95754026342183,198.6493412896525 52.746705709956586,198.3442022606032 52.27232796489261,198.10009092552355 48.266471449285746,197.6728958496824 48.00292825768702,197.6728958496824 47.633967789122835,198.03906307613943 46.84333821386099,199.86989585211268 46.0,202.18894267088035" stroke="#4dd2ff" stroke-linecap="round" stroke-linejoin="round" stroke-width="0.5"><title>2024-07-08 5.2km</title><desc>11834224094</desc></polyline></svg>