<?xml version="1.0" encoding="utf-8" ?>
<svg baseProfile="full" height="300mm" version="1.1" viewBox="0,0,200,300" width="200mm" xmlns="http://www.w3.org/2000/svg" xmlns:ev="http://www.w3.org/2001/xml-events" xmlns:xlink="http://www.w3.org/1999/xlink"><defs /><rect fill="#222222" height="300" width="200" x="0" y="0" /><text fill="#FFFFFF" style="font-size:12px; font-family:Arial; font-weight:bold;" x="10" y="20">Over 10km Runs</text><text fill="#FFFFFF" style="font-size:4px; font-family:Arial" x="10" y="280">ATHLETE</text><text fill="#FFFFFF" style="font-size:9px; font-family:Arial" x="10" y="290">skyline09</text><text fill="#FFFFFF" style="font-size:4px; font-family:Arial" x="120" y="280">STATISTICS</text><text fill="#FFFFFF" style="font-size:3px; font-family:Arial" x="120" y="285">Number: 2</text><text fill="#FFFFFF" style="font-size:3px; font-family:Arial" x="120" y="290">Weekly: 1.0</text><text fill="#FFFFFF" style="font-size:3px; font-family:Arial" x="141" y="285">Total: 20.3 km</text><text fill="#FFFFFF" style="font-size:3px; font-family:Arial" x="141" y="290">Avg: 10.1 km</text><text fill="#FFFFFF" style="font-size:3px; font-family:Arial" x="167" y="285">Min: 10.0 km</text><text fill="#FFFFFF" style="font-size:3px; font-family:Arial" x="167" y="290">Max: 10.2 km</text><polyline fill="none" points="59.642105262959376,110.4617173448787 62.01913875597529,105.31652990076691 62.38086124393158,103.76099924417213 63.362679425859824,100.82941104203928 63.72440191381611,99.39352576894453 65.11961722490378,95.74396823626012 69.0468899521511,86.5302303112112 71.01052631577477,85.69261060649296 75.35119617218152,86.35074047523085 78.9684210526757,86.11142060818383 82.48229665053077,86.8892098190845 88.99330143537372,87.00886960630305 93.69569377996959,87.4276786694536 98.60478468914516,88.08580659411382 102.11866028723307,87.72682781750336 105.5291866029147,88.2054661376169 107.49282296653837,87.60716817673529 109.81818181835115,87.90631723334081 112.91866028727964,88.2054661376169 115.29569378006272,87.48750851140358 117.5177033492364,87.72682781750336 119.94641148322262,87.4276786694536 120.92822966491804,87.84648743411526 124.08038277528249,87.54733834712533 124.3904306218028,87.84648743411526 125.21722488035448,87.4276786694536 131.31483253580518,88.0259768133401 134.57033492834307,88.0259768133401 135.86220095702447,88.80376348923892 136.32727272738703,89.52171950676711 138.03253588522784,89.28240093152272 140.66794258379377,89.5815491352696 141.02966507175006,90.47899283189327 145.00861244020052,90.71831091947388 153.53492822987027,90.65848140674643 154.0,89.88069718657061 153.32822966505773,84.01736761396751 152.60478468891233,84.25668833387317 151.93301435397007,84.67549935937859 150.6928229664918,82.70110191096319 148.8325358852744,81.68398548394907 147.43732057418674,82.16262872790685 143.92344497609884,84.19685816310812 142.47655502404086,84.73532948165666 140.51291866018437,84.61566923116334 137.20574162667617,82.52161090489244 135.34545454545878,81.50449416704942 132.91674641147256,81.68398548394907 130.48803827748634,82.4617805571761 128.83444976084866,83.29940486879786 126.40574162686244,84.37634865753353 122.89186602877453,84.43617881002137 121.96172248804942,84.13702798617305 120.61818181816489,83.17974432610208 119.94641148322262,81.74381591076963 117.67272727261297,82.22245910589118 115.76076555019245,81.50449416704942 114.0555023921188,81.26517232565675 111.62679425836541,82.52161090489244 110.48995215306059,82.64127158158226 107.80287081329152,82.58144124626415 105.78755980869755,82.16262872790685 103.25550239230506,82.52161090489244 101.39521531108767,82.94042316731066 98.19138755998574,81.74381591076963 97.4162679426372,80.66686729586218 96.79617224889807,79.1112713663606 95.60765550239012,77.2565169892041 94.10909090889618,75.16243242763449 93.59234449779615,74.20513414149173 92.14545454550534,71.21356694219867 90.75023923441768,69.5382826551795 86.15119617222808,70.07676741137402 84.18755980883725,70.61525167390937 85.0660287081264,74.14530294697033 84.65263157896698,77.37617873848649 83.92918660258874,79.05144067120273 84.39425837318413,79.94890045572538 82.79234449751675,81.80364633153658 80.98373205726966,81.56432461214717 77.52153110061772,81.68398548394907 74.16267942567356,81.50449416704942 73.23253588518128,82.04296795342816 72.04401913867332,82.76093223429052 70.70047846878879,82.82076255133143 69.5636363637168,82.58144124626415 68.3234449760057,82.28228947788011 66.1014354065992,81.56432461214717 65.01626794273034,80.66686729586218 62.48421052633785,80.84635886881733 57.83349282294512,81.02585038682446 54.6813397128135,80.06856165657518 54.21626794245094,79.4702554079704 49.66889952146448,79.17110205517383 49.04880382772535,80.66686729586218 46.93014354049228,85.99176063825144 46.0,88.92342288634973 46.51674641133286,90.1200155178667 51.219138755928725,89.34223058470525 52.14928229665384,88.32512565684738 53.07942583737895,88.08580659411382 56.23157894704491,87.4276786694536 62.38086124393158,86.41057042661123 64.96459330129437,85.75244062510319 66.41148325335234,84.85498970746994 68.3234449760057,85.21397023909958 70.54545454541221,85.75244062510319 74.00765550252981,86.17125058406964 78.24497607653029,85.93193064408842 82.3272727271542,86.70972009259276 85.58277511945926,86.23108055378543 90.69856459321454,86.70972009259276 92.6622009568382,87.12852936907439 93.90239234431647,87.78665762895253 102.17033492820337,87.66699800011702 104.44401913881302,87.96614702645456 106.66602870821953,87.90631723334081 108.52631578943692,87.66699800011702 109.81818181835115,87.78665762895253 112.66028708126396,88.2054661376169 115.45071770320646,87.4276786694536 117.67272727261297,87.78665762895253 119.37799043045379,87.48750851140358 121.39330143551342,87.66699800011702 124.28708133962937,87.96614702645456 124.3904306218028,87.84648743411526 125.73397129192017,87.48750851140358 129.24784689000808,88.26529590011341 131.67655502376147,88.0259768133401 133.64019138761796,88.0259768133401 135.34545454545878,88.2054661376169 136.32727272738703,88.98325257591205 136.37894736835733,89.52171950676711 137.36076555005275,89.40206023142673 139.53110047848895,89.16274160775356 141.02966507175006,90.35933375149034 153.63827751204371,90.53882236301433 153.17320574168116,83.77804679638939 152.19138755998574,84.61566923116334 150.79617224866524,82.82076255133143 149.1942583732307,81.86347674619174 147.79904306237586,82.04296795342816 146.0421052633319,83.53872588154627 142.26985645922832,84.7951595975901 140.09952153102495,84.55583909689449 137.61913875606842,83.35923513112357 135.29377990448847,81.74381591076963 133.58851674641483,81.56432461214717 131.36650717724115,82.40195020346437 129.55789473676123,83.00025346607435 127.02583732060157,84.13702798617305 125.21722488035448,84.07719780306797 125.16555023915134,84.25668833387317 122.53014354058541,84.67549935937859 122.16842105262913,84.13702798617305 120.61818181816489,83.17974432610208 119.89473684201948,81.86347674619174 117.362679425627,82.22245910589118 115.76076555019245,81.62415505113313 112.66028708126396,81.74381591076963 110.1799043060746,82.76093223429052 107.59617224894464,82.76093223429052 106.0976076554507,82.16262872790685 104.75406698556617,82.40195020346437 101.80861244024709,82.88059286231874 99.58660287084058,82.04296795342816 98.29473684215918,81.44466371595627 98.29473684215918,80.9061893808539 98.75980861228891,79.53008606034564 98.5531100477092,79.94890045572538 98.24306220095605,80.66686729586218 97.98468899494037,80.42754511331441 98.39808612433262,81.14551136863884 98.44976076553576,81.38483325851848 98.81148325349204,82.28228947788011 97.88133971276693,81.74381591076963 97.31291866023093,80.5472062167828 96.79617224889807,78.63262563594617 95.45263157878071,76.89753159449901 94.31578947370872,74.86327688093297 93.07559808599763,72.8290151222609 90.80191387538798,69.5382826551795 84.60095693776384,70.37592539587058 84.96267942572013,73.427328135469 84.80765550234355,76.00006714806659 83.87751196185127,78.15397951577324 83.87751196185127,79.29076341446489 84.13588516740128,80.06856165657518 82.84401913895272,81.56432461214717 80.00191387557425,81.38483325851848 76.84976076544262,81.62415505113313 74.05933014326729,81.56432461214717 72.61244019120932,82.52161090489244 71.06220095674507,82.4617805571761 70.39043062203564,82.76093223429052 68.63349282275885,82.1027983436361 65.22296650707722,80.66686729586218 62.27751196175814,80.72669782617595 57.93684210535139,80.9061893808539 54.93971291859634,80.1283922479488 54.371291866060346,79.4702554079704" stroke="#4dd2ff" stroke-linecap="round" stroke-linejoin="round" stroke-width="0.5"><title>2024-08-24 10.0km</title><desc>12225850149</desc></polyline><polyline fill="none" points="60.84165477869101,229.1758073712117 62.22824536380358,225.9056128950324 63.30670470721088,222.10027262830408 63.82025677594356,221.20839241542853 64.02567760297097,219.9597578284447 65.2068473608233,217.5813988468144 66.02853067032993,215.0246521353256 67.82596291019581,210.5057235864224 68.85306704672985,209.79220535507193 68.85306704672985,209.91112512088148 68.95577746070921,209.8516652410617 69.10984308132902,207.948945887445 70.18830242473632,207.0570440556039 74.34807417960837,207.7111055321875 83.1811697576195,208.18678614572855 89.44650499289855,208.36516627576202 92.63052781717852,208.42462630715454 93.76034236792475,208.6624663717812 94.47931526391767,209.1381462100544 100.38516405108385,209.43544591224054 103.72325249621645,209.43544591224054 106.5991440799553,209.4949058345519 107.93437945772894,209.01922628679313 111.73466476472095,209.3759859839338 113.22396576311439,209.4949058345519 115.22681883024052,208.7219263726729 117.12696148362011,208.90030633943388 119.33523537800647,208.7219263726729 121.85164051339962,209.1381462100544 124.6248216831591,208.90030633943388 124.93295292416587,208.42462630715454 125.85734664741904,208.54354635154596 126.37089871591888,208.7219263726729 129.09272467903793,209.43544591224054 132.07132667605765,209.31652604963165 133.04707560618408,209.61382566113025 135.56348074181005,209.55436575069325 136.33380884467624,210.74356280325446 140.03138373722322,210.5651833996526 141.05848787445575,211.3381604210008 147.73466476472095,212.0516767631634 151.74037089874037,211.87329775944818 153.89728958625346,211.6354590029223 153.53780313837342,209.01922628679313 152.61340941488743,205.33269665041007 151.99714693287387,205.92729977919953 151.27817403734662,204.73809291573707 148.76176890172064,203.19212037185207 144.85877318121493,205.21377595193917 141.4179743223358,205.9867600587895 139.05563480732962,205.57053797447588 137.2068473608233,204.55971167737152 134.07417974318378,202.83535689569544 131.8145506416913,203.5488836299628 129.45221112691797,204.55971167737152 127.24393723253161,205.45161732460838 125.29243937227875,205.86783949361416 123.03281027101912,205.62999829044566 121.49215406551957,204.67863250907976 120.56776034226641,204.08402810851112 119.74607703275979,203.07319923734758 118.05135520687327,203.60834415181307 115.63766048499383,202.77589629520662 113.27532096998766,202.77589629520662 110.81027104123496,203.60834415181307 109.37232524948195,203.25158093014034 107.26676176884212,203.84618617867818 105.00713266758248,203.78672568092588 102.13124108407646,204.2029490369605 99.51212553470396,203.25158093014034 97.7146932950709,202.4191325646243 96.94436519243754,200.87315387954004 95.7118402281776,199.0893272322719 94.73609129805118,197.54333972890163 93.76034236792475,194.98650525754783 90.88445078441873,191.00257806439186 84.92724679037929,191.59719578945078 84.51640513562597,192.4296595872729 85.23537803115323,195.3432735305396 85.49215406551957,197.0081892546732 84.82453637639992,200.9920754620689 84.1569186875131,202.47859320160933 83.0271041369997,203.19212037185207 80.35663338075392,202.77589629520662 76.19686162588187,202.47859320160933 73.93723252485506,202.71643568848958 72.91012838785537,203.78672568092588 71.6776034233626,203.60834415181307 71.00998573470861,203.90564667008584 69.10984308132902,203.7272651772946 68.6476462194696,203.78672568092588 67.56918687582947,203.7272651772946 65.97717546368949,202.1812899564393 64.48787446506321,201.9434472512803 60.225392296910286,201.76506515900837 56.73323823092505,201.40830081066815 54.576319543411955,200.69477146002464 50.67332382290624,200.39746730640763 49.851640513399616,200.9920754620689 48.002853066893294,206.04622033244232 46.51355206826702,210.68410300818505 47.38659058464691,211.39762014971348 51.546362339518964,210.68410300818505 51.751783166779205,210.327344110352 53.189728958532214,209.61382566113025 55.91155492141843,209.01922628679313 56.219686162658036,208.84084635664476 58.47931526368484,208.6624663717812 64.53922967170365,207.83002572180703 65.30955777456984,207.29488467733609 66.64479315234348,206.75974314217456 68.3908701853361,206.22460111649707 70.65049928659573,206.8192033370142 74.39942938671447,207.47326508001424 82.92439372325316,208.00840596103808 85.64621968613937,207.65164542832645 87.70042796013877,207.83002572180703 90.42225392279215,207.948945887445 92.88730385131203,208.30570623860694 93.91440798831172,208.48408633249346 97.25249643344432,209.19760616269195 100.07703281007707,209.3759859839338 102.49072753218934,208.90030633943388 106.49643366597593,209.31652604963165 108.80741797410883,209.01922628679313 110.09129814547487,209.01922628679313 112.24821683298796,209.31652604963165 114.50784593448043,209.19760616269195 115.99714693287387,208.7219263726729 118.56490727514029,208.54354635154596 120.72182596265338,208.9597663161112 122.82738944352604,208.78138636774383 124.67617689003237,208.24624619516544 125.13837375165895,207.948945887445 125.34379457891919,207.7111055321875 126.88445078441873,208.84084635664476 130.1198288158048,209.3759859839338 132.9957203993108,209.55436575069325 135.66619115532376,209.61382566113025 136.38516405108385,210.74356280325446 137.51497860183008,210.8030225923285 139.8259629101958,210.62464320712024 141.16119828820229,211.6354590029223 151.43223965750076,211.93275743350387 153.89728958625346,211.21924094605492 153.2296718971338,205.27323630423052 152.87018544925377,205.1543155934778 151.9457917260006,205.86783949361416 150.45649072737433,203.7272651772946 148.55634807399474,203.07319923734758 146.14265335258096,204.3218699413119 143.16405135509558,205.7489189041662 140.49358059908263,205.86783949361416 137.25820256769657,204.3218699413119 134.38231098419055,202.77589629520662 131.66048502130434,203.60834415181307 130.1711840229109,203.96510715549812 126.8330955777783,205.51107765256893 125.18972895876504,205.51107765256893 122.77603423665278,205.80837920185877 122.15977175440639,205.9867600587895 122.05706134089269,205.3921569904196 121.4407988586463,204.55971167737152 120.61911554913968,204.08402810851112 120.36233951500617,203.25158093014034 119.18116975738667,202.89481749018887 117.48644793126732,203.42996256810147 113.89158345223404,202.65697507589357 111.73466476472095,203.60834415181307 109.62910128384829,203.19212037185207 107.9857346646022,203.90564667008584 106.44507845933549,203.48942310217535 105.16119828796946,203.90564667008584 101.77175463596359,204.2029490369605 99.71754636242986,203.31104148220038 98.69044222519733,202.89481749018887 98.84450784604996,202.1812899564393 98.43366619129665,202.65697507589357 97.81740370881744,202.89481749018887 97.66333808843046,201.9434472512803 97.20114122680388,200.27854560274864 94.73609129805118,196.7703444417566 92.93865905841812,193.08373745263088 91.03851640503854,190.8241926287883 85.95435092714615,191.18096344545484 84.87589158327319,191.7161192620406 84.82453637639992,192.96481425891398 85.2867332380265,194.1540451060282 85.33808844489977,197.6028008623398 84.1569186875131,200.15962387470063 84.46504992851987,201.28937931288965 83.0271041369997,203.01373866095673 80.45934379426762,202.83535689569544 75.73466476448812,202.53805383236613 73.37232524971478,203.48942310217535 72.24251069896854,203.84618617867818 71.26676176884212,203.84618617867818 69.8288159770891,203.60834415181307 67.67189728934318,203.78672568092588 65.30955777456984,201.88398655998753 60.7389443651773,201.76506515900837 58.4279600570444,202.1218292892445 54.47360912966542,200.75423227250576 50.15977175440639,200.575849816727 49.2867332380265,203.07319923734758 46.51355206826702,210.03004486259306 46.25677603413351,211.87329775944818 46.0,213.41924731474137" stroke="#4dd2ff" stroke-linecap="round" stroke-linejoin="round" stroke-width="0.5"><title>2024-08-11 10.2km</title><desc>12116913505</desc></polyline></svg>