<?xml version="1.0" encoding="utf-8" ?>
<svg baseProfile="full" height="300mm" version="1.1" viewBox="0,0,200,300" width="200mm" xmlns="http://www.w3.org/2000/svg" xmlns:ev="http://www.w3.org/2001/xml-events" xmlns:xlink="http://www.w3.org/1999/xlink"><defs /><rect fill="#222222" height="300" width="200" x="0" y="0" /><text fill="#FFFFFF" style="font-size:12px; font-family:Arial; font-weight:bold;" x="10" y="20">Over 10km Runs</text><text fill="#FFFFFF" style="font-size:4px; font-family:Arial" x="10" y="280">ATHLETE</text><text fill="#FFFFFF" style="font-size:9px; font-family:Arial" x="10" y="290">skyline09</text><text fill="#FFFFFF" style="font-size:4px; font-family:Arial" x="120" y="280">STATISTICS</text><text fill="#FFFFFF" style="font-size:3px; font-family:Arial" x="120" y="285">Number: 8</text><text fill="#FFFFFF" style="font-size:3px; font-family:Arial" x="120" y="290">Weekly: 1.1</text><text fill="#FFFFFF" style="font-size:3px; font-family:Arial" x="141" y="285">Total: 109.6 km</text><text fill="#FFFFFF" style="font-size:3px; font-family:Arial" x="141" y="290">Avg: 13.7 km</text><text fill="#FFFFFF" style="font-size:3px; font-family:Arial" x="167" y="285">Min: 10.0 km</text><text fill="#FFFFFF" style="font-size:3px; font-family:Arial" x="167" y="290">Max: 21.7 km</text><polyline fill="none" points="20.1852156057721,68.80699189983716 21.914989733020775,63.825902622920694 22.535934291547164,62.85021381555998 23.51170431205537,59.82041924018995 23.822176591376774,59.53797890742135 23.977412731037475,58.71633250384184 24.531827515456825,58.305508297737106 27.193018480436876,58.53659699608397 28.301848049275577,58.43389093404403 30.231211498961784,58.76768548246764 31.406570841907524,58.613626515012584 32.714989732950926,58.844714930834016 33.69075975357555,58.71633250384184 34.622176591306925,58.870391408432624 34.843942505074665,59.10147958890593 36.08583162212744,59.178508935307036 38.52525667345617,59.12715604031109 39.72279260773212,59.33256755754701 40.72073921968695,59.024450219003484 42.62792607804295,59.281214693924994 44.0028747433098,59.22986181991291 45.02299794659484,59.43527325341711 48.282956878771074,58.819038450703374 49.5691991787171,59.178508935307036 52.29691991780419,59.20418537892692 53.05092402466107,59.64068451955973 53.02874743321445,59.89744836691534 54.292813141597435,59.717713701262255 55.37946611910593,60.17988829697424 59.41560574946925,60.38529895643296 60.56878850096837,60.17988829697424 60.4579055440845,57.432504636992235 60.25831622176338,57.38115138634748 59.748254620004445,57.7149473286845 59.12731006159447,56.84194162279891 58.26242299785372,56.456791085598525 57.61930184799712,56.55949795304332 56.510472279274836,57.38115138634748 55.22422997932881,57.7406239212869 54.071047227829695,57.53521110698057 52.58521560567897,56.50814452457416 51.74250513338484,56.354084176258766 50.323203285457566,56.739234870445216 48.9704312114045,57.53521110698057 47.79507186857518,57.50953449343797 47.6620123203611,57.68927073346276 46.95236139628105,57.53521110698057 46.375770020415075,57.021678338816855 46.309240246308036,56.68788147853047 45.79917864466552,56.456791085598525 44.93429158104118,56.63652807625476 43.22669404512271,56.30273070599651 42.07351129350718,56.739234870445216 41.38603696087375,56.50814452457416 40.632032854133286,56.867618304357165 39.855852155946195,56.66220477869501 38.65831622167025,56.713558175746584 37.88213552359957,56.944648333315854 36.529363449662924,56.43111436223262 36.08583162212744,55.352689617619035 35.37618069804739,54.24858331386349 34.910472279181704,53.73504385042179 34.35605749487877,52.245773490387364 33.491170431138016,51.2443626113818 30.719096509274095,51.57816667977022 31.09609856258612,53.06744098395575 30.918685831595212,54.91618305223528 30.630390143720433,55.352689617619035 30.785626283381134,55.66081144392956 30.452977412729524,56.225700480819796 29.920739219756797,56.48246780638874 29.01149897335563,56.2513772250968 26.1063655030448,56.14867023214174 25.795893223839812,56.739234870445216 25.08624229975976,56.739234870445216 24.82012320321519,56.91897165963019 23.733470225823112,56.533821240096586 23.334291581180878,56.66220477869501 22.38069815200288,55.91757934492489 20.54004106775392,55.840549002052285 19.497741273138672,56.07163995988958 17.989733059541322,55.71216504505719 17.590554414666258,55.404043281436316 16.082546201185323,55.19862856317195 15.639014373649843,55.58378102268034 14.17535934294574,59.66636091610417 14.21971252572257,59.92312473725178 14.596714579034597,60.15421195278759 16.481724845943972,59.82041924018995 16.814373716595583,59.46094967081444 18.47761806973722,59.024450219003484 21.826283367467113,58.5622735049983 23.445174537948333,57.89468342224427 23.711293634492904,58.10009594372241 23.86652977403719,57.920359996540355 24.154825462028384,57.946036568275304 24.554004106787033,58.17712559609208 26.30595482548233,58.43389093404403 28.301848049275577,58.35686136012373 29.854209445533343,58.664979514680454 31.162628336809576,58.48524397025176 32.58193018473685,58.71633250384184 33.33593429159373,58.63930301615619 34.48911704309285,58.79336196789518 34.75523613963742,59.024450219003484 36.862012320314534,59.20418537892692 38.23696098558139,59.07580313492508 39.65626283350866,59.281214693924994 41.2751540041063,59.05012667828123 45.17823408613913,59.43527325341711 47.551129363360815,59.024450219003484 47.92813141667284,59.024450219003484 47.75071868579835,59.306891127009294 48.63778234086931,59.12715604031109 50.567145790555514,59.22986181991291 50.74455852154642,59.35824398540717 52.07515400403645,59.178508935307036 52.60739219712559,59.35824398540717 53.073100615874864,59.87177199393045 54.24845995893702,59.74339008993411 55.49034907587338,60.23124097753316 59.21601642703172,60.410975277089165 60.6131416837452,60.25691731383267 60.34702258720063,57.38115138634748 59.8147843942279,57.7149473286845 59.06078028737102,56.76491156243719 58.5507186857285,56.55949795304332 57.81889117031824,56.63652807625476 56.11129363439977,57.66359413553437 55.22422997932881,57.79197709875007 54.026694045052864,57.53521110698057 52.14168377814349,56.50814452457416 50.456262833671644,56.816264938694076 48.92607802874409,57.61224093195051 47.08542094449513,57.56088771788927 46.68624229973648,57.1757382791111 46.3979466118617,57.150061628897674 46.35359342908487,56.816264938694076 45.79917864466552,56.55949795304332 44.912114989594556,56.739234870445216 43.62587268999778,56.40543763616006 43.11581108835526,56.43111436223262 42.16221765906084,56.816264938694076 41.38603696087375,56.63652807625476 40.65420944557991,56.867618304357165 39.94455852149986,56.63652807625476 39.61190965084825,56.84194162279891 38.79137577000074,56.79058825185348 37.859958932269365,56.99600167297467 36.55154004099313,56.48246780638874 34.57782340864651,53.11879511337611 34.31170431210194,52.220096338089206 33.845995893119834,51.526812236523256 32.958932238048874,51.29571711222525 31.05174537980929,51.526812236523256 30.719096509274095,51.860615930811036 30.940862423041835,52.70796178506862 30.98521560570225,54.55670648968953 30.696919917827472,55.22430541209178 30.696919917827472,55.91757934492489 30.231211498961784,56.48246780638874 28.013552361400798,56.533821240096586 26.15071868582163,56.379760907555465 25.729363449732773,56.867618304357165 24.90882956876885,56.944648333315854 23.467351129394956,56.713558175746584 22.447227926109917,56.045963197306264 20.318275153869763,55.96893289372383 19.431211498915218,56.14867023214174 17.74579055432696,55.53242739540292 16.0603696097387,55.378366450822796 14.973716632463038,57.50953449343797 14.264065708382986,59.84609561836987 14.707597535918467,60.077182904453366 16.370841889176518,59.769066475870204 16.94743326480966,59.383920410778956 18.588501026737504,58.921744355757255 19.874743326450698,58.89606788344099 22.114579055458307,58.459567453479394 23.068172484636307,57.843330265779514 23.533880903501995,57.766300511342706 23.533880903501995,57.89468342224427 23.755646817269735,57.7406239212869 25.906776180723682,58.3311848302983 28.434907597489655,58.27983176265843 29.87638603686355,58.5622735049983 31.49527720734477,58.48524397025176 32.58193018473685,58.71633250384184 33.735112936235964,58.613626515012584 34.511293634423055,58.76768548246764 34.75523613963742,58.99877375707729 37.34989733051043,59.12715604031109 38.32566735101864,58.97309729260451 39.58973305951804,59.12715604031109 40.78726899379399,58.921744355757255 42.49486652971245,59.15283248915512 45.15605749480892,59.33256755754701 47.373716632369906,58.89606788344099 51.25462012318894,59.2555382582359 52.14168377814349,59.12715604031109 53.02874743321445,59.82041924018995 54.35934291582089,59.69203730991285 55.42381930176634,60.12853560585063 59.39342915802263,60.30826997870463 60.413552361307666,60.20556463851244 60.56878850096837,60.077182904453366 60.28049281309359,57.45818125837832 59.90349075978156,57.7149473286845 59.72607802867424,57.68927073346276 58.79466119094286,56.58517466338526 58.01848049275577,56.66220477869501 56.77659137570299,57.40682801294315 55.42381930176634,57.79197709875007 54.11540041072294,57.61224093195051 52.3190965091344,56.48246780638874 50.389733059564605,56.944648333315854 49.21437371650245,57.58656432625139 48.504722792538814,57.7406239212869 47.08542094449513,57.68927073346276 46.33141683775466,57.073031662701396 46.309240246308036,56.739234870445216 45.88788501021918,56.50814452457416 44.93429158104118,56.739234870445216 44.0028747433098,56.48246780638874 43.1823408624623,56.43111436223262 42.00698151951656,56.84194162279891 41.47474332654383,56.58517466338526 41.186447638552636,56.2513772250968 40.875975359231234,55.686488245773944 40.78726899379399,54.428321878862334 40.49897330591921,53.42691967023711 40.60985626268666,53.11879511337611 40.077618069713935,52.55389911431121 40.21067761804443,52.50254486987251 40.52114989736583,55.63513463950949 39.30143737164326,55.66081144392956 37.79342915804591,55.53242739540292 35.75318275159225,54.7107679364417 33.95687885012012,51.27003986315685 32.89240246405825,51.193008100177394 31.073921971255913,51.449780551876756 30.785626283381134,51.655198325111996 30.65256673505064,52.37415921279171 30.98521560570225,52.93905561462452 30.87433264881838,54.376968016207684 30.297741273068823,55.352689617619035 30.586036960943602,55.78919542716176 30.031622176640667,56.48246780638874 28.878439425025135,56.354084176258766 26.084188911598176,56.2513772250968 25.59630390140228,56.816264938694076 25.04188911698293,56.739234870445216 23.489527720725164,56.816264938694076 22.51375770010054,55.96893289372383 20.40698151953984,55.94325612059038 19.40903490758501,56.097316719955415 18.05626283364836,55.686488245773944 17.790143737220205,55.45539693493629 15.927310061641037,55.30133594326617 15.639014373649843,55.558104210329475 14.907186858355999,57.38115138634748 14.751950718578883,58.48524397025176 14.131006160052493,59.717713701262255 14.241889117052779,59.89744836691534 14.840657084132545,60.077182904453366 16.459548254613765,59.769066475870204 16.925256673479453,59.33256755754701 18.521971252630465,58.94742082543962 22.0924024641281,58.510920484462986 23.090349075966515,57.79197709875007 23.533880903501995,57.7406239212869 24.620533880894072,58.10009594372241 25.906776180723682,58.305508297737106 28.368377823382616,58.27983176265843 29.898562628310174,58.664979514680454 31.184804928139783,58.459567453479394 32.69281314173713,58.71633250384184 33.57987679669168,58.58795001133694 34.53347022586968,58.76768548246764 34.86611909640487,59.05012667828123 37.66036960983183,59.10147958890593 38.192607802920975,58.921744355757255 39.74496919917874,59.20418537892692 40.742915811017156,58.921744355757255 42.650102669373155,59.22986181991291 43.73675564676523,59.15283248915512 45.22258726891596,59.43527325341711 45.99876796710305,59.15283248915512 47.994661190896295,58.870391408432624 48.26078028732445,58.408214412032976 48.393839835654944,58.76768548246764 48.992607802851126,59.024450219003484 52.496509240125306,59.2555382582359 52.940041067660786,59.58933171872923 53.00657084188424,59.84609561836987 54.27063655026723,59.66636091610417 56.08911704318598,60.17988829697424 60.39137576986104,60.23124097753316 62.653388090315275,59.51230249782384 64.31663244345691,59.35824398540717 65.71375770005397,58.79336196789518 66.33470225869678,58.79336196789518 66.66735112934839,59.07580313492508 66.91129363432992,58.97309729260451 67.0,58.53659699608397 66.55646817246452,56.2513772250968 66.48993839835748,56.07163995988958 66.29034907591995,56.14867023214174 66.11293634492904,56.55949795304332 65.02628336742055,56.40543763616006 63.45174537983257,56.89329498335428 62.941683778190054,56.66220477869501 62.986036960966885,55.96893289372383 62.85297741275281,55.91757934492489 61.633264887030236,56.045963197306264 61.211909650824964,55.66081144392956 60.524435318191536,55.63513463950949 60.147433264763094,55.73784184164833 60.05872689932585,56.097316719955415 58.927720739273354,56.097316719955415 58.7059548253892,56.533821240096586 57.88542094454169,56.610851371093304 56.244353182730265,57.50953449343797 55.002464065677486,57.766300511342706 54.071047227829695,57.56088771788927 52.89568788500037,56.63652807625476 51.98644763848279,56.30273070599651 50.25667351123411,56.76491156243719 49.08131416840479,57.50953449343797 48.43819301854819,57.58656432625139 46.97453798761126,57.50953449343797 46.33141683775466,57.12438497612311 46.287063655094244,56.76491156243719 45.865708418772556,56.533821240096586 45.000821355264634,56.713558175746584 43.29322381922975,56.2513772250968 41.962628336739726,56.713558175746584 41.363860369543545,56.58517466338526 40.54332648869604,56.84194162279891 39.72279260773212,56.63652807625476 37.94866529770661,56.99600167297467 36.728952772100456,56.610851371093304 36.396303901448846,56.354084176258766 36.04147843935061,55.609457832426415 36.08583162212744,55.27565910218982 33.80164271045942,51.60384389743558 33.20287474337965,51.42410331849533 31.295687885023654,51.449780551876756 30.76344969193451,51.62952111256891 31.00739219703246,54.40264494888834 30.60821355227381,55.30133594326617 30.741273100604303,55.63513463950949 30.098151950747706,56.533821240096586 26.084188911598176,56.379760907555465 25.818069815053605,56.739234870445216 25.507597535965033,56.867618304357165 24.88665297732223,56.91897165963019 23.533880903501995,56.84194162279891 22.646817248431034,56.174346984305885 20.384804928093217,56.02028643201629 19.51991786446888,56.174346984305885 18.36673511285335,55.96893289372383 17.67926078021992,55.53242739540292 15.927310061641037,55.48107375766267 15.68336755654309,55.686488245773944 14.330595482490025,58.99877375707729 14.197535934275948,59.769066475870204 14.463655030820519,60.077182904453366 16.459548254613765,59.769066475870204 16.94743326480966,59.33256755754701 18.677207392058335,58.921744355757255 19.85256673512049,58.870391408432624 22.025872689904645,58.459567453479394 18.544147843844257,58.94742082543962 16.880903490819037,59.383920410778956 16.459548254613765,59.794742859274265 14.308418891043402,60.077182904453366 13.0,63.18400251666026" stroke="#ff0200" stroke-linecap="round" stroke-linejoin="round" stroke-width="0.5"><title>2024-09-28 21.7km</title><desc>12520010884</desc></polyline><polyline fill="none" points="143.10106382984668,69.616620485991 146.5,59.9447547440941 146.88297872326802,59.05791890324326 147.2898936169222,58.72535471775336 147.43351063819136,57.94937003753148 148.03191489365418,57.56137686758302 149.85106382984668,57.78308731818106 152.24468085111585,57.67223211546661 153.92021276592277,58.087938892742386 155.35638297861442,57.81080111177289 156.91223404242191,58.14336641508271 157.9414893615758,57.97708381424309 158.94680851057637,58.2265076773765 159.18617021269165,58.50364503491437 161.62765957438387,58.614499898976646 162.92021276580635,58.33736265430343 164.40425531903747,58.58678618716658 165.5531914893072,58.28193517148611 167.87499999988358,58.614499898976646 169.14361702115275,58.2542214258865 171.0824468084611,58.28193517148611 171.72872340411413,58.53135875519365 173.4281914891908,58.36507639143383 173.64361702115275,57.72765972246998 173.88297872326802,58.30964891426265 177.21010638284497,58.75306841536076 178.0239361700369,58.64221360787633 178.74202127649914,59.002491567254765 178.81382978707552,59.30734177562408 180.05851063819136,59.14105988614028 180.82446808507666,59.27962813444901 181.42287234030664,59.69533245605999 186.21010638296138,59.861614006891614 186.88031914888415,59.77847324413597 187.0,59.52905080362689 186.6648936169222,56.7022471652308 186.0664893615758,57.090241560305 185.34840425522998,56.009398655296536 184.65425531903747,55.7045447518758 183.93617021269165,55.926256715494674 182.4281914893072,56.92395831589238 181.03989361703862,57.228810852975585 179.89095744665246,56.89624443190405 178.67021276580635,55.870828741492005 177.80851063819136,55.6491167327913 175.98936170211527,56.2311103703978 174.76861702115275,56.92395831589238 173.0691489360761,57.03481382346945 172.80585106369108,57.228810852975585 172.7340425531147,56.979386075312505 171.96808510634582,56.50824976025615 171.56117021269165,56.425107972929254 171.1781914893072,55.815400756313466 169.9574468084611,56.009398655296536 168.85638297861442,55.53826066068723 168.11436170199886,55.621402718970785 167.03723404242191,56.14796849832055 166.19946808496024,55.870828741492005 165.4574468084611,56.17568245853181 164.6914893615758,55.926256715494674 163.35106382973026,56.06482660092297 162.46542553172912,56.286538270971505 160.83776595734525,55.59368870241451 160.47872340423055,54.40198331748252 159.09042553184554,52.62827261388884 158.08510638296138,50.30025976797333 157.63031914888415,50.05082863869029 154.7340425531147,50.43883251873194 154.51861702115275,50.85455034757615 154.92553191492334,52.600558292353526 154.4707446808461,54.374269176623784 154.71010638296138,54.817695091012865 154.01595744676888,55.815400756313466 150.68882978719193,55.621402718970785 149.65957446803804,55.732258757198 149.30053191492334,56.20339641592 148.39095744676888,56.25882432208164 146.85904255323112,56.06482660092297 145.75797872338444,55.28883433327428 143.50797872338444,55.17797811437049 142.55053191480692,55.39969050697982 140.99468085099943,54.90083736955421 140.73138297873084,54.65141045776545 138.7925531915389,54.54055397922639 138.0984042553464,55.89854272984667 136.97340425522998,59.41819631221006 137.5,59.61219164257636 139.17553191480692,59.25191449045087 139.86968085099943,58.69764101723558 145.51861702115275,57.78308731818106 146.4281914893072,57.11795542456093 147.361702127615,57.03481382346945 148.17553191480692,57.478235402086284 149.32446808519308,57.699945920408936 152.00531914888415,57.64451830778853 153.89627659565303,58.00479758813162 156.69680851057637,58.087938892742386 157.79787234042305,57.97708381424309 158.87499999988358,58.17108017200371 159.09042553184554,58.42050385737093 160.64627659576945,58.53135875519365 163.01595744676888,58.36507639143383 164.49999999988358,58.614499898976646 165.48138297873084,58.30964891426265 167.6356382977683,58.64221360787633 170.4840425531147,58.80849580228096 171.56117021269165,58.42050385737093 172.85372340411413,58.33736265430343 173.35638297861442,58.614499898976646 174.07446808507666,58.33736265430343 177.32978723396081,58.75306841536076 178.1914893615758,58.58678618716658 178.76595744676888,59.002491567254765 178.83776595734525,59.30734177562408 180.1781914893072,59.11334622793947 181.3989361700369,59.63990524987457 185.15691489342134,59.80618683458306 186.97606382961385,59.58447803228046 186.61702127649914,56.646819349349244 186.01861702115275,57.06252769328421 185.51595744665246,56.14796849832055 184.70212765934411,55.78768675940228 184.22340425522998,55.84311475031427 182.88297872338444,56.7022471652308 181.3031914893072,57.11795542456093 180.15425531903747,56.95167219705763 178.55053191480692,55.78768675940228 177.7606382977683,55.621402718970785 176.03723404253833,56.14796849832055 174.48138297861442,56.95167219705763 173.4281914891908,57.06252769328421 173.21276595734525,56.81310276314616 172.3031914893072,56.78538886795286 171.58510638284497,56.03711262947763 171.0106382976519,55.732258757198 170.0531914893072,56.009398655296536 168.71276595734525,55.45511857699603 167.06117021269165,56.09254056963255 166.27127659565303,55.815400756313466 165.4574468084611,56.17568245853181 164.6914893615758,55.89854272984667 162.87234042549971,56.314252216980094 162.41755319142248,56.25882432208164 160.861702127615,55.56597468291875 159.30585106369108,52.68370124840294 158.7074468084611,51.1871241532499 158.08510638296138,50.21711608351325 157.65425531903747,50.078543219919084 154.78191489342134,50.46654706035042 154.94946808507666,52.96084425153094 154.54255319142248,54.374269176623784 154.7340425531147,54.706838680198416 153.99202127649914,55.759972759726224 151.64627659576945,55.759972759726224 150.5691489360761,55.510546635545325 149.75531914888415,55.621402718970785 149.15691489353776,56.17568245853181 147.5292553191539,56.009398655296536 147.31382978719193,56.17568245853181 145.66223404253833,55.23340622946853 144.6090425531147,55.34426242572954 143.60372340411413,55.15026405255776 142.4308510638075,55.37197646780987 141.0425531915389,54.95626554105547 140.68351063830778,54.62369634237257 138.76861702126916,54.54055397922639 138.07446808496024,55.78768675940228 136.87765957450029,59.08563256706111 137.3324468084611,59.58447803228046 139.34308510646224,59.22420084348414 139.8457446807297,58.72535471775336 145.44680851057637,57.81080111177289 146.5,57.145669285877375 147.40957446803804,57.11795542456093 149.73138297873084,57.699945920408936 152.00531914888415,57.64451830778853 153.75265957438387,58.032511359167984 155.40425531903747,57.81080111177289 156.91223404242191,58.115652655338636 158.1090425531147,57.94937003753148 159.01861702115275,58.17108017200371 159.21010638296138,58.44821758606122 160.74202127649914,58.53135875519365 163.06382978719193,58.36507639143383 164.52393617015332,58.58678618716658 165.50531914876774,58.2542214258865 167.42021276580635,58.614499898976646 168.95212765957695,58.50364503491437 170.46010638284497,58.83620949141914 171.53723404253833,58.42050385737093 173.71542553184554,58.39279012582847 174.76861702115275,58.115652655338636 174.26595744676888,58.28193517148611 175.63031914888415,58.64221360787633 178.33510638284497,58.47593131187023 178.76595744676888,59.22420084348414 180.22606382973026,59.08563256706111 181.35106382973026,59.58447803228046 185.77925531903747,59.80618683458306 186.73670212749857,59.72304605485988 186.97606382961385,59.50133718500729 186.6648936169222,56.7022471652308 186.04255319142248,57.06252769328421 185.4441489360761,56.03711262947763 184.63031914888415,55.6491167327913 181.97340425522998,56.92395831589238 181.15957446803804,57.090241560305 179.67553191480692,56.72996106898063 178.81382978707552,55.95397069820319 177.7606382977683,55.59368870241451 175.86968085088301,56.12025453537353 174.50531914888415,56.92395831589238 173.54787234030664,57.090241560305 172.27925531903747,56.8408166556037 171.5132978722686,56.34196616022382 171.53723404253833,55.95397069820319 170.96276595734525,55.7045447518758 169.93351063819136,55.981684678117745 168.32978723396081,55.53826066068723 166.74999999988358,56.03711262947763 166.27127659565303,55.815400756313466 165.93617021269165,55.37197646780987 165.6968085106928,54.73455278715119 165.21808510634582,52.24027185610612 165.33776595746167,51.630555261828704 163.87765957438387,51.658269682113314 164.236702127615,52.01855688903015 164.38031914888415,51.60284083877923 164.57180851057637,52.01855688903015 165.05053191480692,54.54055397922639 163.49468085099943,54.95626554105547 162.03457446803804,54.54055397922639 160.8856382977683,53.87541415911983 159.4734042553464,51.99084250544547 158.58776595734525,51.630555261828704 157.98936170211527,50.18940151645802 154.94946808507666,50.327974323765375 154.71010638296138,51.020837301184656 154.97340425522998,53.48741517984308 154.51861702115275,54.374269176623784 154.61436170211527,54.873123279510764 154.08776595734525,55.59368870241451 150.25797872338444,55.482832607696764 149.7074468084611,55.56597468291875 149.15691489353776,56.12025453537353 147.50531914888415,56.06482660092297 147.2180851062294,56.25882432208164 145.75797872338444,55.23340622946853 143.4840425531147,55.17797811437049 142.40691489365418,55.39969050697982 141.0425531915389,54.9839796226006 140.68351063830778,54.65141045776545 138.7207446808461,54.54055397922639 138.45744680857752,54.706838680198416 137.1648936169222,58.198793926043436 136.99734042549971,59.39048268223996 137.3324468084611,59.55676441939431 137.97872340423055,59.44590993929887 139.34308510646224,59.11334622793947 139.86968085099943,58.64221360787633 139.98936170211527,58.75306841536076 141.64095744676888,58.2542214258865 145.56648936180864,57.699945920408936 146.5,57.090241560305 147.2898936169222,57.00709995077341 148.24734042549971,57.422807744238526 149.85106382984668,57.64451830778853 152.12499999988358,57.53366304858355 153.6808510638075,57.92165625805501 155.23670212749857,57.72765972246998 156.74468085111585,58.00479758813162 157.82180851057637,57.86622869063285 158.85106382973026,58.060225127410376 159.09042553184554,58.36507639143383 161.84308510634582,58.50364503491437 162.80053191480692,58.28193517148611 164.97872340423055,58.50364503491437 165.48138297873084,58.2265076773765 166.3191489360761,58.2542214258865 167.75531914876774,58.50364503491437 168.95212765957695,58.39279012582847 170.36436170199886,58.72535471775336 172.94946808496024,58.2542214258865 173.88297872326802,57.58909068381763 173.95478723396081,58.30964891426265 175.65425531903747,58.55907247256255 177.97606382973026,58.39279012582847 178.8856382977683,58.891636861342704 178.93351063819136,59.22420084348414 180.82446808507666,59.05791890324326 181.44680851045996,59.55676441939431 183.76861702115275,59.72304605485988 186.52127659553662,59.72304605485988 186.97606382961385,59.50133718500729 186.6648936169222,56.7022471652308 186.01861702115275,57.03481382346945 185.4441489360761,56.09254056963255 184.5824468084611,55.732258757198 183.76861702115275,55.95397069820319 182.35638297861442,56.81310276314616 181.20744680834468,57.06252769328421 180.53723404242191,57.00709995077341 178.55053191480692,55.870828741492005 177.5930851062294,55.59368870241451 175.86968085088301,56.06482660092297 174.6489361700369,56.72996106898063 173.6914893615758,56.8408166556037 172.375,57.339666236395715 172.51861702115275,57.03481382346945 171.58510638284497,56.314252216980094 171.48936170211527,55.870828741492005 171.03457446792163,55.67683074375964 169.74202127649914,55.95397069820319 168.6648936169222,55.53826066068723 166.91755319142248,56.06482660092297 166.12765957438387,55.84311475031427 165.4574468084611,56.14796849832055 164.57180851057637,55.870828741492005 163.2074468084611,55.95397069820319 162.48936170211527,56.2311103703978 160.7898936169222,55.482832607696764 160.45478723396081,54.374269176623784 159.80851063830778,53.847699964710046 158.82712765946053,52.15712876463658 158.0132978722686,50.18940151645802 155.81117021269165,50.18940151645802 154.7340425531147,50.63283425121335 154.9973404253833,53.127129917935235 154.5664893615758,54.40198331748252 154.82978723407723,54.706838680198416 154.32712765946053,55.53826066068723 153.92021276592277,55.759972759726224 151.50265957438387,55.67683074375964 150.49734042549971,55.482832607696764 149.611702127615,55.67683074375964 149.20478723396081,56.09254056963255 148.27127659576945,56.17568245853181 147.38563829788473,55.759972759726224 146.78723404253833,55.981684678117745 145.78191489365418,55.23340622946853 143.60372340411413,55.12254998800927 142.47872340423055,55.34426242572954 140.99468085099943,54.95626554105547 140.56382978719193,54.65141045776545 138.48138297873084,54.65141045776545 136.92553191480692,59.11334622793947 137.14095744676888,59.47362356353551 139.29521276592277,59.19648719383986 139.8457446807297,58.75306841536076 141.80851063830778,58.2542214258865 145.54255319142248,57.81080111177289 141.52127659576945,58.39279012582847 139.77393617015332,58.780782110319706 139.3191489360761,59.25191449045087 137.52393617015332,59.58447803228046 136.99734042549971,59.52905080362689 137.04521276592277,58.94706421994488 136.75797872338444,60.388171580736525 135.70478723396081,62.30039841137477 135.13031914888415,64.43431683562812 134.24468085099943,66.09709881304298 133.0,69.94917136130971" stroke="#ff0000" stroke-linecap="round" stroke-linejoin="round" stroke-width="0.5"><title>2024-09-22 21.7km</title><desc>12471705291</desc></polyline><polyline fill="none" points="18.42622338444926,128.01083838455088 18.708629062515683,127.10001504990214 19.152409413596615,126.5161520352267 19.2532685843762,125.76880520743725 19.616361598833464,124.90468240174232 19.697048935457133,124.25074946547102 21.31079566688277,119.86000859945489 21.431826671701856,119.62645619857358 21.734404183807783,119.41625883436063 21.81509152043145,118.785665585674 22.258871871512383,118.41197987928172 24.760179305216298,118.52875672793016 25.546880836831406,118.43533525375824 27.079940231633373,118.76231024684967 28.330593948601745,118.57546745074796 29.90399701159913,118.83237625610491 30.32760552864056,118.73895490566792 31.5379155772971,118.87908691714983 31.73963391862344,119.11264007922728 32.04221143072937,119.15935068311228 34.140082181664184,119.20606127748033 34.98729921563063,119.06592946581077 35.39073589851614,119.20606127748033 36.177437430014834,119.27612715115538 36.68173328356352,119.22941657106276 37.10534180060495,119.0425741555955 39.2838998879306,119.18270598151139 40.25214792683255,118.99586352793267 41.20022413157858,118.94915289073833 41.66417631681543,118.94915289073833 42.22898767283186,119.13599538232666 44.00410907738842,118.9725082104851 45.67837131128181,119.25277186227322 46.36421367211733,119.22941657106276 47.029884198796935,119.34619300349732 47.81658573029563,119.27612715115538 48.300709749688394,119.64981144938793 48.32088158396073,119.86000859945489 49.69256630563177,119.71987718748278 50.21703399333637,120.04685034893919 50.58012700791005,120.11691596570017 54.09002614871133,120.30375750582607 55.03810235345736,120.18698156115715 56.93425476283301,119.55639043186966 57.3175196115626,119.62645619857358 58.16473664552905,119.53303517158201 59.617108703707345,118.9725082104851 60.06088905490469,118.87908691714983 60.46432573790662,118.41197987928172 61.53343294735532,118.20178140178905 62.52185282041319,118.29520297111594 63.066492342273705,118.45869062584825 65.22487859555986,118.31855835752503 65.74934628326446,118.20178140178905 66.13261113187764,117.94487188993662 66.4755323122954,118.27184758237854 67.0,118.2251367977151 65.89054912212305,117.45440747705288 65.85020545392763,117.64125118659285 66.09226746368222,117.89816103863996 65.70900261495262,118.17842600350559 65.00298841984477,118.34191374150396 63.18752334697638,118.48204599560995 61.936869630240835,118.99586352793267 61.73515128879808,118.9725082104851 61.55360478151124,118.57546745074796 61.29137093760073,116.75374221018865 60.88793425471522,115.2823381809867 60.34329473297112,115.39911662344821 60.3029510647757,115.77280723978765 59.91968621592969,115.79616288306715 59.53642136720009,116.19320845522452 58.991781845339574,116.1698528524139 58.30593948450405,116.33334202245169 58.20508031384088,116.49683107594319 58.32611131865997,116.80045329459244 58.285767650348134,117.1274306189298 57.66044079198036,117.1274306189298 57.35786327987444,116.9172309639689 57.1763167725876,116.63696445761889 57.27717594325077,116.19320845522452 56.006350392242894,116.30998643381463 55.824803884956054,116.89387543480552 55.94583488977514,116.40340877392737 55.885319387423806,116.05307480243209 55.643257377669215,115.84287416255393 55.32050803140737,115.84287416255393 54.755696675390936,116.02971918527328 54.85655584617052,116.9172309639689 54.63466567057185,116.89387543480552 54.0496824803995,117.29091910623538 53.505042958655395,116.87051990334294 52.96040343667846,116.82380883327278 52.476279417285696,116.96394201503426 51.99215539789293,117.31427459494444 51.28614120290149,117.6879620901891 50.277549495804124,117.92151646551793 49.36981695936993,117.7813838688744 48.623459096066654,117.3609855651157 48.159506910829805,116.9172309639689 47.3728053792147,116.63696445761889 45.9204333210364,116.96394201503426 45.51699663803447,117.29091910623538 45.05304445279762,117.4310520026338 44.669779604068026,117.71131753840018 44.26634292129893,117.80473930756852 43.8427344042575,117.7813838688744 43.76204706763383,117.54782935079129 43.64101606281474,117.52447388588917 43.17706387757789,117.73467298422474 42.7937990288483,117.6879620901891 42.53156518493779,117.4310520026338 42.208815838675946,117.31427459494444 42.18864400452003,116.9872975370672 41.74486365332268,116.75374221018865 41.099364960798994,116.87051990334294 40.595069107366726,116.9172309639689 39.6671647366602,116.52018664554635 38.29548001498915,117.08071960113011 37.58946581999771,116.87051990334294 37.10534180060495,117.1274306189298 36.35898393730167,116.94058649067301 35.93537542026024,117.08071960113011 35.18901755695697,117.05736408871599 34.54351886443328,117.26756361519801 33.998879342572764,116.96394201503426 33.41389615240041,116.84716436949384 33.171834142762236,116.68367556577141 32.82891296222806,115.84287416255393 32.88942846469581,115.65602898763609 32.22375793813262,114.95535822559032 31.618602913687937,113.62407787899429 30.771385879721493,112.12929775199154 30.40829286526423,112.05922969446692 28.189391109510325,112.24607780024235 27.947329099755734,112.4796377185412 27.886813597287983,112.736553353825 28.229734777705744,113.90434806799749 28.169219275354408,115.16555967902241 27.846469929092564,115.67938464278996 28.028016436379403,116.0063635657134 27.906985431560315,116.30998643381463 27.664923421805725,116.6603200128593 27.402689578011632,116.82380883327278 26.35375420260243,116.73038666440698 25.082928651594557,116.75374221018865 24.497945461422205,116.63696445761889 23.771759432274848,116.707031116297 23.368322749389336,117.15078612428624 22.843855061684735,117.05736408871599 22.662308554397896,117.22085262596374 22.158012700849213,117.1274306189298 21.81509152043145,117.19749712775229 21.41165483754594,117.1274306189298 20.826671647373587,116.75374221018865 20.624953306047246,116.47347550396807 20.403063130332157,116.40340877392737 18.78931639890652,116.38005319247895 17.7000373553019,116.49683107594319 17.115054165245965,116.23991965383175 16.449383638449945,116.09978602951742 16.22749346285127,115.88958543255285 14.47254389245063,115.84287416255393 13.988419873057865,116.84716436949384 13.0,119.55639043186966 13.020171834272332,119.86000859945489 13.201718341442756,120.04685034893919 14.734777736361139,119.81329813829507 15.017183414311148,119.71987718748278 15.400448263040744,119.3929035597539 15.581994770327583,119.43961410655174 16.308180799591355,119.29948243760737 17.175569667713717,118.99586352793267 17.53866268217098,118.99586352793267 18.890175569802523,118.69224421615945 20.140829286538064,118.62217816401972 20.84684348164592,118.2251367977151 21.00821815477684,118.01493814896094 21.936122525366955,117.99158273162902 22.500933881266974,118.24849219128373 23.912962271249853,118.50540136294148 25.748599178274162,118.41197987928172 27.301830407232046,118.69224421615945 28.814717967878096,118.50540136294148 29.823309674975462,118.73895490566792 30.58983937255107,118.62217816401972 30.912588718812913,118.66888886784727 31.5580874113366,118.80902092211181 31.779977586935274,119.0425741555955 34.01905117672868,119.18270598151139 34.825924542499706,118.99586352793267 36.07657825935166,119.22941657106276 36.701905117719434,119.15935068311228 37.004482629941776,118.9725082104851 39.18304071726743,119.18270598151139 40.211804258520715,118.87908691714983 40.87747478520032,118.94915289073833 41.684348150971346,118.8557315877988 42.22898767283186,118.99586352793267 43.49981322383974,118.90244224402704 43.68135973112658,118.8557315877988 43.82256257010158,118.52875672793016 44.145311916363426,118.41197987928172 44.468061262741685,118.66888886784727 44.387373926118016,118.90244224402704 44.52857676509302,119.01921884296462 46.72730668669101,119.18270598151139 47.776242061983794,119.11264007922728 48.24019424733706,119.46296937638544 48.24019424733706,119.71987718748278 48.341053418116644,119.7665876676183 49.71273813978769,119.57974568984355 50.05565932020545,119.69652194371156 50.438924168935046,120.00013992575987 52.94023160263896,120.25704713512096 54.87672768032644,120.21033675482613 55.15913335827645,120.02349513860827 54.89689951448236,117.61789573123679 54.67500933876727,117.64125118659285 54.412775494973175,117.89816103863996 53.92865147558041,117.15078612428624 53.545386626850814,116.87051990334294 53.16212177823763,116.75374221018865 52.5973104222212,116.87051990334294 51.508031378500164,117.54782935079129 50.378408666467294,117.92151646551793 49.26895778859034,117.73467298422474 48.361225252156146,116.9872975370672 47.41314904752653,116.63696445761889 45.85991781856865,117.10407511118683 44.83115427719895,117.6879620901891 44.468061262741685,117.75802842773555 42.914830033667386,117.75802842773555 42.390362345962785,117.3609855651157 42.148300336208194,117.29091910623538 42.12812850216869,116.96394201503426 42.007097497349605,116.84716436949384 41.522973477840424,116.80045329459244 40.8371311170049,116.9872975370672 40.1916324243648,116.707031116297 39.646992902620696,116.61360889990465 39.04183787829243,116.75374221018865 38.53754202474374,117.03400857381348 38.17444901005365,117.03400857381348 37.710496824933216,116.87051990334294 37.044826298137195,117.17414162721252 36.48001494212076,116.96394201503426 36.03623459103983,117.08071960113011 35.39073589851614,117.01065305659722 34.5636906985892,117.24420812174503 33.958535674377345,116.94058649067301 33.37355248420499,116.7770977535838 33.434067986672744,116.59025333990576 33.434067986672744,116.68367556577141 33.19200597691815,116.75374221018865 32.80874112818856,115.84287416255393 32.84908479650039,115.58596200778265 31.759805752779357,114.18461791437585 30.771385879721493,112.19936578812485 30.388121031108312,112.03587367046566 28.370937616797164,112.22272179537686 27.927157265716232,112.45628173743899 28.229734777705744,114.5583105100086 27.806126260897145,115.70274029558641 28.048188270418905,115.98300794386887 27.564064251142554,116.68367556577141 27.140455734101124,116.84716436949384 26.273066865978763,116.707031116297 25.304818827076815,116.80045329459244 24.69966380286496,116.63696445761889 23.953305939561687,116.68367556577141 23.630556593299843,116.45011992969376 23.247291744570248,116.38005319247895 22.561449383734725,116.40340877392737 22.258871871512383,116.707031116297 21.855435188743286,118.27184758237854 21.915950691094622,118.50540136294148 22.057153530186042,118.55211209057597 22.339559208136052,118.31855835752503 23.16660440794658,118.24849219128373 24.336570788291283,118.43533525375824 25.708255509962328,118.34191374150396 27.120283900061622,118.69224421615945 28.61299962643534,118.52875672793016 29.84348150913138,118.76231024684967 30.650354874902405,118.59882280859165 31.5580874113366,118.785665585674 31.699290250311606,119.01921884296462 33.575270825531334,119.15935068311228 35.10833022056613,118.99586352793267 36.177437430014834,119.18270598151139 37.10534180060495,118.99586352793267 38.43668285408057,119.08928477369773 39.04183787829243,119.25277186227322 40.23197609279305,118.92579756853229 41.684348150971346,118.92579756853229 42.329846843495034,119.08928477369773 44.52857676509302,118.94915289073833 45.43630930152722,119.20606127748033 46.72730668669101,119.29948243760737 47.776242061983794,119.15935068311228 48.24019424733706,119.48632464384718 48.260366081492975,119.7665876676183 49.591707134852186,119.55639043186966 49.95480014954228,119.64981144938793 50.338064998271875,120.02349513860827 54.09002614871133,120.25704713512096 54.95741501683369,120.21033675482613 55.118789689964615,120.04685034893919 54.91707134852186,117.54782935079129 54.755696675390936,117.54782935079129 54.53380649990868,117.82809474387614 54.37243182666134,117.87480560943368 53.888307807268575,117.05736408871599 53.24280911474489,116.7770977535838 52.63765409053303,116.84716436949384 52.11318640271202,117.22085262596374 50.902876354171894,117.82809474387614 50.015315651893616,117.94487188993662 49.04706761299167,117.61789573123679 47.99813223758247,116.80045329459244 47.33246171090286,116.6603200128593 45.900261486764066,117.10407511118683 45.57751214050222,117.3609855651157 44.508404930937104,117.7813838688744 43.76204706763383,117.6879620901891 43.62084422854241,117.52447388588917 43.19723571173381,117.6879620901891 42.87448636547197,117.6879620901891 42.430706014158204,117.33763008119422 42.107956668012775,117.24420812174503 42.12812850216869,116.89387543480552 41.82555098994635,116.7770977535838 41.56331714603584,116.75374221018865 40.77661561453715,116.9872975370672 40.010085917194374,116.59025333990576 39.6671647366602,116.54354221267567 39.223384385579266,116.59025333990576 38.376167351496406,117.01065305659722 37.73066865897272,116.82380883327278 37.10534180060495,117.10407511118683 36.35898393730167,116.9172309639689 35.93537542026024,117.05736408871599 35.37056406424381,116.9872975370672 34.5636906985892,117.22085262596374 34.07956667919643,116.96394201503426 33.454239820712246,116.82380883327278 33.33320881589316,116.707031116297 33.434067986672744,116.56689777743304 33.33320881589316,116.73038666440698 33.171834142762236,116.63696445761889 32.78856929403264,115.86622979874664 32.84908479650039,115.65602898763609 32.42547627945896,115.23562678731105 31.5580874113366,113.76421301632945 31.033619723632,112.38621377975505 30.771385879721493,112.03587367046566 30.56966753839515,111.98916161543457 28.007844602223486,112.22272179537686 27.927157265716232,112.6898414415482 28.10870377300307,113.08689239257365 28.209562943666242,114.60502204159275 27.846469929092564,115.63267333008116 27.98767276806757,115.91294106395799 27.664923421805725,116.49683107594319 27.20097123645246,116.80045329459244 26.21255136351101,116.6603200128593 25.06275681743864,116.73038666440698 24.53828912973404,116.59025333990576 23.791931266430765,116.6603200128593 23.46918192016892,117.03400857381348 23.186776242102496,117.08071960113011 22.8035113933729,117.01065305659722 22.601793051930144,117.15078612428624 21.956294359406456,116.9172309639689 22.077325364225544,117.08071960113011 21.31079566688277,117.01065305659722 20.42323496460449,116.33334202245169 19.495330594014376,116.40340877392737 18.506910720956512,116.26327524951193 17.6798655212624,116.40340877392737 16.55024280922953,116.07643041716074" stroke="#4dd2ff" stroke-linecap="round" stroke-linejoin="round" stroke-width="0.5"><title>2024-09-17 15.3km</title><desc>12429392363</desc></polyline><polyline fill="none" points="140.63430725724902,129.87033849739237 141.11781338357832,128.63290279640933 141.37229029205628,127.51331355393631 141.77945334580727,126.71781330127851 142.44109330803622,124.5375421368517 142.7719132893253,124.06612999498611 143.20452403393574,123.09384002620936 143.35721017909236,122.3572545410425 144.09519321401604,120.14748683269136 144.4260131950723,119.52874884958146 144.73138548538554,119.351966325572 144.73138548538554,118.85108192102052 144.83317624870688,118.49751593676046 145.21489161159843,118.11448563283193 145.46936852030922,117.99663005268667 146.4363807728514,117.93770224464242 148.52309142320883,118.23234116498497 149.59189443918876,118.14394952039584 150.5080113101285,118.32073278256576 151.52591894427314,118.67429898286355 151.85673892556224,118.70376281341305 153.48539114033338,118.4680520852271 153.81621112162247,118.4680520852271 154.93590951920487,118.70376281341305 155.62299717240967,118.58590747334529 156.0556079171365,118.556443630805 156.6154571159277,118.73322664093575 157.07351555139758,118.67429898286355 157.2262016965542,118.76269046546076 157.40433553245384,119.05732854560483 159.69462770980317,119.2046474730887 160.05089538160246,119.14571991108824 160.58529688976705,119.1751836935291 161.42507068801206,119.02786475108587 161.73044297844172,119.02786475108587 162.08671065035742,119.14571991108824 163.15551366633736,119.23411124962149 163.71536286512855,119.1751836935291 164.12252591899596,118.96893715299666 164.55513666348998,119.02786475108587 165.03864278981928,118.99840095356922 165.3949104618514,119.11625612553325 166.79453345900401,119.26357502309838 167.2780395852169,119.2046474730887 167.91423185670283,118.96893715299666 168.67766258248594,118.99840095356922 169.2120640905341,118.91000954297488 169.8991517436225,118.88054573349655 170.61168708757032,119.05732854560483 171.73138548538554,118.96893715299666 172.0622054664418,119.08679233703879 172.1894439208554,119.26357502309838 172.39302544749808,119.11625612553325 173.05466540995985,118.96893715299666 173.18190386437345,119.05732854560483 173.7926484447671,119.08679233703879 174.78510838828515,119.29303879354848 175.5739868049277,119.29303879354848 176.59189443918876,119.41089384563384 177.55890669184737,119.23411124962149 177.83883129118476,119.52874884958146 178.0678605089197,119.7055312654702 178.16965127235744,119.97070468682796 178.29688972665463,120.00016838533338 179.62016965122893,119.7055312654702 179.92554194154218,119.7055312654702 180.40904806787148,119.85284986282932 180.71442035818473,120.20641419064486 181.01979264849797,120.29480520510697 181.65598491986748,120.26534153652028 182.72478793584742,120.4126598489238 185.52403393038549,120.4715871528606 186.7200754005462,120.38319619250251 186.97455230914056,120.20641419064486 186.77097078226507,118.79215428690077 186.84731385484338,118.05555784885655 186.66918001882732,117.20110363070853 186.46559849195182,117.17163964716019 186.08388312917668,117.55467119949753 185.93119698402006,117.55467119949753 185.44769085769076,116.70021550200181 185.09142318565864,116.37611095650936 184.7097078228835,116.19932650591363 184.27709707827307,116.14039833168499 183.69180018850602,116.2582546681806 183.13195098971482,116.75914356214344 181.70688030158635,117.46627934786375 181.045240339241,117.58413514404674 180.51083883130923,117.58413514404674 179.97643732326105,117.46627934786375 179.391140433494,117.23056761134649 179.06032045243774,117.02431968436576 178.144203581498,116.16986242029816 177.48256361926906,115.87522139929933 177.20263901969884,115.84575728062191 176.71913289348595,115.9636137370835 176.08294062211644,116.31718281831127 175.2431668236386,116.61182338919025 173.94533458992373,117.2894955634838 173.38548539113253,117.40735143166967 172.6729500471847,117.3778874691343 172.49481621105224,117.20110363070853 172.41847313847393,117.3778874691343 171.65504241280723,117.43681539123645 171.19698397733737,117.2894955634838 170.84071630530525,116.93592767059454 170.48444863338955,116.7886075877177 170.50989632424898,116.34664688885096 169.95004712534137,116.08147014549468 169.6192271441687,116.11093424013234 169.16116870869882,116.31718281831127 168.70311027334537,116.37611095650936 168.041470311,116.05200604788843 167.4816211120924,115.90468551486265 166.79453345900401,115.9636137370835 166.00565504236147,116.37611095650936 165.77662582462654,116.4645031413529 165.3949104618514,116.43503908268758 164.83506126294378,116.16986242029816 164.6314797360683,116.2582546681806 164.45334590005223,116.4645031413529 164.17342130071484,116.52343124942854 163.84260131954215,116.49396719684592 163.28275212063454,116.28771874474478 162.64655984914862,116.49396719684592 162.11215834110044,116.37611095650936 161.73044297844172,116.40557502108277 161.01790763426106,116.70021550200181 160.2035815268755,116.28771874474478 159.4401508010924,116.11093424013234 159.2365692742169,115.93414962742827 158.6767200754257,114.96183232666226 158.80395852972288,114.69665431388421 158.4731385485502,114.40201179220458 158.14231856737752,113.78326151994406 157.8623939679237,113.5180824266863 157.53157398675103,113.01718792048632 157.0226201696787,111.83860919059953 156.92082940624095,111.36717635407695 156.43732328002807,110.42430837606662 156.18284637131728,110.18859090129263 155.5721017908072,110.12966150257853 153.53628652216867,110.30644966257387 153.0782280866988,110.36537902534474 152.7219604147831,110.51270237949211 152.62016965122893,111.04306583327707 152.90009425068274,111.66182196690352 152.95098963240162,112.16271882003639 152.7983034873614,113.10558113173465 152.82375117810443,114.13683326615137 152.7474081054097,114.46094032053952 152.49293119693175,114.60826158884447 152.4420358153293,114.72611854950082 152.4674835060723,114.84397546204855 152.6710650329478,115.05022494363948 152.2384542884538,115.66897250586771 151.93308199814055,115.9636137370835 151.67860508942977,116.05200604788843 151.32233741751406,116.05200604788843 150.53345900098793,115.90468551486265 149.51555136661045,116.02254194731358 148.0904806787148,115.8162931589759 147.25070688023698,115.93414962742827 146.9198868991807,116.37611095650936 146.66540999058634,116.52343124942854 146.18190386425704,116.4645031413529 146.05466541007627,116.4645031413529 145.8765315739438,116.61182338919025 145.72384542878717,116.61182338919025 144.88407163054217,116.2582546681806 144.93496701226104,116.52343124942854 144.83317624870688,116.58235934562981 144.85862393956631,116.55289529910078 144.62959472183138,116.43503908268758 144.32422243175097,116.40557502108277 144.12064090475906,116.28771874474478 143.2554194155382,115.61004422363476 141.83034872764256,115.66897250586771 140.93967954756226,115.49218762319651 140.45617342134938,115.46272346551996 139.6418473138474,115.66897250586771 138.7511781338835,115.3448668050114 137.96229971712455,115.22701009642333 137.7841658812249,114.99129653535783 136.9443920828635,114.99129653535783 136.20640904793981,114.78504701182828 135.72290292172693,114.78504701182828 135.44297832227312,114.9323681150272 135.31573986809235,115.22701009642333 135.13760603195988,115.99307784365374 134.1705937795341,118.11448563283193 133.91611687082332,119.11625612553325 133.7634307256667,119.381430087029 133.71253534406424,119.58767633355455 133.7634307256667,119.91177728091134 134.09425070683938,120.08855946274707 134.8067860509036,120.00016838533338 135.03581526863854,120.05909577320563 136.23185673891567,119.79392243296024 136.4608859566506,119.49928510302561 136.740810555988,119.32250256102998 136.86804901028518,119.26357502309838 137.04618284641765,119.29303879354848 137.50424128188752,119.11625612553325 138.14043355325703,119.02786475108587 138.42035815271083,118.70376281341305 138.44580584345385,118.82161810545949 138.5984919887269,118.85108192102052 139.38737040525302,118.85108192102052 140.1253534401767,118.73322664093575 141.49952874646988,118.3501966491167 142.8991517436225,118.23234116498497 143.3063147973735,117.93770224464242 143.7389255418675,117.73145482176915 143.89161168702412,117.43681539123645 144.349670122494,117.40735143166967 144.7059377944097,117.43681539123645 144.80772855796386,117.64306302421028 144.80772855796386,117.58413514404674 145.0367577756988,117.61359908559825 145.1131008482771,117.52520725189243 145.29123468417674,117.61359908559825 145.69839773804415,117.90823833606555 146.25824693683535,117.84931051003514 147.27615457121283,118.08502174232854 148.14137606031727,118.11448563283193 149.64278982090764,117.99663005268667 149.94816211122088,118.02609395227046 151.11875589063857,118.37966051261174 151.7549481621245,118.49751593676046 152.34024505177513,118.43858823075425 153.02733270497993,118.23234116498497 153.3581526861526,118.20287728650146 154.0452403393574,118.29126891304622 154.83411875599995,118.52697978523793 156.15739868045785,118.3501966491167 157.07351555139758,118.58590747334529 157.32799245987553,118.88054573349655 159.69462770980317,119.05732854560483 160.6870876532048,119.02786475108587 161.4505183788715,118.88054573349655 161.73044297844172,118.91000954297488 162.11215834110044,119.05732854560483 162.9773798303213,119.14571991108824 163.68991517438553,118.99840095356922 164.0716305372771,118.76269046546076 164.3006597548956,118.73322664093575 164.7078228086466,118.79215428690077 165.1149858623976,118.79215428690077 165.36946277099196,118.96893715299666 165.70028275216464,118.96893715299666 166.66729500470683,119.14571991108824 167.2780395852169,119.05732854560483 168.06691800185945,118.79215428690077 168.83034872752614,118.91000954297488 169.6192271441687,118.79215428690077 170.15362865221687,118.82161810545949 170.22997172479518,118.91000954297488 170.63713477854617,118.99840095356922 171.80772855796386,118.85108192102052 172.16399622987956,118.91000954297488 172.16399622987956,119.11625612553325 172.80018850136548,118.91000954297488 173.20735155511647,118.91000954297488 174.75966069742572,119.23411124962149 175.4976437323494,119.1751836935291 176.6682375118835,119.23411124962149 177.3807728558313,119.08679233703879 177.71159283688758,119.14571991108824 177.88972667302005,119.23411124962149 178.22054665419273,119.5582125930523 178.22054665419273,119.85284986282932 179.62016965122893,119.64660380553687 180.2818096135743,119.73499499101308 180.51083883130923,119.91177728091134 180.58718190377112,120.05909577320563 180.94344957591966,120.26534153652028 182.80113100842573,120.32426887055044 185.345900094253,120.32426887055044 185.90574929316062,120.4126598489238 186.82186616410036,120.32426887055044 186.97455230914056,120.23587786511052 187.0,120.11802314923261 186.77097078226507,118.52697978523793 186.64373232796788,117.05378368296078 186.41470311023295,117.083247678529 186.13477851089556,117.3778874691343 185.95664467476308,117.40735143166967 185.65127238456625,116.81807161032339 185.345900094253,116.43503908268758 184.68426013190765,116.08147014549468 184.37888784171082,116.08147014549468 183.64090480678715,116.28771874474478 183.2591894438956,116.61182338919025 181.7323279924458,117.31895953498315 181.07068803010043,117.46627934786375 179.95098963240162,117.43681539123645 179.4674835060723,117.23056761134649 178.7803958528675,116.7886075877177 178.37323279923294,116.34664688885096 177.63524976430926,116.02254194731358 177.20263901969884,115.93414962742827 176.64278982090764,116.05200604788843 175.59943449578714,116.43503908268758 175.2940622055903,116.4645031413529 174.93779453344177,116.72967953354237 174.3270499529317,116.90646366000874 173.71630537230521,117.20110363070853 172.5966069746064,117.34842350360123 172.49481621105224,117.23056761134649 171.68049010366667,117.43681539123645 171.32422243163455,117.34842350360123 171.0188501413213,116.99485568271484 170.56079170596786,116.7886075877177 170.50989632424898,116.37611095650936 170.1790763430763,116.11093424013234 169.72101790760644,116.08147014549468 169.1357210179558,116.34664688885096 168.83034872752614,116.37611095650936 168.11781338369474,116.05200604788843 167.50706880306825,115.87522139929933 166.81998114986345,115.9636137370835 165.6748350611888,116.49396719684592 165.4712535344297,116.4645031413529 164.80961357208434,116.16986242029816 164.0716305372771,116.4645031413529 163.43543826579116,116.19932650591363 163.1809613571968,116.16986242029816 162.5702167765703,116.40557502108277 161.95947219606023,116.34664688885096 161.1705937794177,116.6412874298112 160.94156456168275,116.6412874298112 160.2035815268755,116.19932650591363 159.61828463710845,116.11093424013234 159.21112158347387,115.75736490671989 158.7530631478876,114.9323681150272 158.80395852972288,114.66719007518259 158.26955702155828,114.01897606541752 157.8623939679237,113.45915370617877 157.506126296008,112.81093698943732 157.07351555139758,112.22164780454477 156.64090480678715,111.21985343509004 156.51366635248996,110.66002565863892 156.3355325164739,110.30644966257387 155.87747408100404,110.12966150257853 153.40904806775507,110.33591434554546 152.95098963240162,110.42430837606662 152.7474081054097,110.60109635602566 152.7219604147831,110.9546719918435 153.0018850141205,111.77968012812198 152.92554194154218,112.39843468609615 153.0018850141205,113.25290309023694 152.90009425068274,113.78326151994406 152.7219604147831,114.1662975588697 152.7219604147831,114.40201179220458 152.54382657865062,114.69665431388421 152.5947219604859,114.84397546204855 152.7474081054097,114.96183232666226 152.7474081054097,115.10915333995945 152.41658812435344,115.8162931589759 152.28934967017267,115.93414962742827 152.06032045243774,116.05200604788843 149.057492931257,116.02254194731358 148.650329877506,115.93414962742827 148.21771913289558,115.93414962742827 147.70876531570684,116.05200604788843 147.37794533453416,116.02254194731358 147.02167766250204,116.43503908268758 146.8435438266024,116.49396719684592 146.61451460886747,116.55289529910078 146.2327992459759,116.43503908268758 145.9528746465221,116.58235934562981 145.3166823751526,116.4645031413529 144.73138548538554,116.2582546681806 144.24787935905624,116.22879058853141 143.53534401510842,115.87522139929933 143.22997172479518,115.61004422363476 142.64467483502813,115.5805800780654 141.98303487268277,115.66897250586771 140.71065032982733,115.52165177781717 140.4052780395141,115.52165177781717 139.6418473138474,115.6984366425313 138.44580584345385,115.31540263240458 138.1913289349759,115.28593845680007 137.83506126294378,114.96183232666226 136.28275212063454,114.75558278217795 135.4938737041084,114.84397546204855 135.06126295938157,116.22879058853141 134.67954759649,117.02431968436576 134.3232799244579,118.23234116498497 133.78887841664255,119.58767633355455 133.81432610738557,120.0296320807829 133.68708765308838,120.38319619250251 133.73798303480726,121.03139594150707 133.33081998105627,121.44388593474287 133.17813383589964,121.50281302869553 133.0,122.3572545410425" stroke="#4dd2ff" stroke-linecap="round" stroke-linejoin="round" stroke-width="0.5"><title>2024-09-15 10.2km</title><desc>12412483970</desc></polyline><polyline fill="none" points="20.74339622631669,189.68796184659004 21.864150943350978,186.94532995854388 22.195283018867485,185.8541681135248 22.449999999953434,185.0579122803174 23.163207547040656,183.49488520331215 24.48773584899027,179.83795870377799 24.89528301882092,178.9237198625924 25.557547169853933,178.36337850088603 27.416981132118963,178.54032852174714 29.96415094344411,178.4813451934897 32.460377358365804,178.89422823901987 34.090566037688404,178.80575335025787 35.87358490563929,178.8352449829108 37.45283018855844,179.3955854313972 40.63679245277308,179.48406013991917 42.3179245282663,179.5135517033923 43.66792452824302,179.48406013991917 44.1518867922714,179.24812752378057 44.99245283019263,179.27761911126436 47.2594339621719,179.48406013991917 48.15094339614734,179.1891443397035 49.88301886781119,179.10066954095964 50.74905660364311,179.33660227735527 52.17547169805039,179.27761911126436 52.37924528296571,179.57253482140368 53.27075471682474,179.33660227735527 55.741509433835745,179.5135517033923 57.575471697957255,179.48406013991917 58.033962264074944,179.8084671733377 58.26320754701737,180.0443993328372 58.390566037618555,180.3098227827286 59.71509433956817,180.07389083923772 60.657547169714235,180.57524598922464 62.66981132060755,180.7816860927269 65.77735849039163,180.8701603777008 67.0,180.54575453381403 66.59245283005293,177.53761030721944 66.38867924513761,177.53761030721944 66.00660377345048,177.89151125002536 65.11509433935862,176.7118397585 64.12169811304193,176.4759048834967 62.82264150923584,177.27218431627261 61.21792452817317,177.97998641809681 60.300943396170624,177.86201952132978 59.33301886776462,177.4786267747113 57.575471697957255,176.3579373738321 56.58207547152415,176.29895360104274 55.23207547166385,176.88879078865284 53.882075471570715,177.65557733626338 52.6849056603387,177.74405257642502 52.25188679236453,177.95049469842343 51.8698113206774,177.65557733626338 51.43679245270323,177.6850690859428 50.570754716871306,177.18370893181418 50.54528301872779,176.7413316044258 50.035849056439474,176.4169211346889 49.0679245282663,176.6823479096347 48.634905660292134,176.65285605782992 47.89622641494498,176.29895360104274 46.72452830185648,176.3579373738321 45.60377358482219,176.97726626312942 44.9669811319327,176.62336420291103 44.40660377359018,176.85929895783192 43.693396226270124,176.88879078865284 42.69999999983702,176.85929895783192 41.604716981062666,176.829807123926 40.94245283014607,177.0952335204056 39.46509433956817,176.5348886202264 38.67547169805039,175.32571961457143 38.726415094337426,174.94232350966195 37.8603773585055,173.93959283496952 37.19811320747249,172.73041299101897 36.917924528126605,172.55345941949054 36.688679245184176,171.55072047174326 36.077358490554616,170.43000812642276 33.96320754720364,170.66594792791875 32.84245283016935,170.81341020634864 32.613207547110505,171.1968117787037 32.867924528196454,172.02259805620997 32.613207547110505,174.82435537516722 32.51132075476926,175.1782596342964 32.51132075476926,175.67962326089037 32.00188679236453,176.4759048834967 30.651886792387813,176.3579373738321 29.301886792411096,176.3579373738321 28.232075471663848,176.2399698161753 27.340566037688404,176.2694617101224 27.060377358458936,176.65285605782992 26.47452830185648,176.88879078865284 25.990566037595272,176.88879078865284 25.0226415094221,176.7118397585 24.131132075446658,176.7118397585 23.239622641471215,175.9745426356967 22.22075471689459,175.9745426356967 20.845283018774353,175.82708298583748 19.622641509398818,176.00403455659398 18.017924528219737,175.591147389845 17.661320754676126,175.29622762458166 15.394339622696862,175.3847035856743 14.069811320863664,178.89422823901987 13.764150943490677,180.3098227827286 14.222641509375535,180.54575453381403 16.260377358528785,180.16236534059863 16.71886792453006,179.74948410334764 17.279245282988995,179.57253482140368 18.858490566140972,179.24812752378057 21.685849056579173,178.74677007604623 23.08679245284293,178.45185352486442 23.79999999993015,177.97998641809681 24.716981132049114,178.06846155924723 24.946226415107958,177.95049469842343 25.73584905662574,178.36337850088603 27.26415094337426,178.54032852174714 29.734905660385266,178.45185352486442 31.645283018937334,178.8352449829108 34.065094339544885,178.80575335025787 35.44056603766512,178.86473661242053 36.968867924413644,179.04168632693472 39.8726415092824,179.5135517033923 41.197169811232015,179.30711069577956 42.1396226414945,179.48406013991917 43.61698113195598,179.45456857341924 44.432075471500866,179.30711069577956 46.24056603771169,179.5135517033923 47.33584905648604,179.42507700395072 48.201886792317964,179.1596527430811 49.90849056595471,179.13016114357742 50.74905660364311,179.3955854313972 52.32830188656226,179.13016114357742 52.710377358365804,178.9827031006862 52.914150943397544,178.95321148319636 53.47452830185648,179.30711069577956 54.79905660368968,179.54304326392594 56.02169811318163,179.60202637600014 57.72830188658554,179.42507700395072 58.11037735838909,179.8084671733377 58.212264150963165,180.19185683506657 59.56226415082347,180.07389083923772 60.35188679234125,180.22134832644952 61.09056603757199,180.63422889087815 65.19150943378918,180.81117752403952 66.92358490545303,180.6932117806864 66.8726415092824,180.1328738432203 66.59245283005293,177.5081185424351 65.98113207530696,177.89151125002536 65.59905660361983,177.33116789074847 64.60566037730314,176.4759048834967 63.76509433949832,176.59387234499445 62.18584905646276,177.62608558344073 60.70849056588486,177.97998641809681 59.383962263935246,177.6850690859428 58.237735848873854,176.65285605782992 57.320754716871306,176.2694617101224 56.4801886791829,176.2694617101224 55.766981131979264,176.5643804841675 54.87547169800382,177.06574171062675 53.57641509419773,177.65557733626338 52.50660377345048,177.62608558344073 52.404716980992816,177.4786267747113 51.30943396221846,177.62608558344073 50.825471697957255,177.27218431627261 50.44339622638654,176.9477744413016 50.163207547040656,176.44641301064985 49.144339622580446,176.65285605782992 48.583962264005095,176.62336420291103 47.41226415080018,176.18098601931706 46.699056603596546,176.3579373738321 45.45094339607749,176.7708234472084 44.432075471500866,176.7708234472084 43.82075471698772,176.829807123926 42.72547169809695,176.8003152870515 41.477358490461484,176.85929895783192 40.815094339544885,177.00675808195956 39.414150943397544,176.44641301064985 38.726415094337426,175.32571961457143 38.24245283007622,174.470450683526 37.65660377359018,173.58568706188817 37.04528301872779,172.43549031179282 36.51037735841237,170.57747052493505 35.84811320749577,170.31203815338085 33.12264150939882,170.66594792791875 32.587735848966986,171.13782695445116 32.84245283016935,172.49447487172438 32.89339622633997,173.85111643225537 32.66415094328113,174.55892689703614 32.4349056603387,175.1782596342964 32.53679245267995,175.53216346079716 31.925471698050387,176.44641301064985 30.702830188674852,176.38742925575934 27.92641509429086,176.2694617101224 27.213207547087222,176.3579373738321 26.576415094314143,176.91828261644696 25.8377358490834,176.97726626312942 24.742452830076218,176.62336420291103 24.2075471697608,176.7708234472084 23.290566037641838,175.9745426356967 22.449999999953434,175.8860668547859 20.845283018774353,175.79759104680852 19.29150943388231,175.8860668547859 18.221698113135062,175.73860715984483 16.10754716966767,175.1782596342964 15.114150943350978,176.03352647460997 14.884905660292134,176.91828261644696 14.222641509375535,178.45185352486442 13.713207547087222,180.0149078235263 13.560377358575352,180.7816860927269 13.433018867857754,180.6932117806864 13.560377358575352,180.72270322102122 13.560377358575352,181.2830400170351 13.203773584915325,181.75490174116567" stroke="#4dd2ff" stroke-linecap="round" stroke-linejoin="round" stroke-width="0.5"><title>2024-09-07 10.2km</title><desc>12344991930</desc></polyline><polyline fill="none" points="139.9270386263961,190.1967080606555 140.6223175964551,188.79545153010986 141.36909871234093,186.7979040297796 141.60085836902726,186.02273267219425 141.858369098627,185.27737366201472 142.32188841188326,183.84627904265653 142.78540772513952,182.95184135300224 143.68669527885504,180.41758639138425 144.35622317588422,179.19517321357853 144.8712446350837,177.97275493104826 145.77253218868282,177.85349433746887 147.24034334765747,178.0323852095753 150.71673819725402,178.27090620232048 152.87982832617126,178.15164573019138 153.47210300411098,178.2410910888575 155.583690987085,178.33053642010782 156.27896995702758,178.50942700071028 156.89699570799712,178.68831747191143 157.721030042856,178.8672078338568 159.98712446342688,179.01628305204213 160.99141630891245,178.77776266663568 161.8154506436549,178.92683793025208 163.9012875534827,178.68831747191143 165.1373390556546,178.8672078338568 166.32188841199968,179.0460980865173 167.4034334763419,178.8970228835533 167.99570815451443,178.6286873270583 169.69527896982618,178.68831747191143 170.9828326179413,178.8970228835533 172.32188841199968,178.50942700071028 172.96566523599904,178.68831747191143 173.86695278971456,178.8672078338568 175.33476394845638,179.0460980865173 177.52360515017062,179.01628305204213 177.93562231760006,179.31443326047156 178.27038626605645,179.82128791790456 179.12017167371232,179.82128791790456 180.40772532182746,179.85110287036514 184.3476394849131,180.35795659874566 186.7939914163435,180.23869697685586 186.6909871243406,178.00257007178152 186.45922746765427,176.92922309000278 185.9442060085712,177.31682106520748 185.0944206007989,176.09439493875834 184.24463519302662,175.8260568131518 183.137339055771,176.42236342505203 181.97854077245574,177.10811452695634 179.4291845492553,177.10811452695634 177.78111587965395,176.0049489243247 176.6223175964551,175.79624145067646 175.0257510729134,176.3031021998613 174.09871244628448,176.75033154370612 172.60515021451283,177.16774498159066 171.7038626607973,177.52552745465073 171.44635193131398,177.2870058545377 170.7768240342848,176.80996207139106 170.31330472091213,176.42236342505203 169.87553648056928,175.8856875289639 168.89699570811354,176.0645796036406 168.22746781120077,176.0049489243247 166.8884120171424,175.67697997036157 165.11158798274118,176.1838409260381 164.4163090127986,176.0645796036406 163.74678111588582,176.42236342505203 162.45922746765427,176.3031021998613 160.63090128742624,176.48199401938473 159.137339055771,175.9453182326979 158.69957081531174,175.31919523800025 158.39055793976877,174.39491598855238 156.94849785394035,172.33763879461912 156.61373390536755,171.4729817454936 156.20171673805453,170.31016306587844 155.7896995707415,169.89273984904867 153.21459227451123,169.92255581289646 152.3133047207957,170.04181963767041 152.2360515020555,170.4890585480607 152.59656652342528,171.80095540956245 152.57081545051187,173.3215557782678 152.33905579382554,174.0371296891244 152.00429184548557,174.60362446130603 152.3133047207957,175.05085640170728 151.48927038616966,175.97513358001015 150.07296137325466,175.73661071658717 147.93562231748365,175.5577184414724 146.51931330456864,176.15402559997165 145.64377682388294,176.1838409260381 145.36051502125338,176.39254812325817 144.02145922731142,176.33291751064826 143.0686695277691,175.67697997036157 142.39914163085632,175.25956440673326 140.2360515020555,175.17011813711724 138.3304721028544,175.1403027077613 137.40343347622547,174.81233278519358 135.98712446342688,174.57380897420808 134.9828326179413,174.6632554261014 133.77253218868282,177.67460335601936 133.1802575106267,179.58276818846934 133.66952789679635,180.089622381347 135.29184549336787,179.73184304212919 135.8583690985106,179.40387826380902 136.52789699553978,179.2548032430641 137.66094420582522,179.07591311796568 138.89699570799712,178.71813253988512 139.87553648056928,178.5988722499751 141.39484978525434,178.41998172414606 142.5278969956562,178.30072131269844 143.12017167371232,177.85349433746887 144.04721030034125,177.4658970728633 144.3304721028544,177.25719064089935 144.45922746765427,177.34663627282134 145.30901287542656,177.79386402247474 146.05579399131238,177.88330949036754 147.60085836902726,178.00257007178152 149.14592274662573,177.88330949036754 151.10300429177005,178.2410910888575 153.11158798274118,178.15164573019138 154.7081545063993,178.39016662578797 156.74248927028384,178.44979681930272 156.97424892697018,178.80757772544166 157.59227467805613,178.7479476047156 160.3476394849131,178.95665297383675 161.84120171656832,178.92683793025208 163.4120171671966,178.8672078338568 164.33905579382554,178.8970228835533 165.39484978525434,178.83739278119174 166.5536480685696,178.95665297383675 167.63519313302822,178.68831747191143 168.6652360514272,178.71813253988512 169.7467811157694,178.6286873270583 172.0386266093701,178.71813253988512 172.19313304696698,178.5988722499751 172.7339055793127,178.65850240099826 175.41201716731302,178.8970228835533 176.7510729613714,179.13554317181115 177.858369098627,179.16535819415003 178.24463519302662,179.73184304212919 178.60515021451283,179.61258316528983 179.63519313302822,179.49332323975977 180.58798283245414,180.0001775874989 185.66094420594163,180.29832679391257 186.94849785394035,180.0299925217987 186.35622317600064,176.95903833705233 185.9699570814846,177.2870058545377 184.7081545063993,175.85587217260036 183.96137339039706,175.85587217260036 182.9570815450279,176.51180931204 181.46351931313984,177.25719064089935 179.94420600845478,177.137929755816 177.90987124457024,175.85587217260036 176.5708154506283,175.79624145067646 175.05150214594323,176.3627328184375 174.1502145922277,176.8397773305769 172.86266094411258,177.2273754242342 172.5278969956562,177.04848406015662 171.1373390556546,177.04848406015662 170.33905579394195,176.60125517167035 169.82403433474246,175.8856875289639 167.55793991417158,175.76642608520342 166.39914163085632,175.8856875289639 165.24034334742464,176.21365624910686 164.6223175964551,175.91550288235885 164.0815450642258,176.2434715689742 163.5150214591995,176.3031021998613 162.97424892685376,175.97513358001015 161.68669527897146,176.1242102709366 160.5278969956562,176.45217872373178 159.24034334754106,175.85587217260036 159.08583690971136,175.64716459272313 158.54506437759846,175.2893798238365 158.2360515020555,174.69307090397342 158.46781115874182,174.33528496898361 157.721030042856,173.64952737122076 157.28326180251315,173.0233994658629 156.81974248914048,172.2183759052714 156.4592274677707,170.39961082060472 155.4806866950821,169.8032919393736 153.34334763942752,170.04181963767041 152.36480686685536,170.071635586326 152.18454935611226,170.87666505094967 152.36480686685536,171.35371850366937 152.46781115874182,173.26192454015836 152.03004291828256,174.0371296891244 152.2360515020555,174.84214824790251 151.9012875534827,175.76642608520342 150.6652360514272,175.91550288235885 149.6351931329118,175.85587217260036 148.09012875519693,175.70679534503142 146.82832618011162,175.70679534503142 146.36480686685536,176.2434715689742 145.7467811157694,176.1838409260381 145.10300429165363,176.27328688590205 144.40772532171104,176.09439493875834 143.86695278959814,176.1242102709366 142.7339055793127,175.40864146203967 141.36909871234093,175.34901064899168 139.66952789679635,175.25956440673326 138.1502145921113,175.11048727546586 137.14592274662573,174.78251731942873 135.06008583679795,174.54399348419975 134.75107296125498,175.2893798238365 134.00429184536915,177.137929755816 133.46351931313984,178.50942700071028 133.15450643759686,179.79147296235897" stroke="#4dd2ff" stroke-linecap="round" stroke-linejoin="round" stroke-width="0.5"><title>2024-08-31 10.2km</title><desc>12285168865</desc></polyline><polyline fill="none" points="19.821052631479688,250.23085867243935 21.009569377987646,247.65826495038345 21.19043062196579,246.88049962208606 21.681339712929912,245.41470552101964 21.862200956908055,244.69676288447226 22.55980861245189,242.87198411813006 24.523444976075552,238.2651151556056 25.505263157887384,237.84630530324648 27.67559808609076,238.17537023761543 29.484210526337847,238.05571030409192 31.241148325265385,238.44460490954225 34.49665071768686,238.50443480315153 36.847846889984794,238.7138393347268 39.30239234457258,239.0429032970569 41.059330143616535,238.86341390875168 42.76459330145735,239.10273306880845 43.746411483269185,238.80358408836764 44.909090909175575,238.9531586166704 46.45933014363982,239.10273306880845 47.64784689003136,238.7437542557018 48.7588516746182,238.86341390875168 49.97320574161131,238.7138393347268 50.46411483245902,238.92324371705763 52.040191387641244,238.77366917356267 52.1952153109014,238.92324371705763 52.60861244017724,238.7138393347268 55.65741626790259,239.01298840667005 57.285167464171536,239.01298840667005 57.931100478512235,239.40188174461946 58.16363636369351,239.76085975338356 59.01626794261392,239.64120046576136 60.33397129189689,239.7907745676348 60.51483253587503,240.23949641594663 62.50430622010026,240.35915545973694 66.76746411493514,240.32924070337322 67.0,239.9403485932853 66.66411483252887,237.00868380698375 66.30239234445617,237.12834416693659 65.96650717698503,237.3377496796893 65.3464114832459,236.3505509554816 64.4162679426372,235.84199274197454 63.71866028709337,236.08131436395342 61.96172248804942,237.09842908155406 61.23827751202043,237.36766474082833 60.256459330092184,237.30783461558167 58.602870813338086,236.26080545244622 57.67272727272939,235.7522470835247 56.45837320573628,235.84199274197454 55.24401913874317,236.23089027858805 54.41722488042433,236.64970243439893 53.20287081343122,237.18817432876676 51.445933014387265,237.2180894050107 50.98086124402471,237.06851399308653 50.30909090908244,236.58987216305104 49.97320574161131,235.8719079553848 48.83636363630649,236.1112295529456 47.88038277509622,235.7522470835247 47.0277511960594,235.63258616282837 45.813397129182704,236.26080545244622 45.24497607653029,236.32063579079113 43.90143540664576,236.29072062313207 42.893779904348776,236.08131436395342 41.62775119615253,236.26080545244622 40.697607655543834,236.47021158365533 39.09569377999287,235.8719079553848 38.7081339713186,235.3334336479311 38.39808612444904,234.5556356831803 37.80382775119506,233.62825849460205 37.05454545444809,232.58121621381724 36.796172248898074,232.10256707074586 36.07272727275267,230.60678347109933 35.37511961720884,229.76914132758975 33.07559808611404,230.038383705687 32.093779904418625,230.30762583695468 32.5330143540632,232.07265147348517 32.32631578948349,233.68808936924324 31.96459330129437,234.52572033560136 32.197129186592065,234.9744502278627 31.396172248758376,235.9018231657683 30.49186602863483,235.7821623060736 28.76076555030886,235.84199274197454 27.08133971283678,235.7522470835247 26.61626794259064,236.02148397671408 26.02200956933666,236.38046611714526 25.350239234394394,236.4103812756657 24.781818181858398,236.29072062313207 24.16172248800285,236.14114473894006 23.050717703299597,235.7821623060736 22.50813397136517,235.3334336479311 21.242105263168924,235.42317943440867 18.91674641147256,235.51292519341223 17.34066985640675,235.0342808282876 17.10813397122547,234.7351277039852 14.834449760732241,234.58555102758692 14.524401913862675,235.3334336479311 13.46507177024614,237.99588031912572 13.0,239.46171144317486 13.25837320566643,240.06000775893335 15.609569377964363,239.67111529235262 16.07464114832692,239.1625628284237 16.539712918689474,239.0429032970569 18.115789473522455,238.7138393347268 21.19043062196579,238.20528521330561 22.482296650647186,237.8762203125516 23.205741626676172,237.42749485373497 24.16172248800285,237.6069851195498 25.272727272706106,237.8762203125516 27.003827751264907,238.08562529203482 29.122488038265146,237.9659653220442 31.163636363577098,238.35486004629638 32.79138755972963,238.11554027689272 35.34928229660727,238.35486004629638 36.3311004784191,238.5642646845372 36.951196172158234,238.89332881447626 41.08516746410169,238.8334990000585 42.22200956940651,238.98307351322728 43.333014354109764,238.9531586166704 44.26315789471846,238.8334990000585 44.909090909175575,238.89332881447626 46.33014354063198,239.10273306880845 47.72535885160323,238.7138393347268 48.83636363630649,238.89332881447626 49.688995215226896,238.7437542557018 50.69665071775671,238.8334990000585 52.14354066981468,238.98307351322728 52.1952153109014,238.92324371705763 52.866985645960085,238.7437542557018 54.62392344500404,239.1326479500567 55.83827751188073,239.01298840667005 56.82009569380898,239.01298840667005 57.67272727272939,239.10273306880845 58.16363636369351,239.49162628795602 58.189473684178665,239.76085975338356 58.680382775026374,239.70103011571337 59.765550239244476,239.58137080387678 60.51483253587503,240.17966687574517 66.81913875602186,240.26941118150717 66.58660287084058,236.8890233981947 66.09569377999287,237.30783461558167 65.39808612433262,236.4103812756657 64.59712918661535,235.93173837309587 63.89952153118793,236.02148397671408 63.02105263166595,236.76936294077314 61.13492822961416,237.39757979879505 60.049760765512474,237.27791954844724 58.80956937803421,236.67961756556178 57.64688995224424,235.8719079553848 56.79425837320741,235.7821623060736 55.68325358862057,236.20097510173218 54.778947368380614,236.50012673303718 53.512918660300784,237.06851399308653 52.60861244017724,237.038598901534 52.58277511957567,237.12834416693659 51.26507177029271,237.3377496796893 51.084210526314564,237.06851399308653 50.30909090908244,236.58987216305104 49.94736842100974,235.93173837309587 48.6813397128135,236.1112295529456 47.88038277509622,235.81207752556656 46.33014354063198,235.8719079553848 45.0899521530373,236.38046611714526 43.79808612447232,236.38046611714526 43.04880382772535,236.08131436395342 42.377033492783085,236.20097510173218 40.904306220123544,236.44029643115937 39.79330143542029,236.02148397671408 39.14736842107959,235.72233185797813 39.14736842107959,235.45309469042695 39.379904306144454,234.76504303017282 39.2765550238546,234.9744502278627 39.12153110047802,235.3334336479311 38.992344497470185,235.2137725566572 39.19904306216631,235.57275568431942 39.22488038276788,235.69241662925924 39.40574162674602,236.14114473894006 38.940669856383465,235.8719079553848 38.65645933011547,235.2736031083914 38.39808612444904,234.31631281797308 37.726315789390355,233.4487657972495 37.15789473685436,232.4316384404665 36.53779904299881,231.41450756113045 35.40095693769399,229.76914132758975 32.30047846888192,230.1879626979353 32.48133971286006,231.7136640677345 32.403827751171775,233.0000335740333 31.938755980925635,234.07698975788662 31.938755980925635,234.64538170723245 32.06794258370064,235.0342808282876 31.42200956947636,235.7821623060736 30.000956937787123,235.69241662925924 28.424880382721312,235.81207752556656 27.029665071633644,235.7821623060736 26.306220095604658,236.26080545244622 25.531100478372537,236.23089027858805 25.19521531101782,236.38046611714526 24.316746411379427,236.05139917181805 22.61148325353861,235.3334336479311 21.13875598087907,235.36334891308798 18.968421052675694,235.45309469042695 17.46985645929817,235.0641961239744 17.185645933030173,234.7351277039852" stroke="#4dd2ff" stroke-linecap="round" stroke-linejoin="round" stroke-width="0.5"><title>2024-08-24 10.0km</title><desc>12225850149</desc></polyline><polyline fill="none" points="140.4208273893455,249.58790368560585 141.1141226819018,247.9528064475162 141.65335235360544,246.05013631415204 141.91012838797178,245.60419620771427 142.0128388014855,244.97987891422235 142.60342368041165,243.7906994234072 143.01426533516496,242.5123260676628 143.9129814550979,240.2528617932112 144.42653352336492,239.89610267753596 144.42653352336492,239.95556256044074 144.4778887303546,239.92583262053085 144.5549215406645,238.9744729437225 145.09415121236816,238.52852202780196 147.1740370898042,238.85555276609375 151.59058487880975,239.09339307286427 154.72325249644928,239.182583137881 156.31526390858926,239.21231315357727 156.88017118396237,239.3312331858906 157.23965763195883,239.5690731050272 160.19258202554192,239.71772295612027 161.86162624810822,239.71772295612027 163.29957203997765,239.74745291727595 163.96718972886447,239.50961314339656 165.86733238236047,239.6879929919669 166.6119828815572,239.74745291727595 167.61340941512026,239.36096318633645 168.56348074181005,239.45015316971694 169.66761768900324,239.36096318633645 170.9258202566998,239.5690731050272 172.31241084157955,239.45015316971694 172.46647646208294,239.21231315357727 172.92867332370952,239.27177317577298 173.18544935795944,239.36096318633645 174.54636233951896,239.71772295612027 176.03566333802883,239.65826302481582 176.52353780309204,239.80691283056512 177.78174037090503,239.77718287534663 178.16690442233812,240.37178140162723 180.0156918686116,240.2825916998263 180.52924393722787,240.6690802105004 183.86733238236047,241.0258383815817 185.87018544937018,240.9366488797241 186.94864479312673,240.81772950146114 186.7689015691867,239.50961314339656 186.3067047074437,237.66634832520504 185.99857346643694,237.96364988959976 185.6390870186733,237.36904645786854 184.38088445086032,236.59606018592604 182.42938659060746,237.60688797596958 180.7089871611679,237.99338002939476 179.5278174036648,237.78526898723794 178.60342368041165,237.27985583868576 177.0370898715919,236.41767844784772 175.90727532084566,236.7744418149814 174.726105563459,237.27985583868576 173.6219686162658,237.7258086623042 172.64621968613937,237.93391974680708 171.51640513550956,237.81499914522283 170.74607703275979,237.33931625453988 170.2838801711332,237.04201405425556 169.8730385163799,236.5365996186738 169.02567760343663,236.80417207590654 167.81883024249692,236.3879481476033 166.63766048499383,236.3879481476033 165.40513552061748,236.80417207590654 164.68616262474097,236.62579046507017 163.63338088442106,236.9230930893391 162.50356633379124,236.89336284046294 161.06562054203823,237.10147451848025 159.75606276735198,236.62579046507017 158.85734664753545,236.20956628231215 158.47218259621877,235.43657693977002 157.8559201140888,234.54466361613595 157.3680456490256,233.7716698644508 156.88017118396237,232.49325262877392 155.44222539220937,230.50128903219593 152.46362339518964,230.7985978947254 152.258202567813,231.21482979363645 152.61768901557662,232.6716367652698 152.74607703275979,233.5040946273366 152.41226818819996,235.49603773103445 152.07845934375655,236.23929660080466 151.51355206849985,236.59606018592604 150.17831669037696,236.3879481476033 148.09843081294093,236.23929660080466 146.96861626242753,236.3582178442448 146.45506419392768,236.89336284046294 145.8388017116813,236.80417207590654 145.5049928673543,236.95282333504292 144.5549215406645,236.8636325886473 144.3238231097348,236.89336284046294 143.78459343791474,236.8636325886473 142.98858773184475,236.09064497821964 142.2439372325316,235.97172362564015 140.11269614845514,235.8825325795042 138.36661911546253,235.70415040533408 137.28815977170598,235.34738573001232 135.33666191145312,235.19873365320382 134.9258202566998,235.49603773103445 134.00142653344665,238.02311016622116 133.2567760341335,240.34205150409252 133.69329529232346,240.69881007485674 135.77318116975948,240.34205150409252 135.8758915833896,240.163672055176 136.5948644792661,239.80691283056512 137.9557774607092,239.50961314339656 138.10984308132902,239.42042317832238 139.23965763184242,239.3312331858906 142.26961483585183,238.91501286090352 142.65477888728492,238.64744233866804 143.32239657617174,238.37987157108728 144.19543509266805,238.11230055824853 145.32524964329787,238.4096016685071 147.19971469335724,238.73663254000712 151.46219686162658,239.00420298051904 152.8231098430697,238.82582271416322 153.85021398006938,238.91501286090352 155.21112696139608,238.9744729437225 156.443651925656,239.15285311930347 156.95720399415586,239.24204316624673 158.62624821672216,239.59880308134598 160.03851640503854,239.6879929919669 161.24536376609467,239.45015316971694 163.24821683298796,239.65826302481582 164.40370898705442,239.50961314339656 165.04564907273743,239.50961314339656 166.12410841649398,239.65826302481582 167.25392296724021,239.59880308134598 167.99857346643694,239.36096318633645 169.28245363757014,239.27177317577298 170.3609129813267,239.4798831580556 171.41369472176302,239.39069318387192 172.33808844501618,239.12312309758272 172.56918687582947,238.9744729437225 172.6718972894596,238.85555276609375 173.44222539220937,239.42042317832238 175.0599144079024,239.6879929919669 176.4978601996554,239.77718287534663 177.83309557766188,239.80691283056512 178.19258202554192,240.37178140162723 178.75748930091504,240.40151129616424 179.9129814550979,240.31232160356012 180.58059914410114,240.81772950146114 185.71611982875038,240.96637871675193 186.94864479312673,240.60962047302746 186.6148359485669,237.63661815211526 186.43509272462688,237.5771577967389 185.9728958630003,237.93391974680708 185.22824536368717,236.8636325886473 184.27817403699737,236.5365996186738 183.07132667629048,237.16093497065594 181.5820256775478,237.8744594520831 180.24679029954132,237.93391974680708 178.62910128384829,237.16093497065594 177.19115549209528,236.3879481476033 175.83024251065217,236.80417207590654 175.08559201145545,236.98255357774906 173.41654778888915,237.75553882628446 172.59486447938252,237.75553882628446 171.3880171183264,237.90418960092939 171.0798858772032,237.99338002939476 171.02853067044634,237.6960784952098 170.72039942932315,237.27985583868576 170.30955777456984,237.04201405425556 170.18116975750308,236.62579046507017 169.59058487869333,236.44740874509444 168.74322396563366,236.71498128405074 166.94579172611702,236.32848753794678 165.86733238236047,236.80417207590654 164.81455064192414,236.59606018592604 163.9928673323011,236.95282333504292 163.22253922966775,236.74471155108768 162.58059914398473,236.95282333504292 160.8858773179818,237.10147451848025 159.85877318121493,236.6555207411002 159.34522111259867,236.44740874509444 159.42225392302498,236.09064497821964 159.21683309564833,236.32848753794678 158.90870185440872,236.44740874509444 158.83166904421523,235.97172362564015 158.60057061340194,235.13927280137432 157.3680456490256,233.3851722208783 156.46932952920906,231.54186872631544 155.51925820251927,230.41209631439415 152.97717546357308,230.59048172272742 152.4379457916366,230.8580596310203 152.41226818819996,231.482407129457 152.64336661901325,232.0770225530141 152.66904422244988,233.8014004311699 152.07845934375655,235.0798119373503 152.23252496425994,235.64468965644483 151.51355206849985,236.50686933047837 150.2296718971338,236.41767844784772 147.86733238224406,236.26902691618307 146.6861626248574,236.74471155108768 146.12125534948427,236.9230930893391 145.63338088442106,236.9230930893391 144.91440798854455,236.80417207590654 143.8359486446716,236.89336284046294 142.65477888728492,235.94199327999377 140.36947218258865,235.8825325795042 139.2139800285222,236.06091464462224 137.2368045648327,235.37711613625288 135.0798858772032,235.2879249083635 134.64336661901325,236.5365996186738 133.2567760341335,240.01502243129653 133.12838801706675,240.9366488797241 133.0,241.70962365737068" stroke="#4dd2ff" stroke-linecap="round" stroke-linejoin="round" stroke-width="0.5"><title>2024-08-11 10.2km</title><desc>12116913505</desc></polyline></svg>