<?xml version="1.0" encoding="utf-8" ?>
<svg baseProfile="full" height="200mm" version="1.1" viewBox="0,0,200,200" width="200mm" xmlns="http://www.w3.org/2000/svg" xmlns:ev="http://www.w3.org/2001/xml-events" xmlns:xlink="http://www.w3.org/1999/xlink"><defs /><rect fill="#1a1a1a" height="200" width="200" x="0" y="0" /><text alignment-baseline="middle" fill="#e1ed5e" style="dominant-baseline: central; font-size:9.0px; font-family:Arial;" text-anchor="middle" x="100.0" y="100.0">2024</text><line stroke="#e1ed5e" stroke-width="0.3" x1="100.0" x2="100.0" y1="15.0" y2="10.0" /><path d="M 100.0 14.0 a86.0,86.0 0 0,1 42.35913384403234,11.155469271406648" fill="none" id="id1" stroke="none" /><text fill="#e1ed5e" style="font-size:6.75px; font-family:Arial;" text-anchor="middle"><textPath startOffset="22.145653131862478" xlink:href="#id1">January</textPath></text><line stroke="#e1ed5e" stroke-width="0.3" x1="143.13028292997686" x2="145.6673583964461" y1="26.7553504044142" y2="22.446841604673864" /><path d="M 143.63769802327073 25.89364864446614 a86.0,86.0 0 0,1 29.32050498858742,28.57503671076993" fill="none" id="id2" stroke="none" /><text fill="#e1ed5e" style="font-size:6.75px; font-family:Arial;" text-anchor="middle"><textPath startOffset="20.669276256404974" xlink:href="#id2">February</textPath></text><line stroke="#e1ed5e" stroke-width="0.3" x1="172.87174338648825" x2="177.1583165268699" y1="56.24261187166439" y2="53.66864786411523" /><path d="M 173.72905801456457 55.72781907015455 a86.0,86.0 0 0,1 12.242430191666344,42.057860355516425" fill="none" id="id3" stroke="none" /><text fill="#e1ed5e" style="font-size:6.75px; font-family:Arial;" text-anchor="middle"><textPath startOffset="22.145653131862474" xlink:href="#id3">March</textPath></text><line stroke="#e1ed5e" stroke-width="0.3" x1="184.99686870605535" x2="189.99668451229388" y1="99.2704041080226" y2="99.22748670261217" /><path d="M 185.99683186730306 99.26182062694052 a86.0,86.0 0 0,1 -10.086455211305974,41.156179273409016" fill="none" id="id4" stroke="none" /><text fill="#e1ed5e" style="font-size:6.75px; font-family:Arial;" text-anchor="middle"><textPath startOffset="21.40746469413373" xlink:href="#id4">April</textPath></text><line stroke="#e1ed5e" stroke-width="0.3" x1="174.33088141563837" x2="178.70328620479359" y1="141.23008692659167" y2="143.65538615756765" /><path d="M 175.20536237346943 141.71514677278685 a86.0,86.0 0 0,1 -30.301960400862466,31.631185727798858" fill="none" id="id5" stroke="none" /><text fill="#e1ed5e" style="font-size:6.75px; font-family:Arial;" text-anchor="middle"><textPath startOffset="22.145653131862474" xlink:href="#id5">May</textPath></text><line stroke="#e1ed5e" stroke-width="0.3" x1="143.1302829299769" x2="145.66735839644613" y1="173.24464959558577" y2="177.55315839532614" /><path d="M 143.63769802327073 174.10635135553383 a86.0,86.0 0 0,1 -40.68552437913181,11.842963189579606" fill="none" id="id6" stroke="none" /><text fill="#e1ed5e" style="font-size:6.75px; font-family:Arial;" text-anchor="middle"><textPath startOffset="21.407464694133747" xlink:href="#id6">June</textPath></text><line stroke="#e1ed5e" stroke-width="0.3" x1="101.45913802915013" x2="101.54496967792366" y1="184.9874750549273" y2="189.98673829345242" /><path d="M 101.47630435890484 185.9873277026323 a86.0,86.0 0 0,1 -42.54439059252881,-10.42667462771756" fill="none" id="id7" stroke="none" /><text fill="#e1ed5e" style="font-size:6.75px; font-family:Arial;" text-anchor="middle"><textPath startOffset="22.145653131862474" xlink:href="#id7">July</textPath></text><path d="M 97.84075906011543 120.88869738790638 l -1.5301611893317757 14.802921456453618 a35.88179683073493,35.88179683073493 0 0,0 -0.6121504566907879,-0.06859273549586843 l 1.7840475476233628 -14.77447296045078" fill="#ff0500" stroke="none" /><path d="M 95.35216902796893 120.47920084513623 l -3.255681867254418 14.345135020741802 a35.70994096467019,35.70994096467019 0 0,0 -0.5966414322071228,-0.14080575343048796 l 3.501455453201429 -14.287133123665088" fill="#ff0100" stroke="none" /><path d="M 94.6519064749342 120.30758222061772 l -3.7495694546956297 14.237725955290076 a35.72318279019612,35.72318279019612 0 0,0 -0.5916755901066583,-0.1612638131480475 l 3.993426445736983 -14.171261647997884" fill="#ff0200" stroke="none" /><path d="M 93.27111125876986 119.89276391827306 l -4.739418803143949 14.011249551962598 a35.79111911245956,35.79111911245956 0 0,0 -0.5803175938019801,-0.20186458322876144 l 4.979242168990951 -13.927826536165247" fill="#ff0300" stroke="none" /><path d="M 91.92203290615298 119.3841803445677 l -5.650317477990586 13.558705021323853 a35.68892676329209,35.68892676329209 0 0,0 -0.5634855390247109,-0.2405184696883233 l 5.882238092185728 -13.459711901976126" fill="#ff0100" stroke="none" /><path d="M 91.59046798132341 119.24265499422711 l -5.907829580152199 13.518270234667416 a35.75283296474329,35.75283296474329 0 0,0 -0.5602751494589641,-0.2506039479407954 l 6.1390181324667985 -13.414862535816765" fill="#ff0200" stroke="none" /><path d="M 89.97174638481275 118.45085714620012 l -7.001430370232627 12.881843293690679 a35.661579514923325,35.661579514923325 0 0,0 -0.5353581048387073,-0.29695411622969525 l 7.221532663227437 -12.759756262027834" fill="#ff0000" stroke="none" /><line stroke="#e1ed5e" stroke-width="0.3" x1="58.13341422392154" x2="55.67067388415222" y1="173.97424548756322" y2="178.32567169271397" /><path d="M 57.64086615596768 174.84453072859336 a86.0,86.0 0 0,1 -31.369924170532247,-30.572349798747897" fill="none" id="id8" stroke="none" /><text fill="#e1ed5e" style="font-size:6.75px; font-family:Arial;" text-anchor="middle"><textPath startOffset="22.145653131862474" xlink:href="#id8">August</textPath></text><path d="M 88.72937992617639 117.7192867562869 l -7.874221299817698 12.379583756707833 a35.67165481695392,35.67165481695392 0 0,0 -0.5138661001570005,-0.33308179776767877 l 8.085573032231709 -12.24258811723626" fill="#ff0100" stroke="none" /><path d="M 87.54013794807813 116.9041958592261 l -8.721994528861181 11.83306068595088 a35.700153528411896,35.700153528411896 0 0,0 -0.49019202692115854,-0.3678492355857989 l 8.923839544693106 -11.681592423101065" fill="#ff0100" stroke="none" /><path d="M 86.68645165197938 116.24036423190432 l -18.696832578519036 22.807095683340354 a50.49127264087145,50.49127264087145 0 0,0 -0.6655847698963167,-0.5552544873901519 l 19.085591682577245 -22.482779012038332" fill="#ffff18" stroke="none" /><path d="M 85.60350026404147 115.28858382429668 l -10.070353275632307 10.694366201405996 a35.68950249483669,35.68950249483669 0 0,0 -0.4424266411992616,-0.42383471417337715 l 10.252452402696884 -10.519919356927037" fill="#ff0100" stroke="none" /><path d="M 85.08716467003676 114.78537596483092 l -10.483044823293987 10.393446687978559 a35.762044669456984,35.762044669456984 0 0,0 -0.4284858312699864,-0.4396642104244633 l 10.659917455714783 -10.211959785486359" fill="#ff0200" stroke="none" /><path d="M 84.1078160697243 113.72728997021213 l -11.119634424447526 9.60487537627535 a35.693532615648934,35.693532615648934 0 0,0 -0.39654739080319534,-0.4671318292619319 l 11.282876378757834 -9.412576764563864" fill="#ff0100" stroke="none" /><path d="M 83.4222238831116 112.89097897827486 l -22.79076834397934 17.722239313008295 a49.87034617001444,49.87034617001444 0 0,0 -0.5197155546649744,-0.6803243441498762 l 23.091635875998612 -17.328394055617547" fill="#fff517" stroke="none" /><path d="M 82.576782715395 111.72311816256416 l -12.142641465007438 8.170111086527761 a35.63538372964378,35.63538372964378 0 0,0 -0.3371371360362945,-0.5104685937612231 l 12.28110303996446 -7.960462614427477" fill="#ff0000" stroke="none" /><path d="M 81.99639281039703 110.81064883170644 l -25.178659823698943 15.119061782474258 a50.36921755341509,50.36921755341509 0 0,0 -0.438754956700604,-0.7451018374731413 l 25.43448849052932 -14.684608776707558" fill="#fffd17" stroke="none" /><line stroke="#e1ed5e" stroke-width="0.3" x1="26.387840678322732" x2="22.057713659400548" y1="142.50000000000003" y2="145.00000000000006" /><path d="M 25.521815274538298 143.00000000000003 a86.0,86.0 0 0,1 -11.493303480769221,-40.785679425670985" fill="none" id="id9" stroke="none" /><text fill="#e1ed5e" style="font-size:6.75px; font-family:Arial;" text-anchor="middle"><textPath startOffset="21.40746469413373" xlink:href="#id9">September</textPath></text><path d="M 81.4637452351635 109.86951160357371 l -12.947563620122393 6.8938483532940396 a35.668488293458594,35.668488293458594 0 0,0 -0.2831261519229062,-0.5429317278946237 l 13.06399784102025 -6.670570382294914" fill="#ff0100" stroke="none" /><path d="M 81.1358732173502 109.22738970284198 l -13.17865074138182 6.446338468220143 a35.67079121963701,35.67079121963701 0 0,0 -0.2643388094646175,-0.5523664450510377 l 13.287368808806349 -6.219159521103999" fill="#ff0100" stroke="none" /><path d="M 80.83023694016515 108.57439118712176 l -26.765947659815637 11.97206793912574 a50.321431835212834,50.321431835212834 0 0,0 -0.3459385602570209,-0.7915751256361853 l 26.967520102089626 -11.510830743713706" fill="#fffc17" stroke="none" /><path d="M 80.41425534168474 107.57618678355246 l -13.692444815319188 5.296531801781691 a35.68115438743991,35.68115438743991 0 0,0 -0.21607371448391768,-0.5731611987701589 l 13.781349213617542 -5.060702322817387" fill="#ff0100" stroke="none" /><path d="M 79.83685265289637 105.86919833188381 l -28.19525739804145 8.207228506485647 a50.36547529837516,50.36547529837516 0 0,0 -0.2345148629550412,-0.8322105160664565 l 28.331990753071064 -7.722010066516195" fill="#fffd17" stroke="none" /><path d="M 79.64726062577567 105.17358676015961 l -42.719437605978875 10.85911398637854 a65.07800705499608,65.07800705499608 0 0,0 -0.265928797846634,-1.0850802436390419 l 42.8995539303418 -10.1241779181314" fill="#33ff2f" stroke="none" /><path d="M 79.2786578344484 103.40968896794605 l -61.77516757704741 10.165080316594914 a83.60591175771754,83.60591175771754 0 0,0 -0.22087291584465923,-1.418162563261682 l 61.940561985030335 -9.10312957140178" fill="#4cd7ff" stroke="none" /><path d="M 79.17382384314188 102.69636545807758 l -14.548785334003856 1.8836315383165303 a35.67021548809241,35.67021548809241 0 0,0 -0.07340915695541288,-0.6079331270806271 l 14.578976577218931 -1.6336047343125037" fill="#ff0100" stroke="none" /><path d="M 79.0935383218832 101.97986365728391 l -14.570481302050895 1.3798397281765122 a35.63567159541608,35.63567159541608 0 0,0 -0.05244616722606336,-0.6095039618907818 l 14.5920210919747 -1.1295147189100685" fill="#ff0000" stroke="none" /><path d="M 79.03789590574601 101.26102812881392 l -62.2282892574868 3.743499355256518 a83.34078738142672,83.34078738142672 0 0,0 -0.07365107367795262,-1.4288111533098213 l 62.28338192062133 -2.6747164085699655" fill="#4cdaff" stroke="none" /><line stroke="#e1ed5e" stroke-width="0.3" x1="15.003131293944662" x2="10.003315487706104" y1="100.72959589197737" y2="100.7725132973878" /><path d="M 14.003168132696942 100.73817937305945 a86.0,86.0 0 0,1 10.791469493833604,-42.45332614584628" fill="none" id="id10" stroke="none" /><text fill="#e1ed5e" style="font-size:6.75px; font-family:Arial;" text-anchor="middle"><textPath startOffset="22.145653131862435" xlink:href="#id10">October</textPath></text><path d="M 79.22317932658666 96.9465228501225 l -14.521426658316937 -2.134149645981808 a35.67741213239998,35.67741213239998 0 0,0 0.09425378997493437,-0.6051769447458638 l 14.482651376203735 2.383114772659122" fill="#ff0100" stroke="none" /><path d="M 79.407916724674 95.88100663000787 l -61.776249825978006 -12.356980109976396 a84.0,84.0 0 0,0 0.29496915670253276,-1.4115341948583637 l 61.55502295845111 13.41563075612017" fill="#4dd2ff" stroke="none" /><line stroke="#e1ed5e" stroke-width="0.3" x1="26.387840678322718" x2="22.05771365940052" y1="57.49999999999999" y2="54.99999999999999" /><path d="M 25.521815274538284 56.99999999999999 a86.0,86.0 0 0,1 29.574782752854787,-30.34633250058573" fill="none" id="id11" stroke="none" /><text fill="#e1ed5e" style="font-size:6.75px; font-family:Arial;" text-anchor="middle"><textPath startOffset="21.40746469413373" xlink:href="#id11">November</textPath></text><line stroke="#e1ed5e" stroke-width="0.3" x1="56.869717070023135" x2="54.33264160355391" y1="26.7553504044142" y2="22.446841604673864" /><path d="M 56.362301976729285 25.89364864446614 a86.0,86.0 0 0,1 42.16139366436587,-11.88097634709845" fill="none" id="id12" stroke="none" /><text fill="#e1ed5e" style="font-size:6.75px; font-family:Arial;" text-anchor="middle"><textPath startOffset="22.145653131862474" xlink:href="#id12">December</textPath></text></svg>