<?xml version="1.0" encoding="utf-8" ?>
<svg baseProfile="full" height="200mm" version="1.1" viewBox="0,0,200,200" width="200mm" xmlns="http://www.w3.org/2000/svg" xmlns:ev="http://www.w3.org/2001/xml-events" xmlns:xlink="http://www.w3.org/1999/xlink"><defs /><rect fill="#1a1a1a" height="200" width="200" x="0" y="0" /><text alignment-baseline="middle" fill="#e1ed5e" style="dominant-baseline: central; font-size:9.0px; font-family:Arial;" text-anchor="middle" x="100.0" y="100.0">2025</text><line stroke="#e1ed5e" stroke-width="0.3" x1="100.0" x2="100.0" y1="15.0" y2="10.0" /><path d="M 100.0 14.0 a86.0,86.0 0 0,1 42.46469731375804,11.215312516191453" fill="none" id="id13" stroke="none" /><text fill="#e1ed5e" style="font-size:6.75px; font-family:Arial;" text-anchor="middle"><textPath startOffset="22.20632615414155" xlink:href="#id13">January</textPath></text><path d="M 101.44485096284872 79.0497635885617 l 1.4454239132690199 -20.95854415186691 a42.00832747399956,42.00832747399956 0 0,0 0.7209625404813782,0.055960568904107624 l -1.8059766431127393 20.930558320774338" fill="#fffc17" stroke="none" /><path d="M 103.95276090670814 79.375362276772 l 3.953775141023109 -20.629929774987946 a42.00538836552913,42.00538836552913 0 0,0 0.7089581247677299,0.14221033029664673 l -4.308299675257964 20.55881548861409" fill="#fffc17" stroke="none" /><path d="M 106.40334571778207 80.00007090966166 l 11.521886985050484 -35.98695632628102 a58.78643811377216,58.78643811377216 0 0,0 0.9610663820781448,0.3168484759125124 l -12.139636189371046 35.78329412610927" fill="#43ff2d" stroke="none" /><path d="M 108.43124777332544 80.76684994638697 l 18.544806093022398 -42.30394455144545 a67.1901889760106,67.1901889760106 0 0,0 1.0552631327564055,0.4734658074858026 l -19.270251344245583 41.978458413443114" fill="#38ff7d" stroke="none" /><line stroke="#e1ed5e" stroke-width="0.3" x1="143.23703022742887" x2="145.7803849466894" y1="26.81831364943548" y2="22.513508569990506" /><path d="M 143.74570117128098 25.957352633546492 a86.0,86.0 0 0,1 28.547481713284135,27.462654790039103" fill="none" id="id14" stroke="none" /><text fill="#e1ed5e" style="font-size:6.75px; font-family:Arial;" text-anchor="middle"><textPath startOffset="19.985693538727396" xlink:href="#id14">February</textPath></text><path d="M 114.94478906791727 85.2469230424477 l 22.428762301198073 -22.141045603819745 a52.516270064747026,52.516270064747026 0 0,0 0.6295343767769269,0.6487905129026236 l -22.80656094167811 21.751690895367005" fill="#86ff25" stroke="none" /><path d="M 115.4437574822437 85.77008943001954 l 7.7291093742506485 -7.121617605536608 a31.50983201762132,31.50983201762132 0 0,0 0.36409814867601265,0.40204626965363593 l -7.850551163542697 6.987518548613424" fill="#ff720a" stroke="none" /><path d="M 115.9244219780498 86.31012108654704 l 8.209893323991793 -7.057866568264457 a31.826625923469884,31.826625923469884 0 0,0 0.3535625731648238,0.41850656725088 l -8.330166510643734 6.91550105138447" fill="#ff760a" stroke="none" /><path d="M 116.38621287248628 86.86637796730983 l 16.452502306115413 -13.18675330669601 a42.08495423055007,42.08495423055007 0 0,0 0.44819658485963393,0.5691641476959274 l -16.67705297156901 12.901596765047044" fill="#fffd18" stroke="none" /><path d="M 117.04232023915458 87.72973835380427 l 8.53254661636643 -6.143328961196185 a31.51403074400765,31.51403074400765 0 0,0 0.313170500732707,0.4429574639695334 l -8.63702973690302 5.995544996894858" fill="#ff720a" stroke="none" /><path d="M 117.2510076193507 88.02491185347247 l 8.632545835038892 -5.992432418125658 a31.508572399705425,31.508572399705425 0 0,0 0.305446402965973,0.4482049062460723 l -8.734416703673599 5.842949488609179" fill="#ff720a" stroke="none" /><path d="M 117.65298651832404 88.62581576622439 l 8.826287370105652 -5.686959458311511 a31.49975507429413,31.49975507429413 0 0,0 0.289756352636431,0.4583249647322353 l -8.922871318988038 5.5341868458650705" fill="#ff710a" stroke="none" /><line stroke="#e1ed5e" stroke-width="0.3" x1="172.23445277983987" x2="176.4835382374775" y1="55.19839476539836" y2="52.563006222186495" /><path d="M 173.08426987136738 54.67131705675599 a86.0,86.0 0 0,1 12.851231095245387,41.99856678651699" fill="none" id="id15" stroke="none" /><text fill="#e1ed5e" style="font-size:6.75px; font-family:Arial;" text-anchor="middle"><textPath startOffset="22.20632615414155" xlink:href="#id15">March</textPath></text><path d="M 118.03404312379186 89.2402003453031 l 38.067695535769815 -22.712642665277134 a65.32847369631213,65.32847369631213 0 0,0 0.5678609930895941,0.970658512035543 l -38.45301620332974 22.054004740887695" fill="#35ff67" stroke="none" /><path d="M 118.3937258080291 89.86733742301442 l 10.13334063829506 -5.582214421217448 a32.56917068489225,32.56917068489225 0 0,0 0.26627918198892403,0.4933748834264397 l -10.227927919502449 5.40695855445855" fill="#ff800b" stroke="none" /><path d="M 118.89224826269711 90.83032412892265 l 10.42347003027335 -5.059209486370051 a32.5863854630762,32.5863854630762 0 0,0 0.24058343135067017,0.5067300628489703 l -10.509011655465777 4.879037007880541" fill="#ff800b" stroke="none" /><path d="M 119.04729006885535 91.15688171328212 l 40.19206639226479 -18.660040142696012 a65.31251853604405,65.31251853604405 0 0,0 0.4646447115511159,1.0237830309124056 l -40.507313420779255 17.965435102941544" fill="#35ff67" stroke="none" /><path d="M 119.47837535516314 92.15188598940014 l 10.723099067197518 -4.320488875065024 a32.560773232119594,32.560773232119594 0 0,0 0.20498782105359442,0.5216716454909212 l -10.795880438132814 4.135268224678319" fill="#ff800b" stroke="none" /><path d="M 120.08093135843002 93.85539295169968 l 42.42275833787925 -12.981030373466393 a65.36437280691524,65.36437280691524 0 0,0 0.31995581254967115,1.0787319413629077 l -42.63992004754062 12.248869045356955" fill="#35ff67" stroke="none" /><path d="M 120.28053869075195 94.5502522615342 l 11.179906212023704 -3.004243108345997 a32.57651845606833,32.57651845606833 0 0,0 0.1408603509859899,0.5427923929024835 l -11.229962894879996 2.811354289894663" fill="#ff800b" stroke="none" /><path d="M 120.45610955862082 95.25157060432595 l 10.968307308549353 -2.5460478052022 a32.25993448653908,32.25993448653908 0 0,0 0.1209065675731984,0.5420004350351888 l -11.010508263124589 2.3568692006170475" fill="#ff7c0b" stroke="none" /><path d="M 120.6074358757038 95.95851677861258 l 42.1040876464344 -8.25735743162073 a63.90615513294301,63.90615513294301 0 0,0 0.2024129355415207,1.0812979954196678 l -42.23998630588578 7.531381358738499" fill="#33ff56" stroke="none" /><path d="M 120.91429891909075 98.10471618934814 l 11.717237171628117 -1.0618328638634793 a32.765251207133836,32.765251207133836 0 0,0 0.04606718831783568,0.5621363813867465 l -11.733778843765448 0.8599825652689641" fill="#ff830c" stroke="none" /><path d="M 120.96714384426684 98.82574320788733 l 44.86425618845317 -2.512605338317412 a65.93455985017879,65.93455985017879 0 0,0 0.05370963865472059,1.1337255834095548 l -44.90085943534138 1.7399686482848575" fill="#36ff6e" stroke="none" /><line stroke="#e1ed5e" stroke-width="0.3" x1="184.98032266829074" x2="189.97916517819016" y1="98.17113171792111" y2="98.06355123074" /><path d="M 185.9800911702706 98.14961562048488 a86.0,86.0 0 0,1 -9.607161424134198,41.387399972396054" fill="none" id="id16" stroke="none" /><text fill="#e1ed5e" style="font-size:6.75px; font-family:Arial;" text-anchor="middle"><textPath startOffset="21.466115282336823" xlink:href="#id16">April</textPath></text><path d="M 120.99824983174949 100.27111621757518 l 11.712210807181464 0.1512207121512129 a32.713186999943346,32.713186999943346 0 0,0 -0.012116243707580398,0.5629942352258069 l -11.707872500788877 -0.35280476316713466" fill="#ff820c" stroke="none" /><path d="M 120.89721153311464 102.0752229133903 l 11.658779316008102 1.157789207445267 a32.71612610841378,32.71612610841378 0 0,0 -0.060474510444284334,0.5599188598592818 l -11.637122504062765 -1.3583043891893403" fill="#ff820c" stroke="none" /><path d="M 120.81339534386255 102.79330883721812 l 11.653839600131931 1.5640299242271438 a32.75832330859639,32.75832330859639 0 0,0 -0.07981479519949151,0.5582244917290913 l -11.625190753915838 -1.7643998879366445" fill="#ff830c" stroke="none" /><path d="M 120.64145759157962 103.86396538481128 l 43.5685385251142 8.155786672571649 a65.32532465152238,65.32532465152238 0 0,0 -0.216413676875853,1.1034886759503595 l -43.421694915262684 -8.904539075589954" fill="#35ff67" stroke="none" /><path d="M 120.13307415673323 105.97154293290107 l 21.09930284738131 6.258129872594842 a43.00783429026529,43.00783429026529 0 0,0 -0.21662273525727516,0.7079356325283549 l -20.9884533396179 -6.620392477675254" fill="#f5ff19" stroke="none" /><path d="M 120.02730092923936 106.31721596034902 l 20.860117269269477 6.579911402628846 a42.87326510958343,42.87326510958343 0 0,0 -0.22806075890358296,0.7018988431532569 l -20.743764259349646 -6.9380091457598985" fill="#f7ff19" stroke="none" /><path d="M 119.67450827220406 107.3425965602758 l 10.971112810016384 4.0944583756145665 a32.71024789147292,32.71024789147292 0 0,0 -0.2014105794419944,0.5258194672003383 l -10.899007950980884 -4.282701409648048" fill="#ff820c" stroke="none" /><path d="M 119.54520255179757 107.68017299344265 l 10.969740128791123 4.3104952050996905 a32.78624483906548,32.78624483906548 0 0,0 -0.21092076028927645,0.5234880295523309 l -10.893916754244454 -4.498682602494835" fill="#ff830c" stroke="none" /><path d="M 119.26925614724726 108.34839909993367 l 40.654277145995586 17.613452649160443 a65.30580057382595,65.30580057382595 0 0,0 -0.45576891870741654,1.0276385922046465 l -40.34506714255689 -18.310639577857778" fill="#35ff67" stroke="none" /><path d="M 118.97047184881838 109.00673069616215 l 10.601657336867596 5.033415790978636 a32.73586012242953,32.73586012242953 0 0,0 -0.2460594720115115,0.5069553927519054 l -10.51344460824137 -5.215160139695817" fill="#ff830c" stroke="none" /><path d="M 118.81262510543309 109.33194174019688 l 10.507990601342893 5.212454697242039 a32.729771969169356,32.729771969169356 0 0,0 -0.2547020415616067,0.5025512915899939 l -10.416709889995017 -5.392560200534728" fill="#ff820c" stroke="none" /><line stroke="#e1ed5e" stroke-width="0.3" x1="174.80103733775053" x2="179.2010983576182" y1="140.37084112569926" y2="142.7455964860345" /><path d="M 175.68104954172406 140.8457921977663 a86.0,86.0 0 0,1 -30.038265399797805,32.042727171017184" fill="none" id="id17" stroke="none" /><text fill="#e1ed5e" style="font-size:6.75px; font-family:Arial;" text-anchor="middle"><textPath startOffset="22.206326154141568" xlink:href="#id17">May</textPath></text><path d="M 118.30583269289576 110.29060199501025 l 18.902909880808966 10.626248223411494 a42.684952231156544,42.684952231156544 0 0,0 -0.36556206919545414,0.6373882809607869 l -18.717195815461135 -10.950056350230597" fill="#f9ff18" stroke="none" /><path d="M 117.35343817320211 111.8261652097733 l 18.09189219372185 12.329412990375861 a42.89362893255713,42.89362893255713 0 0,0 -0.4210501788895845,0.6065541860966907 l -17.87698110767013 -12.639008438659571" fill="#f7ff19" stroke="none" /><path d="M 116.498646956653 112.99209946851258 l 16.513766130213952 13.004005281595408 a42.01924416260401,42.01924416260401 0 0,0 -0.45237135495992403,0.5644028205881035 l -16.287476863199174 -13.286335935761763" fill="#fffd17" stroke="none" /><path d="M 116.0416608686014 113.55231037782055 l 8.888875494015197 7.509496715547993 a32.63635030707352,32.63635030707352 0 0,0 -0.36623811476828044,0.4260176675693119 l -8.758294869676138 -7.661391482278832" fill="#ff810b" stroke="none" /><path d="M 115.56566222782051 114.09645910891815 l 16.19038218234055 14.662213341826881 a42.842824343282544,42.842824343282544 0 0,0 -0.49973827211882776,0.5423671948775473 l -15.935597502226 -14.938731791505763" fill="#f7ff18" stroke="none" /><path d="M 115.07121518719521 114.62390073753431 l 15.07206896374359 14.624729173950398 a42.001189639142794,42.001189639142794 0 0,0 -0.50793313655622,0.514533585656681 l -14.818095202131834 -14.882003253587742" fill="#fffc17" stroke="none" /><path d="M 114.81725581225074 114.88116024355365 l 37.07930735932706 37.239224423588354 a73.55125945129979,73.55125945129979 0 0,0 -0.9048557800982674,0.8855918277226835 l -36.432801626853 -37.87196635423361" fill="#40ffc4" stroke="none" /><path d="M 113.75828350139079 115.86535959552629 l 7.661865308141283 8.83527718220527 a32.6947126038435,32.6947126038435 0 0,0 -0.4283544843194708,0.36505298448912904 l -7.508645347244765 -8.965854556917344" fill="#ff820c" stroke="none" /><path d="M 112.92097659922987 116.55440617244103 l 38.762929797689644 49.6632185173231 a84.0,84.0 0 0,0 -1.147485086026025,0.8798426326905142 l -37.90231598317012 -50.32310049184099" fill="#4dd2ff" stroke="none" /><path d="M 112.34349029814194 116.9893568818739 l 6.836836959141267 9.410098783771152 a32.63152177172924,32.63152177172924 0 0,0 -0.4572650051487649,0.3262464400347544 l -6.673844626143617 -9.526389485650126" fill="#ff810b" stroke="none" /><path d="M 111.45004920935366 117.60387380957326 l 6.367158501290921 9.78918542033096 a32.677707761978866,32.677707761978866 0 0,0 -0.4741662963079635,0.3026353647055769 l -6.197710402936027 -9.897335213860345" fill="#ff820b" stroke="none" /><line stroke="#e1ed5e" stroke-width="0.3" x1="143.8653032363475" x2="146.44561519142675" y1="172.8068346515853" y2="177.08958963109032" /><path d="M 144.38136562736335 173.6633856474863 a86.0,86.0 0 0,1 -40.68145358897372,12.25698825130547" fill="none" id="id18" stroke="none" /><text fill="#e1ed5e" style="font-size:6.75px; font-family:Arial;" text-anchor="middle"><textPath startOffset="21.466115282336833" xlink:href="#id18">June</textPath></text><path d="M 110.21172684928248 118.3499491758327 l 10.64096572174734 19.121269405043016 a42.88271224395267,42.88271224395267 0 0,0 -0.6480949824491222,0.35339305865294085 l -10.31024792742957 -19.301603115455727" fill="#f7ff19" stroke="none" /><path d="M 108.92500713936063 119.00905698771935 l 4.471857114922688 9.524450278993646 a31.52200832414168,31.52200832414168 0 0,0 -0.4931423129603026,0.22637744877702387 l -4.307246806194966 -9.600014798104743" fill="#ff720a" stroke="none" /><path d="M 108.59647513512805 119.15986991738527 l 4.306129603312273 9.597524770323908 a31.519279151990563,31.519279151990563 0 0,0 -0.4969229369959506,0.21783641236004458 l -4.140285991658568 -9.670225735978407" fill="#ff720a" stroke="none" /><path d="M 106.57524785965236 119.94407469862006 l 6.582785190874297 19.966936969385685 a42.02407269794829,42.02407269794829 0 0,0 -0.688951962964294,0.22058066215525643 l -6.238111882819062 -20.07729047820065" fill="#fffd17" stroke="none" /><path d="M 106.2309692047433 120.05430185196036 l 6.234125271800035 20.064459617043273 a42.01063677351203,42.01063677351203 0 0,0 -0.6924253679530191,0.20862208331233972 l -5.8878249294067695 -20.168797069461338" fill="#fffc17" stroke="none" /><path d="M 105.53697534728816 120.25689768951611 l 3.076794452472873 11.256382144800277 a32.66931030920621,32.66931030920621 0 0,0 -0.5437255323725926,0.14360285494406377 l -2.882578477288783 -11.307676349047926" fill="#ff820b" stroke="none" /><path d="M 104.83641907484287 120.43548508189849 l 2.6832535737148513 11.337642071139628 a32.650835913106356,32.650835913106356 0 0,0 -0.548036274516662,0.12473127182706861 l -2.487697149805327 -11.38215007654438" fill="#ff810b" stroke="none" /><path d="M 104.13013068566511 120.58985236759428 l 4.131479452563131 20.596576346427437 a42.006857919764336,42.006857919764336 0 0,0 -0.7101807129334011,0.13610782387802883 l -3.7763311250580247 -20.664641368653935" fill="#fffc17" stroke="none" /><path d="M 103.7750983002368 120.6578951692458 l 3.777840706471758 20.672902020990428 a42.015255372537,42.015255372537 0 0,0 -0.7125607816568348,0.12388782554621063 l -3.421430953342873 -20.734868425057645" fill="#fffc17" stroke="none" /><path d="M 102.70371172650421 120.8252237178851 l 2.8167106250843577 21.695592892134616 a42.87767377228907,42.87767377228907 0 0,0 -0.7327438704868392,0.0887250782505576 l -2.4428393315461383 -21.740863499110525" fill="#f7ff19" stroke="none" /><path d="M 101.98527174616119 120.90594882070398 l 1.105798433283868 11.644635298391124 a32.69702190335598,32.69702190335598 0 0,0 -0.5607627729249014,0.04838497161465272 l -0.9051913426174248 -11.66194452228444" fill="#ff820c" stroke="none" /><path d="M 101.62511606390274 120.93702456842531 l 1.6834021311149614 21.68794743992083 a42.7531815349344,42.7531815349344 0 0,0 -0.7342090169845693,0.0506353524747432 l -1.309830353351462 -21.713711136911858" fill="#f8ff18" stroke="none" /><path d="M 101.26447882468166 120.96189622390904 l 1.2854333124708395 21.30926922050506 a42.348004438653604,42.348004438653604 0 0,0 -0.7280064229158513,0.037629616479067055 l -0.9184388211415087 -21.328238643746328" fill="#fdff18" stroke="none" /><line stroke="#e1ed5e" stroke-width="0.3" x1="102.19456741930631" x2="102.32365962044197" y1="184.97166512339345" y2="189.96999836594603" /><path d="M 102.22038585953345 185.97133177190398 a86.0,86.0 0 0,1 -42.740103519485714,-10.115201625700543" fill="none" id="id19" stroke="none" /><text fill="#e1ed5e" style="font-size:6.75px; font-family:Arial;" text-anchor="middle"><textPath startOffset="22.20632615414155" xlink:href="#id19">July</textPath></text><path d="M 100.18074693466247 120.99922214144158 l 0.10021546621107764 11.643056856839747 a32.64348814193028,32.64348814193028 0 0,0 -0.5619248017470582,0.0 l 0.10021546621106962 -11.643056856839747" fill="#ff810b" stroke="none" /><path d="M 99.45781275523022 120.99299961872073 l -0.5648474125985474 21.87038081715053 a42.87767377228907,42.87767377228907 0 0,0 -0.7376586143553323,-0.025406454179465934 l 0.9412263786285228 -21.85741756454497" fill="#f7ff19" stroke="none" /><path d="M 99.09653310690486 120.98055641714683 l -0.4745014348545555 11.019002688496752 a32.02921447161028,32.02921447161028 0 0,0 -0.550615646837841,-0.028460539585482256 l 0.6641051501058854 -11.009202342149067" fill="#ff790b" stroke="none" /><path d="M 98.73552117531835 120.96189622390904 l -1.2883028089889081 21.356838295647204 a42.395659983138444,42.395659983138444 0 0,0 -0.7280692272035353,-0.050211916624063574 l 1.6557347969713736 -21.331498034506858" fill="#fdff18" stroke="none" /><path d="M 98.01472825383883 120.90594882070398 l -1.1061358271379051 11.648188231967461 a32.70059082078436,32.70059082078436 0 0,0 -0.5599079300424954,-0.05803674627430412 l 1.3064763537859938 -11.627422117237396" fill="#ff820c" stroke="none" /><path d="M 97.2962882734958 120.8252237178851 l -2.805844999850117 21.61190087936592 a42.793279371923845,42.793279371923845 0 0,0 -0.729669039640014,-0.10112548013466992 l 3.177442630676962 -21.560400833738644" fill="#f8ff18" stroke="none" /><path d="M 96.58105272829116 120.7198165907248 l -5.131206504625269 31.09660641587794 a52.517109810024294,52.517109810024294 0 0,0 -0.8906677463883547,-0.15485400435262456 l 5.665723222485674 -31.00367383300431" fill="#86ff25" stroke="none" /><path d="M 96.22490169976321 120.6578951692458 l -3.7822939716422557 20.69727094538308 a42.04002785821635,42.04002785821635 0 0,0 -0.7107414939988068,-0.13621529890388043 l 4.138003080212758 -20.629098448130733" fill="#fffd17" stroke="none" /><path d="M 95.16358092515715 120.4354850818985 l -5.0365699906999515 21.281189515660582 a42.869066383197094,42.869066383197094 0 0,0 -0.7166211876165045,-0.17612805260926498 l 5.402144463059667 -21.191340204737287" fill="#f7ff19" stroke="none" /><path d="M 94.11515582081647 120.15858648285463 l -6.14203193693033 21.039585452242722 a42.917771609278525,42.917771609278525 0 0,0 -0.7073768950109153,-0.2131268557656372 l 6.503283806381491 -20.93074322737136" fill="#f6ff19" stroke="none" /><path d="M 93.76903079525671 120.05430185196036 l -6.486901326725175 20.878016407302784 a42.86255835729828,42.86255835729828 0 0,0 -0.7026982827243679,-0.22498179964796158 l 6.845320954540484 -20.763261760995114" fill="#f7ff18" stroke="none" /><path d="M 93.08242187328487 119.8279376855182 l -7.199844986306474 20.637002592360357 a42.85689007667675,42.85689007667675 0 0,0 -0.694445780254051,-0.2490035496016934 l 7.554010327190252 -20.510011501718704" fill="#f7ff18" stroke="none" /><path d="M 92.40401165467489 119.57807347666478 l -7.8940151664489004 20.346214597572274 a42.82393007454405,42.82393007454405 0 0,0 -0.6849359787188841,-0.2725501613998458 l 8.243072221209642 -20.207317591766362" fill="#f7ff18" stroke="none" /><path d="M 91.7346041902142 119.30500536409082 l -8.520691549281164 19.90128480839191 a42.6486332479148,42.6486332479148 0 0,0 -0.6723847963089986,-0.294753735134152 l 8.861997020247907 -19.751666519963308" fill="#faff18" stroke="none" /><path d="M 91.40352486487194 119.15986991738527 l -8.81120725842705 19.638466026234653 a42.52456088319876,42.52456088319876 0 0,0 -0.665270438860366,-0.3053930290262965 l 9.147945693054835 -19.483885926874283" fill="#fbff18" stroke="none" /><path d="M 90.7491055286396 118.85261126421891 l -3.785335397668563 7.714222335782257 a29.5929034859426,29.5929034859426 0 0,0 -0.4553729105620746,-0.22833343074237714 l 3.917562215913398 -7.6479210641305775" fill="#ff5708" stroke="none" /><path d="M 90.42595943632237 118.69057910512821 l -1.2187886261621066 2.3793366111416465 a23.67332909017598,23.67332909017598 0 0,0 -0.36108488928892973,-0.18890254815017754 l 1.259564417977532 -2.358004644046752" fill="#ff0000" stroke="none" /><path d="M 90.10565033884886 118.52300852407294 l -5.052402301387967 9.458498446149212 a31.723337254366175,31.723337254366175 0 0,0 -0.4794411226635018,-0.26142952710694045 l 5.214466235920109 -9.370128267282507" fill="#ff740a" stroke="none" /><line stroke="#e1ed5e" stroke-width="0.3" x1="58.666819895761336" x2="56.23545636021788" y1="174.27360380694188" y2="178.64263932499728" /><path d="M 58.180547188652646 175.14741091055294 a86.0,86.0 0 0,1 -31.652253787137756,-30.449443065178592" fill="none" id="id20" stroke="none" /><text fill="#e1ed5e" style="font-size:6.75px; font-family:Arial;" text-anchor="middle"><textPath startOffset="22.20632615414155" xlink:href="#id20">August</textPath></text><path d="M 89.1626897886671 117.98757091392108 l -10.89111919665698 18.076882091736287 a42.10426837192719,42.10426837192719 0 0,0 -0.6175709728659906,-0.379362531986751 l 11.20066936945528 -17.88673109292116" fill="#fffe18" stroke="none" /><path d="M 88.54995079064634 117.60387380957326 l -12.288014962194733 18.892203938120435 a43.53687381494281,43.53687381494281 0 0,0 -0.6247029342003767,-0.4140190407781733 l 12.61139259513507 -18.67788687625094" fill="#efff19" stroke="none" /><path d="M 88.24862548938628 117.40417183066458 l -5.909618849434791 8.752339721315375 a31.560636606895905,31.560636606895905 0 0,0 -0.4476246823944157,-0.30788033821064703 l 6.059400416452097 -8.649318593739626" fill="#ff720a" stroke="none" /><path d="M 87.95078237400918 117.19931262002967 l -6.11468955431691 8.728239499324204 a31.65699737746217,31.65699737746217 0 0,0 -0.4436090100260272,-0.3165032501038421 l 6.264025892191825 -8.621691987376142" fill="#ff740a" stroke="none" /><path d="M 87.36589467227662 116.77436683061367 l -13.239937477524396 17.57873330175919 a43.006994544988025,43.006994544988025 0 0,0 -0.5874986289902092,-0.450468896482972 l 13.540564835008093 -17.34822506344885" fill="#f5ff19" stroke="none" /><path d="M 87.07902340077011 116.55440617244103 l -13.513051500563176 17.312974870859964 a42.96227810897361,42.96227810897361 0 0,0 -0.5790548054541929,-0.4600361582756168 l 13.809063798734726 -17.077804798579216" fill="#f6ff19" stroke="none" /><path d="M 86.51685102203217 116.09983520530335 l -13.498604967145857 16.11829075148975 a42.02407269794829,42.02407269794829 0 0,0 -0.5505844387638634,-0.4692200033888782 l 13.774054882486777 -15.88354635787792" fill="#fffd17" stroke="none" /><path d="M 85.97065885151581 115.62618273729859 l -7.098236716855224 7.906169140534894 a31.62508705692607,31.62508705692607 0 0,0 -0.40194047541159583,-0.3671630943718014 l 7.2332767417336745 -7.782813279576517" fill="#ff730a" stroke="none" /><path d="M 85.44109423537348 115.13401014063109 l -15.187902346457973 15.78785327978982 a42.907274793312695,42.907274793312695 0 0,0 -0.5278617374417723,-0.5166238102553398 l 15.45741403627554 -15.52407936661191" fill="#f6ff19" stroke="none" /><path d="M 84.67929136418377 114.36230785411682 l -15.962094290806752 14.963571049518452 a42.879143326524286,42.879143326524286 0 0,0 -0.5001619133284805,-0.5428269737404666 l 16.21730261213096 -14.68659282097664" fill="#f7ff19" stroke="none" /><path d="M 84.43433777217949 114.09645910891817 l -7.873058643044063 7.129940737466784 a31.621728075817003,31.621728075817003 0 0,0 -0.3619048810404427,-0.40660397037624346 l 7.9946223737328435 -6.993362597349676" fill="#ff730a" stroke="none" /><path d="M 84.19399662182784 113.82643327865904 l -15.915137070950598 13.92189888660256 a42.144996017874576,42.144996017874576 0 0,0 -0.47294209503437357,-0.550138503059311 l 16.15242167555575 -13.64588328438172" fill="#fffe18" stroke="none" /><path d="M 83.72743513129214 113.27417163493432 l -16.98356876605399 13.854165498386612 a42.91756167295921,42.91756167295921 0 0,0 -0.46204247393032827,-0.5764690285062027 l 17.219529152039176 -13.559768636302149" fill="#f6ff19" stroke="none" /><path d="M 83.28015986056508 112.70617746262583 l -16.748366680222187 12.727856096309836 a42.03582913183001,42.03582913183001 0 0,0 -0.4328464021375602,-0.579868490411361 l 16.964974349054835 -12.437674726389167" fill="#fffd17" stroke="none" /><path d="M 83.06392112726016 112.41649034213515 l -16.97343982063149 12.443881088963586 a42.046325947795836,42.046325947795836 0 0,0 -0.4229063665017295,-0.5873799546348152 l 17.18512597950883 -12.149867528877632" fill="#fffd17" stroke="none" /><path d="M 82.85270091963577 112.12312394758628 l -17.19455413412946 12.156533225120945 a42.05787244535824,42.05787244535824 0 0,0 -0.4128462701227064,-0.5947358436415813 l 17.4012613114143 -11.858756119292352" fill="#fffd17" stroke="none" /><path d="M 82.6465618267979 111.8261652097733 l -17.416007260923504 11.8688053114657 a42.075717032500144,42.075717032500144 0 0,0 -0.4027184981499699,-0.6020095131708426 l 17.617728864484206 -11.567258884089036" fill="#fffd17" stroke="none" /><path d="M 82.05923443525364 110.91462005526583 l -18.887511596727737 11.490591754501024 a43.108183850898556,43.108183850898556 0 0,0 -0.38021238395728824,-0.6372578252878812 l 19.082504856383256 -11.163771835327031" fill="#f4ff19" stroke="none" /><line stroke="#e1ed5e" stroke-width="0.3" x1="26.63291911575756" x2="22.317208475507996" y1="142.92168965132927" y2="145.44649492493687" /><path d="M 25.769776987707644 143.4266507060508 a86.0,86.0 0 0,1 -11.730757126820373,-40.83630448921669" fill="none" id="id21" stroke="none" /><text fill="#e1ed5e" style="font-size:6.75px; font-family:Arial;" text-anchor="middle"><textPath startOffset="21.46611528233685" xlink:href="#id21">September</textPath></text><path d="M 81.69416730710424 110.29060199501025 l -37.53058352624152 21.09777272568013 a64.05416023806113,64.05416023806113 0 0,0 -0.532026505632882,-0.9657826452685764 l 37.88818644132592 -20.448619562013732" fill="#34ff58" stroke="none" /><path d="M 81.35079622478065 109.6543875284942 l -37.48285439091327 19.40426016712022 a63.2076969985771,63.2076969985771 0 0,0 -0.49188028205971746,-0.9705264611982869 l 37.81131334275925 -18.75617949421925" fill="#32ff4d" stroke="none" /><path d="M 81.02952815118164 109.00673069616217 l -19.179210191670368 9.105834717138231 a42.23106990879434,42.23106990879434 0 0,0 -0.30612575229191824,-0.6593676362113636 l 19.333110560802115 -8.77434701364804" fill="#ffff18" stroke="none" /><path d="M 80.87730276802145 108.67885076344099 l -19.4694140466754 8.836208454954175 a42.38075450446698,42.38075450446698 0 0,0 -0.2957751146878383,-0.6668948012712279 l 19.61863024609452 -8.499765317190251" fill="#fdff18" stroke="none" /><path d="M 80.58989483394504 108.01547362559985 l -19.85769582271944 8.200307817525468 a42.484253109890005,42.484253109890005 0 0,0 -0.2733100728749325,-0.6783331868796372 l 19.99590850985176 -7.857275262803026" fill="#fcff18" stroke="none" /><path d="M 80.45479744820244 107.68017299344265 l -19.697739163613022 7.740111362639475 a42.16389028661307,42.16389028661307 0 0,0 -0.2596205813643213,-0.6777874138758525 l 19.828054024570854 -7.399900381930465" fill="#fffe18" stroke="none" /><path d="M 80.32549172779594 107.34259656027581 l -39.87285538360993 14.88069164105575 a63.55913039711288,63.55913039711288 0 0,0 -0.37371479026899135,-1.0283025987045031 l 40.123094434884145 -14.192141245345129" fill="#33ff52" stroke="none" /><path d="M 80.0844068197444 106.66101706037122 l -20.403111791284115 6.824073704274197 a42.51406406723294,42.51406406723294 0 0,0 -0.2261500189095977,-0.696018190129944 l 20.517554061209964 -6.471856614166449" fill="#fbff18" stroke="none" /><path d="M 79.86692584326677 105.97154293290107 l -31.199820958369305 9.253980236764784 a53.54327853884322,53.54327853884322 0 0,0 -0.2544768306397522,-0.885867231680775 l 31.35449042589516 -8.715555529579413" fill="#7bff26" stroke="none" /><path d="M 79.67330655649465 105.27499134158121 l -11.343732415736314 2.943818208334433 a32.71948508952284,32.71948508952284 0 0,0 -0.13678098061674474,-0.5463720252451332 l 11.392724710648118 -2.748118343691908" fill="#ff820c" stroke="none" /><path d="M 79.58551787078972 104.9243191809786 l -23.636475181603682 5.701518528405515 a45.314404630595384,45.314404630595384 0 0,0 -0.17637970427136654,-0.7598391497153113 l 23.731115451805604 -5.293810721341629" fill="#d9ff1c" stroke="none" /><path d="M 79.50377843672027 104.57218783832718 l -43.23883081301549 9.645487865965537 a65.30160184743963,65.30160184743963 0 0,0 -0.23529087983906452,-1.0992006582408484 l 43.398455731579 -8.899773388308525" fill="#35ff67" stroke="none" /><line stroke="#e1ed5e" stroke-width="0.3" x1="15.007084014347285" x2="10.007500721073583" y1="101.09737516637583" y2="101.16192664675087" /><path d="M 14.007167355692545 101.11028546245083 a86.0,86.0 0 0,1 10.666146001902534,-42.60595125391555" fill="none" id="id22" stroke="none" /><text fill="#e1ed5e" style="font-size:6.75px; font-family:Arial;" text-anchor="middle"><textPath startOffset="22.20632615414155" xlink:href="#id22">October</textPath></text><line stroke="#e1ed5e" stroke-width="0.3" x1="26.266209847984243" x2="21.928928074336255" y1="57.711370442889674" y2="55.22380399835377" /><path d="M 25.398753493254645 57.213857153982495 a86.0,86.0 0 0,1 29.58750427330803,-30.492523968695096" fill="none" id="id23" stroke="none" /><text fill="#e1ed5e" style="font-size:6.75px; font-family:Arial;" text-anchor="middle"><textPath startOffset="21.46611528233685" xlink:href="#id23">November</textPath></text><line stroke="#e1ed5e" stroke-width="0.3" x1="56.762969772571076" x2="54.21961505331055" y1="26.818313649435495" y2="22.513508569990535" /><path d="M 56.25429882871897 25.957352633546506 a86.0,86.0 0 0,1 42.265352541879196,-11.944610805530505" fill="none" id="id24" stroke="none" /><text fill="#e1ed5e" style="font-size:6.75px; font-family:Arial;" text-anchor="middle"><textPath startOffset="22.20632615414155" xlink:href="#id24">December</textPath></text></svg>