<?xml version="1.0" encoding="utf-8" ?>
<svg baseProfile="full" height="200mm" version="1.1" viewBox="0,0,200,200" width="200mm" xmlns="http://www.w3.org/2000/svg" xmlns:ev="http://www.w3.org/2001/xml-events" xmlns:xlink="http://www.w3.org/1999/xlink"><defs /><rect fill="#1a1a1a" height="200" width="200" x="0" y="0" /><text alignment-baseline="middle" fill="#e1ed5e" style="dominant-baseline: central; font-size:9.0px; font-family:Arial;" text-anchor="middle" x="100.0" y="100.0">2024</text><line stroke="#e1ed5e" stroke-width="0.3" x1="100.0" x2="100.0" y1="15.0" y2="10.0" /><path d="M 100.0 14.0 a86.0,86.0 0 0,1 42.35913384403234,11.155469271406648" fill="none" id="id1" stroke="none" /><text fill="#e1ed5e" style="font-size:6.75px; font-family:Arial;" text-anchor="middle"><textPath startOffset="22.145653131862478" xlink:href="#id1">January</textPath></text><line stroke="#e1ed5e" stroke-width="0.3" x1="143.13028292997686" x2="145.6673583964461" y1="26.7553504044142" y2="22.446841604673864" /><path d="M 143.63769802327073 25.89364864446614 a86.0,86.0 0 0,1 29.32050498858742,28.57503671076993" fill="none" id="id2" stroke="none" /><text fill="#e1ed5e" style="font-size:6.75px; font-family:Arial;" text-anchor="middle"><textPath startOffset="20.669276256404974" xlink:href="#id2">February</textPath></text><line stroke="#e1ed5e" stroke-width="0.3" x1="172.87174338648825" x2="177.1583165268699" y1="56.24261187166439" y2="53.66864786411523" /><path d="M 173.72905801456457 55.72781907015455 a86.0,86.0 0 0,1 12.242430191666344,42.057860355516425" fill="none" id="id3" stroke="none" /><text fill="#e1ed5e" style="font-size:6.75px; font-family:Arial;" text-anchor="middle"><textPath startOffset="22.145653131862474" xlink:href="#id3">March</textPath></text><line stroke="#e1ed5e" stroke-width="0.3" x1="184.99686870605535" x2="189.99668451229388" y1="99.2704041080226" y2="99.22748670261217" /><path d="M 185.99683186730306 99.26182062694052 a86.0,86.0 0 0,1 -10.086455211305974,41.156179273409016" fill="none" id="id4" stroke="none" /><text fill="#e1ed5e" style="font-size:6.75px; font-family:Arial;" text-anchor="middle"><textPath startOffset="21.40746469413373" xlink:href="#id4">April</textPath></text><line stroke="#e1ed5e" stroke-width="0.3" x1="174.33088141563837" x2="178.70328620479359" y1="141.23008692659167" y2="143.65538615756765" /><path d="M 175.20536237346943 141.71514677278685 a86.0,86.0 0 0,1 -30.301960400862466,31.631185727798858" fill="none" id="id5" stroke="none" /><text fill="#e1ed5e" style="font-size:6.75px; font-family:Arial;" text-anchor="middle"><textPath startOffset="22.145653131862474" xlink:href="#id5">May</textPath></text><line stroke="#e1ed5e" stroke-width="0.3" x1="143.1302829299769" x2="145.66735839644613" y1="173.24464959558577" y2="177.55315839532614" /><path d="M 143.63769802327073 174.10635135553383 a86.0,86.0 0 0,1 -40.68552437913181,11.842963189579606" fill="none" id="id6" stroke="none" /><text fill="#e1ed5e" style="font-size:6.75px; font-family:Arial;" text-anchor="middle"><textPath startOffset="21.407464694133747" xlink:href="#id6">June</textPath></text><line stroke="#e1ed5e" stroke-width="0.3" x1="101.45913802915013" x2="101.54496967792366" y1="184.9874750549273" y2="189.98673829345242" /><path d="M 101.47630435890484 185.9873277026323 a86.0,86.0 0 0,1 -42.54439059252881,-10.42667462771756" fill="none" id="id7" stroke="none" /><text fill="#e1ed5e" style="font-size:6.75px; font-family:Arial;" text-anchor="middle"><textPath startOffset="22.145653131862474" xlink:href="#id7">July</textPath></text><path d="M 97.84075906011543 120.88869738790638 l -1.5397931636387105 14.896102070450501 a35.97547394508996,35.97547394508996 0 0,0 -0.6137486065438853,-0.06877181152032959 l 1.7952776717833951 -14.867474498423201" fill="#ff0500" stroke="none" /><path d="M 95.35216902796893 120.47920084513623 l -3.2761755540081934 14.43543398591791 a35.8025362901928,35.8025362901928 0 0,0 -0.5981885142280691,-0.14117086057494535 l 3.5234962219761505 -14.37706698169674" fill="#ff0100" stroke="none" /><path d="M 94.6519064749342 120.30758222061772 l -3.7731720378100713 14.327348807801727 a35.81586146963211,35.81586146963211 0 0,0 -0.5932106076516416,-0.16168218900585252 l 4.018564046396408 -14.26046612465173" fill="#ff0200" stroke="none" /><path d="M 93.27111125876986 119.89276391827306 l -4.769252235373154 14.099446793294733 a35.88422543371206,35.88422543371206 0 0,0 -0.5818272207054371,-0.20238970983004326 l 5.010585228123613 -14.0154986508961" fill="#ff0300" stroke="none" /><path d="M 91.92203290615298 119.3841803445677 l -5.685884784986392 13.644053610290308 a35.78138980977823,35.78138980977823 0 0,0 -0.5649454201226962,-0.24114160611915714 l 5.919265280279519 -13.544437354511748" fill="#ff0100" stroke="none" /><path d="M 91.59046798132341 119.24265499422711 l -5.9450178601337536 13.603364296967733 a35.84569828446361,35.84569828446361 0 0,0 -0.5617304224141775,-0.25125487302333765 l 6.177661685403566 -13.49930567303454" fill="#ff0200" stroke="none" /><path d="M 89.97174638481275 118.45085714620012 l -7.0455025881846 12.962931210764948 a35.75387041745792,35.75387041745792 0 0,0 -0.5367435926198668,-0.29772262294675567 l 7.2669903689605695 -12.840075672385042" fill="#ff0000" stroke="none" /><line stroke="#e1ed5e" stroke-width="0.3" x1="58.13341422392154" x2="55.67067388415222" y1="173.97424548756322" y2="178.32567169271397" /><path d="M 57.64086615596768 174.84453072859336 a86.0,86.0 0 0,1 -31.369924170532247,-30.572349798747897" fill="none" id="id8" stroke="none" /><text fill="#e1ed5e" style="font-size:6.75px; font-family:Arial;" text-anchor="middle"><textPath startOffset="22.145653131862474" xlink:href="#id8">August</textPath></text><path d="M 88.72937992617639 117.7192867562869 l -7.923787514002032 12.457510078134954 a35.76400914094435,35.76400914094435 0 0,0 -0.5151965053917765,-0.3339441503673606 l 8.136469651650819 -12.319652086063698" fill="#ff0100" stroke="none" /><path d="M 87.54013794807813 116.9041958592261 l -8.776897259235563 11.9075467840784 a35.792687244520266,35.792687244520266 0 0,0 -0.49146258980043606,-0.368802689657342 l 8.980012837946765 -11.755125067157042" fill="#ff0100" stroke="none" /><path d="M 86.68645165197938 116.24036423190432 l -18.814524369601525 22.950660532043443 a50.67691267823232,50.67691267823232 0 0,0 -0.668031909274823,-0.5572959780952299 l 19.20573061303824 -22.624302370036343" fill="#fdff18" stroke="none" /><path d="M 85.60350026404147 115.28858382429668 l -10.133743580319761 10.761684508260904 a35.78196916540603,35.78196916540603 0 0,0 -0.4435729087463868,-0.42493281255390214 l 10.316988974931462 -10.58613956540142" fill="#ff0100" stroke="none" /><path d="M 85.08716467003676 114.78537596483092 l -10.549032915986704 10.458870783268045 a35.854967974508355,35.854967974508355 0 0,0 -0.42959919936672997,-0.4408066241740981 l 10.727018916504242 -10.27624146702621" fill="#ff0200" stroke="none" /><path d="M 84.1078160697243 113.72728997021213 l -11.189629686270603 9.665335616340645 a35.786024654800606,35.786024654800606 0 0,0 -0.3975749572587381,-0.4683422999627822 l 11.353899207036454 -9.47182653392831" fill="#ff0100" stroke="none" /><path d="M 83.4222238831116 112.89097897827486 l -22.934230416246635 17.833796288125928 a50.05207763365413,50.05207763365413 0 0,0 -0.5216094390206913,-0.6828034995660142 l 23.23699183262162 -17.437471875319044" fill="#fff717" stroke="none" /><path d="M 82.576782715395 111.72311816256416 l -12.219076295157818 8.221539851431023 a35.72750973639319,35.72750973639319 0 0,0 -0.3380087163258627,-0.5117882774068657 l 12.358409450404407 -8.010571695685096" fill="#ff0000" stroke="none" /><path d="M 81.99639281039703 110.81064883170644 l -25.337153063624108 15.214232419168654 a50.554089285139526,50.554089285139526 0 0,0 -0.44036533289042473,-0.7478366083053195 l 25.594592106644303 -14.777044642569775" fill="#ffff18" stroke="none" /><line stroke="#e1ed5e" stroke-width="0.3" x1="26.387840678322732" x2="22.057713659400548" y1="142.50000000000003" y2="145.00000000000006" /><path d="M 25.521815274538298 143.00000000000003 a86.0,86.0 0 0,1 -11.493303480769221,-40.785679425670985" fill="none" id="id9" stroke="none" /><text fill="#e1ed5e" style="font-size:6.75px; font-family:Arial;" text-anchor="middle"><textPath startOffset="21.40746469413373" xlink:href="#id9">September</textPath></text><path d="M 81.4637452351635 109.86951160357371 l -13.029065229884756 6.9372433698960725 a35.760822684991474,35.760822684991474 0 0,0 -0.2838590756383652,-0.5443372057586306 l 13.146232374498071 -6.7125599210329385" fill="#ff0100" stroke="none" /><path d="M 81.1358732173502 109.22738970284198 l -13.26160698561678 6.4869165242658715 a35.76314010750265,35.76314010750265 0 0,0 -0.2650231619625331,-0.553796478564471 l 13.371009405539224 -6.258307543636296" fill="#ff0100" stroke="none" /><path d="M 80.83023694016515 108.57439118712176 l -26.934432471714906 12.047429052447994 a50.506002768032445,50.506002768032445 0 0,0 -0.3472074073552911,-0.7944784961089076 l 27.137273761087165 -11.583288486563237" fill="#fffe18" stroke="none" /><path d="M 80.41425534168474 107.57618678355246 l -13.778635262168702 5.329872118204765 a35.77356850880299,35.77356850880299 0 0,0 -0.21663334498961448,-0.5746456851746233 l 13.868099290972753 -5.092558152835997" fill="#ff0100" stroke="none" /><path d="M 79.83685265289637 105.86919833188381 l -28.3727393500925 8.258890916078025 a50.550323473558855,50.550323473558855 0 0,0 -0.23537556454107572,-0.8352648423554914 l 28.51033340670815 -7.770618149819537" fill="#ffff18" stroke="none" /><path d="M 79.64726062577567 105.17358676015961 l -42.988345566980804 10.92746933850883 a65.35546686407673,65.35546686407673 0 0,0 -0.2670625841566115,-1.089706478689277 l 43.16959567765371 -10.187907035211454" fill="#30ff2f" stroke="none" /><path d="M 79.2786578344484 103.40968896794605 l -62.16402649665483 10.22906690383814 a84.0,84.0 0 0,0 -0.2219140314469299,-1.4248472722742 l 62.33046202024003 -9.16043144963249" fill="#4dd2ff" stroke="none" /><path d="M 79.17382384314188 102.69636545807758 l -14.64036622594599 1.895488518291771 a35.76256075187486,35.76256075187486 0 0,0 -0.07359920312895948,-0.6095069820241469 l 14.670747515334611 -1.6438878593442248" fill="#ff0100" stroke="none" /><path d="M 79.0935383218832 101.97986365728391 l -14.662198764576736 1.3885254672359957 a35.727799414207084,35.727799414207084 0 0,0 -0.0525817547083295,-0.6110796939603493 l 14.683874141982807 -1.1366247258999842" fill="#ff0000" stroke="none" /><path d="M 79.03789590574601 101.26102812881392 l -62.62000046247065 3.767063728643616 a83.73320673339987,83.73320673339987 0 0,0 -0.07399786793695753,-1.4355388692876858 l 62.67543991986418 -2.6915530659791993" fill="#4dd5ff" stroke="none" /><line stroke="#e1ed5e" stroke-width="0.3" x1="15.003131293944662" x2="10.003315487706104" y1="100.72959589197737" y2="100.7725132973878" /><path d="M 14.003168132696942 100.73817937305945 a86.0,86.0 0 0,1 10.791469493833604,-42.45332614584628" fill="none" id="id10" stroke="none" /><text fill="#e1ed5e" style="font-size:6.75px; font-family:Arial;" text-anchor="middle"><textPath startOffset="22.145653131862435" xlink:href="#id10">October</textPath></text><line stroke="#e1ed5e" stroke-width="0.3" x1="26.387840678322718" x2="22.05771365940052" y1="57.49999999999999" y2="54.99999999999999" /><path d="M 25.521815274538284 56.99999999999999 a86.0,86.0 0 0,1 29.574782752854787,-30.34633250058573" fill="none" id="id11" stroke="none" /><text fill="#e1ed5e" style="font-size:6.75px; font-family:Arial;" text-anchor="middle"><textPath startOffset="21.40746469413373" xlink:href="#id11">November</textPath></text><line stroke="#e1ed5e" stroke-width="0.3" x1="56.869717070023135" x2="54.33264160355391" y1="26.7553504044142" y2="22.446841604673864" /><path d="M 56.362301976729285 25.89364864446614 a86.0,86.0 0 0,1 42.16139366436587,-11.88097634709845" fill="none" id="id12" stroke="none" /><text fill="#e1ed5e" style="font-size:6.75px; font-family:Arial;" text-anchor="middle"><textPath startOffset="22.145653131862474" xlink:href="#id12">December</textPath></text></svg>