<?xml version="1.0" encoding="utf-8" ?>
<svg baseProfile="full" height="200mm" version="1.1" viewBox="0,0,200,200" width="200mm" xmlns="http://www.w3.org/2000/svg" xmlns:ev="http://www.w3.org/2001/xml-events" xmlns:xlink="http://www.w3.org/1999/xlink"><defs /><rect fill="#1a1a1a" height="200" width="200" x="0" y="0" /><text alignment-baseline="middle" fill="#e1ed5e" style="dominant-baseline: central; font-size:9.0px; font-family:Arial;" text-anchor="middle" x="100.0" y="100.0">2024</text><line stroke="#e1ed5e" stroke-width="0.3" x1="100.0" x2="100.0" y1="15.0" y2="10.0" /><path d="M 100.0 14.0 a86.0,86.0 0 0,1 42.35913384403234,11.155469271406648" fill="none" id="id1" stroke="none" /><text fill="#e1ed5e" style="font-size:6.75px; font-family:Arial;" text-anchor="middle"><textPath startOffset="22.145653131862478" xlink:href="#id1">January</textPath></text><line stroke="#e1ed5e" stroke-width="0.3" x1="143.13028292997686" x2="145.6673583964461" y1="26.7553504044142" y2="22.446841604673864" /><path d="M 143.63769802327073 25.89364864446614 a86.0,86.0 0 0,1 29.32050498858742,28.57503671076993" fill="none" id="id2" stroke="none" /><text fill="#e1ed5e" style="font-size:6.75px; font-family:Arial;" text-anchor="middle"><textPath startOffset="20.669276256404974" xlink:href="#id2">February</textPath></text><line stroke="#e1ed5e" stroke-width="0.3" x1="172.87174338648825" x2="177.1583165268699" y1="56.24261187166439" y2="53.66864786411523" /><path d="M 173.72905801456457 55.72781907015455 a86.0,86.0 0 0,1 12.242430191666344,42.057860355516425" fill="none" id="id3" stroke="none" /><text fill="#e1ed5e" style="font-size:6.75px; font-family:Arial;" text-anchor="middle"><textPath startOffset="22.145653131862474" xlink:href="#id3">March</textPath></text><line stroke="#e1ed5e" stroke-width="0.3" x1="184.99686870605535" x2="189.99668451229388" y1="99.2704041080226" y2="99.22748670261217" /><path d="M 185.99683186730306 99.26182062694052 a86.0,86.0 0 0,1 -10.086455211305974,41.156179273409016" fill="none" id="id4" stroke="none" /><text fill="#e1ed5e" style="font-size:6.75px; font-family:Arial;" text-anchor="middle"><textPath startOffset="21.40746469413373" xlink:href="#id4">April</textPath></text><line stroke="#e1ed5e" stroke-width="0.3" x1="174.33088141563837" x2="178.70328620479359" y1="141.23008692659167" y2="143.65538615756765" /><path d="M 175.20536237346943 141.71514677278685 a86.0,86.0 0 0,1 -30.301960400862466,31.631185727798858" fill="none" id="id5" stroke="none" /><text fill="#e1ed5e" style="font-size:6.75px; font-family:Arial;" text-anchor="middle"><textPath startOffset="22.145653131862474" xlink:href="#id5">May</textPath></text><line stroke="#e1ed5e" stroke-width="0.3" x1="143.1302829299769" x2="145.66735839644613" y1="173.24464959558577" y2="177.55315839532614" /><path d="M 143.63769802327073 174.10635135553383 a86.0,86.0 0 0,1 -40.68552437913181,11.842963189579606" fill="none" id="id6" stroke="none" /><text fill="#e1ed5e" style="font-size:6.75px; font-family:Arial;" text-anchor="middle"><textPath startOffset="21.407464694133747" xlink:href="#id6">June</textPath></text><line stroke="#e1ed5e" stroke-width="0.3" x1="101.45913802915013" x2="101.54496967792366" y1="184.9874750549273" y2="189.98673829345242" /><path d="M 101.47630435890484 185.9873277026323 a86.0,86.0 0 0,1 -42.54439059252881,-10.42667462771756" fill="none" id="id7" stroke="none" /><text fill="#e1ed5e" style="font-size:6.75px; font-family:Arial;" text-anchor="middle"><textPath startOffset="22.145653131862474" xlink:href="#id7">July</textPath></text><path d="M 97.84075906011543 120.88869738790638 l -3.26876890332303 31.622373951544073 a52.79086951429018,52.79086951429018 0 0,0 -0.9006225366784296,-0.10091663375366267 l 3.811127341602259 -31.56160155728344" fill="#ff0d01" stroke="none" /><path d="M 95.35216902796893 120.47920084513623 l -6.954869670587655 30.64443902818391 a52.42374668124317,52.42374668124317 0 0,0 -0.8758955757587378,-0.20670897093905802 l 7.479897400086281 -30.520533913598626" fill="#ff0300" stroke="none" /><path d="M 94.6519064749342 120.30758222061772 l -8.009924784271512 30.414989075112675 a52.452034202717485,52.452034202717485 0 0,0 -0.8687520502149834,-0.23678223445485977 l 8.53085823542119 -30.27300634651367" fill="#ff0400" stroke="none" /><path d="M 93.27111125876986 119.89276391827306 l -10.124465913494257 29.93118447354871 a52.59716148680306,52.59716148680306 0 0,0 -0.8528109472891581,-0.29665191661618673 l 10.636782632828437 -29.752974124363934" fill="#ff0801" stroke="none" /><path d="M 91.92203290615298 119.3841803445677 l -12.070350623664647 28.964447439937995 a52.378855614555675,52.378855614555675 0 0,0 -0.8269995868809044,-0.3529969472042615 l 12.565785285715982 -28.752975843074328" fill="#ff0200" stroke="none" /><path d="M 91.59046798132341 119.24265499422711 l -12.620454467392916 28.878069629445513 a52.515373652975164,52.515373652975164 0 0,0 -0.8229574101534491,-0.36809838196597017 l 13.114325280402 -28.657167496569688" fill="#ff0600" stroke="none" /><path d="M 89.97174638481275 118.45085714620012 l -14.956632041485934 27.518518355758946 a52.32043573325004,52.32043573325004 0 0,0 -0.7854438782434381,-0.4356724790447981 l 15.426820107885476 -27.257712961280998" fill="#ff0000" stroke="none" /><line stroke="#e1ed5e" stroke-width="0.3" x1="58.13341422392154" x2="55.67067388415222" y1="173.97424548756322" y2="178.32567169271397" /><path d="M 57.64086615596768 174.84453072859336 a86.0,86.0 0 0,1 -31.369924170532247,-30.572349798747897" fill="none" id="id8" stroke="none" /><text fill="#e1ed5e" style="font-size:6.75px; font-family:Arial;" text-anchor="middle"><textPath startOffset="22.145653131862474" xlink:href="#id8">August</textPath></text><path d="M 88.72937992617639 117.7192867562869 l -16.821110025649144 26.44557887243307 a52.34195884741527,52.34195884741527 0 0,0 -0.7540092660550214,-0.4887396965753572 l 17.272604923961172 -26.152925334153817" fill="#ff0100" stroke="none" /><path d="M 87.54013794807813 116.9041958592261 l -18.632144567295875 25.278082512510956 a52.40283851319695,52.40283851319695 0 0,0 -0.7195334218034344,-0.5399512938862999 l 19.063330978010075 -24.954512191360642" fill="#ff0200" stroke="none" /><path d="M 86.68645165197938 116.24036423190432 l -39.94064504406185 48.72109269571299 a84.0,84.0 0 0,0 -1.1073026633524292,-0.9237512643525192 l 40.77112204157618 -48.0282792474486" fill="#4dd2ff" stroke="none" /><path d="M 85.60350026404147 115.28858382429668 l -21.512542510138633 22.845574651629178 a52.38008550679369,52.38008550679369 0 0,0 -0.6493322595307559,-0.6220456161405101 l 21.9015472555347 -22.472916905183087" fill="#ff0200" stroke="none" /><path d="M 85.08716467003676 114.78537596483092 l -22.394144596942215 22.202742801787096 a52.53505192878339,52.53505192878339 0 0,0 -0.6294529746433107,-0.64587420376452 l 22.771984372736338 -21.815045905954836" fill="#ff0601" stroke="none" /><path d="M 84.1078160697243 113.72728997021213 l -23.754043349398618 20.518176888261483 a52.388694752459784,52.388694752459784 0 0,0 -0.5820270141197758,-0.6856263591469843 l 24.102764927025504 -20.107383746664947" fill="#ff0200" stroke="none" /><path d="M 83.4222238831116 112.89097897827486 l -48.68621382180781 37.858694343769436 a82.67356122130252,82.67356122130252 0 0,0 -0.8615688284933659,-1.1278212532287497 l 49.32893462765547 -37.01735217729981" fill="#4aeaff" stroke="none" /><line stroke="#e1ed5e" stroke-width="0.3" x1="26.387840678322732" x2="22.057713659400548" y1="142.50000000000003" y2="145.00000000000006" /><path d="M 25.521815274538298 143.00000000000003 a86.0,86.0 0 0,1 -11.493303480769221,-40.785679425670985" fill="none" id="id9" stroke="none" /><text fill="#e1ed5e" style="font-size:6.75px; font-family:Arial;" text-anchor="middle"><textPath startOffset="21.40746469413373" xlink:href="#id9">September</textPath></text><line stroke="#e1ed5e" stroke-width="0.3" x1="15.003131293944662" x2="10.003315487706104" y1="100.72959589197737" y2="100.7725132973878" /><path d="M 14.003168132696942 100.73817937305945 a86.0,86.0 0 0,1 10.791469493833604,-42.45332614584628" fill="none" id="id10" stroke="none" /><text fill="#e1ed5e" style="font-size:6.75px; font-family:Arial;" text-anchor="middle"><textPath startOffset="22.145653131862435" xlink:href="#id10">October</textPath></text><line stroke="#e1ed5e" stroke-width="0.3" x1="26.387840678322718" x2="22.05771365940052" y1="57.49999999999999" y2="54.99999999999999" /><path d="M 25.521815274538284 56.99999999999999 a86.0,86.0 0 0,1 29.574782752854787,-30.34633250058573" fill="none" id="id11" stroke="none" /><text fill="#e1ed5e" style="font-size:6.75px; font-family:Arial;" text-anchor="middle"><textPath startOffset="21.40746469413373" xlink:href="#id11">November</textPath></text><line stroke="#e1ed5e" stroke-width="0.3" x1="56.869717070023135" x2="54.33264160355391" y1="26.7553504044142" y2="22.446841604673864" /><path d="M 56.362301976729285 25.89364864446614 a86.0,86.0 0 0,1 42.16139366436587,-11.88097634709845" fill="none" id="id12" stroke="none" /><text fill="#e1ed5e" style="font-size:6.75px; font-family:Arial;" text-anchor="middle"><textPath startOffset="22.145653131862474" xlink:href="#id12">December</textPath></text></svg>