<?xml version="1.0" encoding="utf-8" ?>
<svg baseProfile="full" height="200mm" version="1.1" viewBox="0,0,200,200" width="200mm" xmlns="http://www.w3.org/2000/svg" xmlns:ev="http://www.w3.org/2001/xml-events" xmlns:xlink="http://www.w3.org/1999/xlink"><defs /><rect fill="#1a1a1a" height="200" width="200" x="0" y="0" /><text alignment-baseline="middle" fill="#e1ed5e" style="dominant-baseline: central; font-size:9.0px; font-family:Arial;" text-anchor="middle" x="100.0" y="100.0">2025</text><line stroke="#e1ed5e" stroke-width="0.3" x1="100.0" x2="100.0" y1="15.0" y2="10.0" /><path d="M 100.0 14.0 a86.0,86.0 0 0,1 42.46469731375804,11.215312516191453" fill="none" id="id13" stroke="none" /><text fill="#e1ed5e" style="font-size:6.75px; font-family:Arial;" text-anchor="middle"><textPath startOffset="22.20632615414155" xlink:href="#id13">January</textPath></text><path d="M 101.44485096284872 79.0497635885617 l 1.0090227681139234 -14.630758521163795 a35.6655113054806,35.6655113054806 0 0,0 0.6121047702811211,0.04751111084215115 l -1.2607177277573856 14.611222148133178" fill="#ffb310" stroke="none" /><path d="M 103.95276090670814 79.375362276772 l 2.760054749801726 -14.401359114417762 a35.66345957011259,35.66345957011259 0 0,0 0.6019203822028103,0.12073956609692524 l -3.0075415414716615 14.351715592243629" fill="#ffb310" stroke="none" /><path d="M 106.40334571778207 80.00007090966166 l 8.04320877275236 -25.121805412929177 a47.377989206290124,47.377989206290124 0 0,0 0.7745560734348921,0.25535895954028975 l -8.474447668429669 24.97963272912965" fill="#bbff1f" stroke="none" /><path d="M 108.43124777332544 80.76684994638697 l 12.945774181774416 -29.531573984339392 a53.24448683353494,53.24448683353494 0 0,0 0.8362373262266622,0.375195312544924 l -13.452193626467858 29.304358341277936" fill="#79ff26" stroke="none" /><line stroke="#e1ed5e" stroke-width="0.3" x1="143.23703022742887" x2="145.7803849466894" y1="26.81831364943548" y2="22.513508569990506" /><path d="M 143.74570117128098 25.957352633546492 a86.0,86.0 0 0,1 28.547481713284135,27.462654790039103" fill="none" id="id14" stroke="none" /><text fill="#e1ed5e" style="font-size:6.75px; font-family:Arial;" text-anchor="middle"><textPath startOffset="19.985693538727396" xlink:href="#id14">February</textPath></text><path d="M 114.94478906791727 85.2469230424477 l 15.657089670905439 -15.456240151428002 a43.00090490369405,43.00090490369405 0 0,0 0.5154697360649528,0.5312368740839476 l -15.920823670673501 15.18443908179394" fill="#efff19" stroke="none" /><path d="M 115.4437574822437 85.77008943001954 l 5.39554331727052 -4.971464941060495 a28.33671257095003,28.33671257095003 0 0,0 0.32743254806555006,0.3615591976823806 l -5.480319505952106 4.877852956108566" fill="#ff4f07" stroke="none" /><path d="M 115.9244219780498 86.31012108654704 l 5.731169390271753 -4.926961562150017 a28.55786033311622,28.55786033311622 0 0,0 0.31724979605872733,0.37552369279676123 l -5.815129799817598 4.827578919724148" fill="#ff5207" stroke="none" /><path d="M 116.38621287248628 86.86637796730983 l 11.48517695530027 -9.205420085976812 a35.71900297757514,35.71900297757514 0 0,0 0.38040044100889175,0.4830699298116861 l -11.641931476903126 9.006357762212089" fill="#ffb410" stroke="none" /><path d="M 117.04232023915458 87.72973835380427 l 5.956407478021816 -4.28854036311139 a28.33964362147576,28.33964362147576 0 0,0 0.28162504681225603,0.39833865652860834 l -6.029345144637955 4.185375206250988" fill="#ff4f07" stroke="none" /><path d="M 117.2510076193507 88.02491185347247 l 6.026215018569499 -4.183202374587668 a28.335833255792316,28.335833255792316 0 0,0 0.27468963789379025,0.40307314868811595 l -6.097329122132023 4.078851202629146" fill="#ff4f07" stroke="none" /><path d="M 117.65298651832404 88.62581576622439 l 6.161462275942996 -3.9699575481626495 a28.329678049688283,28.329678049688283 0 0,0 0.26059580983030817,0.41219998893245113 l -6.22888568201926 3.863309911515992" fill="#ff4f07" stroke="none" /><line stroke="#e1ed5e" stroke-width="0.3" x1="172.23445277983987" x2="176.4835382374775" y1="55.19839476539836" y2="52.563006222186495" /><path d="M 173.08426987136738 54.67131705675599 a86.0,86.0 0 0,1 12.851231095245387,41.99856678651699" fill="none" id="id15" stroke="none" /><text fill="#e1ed5e" style="font-size:6.75px; font-family:Arial;" text-anchor="middle"><textPath startOffset="22.20632615414155" xlink:href="#id15">March</textPath></text><path d="M 118.03404312379186 89.2402003453031 l 26.574329629256297 -15.855261119534937 a51.9448590304271,51.9448590304271 0 0,0 0.45152530842891053,0.7718031161841872 l -26.843314612155535 15.395478590996854" fill="#88ff25" stroke="none" /><path d="M 118.3937258080291 89.86733742301442 l 7.073891145172149 -3.896837042610881 a29.076216618591236,29.076216618591236 0 0,0 0.23772147137055194,0.44046178281517456 l -7.139920715761165 3.7744942764632476" fill="#ff5908" stroke="none" /><path d="M 118.89224826269711 90.83032412892265 l 7.276424920570301 -3.5317373080261363 a29.08823392574672,29.08823392574672 0 0,0 0.2147567774191083,0.45233254305117765 l -7.3361398918311655 3.4059623493344184" fill="#ff5a08" stroke="none" /><path d="M 119.04729006885535 91.15688171328212 l 28.0573122632389 -13.026216866245907 a51.933721038429326,51.933721038429326 0 0,0 0.3694655997434868,0.8140684745136604 l -28.27738017994573 12.541326382890183" fill="#88ff25" stroke="none" /><path d="M 119.47837535516314 92.15188598940014 l 7.485590216279823 -3.01605058855294 a29.07035451753978,29.07035451753978 0 0,0 0.18301373211640035,0.4657499859742185 l -7.536397498277924 2.886751597682937" fill="#ff5908" stroke="none" /><path d="M 120.08093135843002 93.85539295169968 l 29.61451561452619 -9.06180884387248 a51.96991951242207,51.96991951242207 0 0,0 0.2543905358788793,0.8576784226739809 l -29.76611204751677 8.55070103445197" fill="#87ff25" stroke="none" /><path d="M 120.28053869075195 94.5502522615342 l 7.804478540691366 -2.0972046120467533 a29.08134595701126,29.08134595701126 0 0,0 0.12574728033549357,0.48455556667660604 l -7.839422152897162 1.962552619821297" fill="#ff5a08" stroke="none" /><path d="M 120.45610955862082 95.25157060432595 l 7.656765396226584 -1.7773472408833475 a28.860344747371357,28.860344747371357 0 0,0 0.1081652916511613,0.48488379338984033 l -7.686225074879783 1.6452852779435434" fill="#ff5608" stroke="none" /><path d="M 120.6074358757038 95.95851677861258 l 29.392057704257343 -5.764303175333806 a50.951965664836706,50.951965664836706 0 0,0 0.16138252912220566,0.8621119236710129 l -29.486925957289408 5.257513174200231" fill="#92ff23" stroke="none" /><path d="M 120.91429891909075 98.10471618934814 l 8.179578998955645 -0.7412451985429779 a29.213096678142737,29.213096678142737 0 0,0 0.041072940888246076,0.5011939127808948 l -8.191126423663386 0.6003373685543144" fill="#ff5b08" stroke="none" /><path d="M 120.96714384426684 98.82574320788733 l 31.318878533193214 -1.7540016948474237 a52.367956173815955,52.367956173815955 0 0,0 0.04265841782478013,0.9004517782484976 l -31.344430559251492 1.2146388099759262" fill="#83ff25" stroke="none" /><line stroke="#e1ed5e" stroke-width="0.3" x1="184.98032266829074" x2="189.97916517819016" y1="98.17113171792111" y2="98.06355123074" /><path d="M 185.9800911702706 98.14961562048488 a86.0,86.0 0 0,1 -9.607161424134198,41.387399972396054" fill="none" id="id16" stroke="none" /><text fill="#e1ed5e" style="font-size:6.75px; font-family:Arial;" text-anchor="middle"><textPath startOffset="21.466115282336823" xlink:href="#id16">April</textPath></text><path d="M 120.99824983174949 100.27111621757518 l 8.176070190141187 0.10556428475427944 a29.176751651623707,29.176751651623707 0 0,0 -0.010806425971496876,0.5021321518599712 l -8.173041701484683 -0.24628625240436547" fill="#ff5b08" stroke="none" /><path d="M 120.89721153311464 102.0752229133903 l 8.138770688843831 0.8082304853714003 a29.178803386991717,29.178803386991717 0 0,0 -0.05393590440173003,0.4993794885850157 l -8.123652482941049 -0.9482062958412073" fill="#ff5b08" stroke="none" /><path d="M 120.81339534386255 102.79330883721812 l 8.135322367737954 1.0918193542180328 a29.208260444775284,29.208260444775284 0 0,0 -0.07116516018148539,0.49772896455896853 l -8.115323156539867 -1.2316937907574106" fill="#ff5b08" stroke="none" /><path d="M 120.64145759157962 103.86396538481128 l 30.414362832744125 5.693398572528841 a51.9426607425328,51.9426607425328 0 0,0 -0.1720787804419213,0.877425994189536 l -30.31185411932654 -6.216088293786322" fill="#88ff25" stroke="none" /><path d="M 120.13307415673323 105.97154293290107 l 14.729019472349266 4.368680682043497 a36.36324788313018,36.36324788313018 0 0,0 -0.18315514717896272,0.5985616182667433 l -14.651637552664171 -4.621569272862297" fill="#ffbc11" stroke="none" /><path d="M 120.02730092923936 106.31721596034902 l 14.562048598335226 4.593310209189292 a36.26930771378059,36.26930771378059 0 0,0 -0.19293155818597615,0.5937822804305526 l -14.480824789133003 -4.84329138959764" fill="#ffbb11" stroke="none" /><path d="M 119.67450827220406 107.3425965602758 l 7.658723863102789 2.858263023161233 a29.174699916255697,29.174699916255697 0 0,0 -0.17964074239593814,0.46898529221157026 l -7.608388841113344 -2.989671882205947" fill="#ff5b08" stroke="none" /><path d="M 119.54520255179757 107.68017299344265 l 7.65776562061286 3.0090741988312346 a29.227751930771376,29.227751930771376 0 0,0 -0.18802823223717444,0.4666706523295748 l -7.604834774118293 -3.140444219003623" fill="#ff5c08" stroke="none" /><path d="M 119.26925614724726 108.34839909993367 l 28.37997274360045 12.295614168929019 a51.92903135758817,51.92903135758817 0 0,0 -0.36241250032018274,0.8171445141161141 l -28.164119158548996 -12.782307019537821" fill="#88ff25" stroke="none" /><path d="M 118.97047184881838 109.00673069616215 l 7.400814068758572 3.5137312229705273 a29.192579324462642,29.192579324462642 0 0,0 -0.21942636082776437,0.45208329524642904 l -7.339234451316093 -3.6406034741822317" fill="#ff5b08" stroke="none" /><path d="M 118.81262510543309 109.33194174019688 l 7.335427113491179 3.6387148565880247 a29.188329301200334,29.188329301200334 0 0,0 -0.22714264767231326,0.44817399288604226 l -7.271705796032597 -3.7644430611767614" fill="#ff5b08" stroke="none" /><line stroke="#e1ed5e" stroke-width="0.3" x1="174.80103733775053" x2="179.2010983576182" y1="140.37084112569926" y2="142.7455964860345" /><path d="M 175.68104954172406 140.8457921977663 a86.0,86.0 0 0,1 -30.038265399797805,32.042727171017184" fill="none" id="id17" stroke="none" /><text fill="#e1ed5e" style="font-size:6.75px; font-family:Arial;" text-anchor="middle"><textPath startOffset="22.206326154141568" xlink:href="#id17">May</textPath></text><path d="M 118.30583269289576 110.29060199501025 l 13.19575958184108 7.417980495979759 a36.13785009770168,36.13785009770168 0 0,0 -0.3094914382579135,0.5396244097136379 l -13.066116147430787 -7.6440247515517115" fill="#ffb911" stroke="none" /><path d="M 117.35343817320211 111.8261652097733 l 12.62960365754672 8.606927220840427 a36.283523308830375,36.283523308830375 0 0,0 -0.3561644085639895,0.513081394533244 l -12.479578341820595 -8.82304987756069" fill="#ffbb11" stroke="none" /><path d="M 116.498646956653 112.99209946851258 l 11.527944058300072 9.077847187492432 a35.67313203684749,35.67313203684749 0 0,0 -0.3840502940206363,0.47916179222298555 l -11.36997585222458 -9.27493681329367" fill="#ffb310" stroke="none" /><path d="M 116.0416608686014 113.55231037782055 l 6.205153847293466 5.242235923665937 a29.123113427002885,29.123113427002885 0 0,0 -0.3268133249377646,0.3801577301932326 l -6.113998012784922 -5.348270753020697" fill="#ff5a08" stroke="none" /><path d="M 115.56566222782051 114.09645910891815 l 11.30219591393123 10.235410495864357 a36.248057597469064,36.248057597469064 0 0,0 -0.4228139005560956,0.4588809822940997 l -11.124335605379413 -10.428442732959791" fill="#ffba11" stroke="none" /><path d="M 115.07121518719521 114.62390073753431 l 10.52152286079552 10.209243515725198 a35.66052851958686,35.66052851958686 0 0,0 -0.4312535968106441,0.43685761673034934 l -10.344228638929339 -10.388841626436212" fill="#ffb310" stroke="none" /><path d="M 114.81725581225074 114.88116024355365 l 25.88435476125387 25.99598980296606 a57.68502838001303,57.68502838001303 0 0,0 -0.709663325199049,0.694554928037848 l -25.43304148367903 -26.437694833926482" fill="#4bff2c" stroke="none" /><path d="M 113.75828350139079 115.86535959552629 l 5.34860152178614 6.1677378917027115 a29.163855029310504,29.163855029310504 0 0,0 -0.38209444546025856,0.32562917578319805 l -5.241641599748834 -6.258891457708856" fill="#ff5b08" stroke="none" /><path d="M 112.92097659922987 116.55440617244103 l 27.0596593605622 34.66894228175771 a64.9790941658137,64.9790941658137 0 0,0 -0.88764930308038,0.6806116342939805 l -26.45888132898833 -35.12959325787906" fill="#35ff66" stroke="none" /><path d="M 112.34349029814194 116.9893568818739 l 4.772665022577609 6.569009849540964 a29.119742718898298,29.119742718898298 0 0,0 -0.40805450010681854,0.29113605130727205 l -4.658883194621906 -6.650190162692455" fill="#ff5a08" stroke="none" /><path d="M 111.45004920935366 117.60387380957326 l 4.444791480903724 6.833642974719776 a29.151984274681304,29.151984274681304 0 0,0 -0.42300667213986226,0.2699828720276541 l -4.326503006716932 -6.9091402755712386" fill="#ff5b08" stroke="none" /><line stroke="#e1ed5e" stroke-width="0.3" x1="143.8653032363475" x2="146.44561519142675" y1="172.8068346515853" y2="177.08958963109032" /><path d="M 144.38136562736335 173.6633856474863 a86.0,86.0 0 0,1 -40.68145358897372,12.25698825130547" fill="none" id="id18" stroke="none" /><text fill="#e1ed5e" style="font-size:6.75px; font-family:Arial;" text-anchor="middle"><textPath startOffset="21.466115282336833" xlink:href="#id18">June</textPath></text><path d="M 110.21172684928248 118.3499491758327 l 7.42825449987178 13.348192186258405 a36.27590257746348,36.27590257746348 0 0,0 -0.5482449503315332,0.2989468598515186 l -7.197386737671598 -13.474079697869694" fill="#ffbb11" stroke="none" /><path d="M 108.92500713936063 119.00905698771935 l 3.121717859575379 6.648836439642414 a28.345212617474644,28.345212617474644 0 0,0 -0.4434433100770274,0.20356307413547198 l -3.0068065537309323 -6.70158658411196" fill="#ff4f07" stroke="none" /><path d="M 108.59647513512805 119.15986991738527 l 3.006026655782039 6.699848343377852 a28.34330743463292,28.34330743463292 0 0,0 -0.4468515763536256,0.19588659931609792 l -2.8902544047706598 -6.750599495988404" fill="#ff4f07" stroke="none" /><path d="M 106.57524785965236 119.94407469862006 l 4.595316345758487 13.938536526658416 a35.67650274495208,35.67650274495208 0 0,0 -0.5848884941376893,0.18726282565301106 l -4.354706506529858 -14.015572198971132" fill="#ffb310" stroke="none" /><path d="M 106.2309692047433 120.05430185196036 l 4.351923529682109 14.006615220382747 a35.667123383269754,35.667123383269754 0 0,0 -0.5878706663179595,0.17712060938499194 l -4.110177888923904 -14.079451198873464" fill="#ffb310" stroke="none" /><path d="M 105.53697534728816 120.25689768951611 l 2.147851316732661 7.857864925596116 a29.14612217362985,29.14612217362985 0 0,0 -0.48508801212701735,0.1281161528990792 l -2.0122728617941466 -7.893672427798779" fill="#ff5a08" stroke="none" /><path d="M 104.83641907484287 120.43548508189849 l 1.8731279617327241 7.914590924840333 a29.133225551316645,29.133225551316645 0 0,0 -0.4889940471443878,0.11129345310212796 l -1.7366137651954743 -7.945661111520145" fill="#ff5a08" stroke="none" /><path d="M 104.13013068566511 120.58985236759428 l 2.8841067283872763 14.378075724331804 a35.66448543779659,35.66448543779659 0 0,0 -0.6029546352406494,0.11555769088799715 l -2.6361844785749224 -14.42559061356827" fill="#ffb310" stroke="none" /><path d="M 103.7750983002368 120.6578951692458 l 2.637238288466121 14.431357216853627 a35.67034753884805,35.67034753884805 0 0,0 -0.6049538554242936,0.10517898210739048 l -2.3884354615697774 -14.474614777482024" fill="#ffb310" stroke="none" /><path d="M 102.70371172650421 120.8252237178851 l 1.9662917748957616 15.145278139465827 a36.272385316832604,36.272385316832604 0 0,0 -0.6198649709869044,0.0750570155149193 l -1.705299380857477 -15.176880683706097" fill="#ffbb11" stroke="none" /><path d="M 101.98527174616119 120.90594882070398 l 0.7719367210444523 8.128897020865104 a29.165467107099655,29.165467107099655 0 0,0 -0.5001956525878143,0.043158985618817584 l -0.6318967507150963 -8.140980258762584" fill="#ff5b08" stroke="none" /><path d="M 101.62511606390274 120.93702456842531 l 1.175150807035498 15.139940995611058 a36.18547966874476,36.18547966874476 0 0,0 -0.6214205470298217,0.04285679923018988 l -0.9143674992267459 -15.157926139357533" fill="#ffba11" stroke="none" /><path d="M 101.26447882468166 120.96189622390904 l 0.8973363919528398 14.8755929786233 a35.902633293012,35.902633293012 0 0,0 -0.6172037616263228,0.03190238452349561 l -0.6411445619130374 -14.888835169908997" fill="#ffb610" stroke="none" /><line stroke="#e1ed5e" stroke-width="0.3" x1="102.19456741930631" x2="102.32365962044197" y1="184.97166512339345" y2="189.96999836594603" /><path d="M 102.22038585953345 185.97133177190398 a86.0,86.0 0 0,1 -42.740103519485714,-10.115201625700543" fill="none" id="id19" stroke="none" /><text fill="#e1ed5e" style="font-size:6.75px; font-family:Arial;" text-anchor="middle"><textPath startOffset="22.20632615414155" xlink:href="#id19">July</textPath></text><path d="M 100.18074693466247 120.99922214144158 l 0.06995849881536362 8.127795141029818 a29.128096212896622,29.128096212896622 0 0,0 -0.5014108669556325,0.0 l 0.06995849881535801 -8.127795141029818" fill="#ff5a08" stroke="none" /><path d="M 99.45781275523022 120.99299961872073 l -0.39430916742837696 15.267294244439192 a36.272385316832604,36.272385316832604 0 0,0 -0.6240226005327202,-0.021492600098273532 l 0.6570521196357403 -15.258244845914824" fill="#ffbb11" stroke="none" /><path d="M 99.09653310690486 120.98055641714683 l -0.3312403696076542 7.692154870646873 a28.6992835209826,28.6992835209826 0 0,0 -0.4933706561456598,-0.025501627442280482 l 0.4635990941668029 -7.6853134364423905" fill="#ff5407" stroke="none" /><path d="M 98.73552117531835 120.96189622390904 l -0.8993395325492941 14.908800039497226 a35.93590071647902,35.93590071647902 0 0,0 -0.6171344773006411,-0.04256120676748797 l 1.1558367706288653 -14.891110488213453" fill="#ffb610" stroke="none" /><path d="M 98.01472825383883 120.90594882070398 l -0.7721722492361612 8.131377255790794 a29.167958500046524,29.167958500046524 0 0,0 -0.49942129048464484,-0.05176705876918551 l 0.9120261363263994 -8.116880828565847" fill="#ff5b08" stroke="none" /><path d="M 97.2962882734958 120.8252237178851 l -1.9587066898902523 15.086854347235974 a36.21347120126547,36.21347120126547 0 0,0 -0.6174766024310595,-0.08557663063732561 l 2.2181118835081426 -15.050903151106043" fill="#ffba11" stroke="none" /><path d="M 96.58105272829116 120.7198165907248 l -3.581997048430962 21.707945742875285 a43.001491113799204,43.001491113799204 0 0,0 -0.7292869184959567,-0.12679587883251275 l 3.9551329383989686 -21.643071285521767" fill="#efff19" stroke="none" /><path d="M 96.22490169976321 120.6578951692458 l -2.6403470276451464 14.448368696545435 a35.687640736949845,35.687640736949845 0 0,0 -0.6033461057689359,-0.11563271714644795 l 2.8886607479857775 -14.400778781050517" fill="#ffb310" stroke="none" /><path d="M 95.16358092515715 120.4354850818985 l -3.515933109423884 14.855991074123244 a36.26637666325486,36.26637666325486 0 0,0 -0.6062472572333859,-0.14900082590547897 l 3.7711336514004805 -14.793268989903735" fill="#ffbb11" stroke="none" /><path d="M 94.11515582081647 120.15858648285463 l -4.287634935296733 14.687331901807413 a36.30037684935331,36.30037684935331 0 0,0 -0.5983080411814821,-0.18026530481227973 l 4.5398179509184615 -14.611351227889408" fill="#ffbb11" stroke="none" /><path d="M 93.76903079525671 120.05430185196036 l -4.528381655434737 14.574543644002743 a36.26183353493998,36.26183353493998 0 0,0 -0.5944845368545413,-0.1903351754979059 l 4.7785875373802185 -14.494435621845131" fill="#ffbb11" stroke="none" /><path d="M 93.08242187328487 119.8279376855182 l -5.026073978286256 14.40629651285012 a36.25787661673025,36.25787661673025 0 0,0 -0.5875164850368634,-0.21066250869890826 l 5.273310023952845 -14.317646463111254" fill="#ffbb11" stroke="none" /><path d="M 92.40401165467489 119.57807347666478 l -5.510660894470125 14.203302979436268 a36.23486787010329,36.23486787010329 0 0,0 -0.5795489728559876,-0.23061449682707302 l 5.754330943367972 -14.106341638203128" fill="#ffba11" stroke="none" /><path d="M 91.7346041902142 119.30500536409082 l -5.948131682598246 13.892706009665808 a36.11249651065414,36.11249651065414 0 0,0 -0.5693381419605701,-0.24958111012982498 l 6.18639049921656 -13.78826034624153" fill="#ffb911" stroke="none" /><path d="M 91.40352486487194 119.15986991738527 l -6.150935138616897 13.709237248252496 a36.02588396761887,36.02588396761887 0 0,0 -0.5636026601967723,-0.25872233833149055 l 6.386005794581089 -13.601327839586931" fill="#ffb811" stroke="none" /><path d="M 90.7491055286396 118.85261126421891 l -2.6424701889405333 5.385150960657003 a26.998541453428864,26.998541453428864 0 0,0 -0.4154511032828829,-0.2083158078094661 l 2.7347751999061765 -5.338867311938235" fill="#ff3c05" stroke="none" /><path d="M 90.42595943632237 118.69057910512821 l -0.850813012035016 1.6609693471994689 a22.866199869731087,22.866199869731087 0 0,0 -0.34877389728201563,-0.18246201898557524 l 0.8792778118435273 -1.6460779092691769" fill="#ff0000" stroke="none" /><path d="M 90.10565033884886 118.52300852407294 l -3.526985342481195 6.602796727466649 a28.485756490183306,28.485756490183306 0 0,0 -0.43051091888804766,-0.2347488786819592 l 3.640119073237883 -6.541107197024924" fill="#ff5107" stroke="none" /><line stroke="#e1ed5e" stroke-width="0.3" x1="58.666819895761336" x2="56.23545636021788" y1="174.27360380694188" y2="178.64263932499728" /><path d="M 58.180547188652646 175.14741091055294 a86.0,86.0 0 0,1 -31.652253787137756,-30.449443065178592" fill="none" id="id20" stroke="none" /><text fill="#e1ed5e" style="font-size:6.75px; font-family:Arial;" text-anchor="middle"><textPath startOffset="22.20632615414155" xlink:href="#id20">August</textPath></text><path d="M 89.1626897886671 117.98757091392108 l -7.602881852712361 12.61912539264733 a35.73248580999349,35.73248580999349 0 0,0 -0.5241118508381725,-0.3219523059115282 l 7.818972903482842 -12.486384619907424" fill="#ffb410" stroke="none" /><path d="M 88.54995079064634 117.60387380957326 l -8.578028049734758 13.188285968164362 a36.732560249371915,36.732560249371915 0 0,0 -0.527069037294976,-0.3493126177229498 l 8.803771785769696 -13.038675329350093" fill="#ffc111" stroke="none" /><path d="M 88.24862548938628 117.40417183066458 l -4.125391807354927 6.1098408376971545 a28.372178282311342,28.372178282311342 0 0,0 -0.40240276045897067,-0.2767762879479487 l 4.229951452436788 -6.037923760384104" fill="#ff5007" stroke="none" /><path d="M 87.95078237400918 117.19931262002967 l -4.268547741333666 6.093016934008794 a28.439445891876804,28.439445891876804 0 0,0 -0.3985215112904563,-0.28433451690335143 l 4.372796580473009 -6.018638155261224" fill="#ff5107" stroke="none" /><path d="M 87.36589467227662 116.77436683061367 l -9.242546937675103 12.27137725704433 a36.36266167302503,36.36266167302503 0 0,0 -0.49673347569056414,-0.3808740473574938 l 9.452409141859153 -12.110463867859469" fill="#ffbc11" stroke="none" /><path d="M 87.07902340077011 116.55440617244103 l -9.433202609694577 12.085856383109796 a36.33144598492603,36.33144598492603 0 0,0 -0.4896830268941589,-0.3890338122459203 l 9.639843129306096 -11.921688656858745" fill="#ffbc11" stroke="none" /><path d="M 86.51685102203217 116.09983520530335 l -9.423117761225848 11.251870265900509 a35.67650274495208,35.67650274495208 0 0,0 -0.4674208371490345,-0.3983461778969135 l 9.615404074951938 -11.087999697780644" fill="#ffb310" stroke="none" /><path d="M 85.97065885151581 115.62618273729859 l -4.955143190187496 5.519145351149754 a28.41716990788127,28.41716990788127 0 0,0 -0.36116930720430723,-0.32991959888951133 l 5.049412046858657 -5.433032985673666" fill="#ff5007" stroke="none" /><path d="M 85.44109423537348 115.13401014063109 l -10.602383928191404 11.021198191554406 a36.29304922303899,36.29304922303899 0 0,0 -0.4464909997714175,-0.43698541717483436 l 10.790524880338616 -10.837062671457002" fill="#ffbb11" stroke="none" /><path d="M 84.67929136418377 114.36230785411682 l -11.142832506333134 10.445782543549456 a36.273411184516604,36.273411184516604 0 0,0 -0.4231096363759639,-0.4592019451180299 l 11.320988550704826 -10.252429343630082" fill="#ffbb11" stroke="none" /><path d="M 84.43433777217949 114.09645910891817 l -5.496031546593783 4.977275160154332 a28.414825067460686,28.414825067460686 0 0,0 -0.3252024639883207,-0.36536841573853224 l 5.580892860230442 -4.881932574674935" fill="#ff5007" stroke="none" /><path d="M 84.19399662182784 113.82643327865904 l -11.110052569923322 9.71861114445764 a35.76091700009305,35.76091700009305 0 0,0 -0.40130133122331446,-0.46680410974805964 l 11.275696410717416 -9.52592993554805" fill="#ffb410" stroke="none" /><path d="M 83.72743513129214 113.27417163493432 l -11.855904286251759 9.671327762576384 a36.300230296827024,36.300230296827024 0 0,0 -0.39080151706647853,-0.48758498102067116 l 12.020623715373098 -9.465814947977453" fill="#ffbb11" stroke="none" /><path d="M 83.28015986056508 112.70617746262583 l -11.69171421195347 8.885072726802166 a35.68470968642412,35.68470968642412 0 0,0 -0.36744840099742765,-0.492257180695548 l 11.842923879645982 -8.68250266659731" fill="#ffb310" stroke="none" /><path d="M 83.06392112726016 112.41649034213515 l -11.848833463322615 8.686835209519336 a35.69203731273844,35.69203731273844 0 0,0 -0.3589942634159133,-0.4986116333591202 l 11.996607519114136 -8.481589970709077" fill="#ffb310" stroke="none" /><path d="M 82.85270091963577 112.12312394758628 l -12.003189133397795 8.486243165673606 a35.70009770168419,35.70009770168419 0 0,0 -0.3504374168784938,-0.50483123587107 l 12.147487457438423 -8.278370667615523" fill="#ffb310" stroke="none" /><path d="M 82.6465618267979 111.8261652097733 l -12.157781322550006 8.285385816327938 a35.71255466641854,35.71255466641854 0 0,0 -0.3418148850380789,-0.510966875079306 l 12.298599312998816 -8.074882027042811" fill="#ffb310" stroke="none" /><path d="M 82.05923443525364 110.91462005526583 l -13.1850103344506 8.021362171303544 a36.433299990695076,36.433299990695076 0 0,0 -0.3213401866523885,-0.5385846362824069 l 13.32113139680122 -7.793215441135025" fill="#ffbd11" stroke="none" /><line stroke="#e1ed5e" stroke-width="0.3" x1="26.63291911575756" x2="22.317208475507996" y1="142.92168965132927" y2="145.44649492493687" /><path d="M 25.769776987707644 143.4266507060508 a86.0,86.0 0 0,1 -11.730757126820373,-40.83630448921669" fill="none" id="id21" stroke="none" /><text fill="#e1ed5e" style="font-size:6.75px; font-family:Arial;" text-anchor="middle"><textPath startOffset="21.46611528233685" xlink:href="#id21">September</textPath></text><path d="M 81.69416730710424 110.29060199501025 l -26.19938201584941 14.727951323676551 a51.05528519586862,51.05528519586862 0 0,0 -0.42405934096858267,-0.7697908802199622 l 26.44901776626951 -14.274789925058768" fill="#91ff24" stroke="none" /><path d="M 81.35079622478065 109.6543875284942 l -26.16606322002315 13.545742620757593 a50.46438540988183,50.46438540988183 0 0,0 -0.3927122377191144,-0.7748585016394699 l 26.395354127528535 -13.09332990741544" fill="#98ff23" stroke="none" /><path d="M 81.02952815118164 109.00673069616217 l -13.388639540403252 6.356608928307266 a35.821003535870474,35.821003535870474 0 0,0 -0.25966028516332407,-0.5592851537783861 l 13.496074442406403 -6.125203707250053" fill="#ffb510" stroke="none" /><path d="M 80.87730276802145 108.67885076344099 l -13.59122529701514 6.168387995383953 a35.925495487112684,35.925495487112684 0 0,0 -0.25072388805154927,-0.5653161783828826 l 13.695390269797969 -5.9335234805083745" fill="#ffb610" stroke="none" /><path d="M 80.58989483394504 108.01547362559985 l -13.862277373070855 5.724477931676364 a35.997745882571884,35.997745882571884 0 0,0 -0.23158101720773067,-0.5747650928885906 l 13.958761004535972 -5.485013470944968" fill="#ffb711" stroke="none" /><path d="M 80.45479744820244 107.68017299344265 l -13.750614690955137 5.403223594784224 a35.77410672745883,35.77410672745883 0 0,0 -0.22027603058536938,-0.575071207085023 l 13.841585001134016 -5.165728820866043" fill="#ffb410" stroke="none" /><path d="M 80.32549172779594 107.34259656027581 l -27.83447716786752 10.387926014832189 a50.70971433888528,50.70971433888528 0 0,0 -0.2981628310575156,-0.8204160552298458 l 28.00916425993026 -9.907262162596226" fill="#95ff23" stroke="none" /><path d="M 80.0844068197444 106.66101706037122 l -14.243021821341399 4.763755238646477 a36.018556341304546,36.018556341304546 0 0,0 -0.1915977071681681,-0.5896771091119984 l 14.322911779525816 -4.517879229556676" fill="#ffb711" stroke="none" /><path d="M 79.86692584326677 105.97154293290107 l -21.77999783943892 6.460026480019962 a43.71783986228715,43.71783986228715 0 0,0 -0.20777915798525942,-0.723306507011374 l 21.88796963431028 -6.084162497503991" fill="#e6ff1a" stroke="none" /><path d="M 79.67330655649465 105.27499134158121 l -7.918842477832714 2.0550231458948742 a29.1811482274123,29.1811482274123 0 0,0 -0.12198926905931469,-0.4872864903700781 l 7.9530430611870875 -1.9184088161274042" fill="#ff5b08" stroke="none" /><path d="M 79.58551787078972 104.9243191809786 l -16.50017091682011 3.980120956331392 a37.97342048943891,37.97342048943891 0 0,0 -0.14780599526132368,-0.6367443591434897 l 16.56623747801199 -3.6955079398393282" fill="#ffd113" stroke="none" /><path d="M 79.50377843672027 104.57218783832718 l -30.184200189607864 6.733330462420822 a51.92610030706244,51.92610030706244 0 0,0 -0.18709706166785675,-0.8740551842931746 l 30.295631290000163 -6.212761458711484" fill="#88ff25" stroke="none" /><path d="M 79.29508885075956 103.50808413554451 l -28.24090542218813 4.784926222135735 a49.643398157625384,49.643398157625384 0 0,0 -0.13549868999709608,-0.8437504719555309 l 28.31908586654652 -4.2980965204869905" fill="#a1ff22" stroke="none" /><path d="M 79.1416061653843 102.43462659150553 l -30.715377486613175 3.5851501985227796 a51.92390201916814,51.92390201916814 0 0,0 -0.09597935111757105,-0.888649588942058 l 30.772539139231796 -3.0559042876959395" fill="#88ff25" stroke="none" /><path d="M 79.10278846688536 102.07522291339032 l -7.302697502936046 0.7252032245372196 a28.338617753791755,28.338617753791755 0 0,0 -0.04402661167462364,-0.48582999115109804 l 7.3140987108877455 -0.5993918448375554" fill="#ff4f07" stroke="none" /><path d="M 79.04373962182676 101.35467743843564 l -36.58010114746381 2.364650792933247 a57.65645063738718,57.65645063738718 0 0,0 -0.0554974886787856,-0.9909449414639391 l 36.615384987030126 -1.7346341351338705" fill="#4bff2c" stroke="none" /><path d="M 79.0095281055655 100.63252640178507 l -20.527820174885406 0.6185848654100091 a41.53713827114544,41.53713827114544 0 0,0 -0.015384440843673667,-0.7148545140059791 l 20.535426678414087 -0.26514053561390105" fill="#fffd18" stroke="none" /><line stroke="#e1ed5e" stroke-width="0.3" x1="15.007084014347285" x2="10.007500721073583" y1="101.09737516637583" y2="101.16192664675087" /><path d="M 14.007167355692545 101.11028546245083 a86.0,86.0 0 0,1 10.666146001902534,-42.60595125391555" fill="none" id="id22" stroke="none" /><text fill="#e1ed5e" style="font-size:6.75px; font-family:Arial;" text-anchor="middle"><textPath startOffset="22.20632615414155" xlink:href="#id22">October</textPath></text><path d="M 79.00486145842228 99.54816195383935 l -43.9716969459818 -0.9463183867586684 a64.98187866381315,64.98187866381315 0 0,0 0.0336925023684665,-1.1180901256020241 l 43.948892749157686 1.7030786597856868" fill="#35ff66" stroke="none" /><path d="M 79.16333360222342 97.38593545837743 l -14.558135012653299 -1.826391218356875 a35.67225272168977,35.67225272168977 0 0,0 0.08167926826090094,-0.608605421305499 l 14.524539745334563 2.0767149817270334" fill="#ffb310" stroke="none" /><path d="M 79.21141760316559 97.0276538004421 l -15.138941297748685 -2.1645619587098732 a36.2929026705127,36.2929026705127 0 0,0 0.09374647999315829,-0.6176721727766025 l 15.099438924316225 2.424833243878568" fill="#ffbb11" stroke="none" /><path d="M 79.32604984820605 96.31383870115002 l -15.048681236387237 -2.6831769432068158 a36.28601470177724,36.28601470177724 0 0,0 0.11493038095642055,-0.6139626907169924 l 15.000265131520955 2.941817711386381" fill="#ffbb11" stroke="none" /><path d="M 79.46518482838121 95.60439243477599 l -21.536620661009295 -4.6100503907983015 a43.02449986042616,43.02449986042616 0 0,0 0.16125093502121854,-0.7228563235691944 l 21.454075338986037 4.980084883917455" fill="#eeff19" stroke="none" /><path d="M 79.62865764111835 94.90015583598534 l -14.234729001419709 -3.5635795788670723 a35.67401135200521,35.67401135200521 0 0,0 0.15425386131725569,-0.594403051765573 l 14.171278808232145 3.808079056181509" fill="#ffb310" stroke="none" /><path d="M 79.91906864156998 93.8553929516997 l -35.04811069845943 -10.724446201393736 a57.652200614124865,57.652200614124865 0 0,0 0.2985409840705462,-0.9464565031843101 l 34.858314230620685 11.32615287100446" fill="#4bff2c" stroke="none" /><path d="M 80.14247586403 93.16781622104843 l -13.874999225823888 -4.7738350458265195 a35.67327858937378,35.67327858937378 0 0,0 0.20477637292201867,-0.5789303817334924 l 13.79076977209206 5.011963053986623" fill="#ffb310" stroke="none" /><path d="M 80.38941819471856 92.48833698450439 l -13.699306122932015 -5.2474002129741635 a35.66990788126919,35.66990788126919 0 0,0 0.22456151890617565,-0.571484571520451 l 13.606951054144147 5.482433789390378" fill="#ffb310" stroke="none" /><path d="M 80.65960295795068 91.81776055985345 l -40.50834193057927 -17.13764987754393 a64.98437005676003,64.98437005676003 0 0,0 0.44470750915131124,-1.0264462445870612 l 40.207343711585274 17.83239526671759" fill="#35ff66" stroke="none" /><path d="M 81.10775173730289 90.83032412892265 l -13.20409414377814 -6.408832966095623 a35.67723550758351,35.67723550758351 0 0,0 0.2729138404664884,-0.5501776489521574 l 13.091820290358239 6.635170203546743" fill="#ffb310" stroke="none" /><line stroke="#e1ed5e" stroke-width="0.3" x1="26.266209847984243" x2="21.928928074336255" y1="57.711370442889674" y2="55.22380399835377" /><path d="M 25.398753493254645 57.213857153982495 a86.0,86.0 0 0,1 29.58750427330803,-30.492523968695096" fill="none" id="id23" stroke="none" /><text fill="#e1ed5e" style="font-size:6.75px; font-family:Arial;" text-anchor="middle"><textPath startOffset="21.46611528233685" xlink:href="#id23">November</textPath></text><path d="M 81.78341655067845 89.55222093294921 l -13.274824558213485 -7.613526132598702 a36.30316134735275,36.30316134735275 0 0,0 0.31556147095724224,-0.5393968446196421 l 13.141803412785919 7.8409023895722365" fill="#ffbb11" stroke="none" /><path d="M 81.96595687620814 89.24020034530311 l -53.84098226416985 -32.12358861503865 a83.6959035079557,83.6959035079557 0 0,0 0.7488160960621939,-1.2308567739908471 l 53.28005036982144 33.04561316223657" fill="#4dd5ff" stroke="none" /><path d="M 82.54541684631803 88.32363383020206 l -6.118524089114021 -4.0930297248693845 a28.36133339536615,28.36133339536615 0 0,0 0.2749368381099363,-0.40343588450240697 l 6.0471627853353445 4.197743632642208" fill="#ff4f07" stroke="none" /><path d="M 82.7489923806493 88.02491185347247 l -2.466178173553543 -1.71194063935249 a24.002128500977015,24.002128500977015 0 0,0 0.23852101504759812,-0.33737106043426496 l 2.4363445387020666 1.7541382001185413" fill="#ff1101" stroke="none" /><path d="M 83.39014120810768 87.1503855733568 l -24.486829697145733 -18.94334708569501 a51.958928072950584,51.958928072950584 0 0,0 0.5533524876298458,-0.7027014654649753 l 24.157123128921917 19.362040945113034" fill="#87ff25" stroke="none" /><path d="M 84.07557802195018 86.31012108654704 l -11.166617507977271 -9.599697983874572 a35.72574439378431,35.72574439378431 0 0,0 0.4049056116885194,-0.46287710917231556 l 10.99972003271091 9.790490649249831" fill="#ffb410" stroke="none" /><path d="M 84.5562425177563 85.77008943001954 l -10.832149756347606 -9.980765528770025 a35.72926165441518,35.72926165441518 0 0,0 0.42064004965901736,-0.44870947669693517 l 10.658742384718133 10.16574442234501" fill="#ffb410" stroke="none" /><path d="M 85.05521093208273 85.24692304244772 l -22.0134573632844 -21.731068207548187 a51.93269517074533,51.93269517074533 0 0,0 0.6334903477889913,-0.6307699389130158 l 21.636131215328096 22.10677399711131" fill="#88ff25" stroke="none" /><path d="M 85.83668400450813 84.49514656593479 l -9.892444296730309 -10.829448342060456 a35.667563040848606,35.667563040848606 0 0,0 0.456865836057919,-0.4101786585309131 l 9.704567473076418 10.998126009360648" fill="#ffb310" stroke="none" /><path d="M 86.37877921826538 84.01681056812374 l -9.520469057694118 -11.171352617196439 a35.67782171768866,35.67782171768866 0 0,0 0.4708494946082847,-0.39432291082787824 l 9.326762026126723 11.333576685418128" fill="#ffb310" stroke="none" /><path d="M 86.65592168130627 83.78471172551755 l -9.710806263957926 -11.800254703776497 a36.28220433609379,36.28220433609379 0 0,0 0.48565734911734804,-0.3927011344481384 l 9.506245516276078 11.96566193548877" fill="#ffbb11" stroke="none" /><path d="M 87.51073957382395 83.11751280151077 l -8.727287631897976 -11.797201491150505 a35.674451009584075,35.674451009584075 0 0,0 0.4968171563933535,-0.36095879276246284 l 8.52292515915084 11.945679518729635" fill="#ffb310" stroke="none" /><path d="M 88.09926311788651 82.69761687909137 l -8.317449036497871 -12.092670499623782 a35.67694240253094,35.67694240253094 0 0,0 0.508983069606026,-0.34366764064945904 l 8.108061272485305 12.234050052571908" fill="#ffb310" stroke="none" /><path d="M 89.00827224532344 82.1063720568725 l -32.97518326402967 -53.68088382938249 a84.0,84.0 0 0,0 1.2385517351294033,-0.746213562165523 l 32.046269462682616 54.240544001006626" fill="#4dd2ff" stroke="none" /><line stroke="#e1ed5e" stroke-width="0.3" x1="56.762969772571076" x2="54.21961505331055" y1="26.818313649435495" y2="22.513508569990535" /><path d="M 56.25429882871897 25.957352633546506 a86.0,86.0 0 0,1 42.265352541879196,-11.944610805530505" fill="none" id="id24" stroke="none" /><text fill="#e1ed5e" style="font-size:6.75px; font-family:Arial;" text-anchor="middle"><textPath startOffset="22.20632615414155" xlink:href="#id24">December</textPath></text></svg>