<?xml version="1.0" encoding="utf-8" ?>
<svg baseProfile="full" height="200mm" version="1.1" viewBox="0,0,200,200" width="200mm" xmlns="http://www.w3.org/2000/svg" xmlns:ev="http://www.w3.org/2001/xml-events" xmlns:xlink="http://www.w3.org/1999/xlink"><defs /><rect fill="#1a1a1a" height="200" width="200" x="0" y="0" /><text alignment-baseline="middle" fill="#e1ed5e" style="dominant-baseline: central; font-size:9.0px; font-family:Arial;" text-anchor="middle" x="100.0" y="100.0">2025</text><line stroke="#e1ed5e" stroke-width="0.3" x1="100.0" x2="100.0" y1="15.0" y2="10.0" /><path d="M 100.0 14.0 a86.0,86.0 0 0,1 42.46469731375804,11.215312516191453" fill="none" id="id13" stroke="none" /><text fill="#e1ed5e" style="font-size:6.75px; font-family:Arial;" text-anchor="middle"><textPath startOffset="22.20632615414155" xlink:href="#id13">January</textPath></text><path d="M 101.44485096284872 79.0497635885617 l 1.4453324033081647 -20.95721726392953 a42.0069974342741,42.0069974342741 0 0,0 0.7209397138449213,0.0559587971177934 l -1.8058623065154273 20.929233204623273" fill="#fffc17" stroke="none" /><path d="M 103.95276090670814 79.375362276772 l 3.953524827045969 -20.62862369166608 a42.00405851187898,42.00405851187898 0 0,0 0.7089356797770582,0.1422058280426695 l -4.308026916290152 20.557513907546202" fill="#fffc17" stroke="none" /><path d="M 106.40334571778207 80.00007090966166 l 11.52115753300718 -35.98467798777114 a58.784045849855055,58.784045849855055 0 0,0 0.9610272723021224,0.31683558203425694 l -12.13886762755172 35.78102868147764" fill="#43ff2d" stroke="none" /><path d="M 108.43124777332544 80.76684994638697 l 18.543632019130268 -42.30126628365537 a67.18726466962113,67.18726466962113 0 0,0 1.0552172047307706,0.47344520091947007 l -19.269031342327818 41.97580075221937" fill="#38ff7d" stroke="none" /><line stroke="#e1ed5e" stroke-width="0.3" x1="143.23703022742887" x2="145.7803849466894" y1="26.81831364943548" y2="22.513508569990506" /><path d="M 143.74570117128098 25.957352633546492 a86.0,86.0 0 0,1 28.547481713284135,27.462654790039103" fill="none" id="id14" stroke="none" /><text fill="#e1ed5e" style="font-size:6.75px; font-family:Arial;" text-anchor="middle"><textPath startOffset="19.985693538727396" xlink:href="#id14">February</textPath></text><path d="M 114.94478906791727 85.2469230424477 l 22.427342333573794 -22.139643851573993 a52.51427476591916,52.51427476591916 0 0,0 0.6295104582998048,0.6487658628094557 l -22.80511705557671 21.75031379321442" fill="#86ff25" stroke="none" /><path d="M 115.4437574822437 85.77008943001954 l 7.728620043411586 -7.121166735074093 a31.509166638899067,31.509166638899067 0 0,0 0.36409046018180535,0.4020377798263008 l -7.850054144209427 6.987076167978243" fill="#ff720a" stroke="none" /><path d="M 115.9244219780498 86.31012108654704 l 8.209373554663358 -7.057419733887736 a31.825940488487554,31.825940488487554 0 0,0 0.3535549586549894,0.4184975540729761 l -8.329639126805464 6.915063230185653" fill="#ff760a" stroke="none" /><path d="M 116.38621287248628 86.86637796730983 l 16.45146069622632 -13.185918451766728 a42.08361933957549,42.08361933957549 0 0,0 0.4481823685301427,0.5691460944011644 l -16.675997145350426 12.900779963412525" fill="#fffd17" stroke="none" /><path d="M 117.04232023915458 87.72973835380427 l 8.532006419819462 -6.142940026304769 a31.513365099463527,31.513365099463527 0 0,0 0.31316388589384725,0.44294810774907517 l -8.63648292551719 5.995165418223901" fill="#ff720a" stroke="none" /><path d="M 117.2510076193507 88.02491185347247 l 8.631999307529425 -5.9920530365124325 a31.50790710072973,31.50790710072973 0 0,0 0.3054399535090936,0.44819544246392296 l -8.73386372670725 5.842579570778103" fill="#ff710a" stroke="none" /><path d="M 117.65298651832404 88.62581576622439 l 8.825728576796426 -5.686599416227916 a31.499090333544366,31.499090333544366 0 0,0 0.28975023789507365,0.4583152926798662 l -8.922306410937455 5.533836475833844" fill="#ff710a" stroke="none" /><line stroke="#e1ed5e" stroke-width="0.3" x1="172.23445277983987" x2="176.4835382374775" y1="55.19839476539836" y2="52.563006222186495" /><path d="M 173.08426987136738 54.67131705675599 a86.0,86.0 0 0,1 12.851231095245387,41.99856678651699" fill="none" id="id15" stroke="none" /><text fill="#e1ed5e" style="font-size:6.75px; font-family:Arial;" text-anchor="middle"><textPath startOffset="22.20632615414155" xlink:href="#id15">March</textPath></text><path d="M 118.03404312379186 89.2402003453031 l 38.06528546541167 -22.71120472515304 a65.32566725533971,65.32566725533971 0 0,0 0.5678365983920377,0.9706168135897617 l -38.45058173827404 22.052608499209384" fill="#35ff67" stroke="none" /><path d="M 118.3937258080291 89.86733742301442 l 10.13269909528707 -5.58186101055468 a32.56843823931225,32.56843823931225 0 0,0 0.26627319365683594,0.4933637879565506 l -10.22728038816237 5.406616239265671" fill="#ff800b" stroke="none" /><path d="M 118.89224826269711 90.83032412892265 l 10.42281011913885 -5.058889187212273 a32.585651927626536,32.585651927626536 0 0,0 0.24057801570014653,0.5067186561078043 l -10.508346328680753 4.878728115463928" fill="#ff800b" stroke="none" /><path d="M 119.04729006885535 91.15688171328212 l 40.18952182773362 -18.658858773322418 a65.30971310519476,65.30971310519476 0 0,0 0.46462475322403,1.0237390553842485 l -40.504748897921004 17.964297709096105" fill="#35ff67" stroke="none" /><path d="M 119.47837535516314 92.15188598940014 l 10.72242018651285 -4.320215344397515 a32.56004131818334,32.56004131818334 0 0,0 0.2049832132562942,0.5216599191493886 l -10.795196949650842 4.135006420352342" fill="#ff800b" stroke="none" /><path d="M 120.08093135843002 93.85539295169968 l 42.420072547974144 -12.98020854288062 a65.36156409316584,65.36156409316584 0 0,0 0.31994206401585495,1.0786855881416417 l -42.6372205091017 12.248093567992449" fill="#35ff67" stroke="none" /><path d="M 120.28053869075195 94.5502522615342 l 11.179198410824048 -3.004052909355431 a32.57578554530006,32.57578554530006 0 0,0 0.14085718189141033,0.5427801810883134 l -11.22925192458576 2.8111763027182675" fill="#ff800b" stroke="none" /><path d="M 120.45610955862082 95.25157060432595 l 10.96761290370159 -2.5458866146110877 a32.259221618739794,32.259221618739794 0 0,0 0.12090389582571603,0.5419884581151024 l -11.009811186529344 2.3567199869460214" fill="#ff7c0b" stroke="none" /><path d="M 120.6074358757038 95.95851677861258 l 42.10142203160889 -8.256834657333965 a63.90343873912899,63.90343873912899 0 0,0 0.20240433178113423,1.0812520337876501 l -42.237312087299884 7.530904546083752" fill="#33ff56" stroke="none" /><path d="M 120.91429891909075 98.10471618934814 l 11.716495351941134 -1.061765639097849 a32.76450634767252,32.76450634767252 0 0,0 0.04606614106259391,0.5621236022201966 l -11.733035976823222 0.8599281196698836" fill="#ff830c" stroke="none" /><path d="M 120.96714384426684 98.82574320788733 l 44.86141582702709 -2.512446264972878 a65.93171503781947,65.93171503781947 0 0,0 0.05370732129878151,1.1336766676882837 l -44.898016756559365 1.7398584906615946" fill="#36ff6e" stroke="none" /><line stroke="#e1ed5e" stroke-width="0.3" x1="184.98032266829074" x2="189.97916517819016" y1="98.17113171792111" y2="98.06355123074" /><path d="M 185.9800911702706 98.14961562048488 a86.0,86.0 0 0,1 -9.607161424134198,41.387399972396054" fill="none" id="id16" stroke="none" /><text fill="#e1ed5e" style="font-size:6.75px; font-family:Arial;" text-anchor="middle"><textPath startOffset="21.466115282336823" xlink:href="#id16">April</textPath></text><path d="M 120.99824983174949 100.27111621757518 l 11.71146930571422 0.15121113834983727 a32.71244543667322,32.71244543667322 0 0,0 -0.012115969048883726,0.5629814729154231 l -11.707131273980329 -0.3527824270553752" fill="#ff820c" stroke="none" /><path d="M 120.89721153311464 102.0752229133903 l 11.658041197294944 1.1577159076720451 a32.71538435906834,32.71538435906834 0 0,0 -0.060473139348929415,0.5599061652191394 l -11.636385756444964 -1.358218394775976" fill="#ff820c" stroke="none" /><path d="M 120.81339534386255 102.79330883721812 l 11.653101794152786 1.563930905305548 a32.75757888774116,32.75757888774116 0 0,0 -0.07981298143761054,0.55821180628272 l -11.624454761698573 -1.7642881835686772" fill="#ff830c" stroke="none" /><path d="M 120.64145759157962 103.86396538481128 l 43.56578019572838 8.155270328741791 a65.32251840991637,65.32251840991637 0 0,0 -0.21640438018934743,1.1034412723461564 l -43.41894588256337 -8.90397532815589" fill="#35ff67" stroke="none" /><path d="M 120.13307415673323 105.97154293290107 l 21.09796704799408 6.257733669643992 a43.006440971643734,43.006440971643734 0 0,0 -0.2166157173616785,0.7079126976394924 l -20.98712455812627 -6.619973339835541" fill="#f5ff19" stroke="none" /><path d="M 120.02730092923936 106.31721596034902 l 20.85879661274981 6.579494827650837 a42.8718803105528,42.8718803105528 0 0,0 -0.22805339258060645,0.7018761719423026 l -20.74245096915296 -6.937569899570935" fill="#f7ff19" stroke="none" /><path d="M 119.67450827220406 107.3425965602758 l 10.970418227551988 4.094199154965016 a32.7095065142781,32.7095065142781 0 0,0 -0.20140601447474346,0.5258075495113355 l -10.898317933483739 -4.2824302713094955" fill="#ff820c" stroke="none" /><path d="M 119.54520255179757 107.68017299344265 l 10.969045633231337 4.310222307132622 a32.785498650494816,32.785498650494816 0 0,0 -0.21091595990236367,0.5234761153856903 l -10.893227059071581 -4.498397790361126" fill="#ff830c" stroke="none" /><path d="M 119.26925614724726 108.34839909993367 l 40.651703318846295 17.612337539366255 a65.30299556829164,65.30299556829164 0 0,0 -0.45574934258511024,1.027594453216791 l -40.34251289152991 -18.309480329075733" fill="#35ff67" stroke="none" /><path d="M 118.97047184881838 109.00673069616215 l 10.600986144673401 5.033097124822799 a32.7351171237213,32.7351171237213 0 0,0 -0.24605388725310992,0.5069438864954473 l -10.512779000805576 -5.214829967283522" fill="#ff830c" stroke="none" /><path d="M 118.81262510543309 109.33194174019688 l 10.507325339200925 5.212124696111628 a32.72902935590284,32.72902935590284 0 0,0 -0.25469626256885197,0.5025398890890357 l -10.416050406845804 -5.392218796903358" fill="#ff820c" stroke="none" /><line stroke="#e1ed5e" stroke-width="0.3" x1="174.80103733775053" x2="179.2010983576182" y1="140.37084112569926" y2="142.7455964860345" /><path d="M 175.68104954172406 140.8457921977663 a86.0,86.0 0 0,1 -30.038265399797805,32.042727171017184" fill="none" id="id17" stroke="none" /><text fill="#e1ed5e" style="font-size:6.75px; font-family:Arial;" text-anchor="middle"><textPath startOffset="22.206326154141568" xlink:href="#id17">May</textPath></text><path d="M 118.30583269289576 110.29060199501025 l 18.901713135323195 10.625575474365329 a42.68357935423678,42.68357935423678 0 0,0 -0.36555031161576135,0.6373677806295432 l -18.716010827555056 -10.949363100853187" fill="#f9ff18" stroke="none" /><path d="M 117.35343817320211 111.8261652097733 l 18.09074679386286 12.32863241376456 a42.89224284429043,42.89224284429043 0 0,0 -0.42103657284301826,0.6065345855718252 l -17.875849313857707 -12.638208261523404" fill="#f7ff19" stroke="none" /><path d="M 116.498646956653 112.99209946851258 l 16.512720641704828 13.003181996465456 a42.0179134317417,42.0179134317417 0 0,0 -0.45235702855936,0.5643849462006151 l -16.286445701090614 -13.28549477624432" fill="#fffc17" stroke="none" /><path d="M 116.0416608686014 113.55231037782055 l 8.888312738244357 7.509021288412622 a32.635613608343604,32.635613608343604 0 0,0 -0.3662298476933331,0.42600805109346007 l -8.757740380980247 -7.6609064386676105" fill="#ff810b" stroke="none" /><path d="M 115.56566222782051 114.09645910891815 l 16.18935716730784 14.66128507534627 a42.84144147146046,42.84144147146046 0 0,0 -0.49972214167025153,0.5423496884614201 l -15.934588617641868 -14.937786018609025" fill="#f7ff18" stroke="none" /><path d="M 115.07121518719521 114.62390073753431 l 15.071114749254534 14.623803280596944 a41.99986005131452,41.99986005131452 0 0,0 -0.5079170574469912,0.5145172976039233 l -14.817157066752007 -14.881061072181533" fill="#fffc17" stroke="none" /><path d="M 114.81725581225074 114.88116024355365 l 37.076959863942605 37.236866803835426 a73.54793242477758,73.54793242477758 0 0,0 -0.9048148497430075,0.8855517687553639 l -36.4304950618238 -37.869568675513364" fill="#40ffc4" stroke="none" /><path d="M 113.75828350139079 115.86535959552629 l 7.661380234532094 8.834717819749967 a32.6939722101896,32.6939722101896 0 0,0 -0.4283447839454179,0.3650447176199161 l -7.508169974009628 -8.96528692759283" fill="#ff820c" stroke="none" /><path d="M 112.92097659922987 116.55440617244103 l 38.76047571196721 49.66007433301791 a83.99601146246376,83.99601146246376 0 0,0 -1.1474306004624786,0.8798008554837705 l -37.89991638301124 -50.31991453032906" fill="#4dd2ff" stroke="none" /><path d="M 112.34349029814194 116.9893568818739 l 6.836404118175541 9.40950302929149 a32.630785378694476,32.630785378694476 0 0,0 -0.45725468608466524,0.3262390776565074 l -6.6734221042419914 -9.525786368792215" fill="#ff810b" stroke="none" /><path d="M 111.45004920935366 117.60387380957326 l 6.366755395724548 9.78856566583099 a32.67696844490354,32.67696844490354 0 0,0 -0.4741555685285868,0.30262851772921134 l -6.1973180251490305 -9.89670861238401" fill="#ff820b" stroke="none" /><line stroke="#e1ed5e" stroke-width="0.3" x1="143.8653032363475" x2="146.44561519142675" y1="172.8068346515853" y2="177.08958963109032" /><path d="M 144.38136562736335 173.6633856474863 a86.0,86.0 0 0,1 -40.68145358897372,12.25698825130547" fill="none" id="id18" stroke="none" /><text fill="#e1ed5e" style="font-size:6.75px; font-family:Arial;" text-anchor="middle"><textPath startOffset="21.466115282336833" xlink:href="#id18">June</textPath></text><path d="M 110.21172684928248 118.3499491758327 l 10.640292040934593 19.120058835189642 a42.88132684682283,42.88132684682283 0 0,0 -0.6480740446660026,0.3533816417041626 l -10.309595184399942 -19.300381128653573" fill="#f7ff19" stroke="none" /><path d="M 108.92500713936063 119.00905698771935 l 4.4715740011138045 9.523847284907136 a31.521342174536002,31.521342174536002 0 0,0 -0.4931318914619658,0.2263726647782797 l -4.3069741138844195 -9.599407020019491" fill="#ff720a" stroke="none" /><path d="M 108.59647513512805 119.15986991738527 l 4.305856981731975 9.596917149882614 a31.518613175169104,31.518613175169104 0 0,0 -0.4969124374170581,0.2178318096532123 l -4.140023869657163 -9.669613512830281" fill="#ff720a" stroke="none" /><path d="M 106.57524785965236 119.94407469862006 l 6.582368433956411 19.96567286021765 a42.022741661390825,42.022741661390825 0 0,0 -0.6889301416559303,0.22057367566141253 l -6.23771694720954 -20.07601938253877" fill="#fffd17" stroke="none" /><path d="M 106.2309692047433 120.05430185196036 l 6.2337305885833345 20.063189333704752 a42.009306587584554,42.009306587584554 0 0,0 -0.6924034436369167,0.208615477695746 l -5.8874521705061715 -20.167520180506227" fill="#fffc17" stroke="none" /><path d="M 105.53697534728816 120.25689768951611 l 3.076599660248031 11.255669501900169 a32.66857152377462,32.66857152377462 0 0,0 -0.543713236535971,0.14359960750185688 l -2.882395980900563 -11.306960458705609" fill="#ff820b" stroke="none" /><path d="M 104.83641907484287 120.43548508189849 l 2.683083696610122 11.336924283663867 a32.650098297290995,32.650098297290995 0 0,0 -0.5480238938160714,0.12472845401992229 l -2.4875396534011887 -11.381429471261475" fill="#ff810b" stroke="none" /><path d="M 104.13013068566511 120.58985236759428 l 4.13121788810477 20.59527237471513 a42.00552797307654,42.00552797307654 0 0,0 -0.7101582284503031,0.13610351467332954 l -3.7760920450827626 -20.663333087736927" fill="#fffc17" stroke="none" /><path d="M 103.7750983002368 120.6578951692458 l 3.7776015309247155 20.67159321709053 a42.01392489420546,42.01392489420546 0 0,0 -0.7125382173127295,0.12388390244575653 l -3.421214342139936 -20.73355569805729" fill="#fffc17" stroke="none" /><path d="M 102.70371172650421 120.8252237178851 l 2.8165322987977417 21.694219341553335 a42.87628869414549,42.87628869414549 0 0,0 -0.7327202006505219,0.08872221216301457 l -2.4426846750958395 -21.7394870824417" fill="#f7ff19" stroke="none" /><path d="M 101.98527174616119 120.90594882070398 l 1.105728425052778 11.643898075137418 a32.69628136350005,32.69628136350005 0 0,0 -0.5607500724659941,0.04838387576561746 l -0.9051340348452421 -11.661206203181699" fill="#ff820c" stroke="none" /><path d="M 101.62511606390274 120.93702456842531 l 1.683295554724667 21.686574373374036 a42.751804338409244,42.751804338409244 0 0,0 -0.7341853661106313,0.05063372137200477 l -1.3097474278351056 -21.712336439262323" fill="#f8ff18" stroke="none" /><path d="M 101.26447882468166 120.96189622390904 l 1.2853519315340596 21.30792012812163 a42.34665289393888,42.34665289393888 0 0,0 -0.7279831884507043,0.03762841552261247 l -0.9183806746698758 -21.326888350406445" fill="#fdff18" stroke="none" /><line stroke="#e1ed5e" stroke-width="0.3" x1="102.19456741930631" x2="102.32365962044197" y1="184.97166512339345" y2="189.96999836594603" /><path d="M 102.22038585953345 185.97133177190398 a86.0,86.0 0 0,1 -42.740103519485714,-10.115201625700543" fill="none" id="id19" stroke="none" /><text fill="#e1ed5e" style="font-size:6.75px; font-family:Arial;" text-anchor="middle"><textPath startOffset="22.20632615414155" xlink:href="#id19">July</textPath></text><path d="M 100.18074693466247 120.99922214144158 l 0.10020912155792379 11.64231973351737 a32.64275099130319,32.64275099130319 0 0,0 -0.5619121124407505,0.0 l 0.10020912155791578 -11.64231973351737" fill="#ff810b" stroke="none" /><path d="M 99.45781275523022 120.99299961872073 l -0.5648116520412874 21.86899620072481 a42.87628869414549,42.87628869414549 0 0,0 -0.7376347857579695,-0.02540563347439278 l 0.9411667894738999 -21.85603376882432" fill="#f7ff19" stroke="none" /><path d="M 99.09653310690486 120.98055641714683 l -0.47447139411195355 11.018305074118414 a32.028516210722735,32.028516210722735 0 0,0 -0.5506036430039475,-0.02845991912438264 l 0.66406310552939 -11.00850534823183" fill="#ff790b" stroke="none" /><path d="M 98.73552117531835 120.96189622390904 l -1.288221246383961 21.35548619165995 a42.39430542134551,42.39430542134551 0 0,0 -0.728045965040423,-0.05021031232909951 l 1.655629972203314 -21.330147534814564" fill="#fdff18" stroke="none" /><path d="M 98.01472825383883 120.90594882070398 l -1.1060657975463697 11.647450783777105 a32.69985005497984,32.69985005497984 0 0,0 -0.5598952464597879,-0.05803543156909646 l 1.3063936406117511 -11.626685983752248" fill="#ff820c" stroke="none" /><path d="M 97.2962882734958 120.8252237178851 l -2.805667361467534 21.610532627335978 a42.79189963679984,42.79189963679984 0 0,0 -0.7296455137495549,-0.10112221966062068 l 3.17724146640392 -21.55903584218275" fill="#f8ff18" stroke="none" /><path d="M 96.58105272829116 120.7198165907248 l -5.130881647327652 31.09463768600589 a52.51511445803206,52.51511445803206 0 0,0 -0.8906339060710066,-0.15484812077968596 l 5.665364524870709 -31.0017109867052" fill="#86ff25" stroke="none" /><path d="M 96.22490169976321 120.6578951692458 l -3.7820545141584616 20.69596059868366 a42.038695811535774,42.038695811535774 0 0,0 -0.7107189740125923,-0.1362109828949244 l 4.137741102742749 -20.62779241744027" fill="#fffd17" stroke="none" /><path d="M 95.16358092515715 120.4354850818985 l -5.036251124851352 21.279842201006634 a42.86768184998834,42.86768184998834 0 0,0 -0.7165980430529284,-0.17612236423864241 l 5.401802452647491 -21.18999857845396" fill="#f7ff18" stroke="none" /><path d="M 94.11515582081647 120.15858648285463 l -6.1416430841536735 21.03825343357092 a42.91638399253607,42.91638399253607 0 0,0 -0.7073540241118462,-0.21311996495136054 l 6.502872082705766 -20.929418099513832" fill="#f6ff19" stroke="none" /><path d="M 93.76903079525671 120.05430185196036 l -6.486490640226201 20.876694617586555 a42.86117423611343,42.86117423611343 0 0,0 -0.7026755911348558,-0.2249745345175766 l 6.844887576451997 -20.76194723640927" fill="#f7ff18" stroke="none" /><path d="M 93.08242187328487 119.8279376855182 l -7.1993891632591245 20.635696061257576 a42.85550631435141,42.85550631435141 0 0,0 -0.6944233580039534,-0.24899550978055385 l 7.553532081892804 -20.508713010437063" fill="#f7ff18" stroke="none" /><path d="M 92.40401165467489 119.57807347666478 l -7.8935153954044095 20.344926476292233 a42.8225483989204,42.8225483989204 0 0,0 -0.6849138798749921,-0.27254136781379296 l 8.24255035132126 -20.206038264072376" fill="#f7ff18" stroke="none" /><path d="M 91.7346041902142 119.30500536409082 l -8.520152103279909 19.90002485567004 a42.6472626703542,42.6472626703542 0 0,0 -0.6723631882188037,-0.2947442627824138 l 8.861435966156456 -19.750416039593176" fill="#faff18" stroke="none" /><path d="M 91.40352486487194 119.15986991738527 l -8.810649419841498 19.637222712601325 a42.52319816067442,42.52319816067442 0 0,0 -0.6652491199097881,-0.30538324254171473 l 9.147366535518707 -19.482652399725538" fill="#fbff18" stroke="none" /><path d="M 90.7491055286396 118.85261126421891 l -3.785095747631722 7.713733947443377 a29.592359468194992,29.592359468194992 0 0,0 -0.4553645392663941,-0.22832923320093768 l 3.9173141945808765 -7.647436873333137" fill="#ff5708" stroke="none" /><path d="M 90.42595943632237 118.69057910512821 l -1.2187114645083905 2.379185975056174 a23.67315984139149,23.67315984139149 0 0,0 -0.36108230776867223,-0.18890119762078897 l 1.2594846748035584 -2.3578553584906685" fill="#ff0000" stroke="none" /><path d="M 90.10565033884886 118.52300852407294 l -5.052082433193883 9.457899627481133 a31.722658358601844,31.722658358601844 0 0,0 -0.47943086237642,-0.26142393238034534 l 5.214136107438943 -9.369535043341022" fill="#ff740a" stroke="none" /><line stroke="#e1ed5e" stroke-width="0.3" x1="58.666819895761336" x2="56.23545636021788" y1="174.27360380694188" y2="178.64263932499728" /><path d="M 58.180547188652646 175.14741091055294 a86.0,86.0 0 0,1 -31.652253787137756,-30.449443065178592" fill="none" id="id20" stroke="none" /><text fill="#e1ed5e" style="font-size:6.75px; font-family:Arial;" text-anchor="middle"><textPath startOffset="22.20632615414155" xlink:href="#id20">August</textPath></text><path d="M 89.1626897886671 117.98757091392108 l -10.89042967859781 18.075737642168647 a42.102932258172004,42.102932258172004 0 0,0 -0.6175513752075213,-0.3793504935042695 l 11.19996025373764 -17.885598681835997" fill="#fffe18" stroke="none" /><path d="M 88.54995079064634 117.60387380957326 l -12.287237006497545 18.891007870429164 a43.53544700276565,43.53544700276565 0 0,0 -0.6246824611237518,-0.4140054723393491 l 12.610594166361258 -18.676704376998497" fill="#efff19" stroke="none" /><path d="M 88.24862548938628 117.40417183066458 l -5.90924471075851 8.751785609640642 a31.559968011729033,31.559968011729033 0 0,0 -0.44761519970549063,-0.3078738159307366 l 6.059016795086891 -8.648771004344804" fill="#ff720a" stroke="none" /><path d="M 87.95078237400918 117.19931262002967 l -6.1143024325897715 8.727686913437408 a31.656322681683385,31.656322681683385 0 0,0 -0.44359955552461233,-0.3164965045681152 l 6.263629315963271 -8.621146147025073" fill="#ff740a" stroke="none" /><path d="M 87.36589467227662 116.77436683061367 l -13.239099255498896 17.577620390051038 a43.00560127953084,43.00560127953084 0 0,0 -0.5874795962362451,-0.45045430297883055 l 13.539707580228628 -17.347126745244843" fill="#f5ff19" stroke="none" /><path d="M 87.07902340077011 116.55440617244103 l -13.512195987656208 17.311878784349865 a42.96088767451934,42.96088767451934 0 0,0 -0.5790360648801858,-0.460021269630209 l 13.808189545253752 -17.076723600714526" fill="#f6ff19" stroke="none" /><path d="M 86.51685102203217 116.09983520530335 l -13.497750368850644 16.11727030057416 a42.022741661390825,42.022741661390825 0 0,0 -0.550566999996773,-0.4692051416932378 l 13.773182845424474 -15.882540768657968" fill="#fffd17" stroke="none" /><path d="M 85.97065885151581 115.62618273729859 l -7.097787326639569 7.905668600020848 a31.624414381393493,31.624414381393493 0 0,0 -0.4019319260114669,-0.3671552846974879 l 7.23281880211789 -7.782320548736784" fill="#ff730a" stroke="none" /><path d="M 85.44109423537348 115.13401014063109 l -15.186940798543601 15.78685374891009 a42.90588784112492,42.90588784112492 0 0,0 -0.5278446746244503,-0.5166071106973431 l 15.456435425543846 -15.523096535290177" fill="#f6ff19" stroke="none" /><path d="M 84.67929136418377 114.36230785411682 l -15.961083728707768 14.96262370404532 a42.87775815534304,42.87775815534304 0 0,0 -0.5001457560591287,-0.5428094382156847 l 16.216275892762628 -14.685663011028293" fill="#f7ff19" stroke="none" /><path d="M 84.43433777217949 114.09645910891817 l -7.872560198759574 7.129489340065792 a31.621055612941923,31.621055612941923 0 0,0 -0.361897184826111,-0.4065953235978548 l 7.994116233234024 -6.992919846727073" fill="#ff730a" stroke="none" /><path d="M 84.19399662182784 113.82643327865904 l -15.91412948171883 13.921017489518679 a42.14365732564727,42.14365732564727 0 0,0 -0.47292707251767147,-0.5501210284785168 l 16.15139906380728 -13.645019361878632" fill="#fffe18" stroke="none" /><path d="M 83.72743513129214 113.27417163493432 l -16.98249353428378 13.85328838951163 a42.916174069507846,42.916174069507846 0 0,0 -0.46202753525006524,-0.5764503902056475 l 17.218438981588708 -13.558910165727722" fill="#f6ff19" stroke="none" /><path d="M 83.28015986056508 112.70617746262583 l -16.747306339124172 12.727050294217833 a42.03449735097131,42.03449735097131 0 0,0 -0.43283268868013514,-0.579850118994119 l 16.963900294499393 -12.436887295714406" fill="#fffd17" stroke="none" /><path d="M 83.06392112726016 112.41649034213515 l -16.972365230126037 12.443093265363272 a42.04499350238246,42.04499350238246 0 0,0 -0.4228929646256885,-0.5873613406011554 l 17.184037987127333 -12.149098319310978" fill="#fffd17" stroke="none" /><path d="M 82.85270091963577 112.12312394758628 l -17.19346554485037 12.155763593548265 a42.05653926893473,42.05653926893473 0 0,0 -0.41283318346658565,-0.5947169913373904 l 17.40015963547909 -11.858005340023862" fill="#fffd17" stroke="none" /><path d="M 82.6465618267979 111.8261652097733 l -17.414904651420464 11.868053895981651 a42.07438272633368,42.07438272633368 0 0,0 -0.40270572713111796,-0.6019904222304536 l 17.616613483962315 -11.566526559545377" fill="#fffd17" stroke="none" /><path d="M 82.05923443525364 110.91462005526583 l -18.886315826109175 11.489864283762511 a43.106784179134316,43.106784179134316 0 0,0 -0.3802000389106938,-0.6372371342797033 l 19.0812967407181 -11.163065055596697" fill="#f4ff19" stroke="none" /><line stroke="#e1ed5e" stroke-width="0.3" x1="26.63291911575756" x2="22.317208475507996" y1="142.92168965132927" y2="145.44649492493687" /><path d="M 25.769776987707644 143.4266507060508 a86.0,86.0 0 0,1 -11.730757126820373,-40.83630448921669" fill="none" id="id21" stroke="none" /><text fill="#e1ed5e" style="font-size:6.75px; font-family:Arial;" text-anchor="middle"><textPath startOffset="21.46611528233685" xlink:href="#id21">September</textPath></text><path d="M 81.69416730710424 110.29060199501025 l -37.52820746050896 21.09643702316509 a64.0514344740262,64.0514344740262 0 0,0 -0.5320038657495506,-0.9657415473041311 l 37.885787735710025 -20.447324957463138" fill="#34ff58" stroke="none" /><path d="M 81.35079622478065 109.6543875284942 l -37.480481346917976 19.40303168108785 a63.20502482423112,63.20502482423112 0 0,0 -0.4918594872841849,-0.9704854311333604 l 37.80891950398843 -18.754992038251803" fill="#32ff4d" stroke="none" /><path d="M 81.02952815118164 109.00673069616217 l -19.177995953578858 9.10525822565302 a42.22972576721869,42.22972576721869 0 0,0 -0.3061160088411385,-0.6593466496852022 l 19.331886579259823 -8.773791508688992" fill="#ffff18" stroke="none" /><path d="M 80.87730276802145 108.67885076344099 l -19.468181435743116 8.835649033539879 a42.37940088634167,42.37940088634167 0 0,0 -0.2957656677924034,-0.6668735010159298 l 19.617388188266798 -8.499227196031253" fill="#fdff18" stroke="none" /><path d="M 80.58989483394504 108.01547362559985 l -19.856438629621465 8.199788655056595 a42.482892939255606,42.482892939255606 0 0,0 -0.27330132261317674,-0.6783114694475632 l 19.99464256649203 -7.856777817766227" fill="#fcff18" stroke="none" /><path d="M 80.45479744820244 107.68017299344265 l -19.696492097390273 7.7396213352632115 a42.162550398187335,42.162550398187335 0 0,0 -0.2596123311148854,-0.6777658750779667 l 19.826798708098668 -7.399431893352086" fill="#fffe18" stroke="none" /><path d="M 80.32549172779594 107.34259656027581 l -39.87033102836589 14.879749542687884 a63.5564359734764,63.5564359734764 0 0,0 -0.37369894760472083,-1.0282590064965844 l 40.120554236975835 -14.191242739185183" fill="#33ff52" stroke="none" /><path d="M 80.0844068197444 106.66101706037122 l -20.401820067835928 6.823641671351663 a42.512702009263265,42.512702009263265 0 0,0 -0.2261427735557988,-0.6959958912238361 l 20.516255092407977 -6.471446880150024" fill="#fbff18" stroke="none" /><path d="M 79.86692584326677 105.97154293290107 l -31.19784569397222 9.253394366169008 a53.54121821998601,53.54121821998601 0 0,0 -0.25446703849726116,-0.8858331439481553 l 31.352505369355587 -8.715003746716256" fill="#7bff26" stroke="none" /><path d="M 79.67330655649465 105.27499134158121 l -11.343014242680105 2.943631834851516 a32.71874312751991,32.71874312751991 0 0,0 -0.13677787890869328,-0.5463596354632925 l 11.392003435883858 -2.7479443599908313" fill="#ff820c" stroke="none" /><path d="M 79.58551787078972 104.9243191809786 l -23.63497875353247 5.701157564585449 a45.31286528272966,45.31286528272966 0 0,0 -0.1763737125845389,-0.7598133376852749 l 23.729613032047563 -5.2934755695516" fill="#d9ff1c" stroke="none" /><path d="M 79.50377843672027 104.57218783832718 l -43.23609335746437 9.644877208974922 a65.29879710772718,65.29879710772718 0 0,0 -0.23528077396637548,-1.0991534469680635 l 43.39570817015518 -8.899209942590694" fill="#35ff66" stroke="none" /><path d="M 79.29508885075956 103.50808413554451 l -40.452502158842535 6.853967159947051 a62.02903602012595,62.02903602012595 0 0,0 -0.1693045487301868,-1.0542595865567024 l 40.56448846193401 -6.156628343697135" fill="#31ff3f" stroke="none" /><path d="M 79.1416061653843 102.43462659150553 l -43.99695602927351 5.135398245113368 a65.29564826230383,65.29564826230383 0 0,0 -0.12069651369235598,-1.117499816685216 l 44.07883484446692 -4.37730210654337" fill="#35ff66" stroke="none" /><path d="M 79.10278846688536 102.07522291339032 l -10.460443179374721 1.0387869853189162 a31.51189563826597,31.51189563826597 0 0,0 -0.048956586536814096,-0.5402318529471909 l 10.47677436218861 -0.8585737438231592" fill="#ff720a" stroke="none" /><path d="M 79.04373962182676 101.35467743843564 l -52.397633805177236 3.3871449897242485 a73.5069974342741,73.5069974342741 0 0,0 -0.0707545073070252,-1.2633692581565688 l 52.448174663371795 -2.4847040152322424" fill="#40ffc3" stroke="none" /><path d="M 79.0095281055655 100.63252640178507 l -29.404216243309907 0.8860659822813457 a50.417563560027986,50.417563560027986 0 0,0 -0.01867355471164524,-0.8676867111258382 l 29.41511186070656 -0.3797894553653786" fill="#9dff22" stroke="none" /><line stroke="#e1ed5e" stroke-width="0.3" x1="15.007084014347285" x2="10.007500721073583" y1="101.09737516637583" y2="101.16192664675087" /><path d="M 14.007167355692545 101.11028546245083 a86.0,86.0 0 0,1 10.666146001902534,-42.60595125391555" fill="none" id="id22" stroke="none" /><text fill="#e1ed5e" style="font-size:6.75px; font-family:Arial;" text-anchor="middle"><textPath startOffset="22.20632615414155" xlink:href="#id22">October</textPath></text><path d="M 79.00486145842228 99.54816195383935 l -62.98541562473312 -1.3555141384819447 a84.0,84.0 0 0,0 0.04355322217741975,-1.4453194103000224 l 62.95275070810006 2.4395036962069616" fill="#4dd2ff" stroke="none" /><path d="M 79.16333360222342 97.38593545837743 l -20.853190760852353 -2.616137606035298 a42.016653893572354,42.016653893572354 0 0,0 0.09620613454310484,-0.7168474484706898 l 20.805068627251412 2.9747033965706473" fill="#fffc17" stroke="none" /><path d="M 79.21141760316559 97.0276538004421 l -21.6851423980414 -3.100536119456867 a42.9056779180967,42.9056779180967 0 0,0 0.11082762690705786,-0.7302155891117512 l 21.62855887769504 3.47335082096071" fill="#f6ff19" stroke="none" /><path d="M 79.32604984820605 96.31383870115002 l -21.555853153504202 -3.843404432860438 a42.89581153577022,42.89581153577022 0 0,0 0.13586589769527443,-0.7258010582710965 l 21.486501531899066 4.213883568594107" fill="#f7ff19" stroke="none" /><path d="M 79.46518482838121 95.60439243477599 l -30.849230248091285 -6.603473599668035 a52.54807237346306,52.54807237346306 0 0,0 0.19694420228641446,-0.8828622419726884 l 30.730991658802832 7.133514011190683" fill="#86ff25" stroke="none" /><line stroke="#e1ed5e" stroke-width="0.3" x1="26.266209847984243" x2="21.928928074336255" y1="57.711370442889674" y2="55.22380399835377" /><path d="M 25.398753493254645 57.213857153982495 a86.0,86.0 0 0,1 29.58750427330803,-30.492523968695096" fill="none" id="id23" stroke="none" /><text fill="#e1ed5e" style="font-size:6.75px; font-family:Arial;" text-anchor="middle"><textPath startOffset="21.46611528233685" xlink:href="#id23">November</textPath></text><line stroke="#e1ed5e" stroke-width="0.3" x1="56.762969772571076" x2="54.21961505331055" y1="26.818313649435495" y2="22.513508569990535" /><path d="M 56.25429882871897 25.957352633546506 a86.0,86.0 0 0,1 42.265352541879196,-11.944610805530505" fill="none" id="id24" stroke="none" /><text fill="#e1ed5e" style="font-size:6.75px; font-family:Arial;" text-anchor="middle"><textPath startOffset="22.20632615414155" xlink:href="#id24">December</textPath></text></svg>