<?xml version="1.0" encoding="utf-8" ?>
<svg baseProfile="full" height="200mm" version="1.1" viewBox="0,0,200,200" width="200mm" xmlns="http://www.w3.org/2000/svg" xmlns:ev="http://www.w3.org/2001/xml-events" xmlns:xlink="http://www.w3.org/1999/xlink"><defs /><rect fill="#1a1a1a" height="200" width="200" x="0" y="0" /><text alignment-baseline="middle" fill="#e1ed5e" style="dominant-baseline: central; font-size:9.0px; font-family:Arial;" text-anchor="middle" x="100.0" y="100.0">2024</text><line stroke="#e1ed5e" stroke-width="0.3" x1="100.0" x2="100.0" y1="15.0" y2="10.0" /><path d="M 100.0 14.0 a86.0,86.0 0 0,1 42.35913384403234,11.155469271406648" fill="none" id="id1" stroke="none" /><text fill="#e1ed5e" style="font-size:6.75px; font-family:Arial;" text-anchor="middle"><textPath startOffset="22.145653131862478" xlink:href="#id1">January</textPath></text><line stroke="#e1ed5e" stroke-width="0.3" x1="143.13028292997686" x2="145.6673583964461" y1="26.7553504044142" y2="22.446841604673864" /><path d="M 143.63769802327073 25.89364864446614 a86.0,86.0 0 0,1 29.32050498858742,28.57503671076993" fill="none" id="id2" stroke="none" /><text fill="#e1ed5e" style="font-size:6.75px; font-family:Arial;" text-anchor="middle"><textPath startOffset="20.669276256404974" xlink:href="#id2">February</textPath></text><line stroke="#e1ed5e" stroke-width="0.3" x1="172.87174338648825" x2="177.1583165268699" y1="56.24261187166439" y2="53.66864786411523" /><path d="M 173.72905801456457 55.72781907015455 a86.0,86.0 0 0,1 12.242430191666344,42.057860355516425" fill="none" id="id3" stroke="none" /><text fill="#e1ed5e" style="font-size:6.75px; font-family:Arial;" text-anchor="middle"><textPath startOffset="22.145653131862474" xlink:href="#id3">March</textPath></text><line stroke="#e1ed5e" stroke-width="0.3" x1="184.99686870605535" x2="189.99668451229388" y1="99.2704041080226" y2="99.22748670261217" /><path d="M 185.99683186730306 99.26182062694052 a86.0,86.0 0 0,1 -10.086455211305974,41.156179273409016" fill="none" id="id4" stroke="none" /><text fill="#e1ed5e" style="font-size:6.75px; font-family:Arial;" text-anchor="middle"><textPath startOffset="21.40746469413373" xlink:href="#id4">April</textPath></text><line stroke="#e1ed5e" stroke-width="0.3" x1="174.33088141563837" x2="178.70328620479359" y1="141.23008692659167" y2="143.65538615756765" /><path d="M 175.20536237346943 141.71514677278685 a86.0,86.0 0 0,1 -30.301960400862466,31.631185727798858" fill="none" id="id5" stroke="none" /><text fill="#e1ed5e" style="font-size:6.75px; font-family:Arial;" text-anchor="middle"><textPath startOffset="22.145653131862474" xlink:href="#id5">May</textPath></text><line stroke="#e1ed5e" stroke-width="0.3" x1="143.1302829299769" x2="145.66735839644613" y1="173.24464959558577" y2="177.55315839532614" /><path d="M 143.63769802327073 174.10635135553383 a86.0,86.0 0 0,1 -40.68552437913181,11.842963189579606" fill="none" id="id6" stroke="none" /><text fill="#e1ed5e" style="font-size:6.75px; font-family:Arial;" text-anchor="middle"><textPath startOffset="21.407464694133747" xlink:href="#id6">June</textPath></text><line stroke="#e1ed5e" stroke-width="0.3" x1="101.45913802915013" x2="101.54496967792366" y1="184.9874750549273" y2="189.98673829345242" /><path d="M 101.47630435890484 185.9873277026323 a86.0,86.0 0 0,1 -42.54439059252881,-10.42667462771756" fill="none" id="id7" stroke="none" /><text fill="#e1ed5e" style="font-size:6.75px; font-family:Arial;" text-anchor="middle"><textPath startOffset="22.145653131862474" xlink:href="#id7">July</textPath></text><path d="M 97.84075906011543 120.88869738790638 l -0.3923604233491321 3.795731175219843 a24.81595621782359,24.81595621782359 0 0,0 -0.4233650562044099,-0.04743893760270647 l 0.4574613811543413 -3.7884364771101655" fill="#ff0200" stroke="none" /><path d="M 95.35216902796893 120.47920084513623 l -0.8348144787830366 3.678346627126702 a24.771889330730712,24.771889330730712 0 0,0 -0.41388854558415883,-0.0976765697977798 l 0.8978351781070834 -3.663473913682695" fill="#ff0100" stroke="none" /><path d="M 94.6519064749342 120.30758222061772 l -0.9614560014189227 3.6508050408637662 a24.77528476926718,24.77528476926718 0 0,0 -0.41034784951859504,-0.11184213112212546 l 1.0239852518722128 -3.6337624155974964" fill="#ff0100" stroke="none" /><path d="M 93.27111125876986 119.89276391827306 l -1.215270901520168 3.5927324808565695 a24.792704845236898,24.792704845236898 0 0,0 -0.4019891854854564,-0.13983270584448382 l 1.276765859050646 -3.571341342443495" fill="#ff0200" stroke="none" /><path d="M 91.92203290615298 119.3841803445677 l -1.4488414509386032 3.4766920500420255 a24.766500917401096,24.766500917401096 0 0,0 -0.3910334769033115,-0.16690893900218498 l 1.508310003012346 -3.4513084613804366" fill="#ff0100" stroke="none" /><path d="M 91.59046798132341 119.24265499422711 l -1.514872113672756 3.466323854768769 a24.782887599033625,24.782887599033625 0 0,0 -0.3883674355893931,-0.17371181410478193 l 1.5741529521177842 -3.4398082897541324" fill="#ff0100" stroke="none" /><path d="M 89.97174638481275 118.45085714620012 l -1.7952907205244202 3.303132717956918 a24.759488598684474,24.759488598684474 0 0,0 -0.371693937096095,-0.20617236126753127 l 1.851728845776618 -3.2718274412562383" fill="#ff0100" stroke="none" /><line stroke="#e1ed5e" stroke-width="0.3" x1="58.13341422392154" x2="55.67067388415222" y1="173.97424548756322" y2="178.32567169271397" /><path d="M 57.64086615596768 174.84453072859336 a86.0,86.0 0 0,1 -31.369924170532247,-30.572349798747897" fill="none" id="id8" stroke="none" /><text fill="#e1ed5e" style="font-size:6.75px; font-family:Arial;" text-anchor="middle"><textPath startOffset="22.145653131862474" xlink:href="#id8">August</textPath></text><path d="M 88.72937992617639 117.7192867562869 l -2.019089769287923 3.174344479217319 a24.76207208452744,24.76207208452744 0 0,0 -0.3567086943170081,-0.2312142660241056 l 2.0732840958619407 -3.139216371489319" fill="#ff0100" stroke="none" /><path d="M 87.54013794807813 116.9041958592261 l -2.23647383664675 3.0342062866482666 a24.769379658768973,24.769379658768973 0 0,0 -0.34010364719716646,-0.2552201173633978 l 2.2882304727546825 -2.9953671420208536" fill="#ff0100" stroke="none" /><path d="M 86.68645165197938 116.24036423190432 l -4.79419893599522 5.848143176071185 a28.562084504005867,28.562084504005867 0 0,0 -0.37651038383551005,-0.31409835325141566 l 4.8938836539926225 -5.764982638907899" fill="#ff3a05" stroke="none" /><path d="M 85.60350026404147 115.28858382429668 l -2.5822168945664585 2.7422248580665762 a24.76664854516355,24.76664854516355 0 0,0 -0.30702095472427876,-0.29411912953088964 l 2.6289103351560517 -2.6974935982301043" fill="#ff0100" stroke="none" /><path d="M 85.08716467003676 114.78537596483092 l -2.6880383148730713 2.6650637664733656 a24.78524964323291,24.78524964323291 0 0,0 -0.29696647366712337,-0.3047137633009022 l 2.733391589691004 -2.6185273111047263" fill="#ff0100" stroke="none" /><path d="M 84.1078160697243 113.72728997021213 l -2.8512711606344587 2.4628601190027535 a24.767681939500736,24.767681939500736 0 0,0 -0.27516356408629683,-0.32414198660471666 l 2.8931292882278674 -2.4135513499484826" fill="#ff0100" stroke="none" /><path d="M 83.4222238831116 112.89097897827486 l -5.843956557152525 4.544295965697039 a28.40286796219792,28.40286796219792 0 0,0 -0.2959957852854313,-0.38746798453098114 l 5.921104319792252 -4.443307067925187" fill="#ff3805" stroke="none" /><path d="M 82.576782715395 111.72311816256416 l -3.113588280112911 2.094961149889952 a24.752771535492762,24.752771535492762 0 0,0 -0.23417956062290904,-0.35457770213106476 l 3.149092279656547 -2.0412035694198263" fill="#ff0100" stroke="none" /><path d="M 81.99639281039703 110.81064883170644 l -6.4562542146978235 3.8767951526752933 a28.530787418365364,28.530787418365364 0 0,0 -0.24852528997703868,-0.42205027519904914 l 6.521853214804633 -3.7653937091826855" fill="#ff3a05" stroke="none" /><line stroke="#e1ed5e" stroke-width="0.3" x1="26.387840678322732" x2="22.057713659400548" y1="142.50000000000003" y2="145.00000000000006" /><path d="M 25.521815274538298 143.00000000000003 a86.0,86.0 0 0,1 -11.493303480769221,-40.785679425670985" fill="none" id="id9" stroke="none" /><text fill="#e1ed5e" style="font-size:6.75px; font-family:Arial;" text-anchor="middle"><textPath startOffset="21.40746469413373" xlink:href="#id9">September</textPath></text><path d="M 81.4637452351635 109.86951160357371 l -3.319984573356969 1.767704786437821 a24.761260131833936,24.761260131833936 0 0,0 -0.1965477269518572,-0.3769061822194005 l 3.3498403692837755 -1.7104523611139177" fill="#ff0100" stroke="none" /><path d="M 81.1358732173502 109.22738970284198 l -3.379239403083424 1.6529553278940496 a24.761850642883758,24.761850642883758 0 0,0 -0.18349797958720956,-0.3834402026093785 l 3.4071166406305458 -1.5947026232195665" fill="#ff0100" stroke="none" /><path d="M 80.83023694016515 108.57439118712176 l -6.863262921818177 3.069850207749223 a28.518534314081577,28.518534314081577 0 0,0 -0.19605286140427847,-0.44860731420667266 l 6.914949665239424 -2.951580823766701" fill="#ff3905" stroke="none" /><path d="M 80.41425534168474 107.57618678355246 l -3.5109853013390016 1.358124539112601 a24.76450794260795,24.76450794260795 0 0,0 -0.14996597813016296,-0.3978025740202713 l 3.5337819632836003 -1.2976536848981846" fill="#ff0100" stroke="none" /><path d="M 79.83685265289637 105.86919833188381 l -7.229763247337624 2.1044787136014347 a28.529827837909405,28.529827837909405 0 0,0 -0.13284236127826418,-0.4714106758174425 l 7.264824100690464 -1.9800601138809963" fill="#ff3a05" stroke="none" /><path d="M 79.64726062577567 105.17358676015961 l -10.95402023079572 2.7844691073053665 a32.30238149357116,32.30238149357116 0 0,0 -0.13199748835131647,-0.5385947967267171 l 11.00020524566333 -2.59601848597055" fill="#ff700a" stroke="none" /><path d="M 79.2786578344484 103.40968896794605 l -15.840246813199311 2.606506585191097 a37.05326433102363,37.05326433102363 0 0,0 -0.09788856269007361,-0.6285147929870706 l 15.882656868027652 -2.3342036102725765" fill="#ffb210" stroke="none" /><path d="M 79.17382384314188 102.69636545807758 l -3.7305661734619333 0.4829964796913987 a24.761703015121302,24.761703015121302 0 0,0 -0.050959483093876025,-0.4220176228217544 l 3.7383077428154707 -0.41888517994624497" fill="#ff0100" stroke="none" /><path d="M 79.0935383218832 101.97986365728391 l -3.7361294038374355 0.3538153389825004 a24.752845349373988,24.752845349373988 0 0,0 -0.0364295608415345,-0.423366717479065 l 3.7416525873767106 -0.2896275741277734" fill="#ff0100" stroke="none" /><path d="M 79.03789590574601 101.26102812881392 l -15.956435235442267 0.9598995204401177 a36.985281746413,36.985281746413 0 0,0 -0.0326851448911553,-0.6340830789817813 l 15.970561969789996 -0.6858446480816056" fill="#ffb110" stroke="none" /><line stroke="#e1ed5e" stroke-width="0.3" x1="15.003131293944662" x2="10.003315487706104" y1="100.72959589197737" y2="100.7725132973878" /><path d="M 14.003168132696942 100.73817937305945 a86.0,86.0 0 0,1 10.791469493833604,-42.45332614584628" fill="none" id="id10" stroke="none" /><text fill="#e1ed5e" style="font-size:6.75px; font-family:Arial;" text-anchor="middle"><textPath startOffset="22.145653131862435" xlink:href="#id10">October</textPath></text><path d="M 79.22317932658666 96.9465228501225 l -3.72355092457859 -0.5472337583947596 a24.76354836215199,24.76354836215199 0 0,0 0.06542117678543055,-0.420050884948125 l 3.713608255654892 0.6110728252743346" fill="#ff0100" stroke="none" /><path d="M 79.407916724674 95.88100663000787 l -15.840524320988383 -3.1685485039549652 a37.15431553442422,37.15431553442422 0 0,0 0.13046877525058245,-0.6243403198023463 l 15.783797834913432 3.4400052750427204" fill="#ffb310" stroke="none" /><path d="M 79.94057633289273 93.78553927170692 l -21.820896669975888 -6.760169567287556 a43.84406759008223,43.84406759008223 0 0,0 0.22889794341522918,-0.7170195475886608 l 21.7016340107834 7.133758148567609" fill="#f3ff19" stroke="none" /><path d="M 81.46374523516351 90.13048839642627 l -3.3659181066840866 -1.7921618057179598 a24.8132989180994,24.8132989180994 0 0,0 0.2034154666731048,-0.3742615475170207 l 3.334657290395631 1.8496781867096002" fill="#ff0200" stroke="none" /><line stroke="#e1ed5e" stroke-width="0.3" x1="26.387840678322718" x2="22.05771365940052" y1="57.49999999999999" y2="54.99999999999999" /><path d="M 25.521815274538284 56.99999999999999 a86.0,86.0 0 0,1 29.574782752854787,-30.34633250058573" fill="none" id="id11" stroke="none" /><text fill="#e1ed5e" style="font-size:6.75px; font-family:Arial;" text-anchor="middle"><textPath startOffset="21.40746469413373" xlink:href="#id11">November</textPath></text><path d="M 82.18462484594161 88.88188828441811 l -53.44612546217515 -33.35433514674566 a84.0,84.0 0 0,0 0.7739292334964403,-1.2167453012853122 l 52.865678537052815 34.266894122709644" fill="#4dd2ff" stroke="none" /><path d="M 84.10781606972428 86.27271002978789 l -2.8011645792993285 -2.4195792474484654 a24.701470888039573,24.701470888039573 0 0,0 0.27993698930011135,-0.31851690649917697 l 2.7592165260406247 2.4673084317589424" fill="#ff0000" stroke="none" /><path d="M 84.58840730492382 85.73525988315684 l -2.7135300889343235 -2.5116029396656145 a24.697484938453282,24.697484938453282 0 0,0 0.2906590154250012,-0.30866980190423204 l 2.670015239773051 2.5578142015143577" fill="#ff0000" stroke="none" /><path d="M 85.86807049272753 84.46653392183569 l -2.483251583228898 -2.729528491617756 a24.690103550330523,24.690103550330523 0 0,0 0.31595687215836904,-0.2825305833707685 l 2.436029684247137 2.771754604871925" fill="#ff0000" stroke="none" /><path d="M 86.40962598614128 83.9905735841838 l -2.392054739708735 -2.817834468640803 a24.696230102472413,24.696230102472413 0 0,0 0.3255500162765539,-0.2715854021654581 l 2.3433303892702724 2.858482054718143" fill="#ff0000" stroke="none" /><path d="M 86.96720088162412 83.53348406188908 l -8.247834265811179 -10.420869159364587 a34.289894059505706,34.289894059505706 0 0,0 0.4646934689926821,-0.3613484521620297 l 8.067730852183253 10.56091866314742" fill="#ff8c0c" stroke="none" /><path d="M 88.12776184653039 82.6780497279521 l -2.3144867757366208 -3.3769053750750198 a25.09393929452676,25.09393929452676 0 0,0 0.3574138280600843,-0.24048397439117228 l 2.2561766595795474 3.4161390235233013" fill="#ff0601" stroke="none" /><path d="M 89.03521579738668 82.08984904055464 l -8.134000452121297 -13.286278444674535 a36.578419633086426,36.578419633086426 0 0,0 0.5383424440706405,-0.32325916982965464 l 7.904725251493223 13.423951615040112" fill="#ffac0f" stroke="none" /><line stroke="#e1ed5e" stroke-width="0.3" x1="56.869717070023135" x2="54.33264160355391" y1="26.7553504044142" y2="22.446841604673864" /><path d="M 56.362301976729285 25.89364864446614 a86.0,86.0 0 0,1 42.16139366436587,-11.88097634709845" fill="none" id="id12" stroke="none" /><text fill="#e1ed5e" style="font-size:6.75px; font-family:Arial;" text-anchor="middle"><textPath startOffset="22.145653131862474" xlink:href="#id12">December</textPath></text><path d="M 89.97174638481275 81.54914285379989 l -1.88524559994754 -3.468639564266231 a24.947861623577325,24.947861623577325 0 0,0 0.37803279003959656,-0.20128116791450545 l 1.8254239941213817 3.500491199903312" fill="#ff0400" stroke="none" /><path d="M 91.26138138417902 80.90454125486306 l -6.481459365805829 -14.163158431465549 a36.575762333362235,36.575762333362235 0 0,0 0.5731711030594195,-0.2563721439563749 l 6.2373748598907905 14.27233432633177" fill="#ffac0f" stroke="none" /><path d="M 92.93061703081487 80.22567764915836 l -1.3249719578120482 -3.7061823802454534 a24.935903774818453,24.935903774818453 0 0,0 0.40431101448413675,-0.14064035849563886 l 1.2611551712829072 3.7283811713096777" fill="#ff0400" stroke="none" /><path d="M 93.61358852112211 79.99465700312896 l -4.73798764098161 -14.841678802917805 a36.57960065518607,36.57960065518607 0 0,0 0.5998346729251852,-0.18583031497931632 l 4.482512335184809 14.920825705703765" fill="#ffac0f" stroke="none" /><path d="M 96.05791012581881 79.37332000966035 l -2.9242893041222198 -15.301117326207791 a36.57805056368029,36.57805056368029 0 0,0 0.6177601928262503,-0.11257648580769794 l 2.661194377744931 15.34906198594685" fill="#ffac0f" stroke="none" /><path d="M 98.5590905019552 79.04949213459386 l -1.0694966891455993 -15.55024713791837 a36.58698204330883,36.58698204330883 0 0,0 0.6269539107958134,-0.037715990409574726 l 0.8023984262173022 15.56631510615264" fill="#ffac0f" stroke="none" /></svg>