<?xml version="1.0" encoding="utf-8" ?>
<svg baseProfile="full" height="200mm" version="1.1" viewBox="0,0,200,200" width="200mm" xmlns="http://www.w3.org/2000/svg" xmlns:ev="http://www.w3.org/2001/xml-events" xmlns:xlink="http://www.w3.org/1999/xlink"><defs /><rect fill="#1a1a1a" height="200" width="200" x="0" y="0" /><text alignment-baseline="middle" fill="#e1ed5e" style="dominant-baseline: central; font-size:9.0px; font-family:Arial;" text-anchor="middle" x="100.0" y="100.0">2025</text><line stroke="#e1ed5e" stroke-width="0.3" x1="100.0" x2="100.0" y1="15.0" y2="10.0" /><path d="M 100.0 14.0 a86.0,86.0 0 0,1 42.46469731375804,11.215312516191453" fill="none" id="id13" stroke="none" /><text fill="#e1ed5e" style="font-size:6.75px; font-family:Arial;" text-anchor="middle"><textPath startOffset="22.20632615414155" xlink:href="#id13">January</textPath></text><path d="M 101.44485096284872 79.0497635885617 l 1.971451266052238 -28.585903431860253 a49.65380419961822,49.65380419961822 0 0,0 0.8521770556677996,0.06614534065855424 l -2.463218511082379 28.547732829013235" fill="#fff517" stroke="none" /><path d="M 103.95276090670814 79.375362276772 l 5.39265673959079 -28.137697737050754 a49.64979547313881,49.64979547313881 0 0,0 0.8379788227984502,0.1680906685579 l -5.876201971856366 28.040703112415645" fill="#fff517" stroke="none" /><path d="M 106.40334571778207 80.00007090966166 l 15.715001305475793 -49.08354563635122 a72.53790564494136,72.53790564494136 0 0,0 1.1858813831650992,0.3909664471421828 l -16.55756551088331 48.8057654649498" fill="#3bff9a" stroke="none" /><path d="M 108.43124777332544 80.76684994638697 l 25.2937433199763 -57.69945016083909 a84.0,84.0 0 0,0 1.3192715261328791,0.591918677933875 l -26.283196964575957 57.255511152388685" fill="#4dd2ff" stroke="none" /><line stroke="#e1ed5e" stroke-width="0.3" x1="143.23703022742887" x2="145.7803849466894" y1="26.81831364943548" y2="22.513508569990506" /><path d="M 143.74570117128098 25.957352633546492 a86.0,86.0 0 0,1 28.547481713284135,27.462654790039103" fill="none" id="id14" stroke="none" /><text fill="#e1ed5e" style="font-size:6.75px; font-family:Arial;" text-anchor="middle"><textPath startOffset="19.985693538727396" xlink:href="#id14">February</textPath></text><path d="M 114.94478906791727 85.2469230424477 l 30.59117220129457 -30.19874791517076 a63.98586037632942,63.98586037632942 0 0,0 0.7670251273535879,0.7904868171500518 l -31.106461592351266 29.667696902470592" fill="#3fff2d" stroke="none" /><path d="M 115.4437574822437 85.77008943001954 l 10.54193328437529 -9.713359462153832 a35.334633215162256,35.334633215162256 0 0,0 0.4082939741028084,0.4508484039455019 l -10.707570899094135 9.530458270938782" fill="#ff0000" stroke="none" /><path d="M 115.9244219780498 86.31012108654704 l 11.197687017043997 -9.626407764462542 a35.766716662121624,35.766716662121624 0 0,0 0.39733311369935503,0.4703170813045905 l -11.361730744230469 9.432231733528845" fill="#ff0801" stroke="none" /><path d="M 116.38621287248628 86.86637796730983 l 22.43999577104118 -17.985755779291484 a49.758317425688574,49.758317425688574 0 0,0 0.5299164118459763,0.6729400291902203 l -22.746266263481118 17.596823356148224" fill="#fff717" stroke="none" /><path d="M 117.04232023915458 87.72973835380427 l 11.637762233669754 -8.379046138052562 a35.3403599672757,35.3403599672757 0 0,0 0.35119462555992864,0.4967398919559507 l -11.780269479033565 8.177479745764819" fill="#ff0000" stroke="none" /><path d="M 117.2510076193507 88.02491185347247 l 11.77415376866947 -8.173234418633518 a35.33291518952823,35.33291518952823 0 0,0 0.3425198613899779,0.5026056318588074 l -11.91309809572818 7.969350763504305" fill="#ff0000" stroke="none" /><path d="M 117.65298651832404 88.62581576622439 l 12.038402886930168 -7.756591904391239 a35.32088901008999,35.32088901008999 0 0,0 0.32490576346709005,0.5139228915170686 l -12.170136246643214 7.5482213651599634" fill="#ff0000" stroke="none" /><line stroke="#e1ed5e" stroke-width="0.3" x1="172.23445277983987" x2="176.4835382374775" y1="55.19839476539836" y2="52.563006222186495" /><path d="M 173.08426987136738 54.67131705675599 a86.0,86.0 0 0,1 12.851231095245387,41.99856678651699" fill="none" id="id15" stroke="none" /><text fill="#e1ed5e" style="font-size:6.75px; font-family:Arial;" text-anchor="middle"><textPath startOffset="22.20632615414155" xlink:href="#id15">March</textPath></text><path d="M 118.03404312379186 89.2402003453031 l 51.92151995738886 -30.978364012661025 a81.46075811289883,81.46075811289883 0 0,0 0.7080892049439276,1.2103539817373277 l -52.44706883680312 30.080030618569804" fill="#49f0ff" stroke="none" /><path d="M 118.3937258080291 89.86733742301442 l 13.821126831590782 -7.613727424223097 a36.77949277338424,36.77949277338424 0 0,0 0.3007019535258608,0.5571550511714255 l -13.950136884335107 7.374691389719212" fill="#ff1b02" stroke="none" /><path d="M 118.89224826269711 90.83032412892265 l 14.216841854625763 -6.900387391938347 a36.80297245704936,36.80297245704936 0 0,0 0.2717142534158587,0.5722995134677031 l -14.333514301883378 6.6546454628301035" fill="#ff1b02" stroke="none" /><path d="M 119.04729006885535 91.15688171328212 l 54.81900461649458 -25.450914037186575 a81.43899645486773,81.43899645486773 0 0,0 0.5793713037708305,1.2765678692824634 l -55.248978237228755 24.50352415906205" fill="#49f0ff" stroke="none" /><path d="M 119.47837535516314 92.15188598940014 l 14.625513690457092 -5.8928271384744 a36.76803926915735,36.76803926915735 0 0,0 0.23147485474216814,0.5890782571494698 l -14.724782095080961 5.640199876429146" fill="#ff1b02" stroke="none" /><path d="M 120.08093135843002 93.85539295169968 l 57.861503374113816 -17.705164920479515 a81.50972184346878,81.50972184346878 0 0,0 0.3989866063606694,1.345184489781464 l -58.157695877586185 16.70655104395152" fill="#49efff" stroke="none" /><path d="M 120.28053869075195 94.5502522615342 l 15.248564835344082 -4.097565306002447 a36.789514589582765,36.789514589582765 0 0,0 0.15907727968786337,0.6129896503437012 l -15.316838446902247 3.8344792301098956" fill="#ff1b02" stroke="none" /><path d="M 120.45610955862082 95.25157060432595 l 14.959959587900576 -3.472620815884618 a36.35771748022907,36.35771748022907 0 0,0 0.13626459245181727,0.6108474491599855 l -15.017518567354431 3.2145951971746687" fill="#ff1302" stroke="none" /><path d="M 120.6074358757038 95.95851677861258 l 57.42686013047061 -11.262424547825178 a79.52082083446959,79.52082083446959 0 0,0 0.2518699919951678,1.3454995686028013 l -57.61221584637563 10.272246901759814" fill="#46fff6" stroke="none" /><path d="M 120.91429891909075 98.10471618934814 l 15.981444505367929 -1.4482614578204493 a37.04693209708208,37.04693209708208 0 0,0 0.05208713300335601,0.6355949545108325 l -16.00400612219078 1.172952586101848" fill="#ff2003" stroke="none" /><path d="M 120.96714384426684 98.82574320788733 l 61.19152578787882 -3.427007765571359 a82.2874147804745,82.2874147804745 0 0,0 0.0670305121279795,1.4149081686636071 l -61.24144990824029 2.373188490284752" fill="#4ae6ff" stroke="none" /><line stroke="#e1ed5e" stroke-width="0.3" x1="184.98032266829074" x2="189.97916517819016" y1="98.17113171792111" y2="98.06355123074" /><path d="M 185.9800911702706 98.14961562048488 a86.0,86.0 0 0,1 -9.607161424134198,41.387399972396054" fill="none" id="id16" stroke="none" /><text fill="#e1ed5e" style="font-size:6.75px; font-family:Arial;" text-anchor="middle"><textPath startOffset="21.466115282336823" xlink:href="#id16">April</textPath></text><path d="M 120.99824983174949 100.27111621757518 l 15.974588916179863 0.20625386205876578 a36.97592037087537,36.97592037087537 0 0,0 -0.013695066228991644,0.6363559139318149 l -15.968671787265864 -0.48119959178069555" fill="#ff1f03" stroke="none" /><path d="M 120.89721153311464 102.0752229133903 l 15.901712315790322 1.5791388103420487 a36.979929097354784,36.979929097354784 0 0,0 -0.06835598753398078,0.6328915492394731 l -15.872174026755289 -1.8526266814663133" fill="#ff1f03" stroke="none" /><path d="M 120.81339534386255 102.79330883721812 l 15.894974908840977 2.1332210889521313 a37.0374829560949,37.0374829560949 0 0,0 -0.09024085540024042,0.6311443324898559 l -15.855900002424136 -2.4065108934223964" fill="#ff2003" stroke="none" /><path d="M 120.64145759157962 103.86396538481128 l 59.424262769475696 11.123889548035171 a81.45646304881375,81.45646304881375 0 0,0 -0.2698538854224434,1.3759791480078025 l -59.22397895107759 -12.145132423110919" fill="#49f0ff" stroke="none" /><path d="M 120.13307415673323 105.97154293290107 l 28.777887877345254 8.53562608670511 a51.01705754022362,51.01705754022362 0 0,0 -0.25696375396522814,0.8397724157816666 l -28.62669735087389 -9.029725475038834" fill="#f4ff19" stroke="none" /><path d="M 120.02730092923936 106.31721596034902 l 28.451656446924577 8.974512284002785 a50.83351513498773,50.83351513498773 0 0,0 -0.27040464517433427,0.8322199248287703 l -28.292959550733997 -9.46293110880935" fill="#f7ff19" stroke="none" /><path d="M 119.67450827220406 107.3425965602758 l 14.963786084313373 5.5845382619605095 a36.971911644395966,36.971911644395966 0 0,0 -0.22765141285637316,0.5943260028702545 l -14.865440391863492 -5.841287831663908" fill="#ff1e03" stroke="none" /><path d="M 119.54520255179757 107.68017299344265 l 14.961913848691285 5.879196512106041 a37.0755658576493,37.0755658576493 0 0,0 -0.23851485820458562,0.5919743176026291 l -14.858496376229308 -6.135870197551484" fill="#ff2003" stroke="none" /><path d="M 119.26925614724726 108.34839909993367 l 55.44942588409672 24.023446136438533 a81.42983365148623,81.42983365148623 0 0,0 -0.5682984804987959,1.2813630471074926 l -55.02768631886665 -24.974357520038712" fill="#49f0ff" stroke="none" /><path d="M 118.97047184881838 109.00673069616215 l 14.459876156158227 6.865206699984408 a37.00684483228797,37.00684483228797 0 0,0 -0.27816237808291644,0.5730968878256867 l -14.339560521460596 -7.1130925437753705" fill="#ff1f03" stroke="none" /><path d="M 118.81262510543309 109.33194174019688 l 14.332121659610898 7.109402520452963 a36.998541041723485,36.998541041723485 0 0,0 -0.28792146633360816,0.5680963681927974 l -14.20762152349102 -7.355053100348455" fill="#ff1f03" stroke="none" /><line stroke="#e1ed5e" stroke-width="0.3" x1="174.80103733775053" x2="179.2010983576182" y1="140.37084112569926" y2="142.7455964860345" /><path d="M 175.68104954172406 140.8457921977663 a86.0,86.0 0 0,1 -30.038265399797805,32.042727171017184" fill="none" id="id17" stroke="none" /><text fill="#e1ed5e" style="font-size:6.75px; font-family:Arial;" text-anchor="middle"><textPath startOffset="22.206326154141568" xlink:href="#id17">May</textPath></text><path d="M 118.30583269289576 110.29060199501025 l 25.782170389245728 14.493416305843919 a50.57667030269975,50.57667030269975 0 0,0 -0.43314824739046554,0.7552304794997031 l -25.528870145702882 -14.935066631201938" fill="#fbff18" stroke="none" /><path d="M 117.35343817320211 111.8261652097733 l 24.676002273912296 16.81640702524717 a50.861289882737935,50.861289882737935 0 0,0 -0.4992619122376771,0.7192240212913319 l -24.38287945451248 -17.23867230872552" fill="#f6ff19" stroke="none" /><path d="M 116.498646956653 112.99209946851258 l 22.52355509400071 17.736500995178837 a49.668693755113175,49.668693755113175 0 0,0 -0.5347239042697154,0.6671502881353907 l -22.21491327767614 -18.12157911689248" fill="#fff517" stroke="none" /><path d="M 116.0416608686014 113.55231037782055 l 12.123768456842628 10.242397867764353 a36.87112080719935,36.87112080719935 0 0,0 -0.41375979993986856,0.4812961234683442 l -11.94566614733198 -10.449571090394224" fill="#ff1d02" stroke="none" /><path d="M 115.56566222782051 114.09645910891815 l 22.082483317338227 19.998174093092306 a50.791996182165256,50.791996182165256 0 0,0 -0.5924610433280455,0.6429994500554298 l -21.73497586601446 -20.37532479794907" fill="#f7ff18" stroke="none" /><path d="M 115.07121518719521 114.62390073753431 l 20.557186834827643 19.947048461685068 a49.64406872102536,49.64406872102536 0 0,0 -0.6003607934329351,0.6081623140933772 l -20.21078541633917 -20.29795126975911" fill="#fff517" stroke="none" /><line stroke="#e1ed5e" stroke-width="0.3" x1="143.8653032363475" x2="146.44561519142675" y1="172.8068346515853" y2="177.08958963109032" /><path d="M 144.38136562736335 173.6633856474863 a86.0,86.0 0 0,1 -40.68145358897372,12.25698825130547" fill="none" id="id18" stroke="none" /><text fill="#e1ed5e" style="font-size:6.75px; font-family:Arial;" text-anchor="middle"><textPath startOffset="21.466115282336833" xlink:href="#id18">June</textPath></text><line stroke="#e1ed5e" stroke-width="0.3" x1="102.19456741930631" x2="102.32365962044197" y1="184.97166512339345" y2="189.96999836594603" /><path d="M 102.22038585953345 185.97133177190398 a86.0,86.0 0 0,1 -42.740103519485714,-10.115201625700543" fill="none" id="id19" stroke="none" /><text fill="#e1ed5e" style="font-size:6.75px; font-family:Arial;" text-anchor="middle"><textPath startOffset="22.20632615414155" xlink:href="#id19">July</textPath></text><line stroke="#e1ed5e" stroke-width="0.3" x1="58.666819895761336" x2="56.23545636021788" y1="174.27360380694188" y2="178.64263932499728" /><path d="M 58.180547188652646 175.14741091055294 a86.0,86.0 0 0,1 -31.652253787137756,-30.449443065178592" fill="none" id="id20" stroke="none" /><text fill="#e1ed5e" style="font-size:6.75px; font-family:Arial;" text-anchor="middle"><textPath startOffset="22.20632615414155" xlink:href="#id20">August</textPath></text><line stroke="#e1ed5e" stroke-width="0.3" x1="26.63291911575756" x2="22.317208475507996" y1="142.92168965132927" y2="145.44649492493687" /><path d="M 25.769776987707644 143.4266507060508 a86.0,86.0 0 0,1 -11.730757126820373,-40.83630448921669" fill="none" id="id21" stroke="none" /><text fill="#e1ed5e" style="font-size:6.75px; font-family:Arial;" text-anchor="middle"><textPath startOffset="21.46611528233685" xlink:href="#id21">September</textPath></text><line stroke="#e1ed5e" stroke-width="0.3" x1="15.007084014347285" x2="10.007500721073583" y1="101.09737516637583" y2="101.16192664675087" /><path d="M 14.007167355692545 101.11028546245083 a86.0,86.0 0 0,1 10.666146001902534,-42.60595125391555" fill="none" id="id22" stroke="none" /><text fill="#e1ed5e" style="font-size:6.75px; font-family:Arial;" text-anchor="middle"><textPath startOffset="22.20632615414155" xlink:href="#id22">October</textPath></text><line stroke="#e1ed5e" stroke-width="0.3" x1="26.266209847984243" x2="21.928928074336255" y1="57.711370442889674" y2="55.22380399835377" /><path d="M 25.398753493254645 57.213857153982495 a86.0,86.0 0 0,1 29.58750427330803,-30.492523968695096" fill="none" id="id23" stroke="none" /><text fill="#e1ed5e" style="font-size:6.75px; font-family:Arial;" text-anchor="middle"><textPath startOffset="21.46611528233685" xlink:href="#id23">November</textPath></text><line stroke="#e1ed5e" stroke-width="0.3" x1="56.762969772571076" x2="54.21961505331055" y1="26.818313649435495" y2="22.513508569990535" /><path d="M 56.25429882871897 25.957352633546506 a86.0,86.0 0 0,1 42.265352541879196,-11.944610805530505" fill="none" id="id24" stroke="none" /><text fill="#e1ed5e" style="font-size:6.75px; font-family:Arial;" text-anchor="middle"><textPath startOffset="22.20632615414155" xlink:href="#id24">December</textPath></text></svg>