<?xml version="1.0" encoding="utf-8" ?>
<svg baseProfile="full" height="200mm" version="1.1" viewBox="0,0,200,200" width="200mm" xmlns="http://www.w3.org/2000/svg" xmlns:ev="http://www.w3.org/2001/xml-events" xmlns:xlink="http://www.w3.org/1999/xlink"><defs /><rect fill="#1a1a1a" height="200" width="200" x="0" y="0" /><text alignment-baseline="middle" fill="#e1ed5e" style="dominant-baseline: central; font-size:9.0px; font-family:Arial;" text-anchor="middle" x="100.0" y="100.0">2025</text><line stroke="#e1ed5e" stroke-width="0.3" x1="100.0" x2="100.0" y1="15.0" y2="10.0" /><path d="M 100.0 14.0 a86.0,86.0 0 0,1 42.46469731375804,11.215312516191453" fill="none" id="id13" stroke="none" /><text fill="#e1ed5e" style="font-size:6.75px; font-family:Arial;" text-anchor="middle"><textPath startOffset="22.20632615414155" xlink:href="#id13">January</textPath></text><path d="M 101.44485096284872 79.0497635885617 l 1.0139168723058718 -14.70172268458268 a35.73664403174344,35.73664403174344 0 0,0 0.6133255765860035,0.04760586890724747 l -1.2668326382542163 14.682091553486968" fill="#ffb410" stroke="none" /><path d="M 103.95276090670814 79.375362276772 l 2.7734419556685066 -14.47121061255924 a35.73458234475988,35.73458234475988 0 0,0 0.6031207774593292,0.12098035409265068 l -3.0221291425949612 14.421326302389382" fill="#ffb410" stroke="none" /><path d="M 106.40334571778207 80.00007090966166 l 8.08222107556196 -25.24365472799522 a47.5059314407265,47.5059314407265 0 0,0 0.77664772899883,0.2560485454938995 l -8.515551626803209 25.100792458242086" fill="#b9ff1f" stroke="none" /><path d="M 108.43124777332544 80.76684994638697 l 13.008565597085555 -29.674812179352315 a53.40088358013581,53.40088358013581 0 0,0 0.8386936330667855,0.3762973858244615 l -13.517441348619121 29.446494463011323" fill="#78ff26" stroke="none" /><line stroke="#e1ed5e" stroke-width="0.3" x1="143.23703022742887" x2="145.7803849466894" y1="26.81831364943548" y2="22.513508569990506" /><path d="M 143.74570117128098 25.957352633546492 a86.0,86.0 0 0,1 28.547481713284135,27.462654790039103" fill="none" id="id14" stroke="none" /><text fill="#e1ed5e" style="font-size:6.75px; font-family:Arial;" text-anchor="middle"><textPath startOffset="19.985693538727396" xlink:href="#id14">February</textPath></text><path d="M 114.94478906791727 85.2469230424477 l 15.733031890064007 -15.531208181989157 a43.10761678802258,43.10761678802258 0 0,0 0.5167489358160515,0.5325552018722874 l -15.998045089583167 15.258088784566755" fill="#edff19" stroke="none" /><path d="M 115.4437574822437 85.77008943001954 l 5.421713540580993 -4.995578239765983 a28.37229812648286,28.37229812648286 0 0,0 0.32784374146327633,0.36201324770230847 l -5.5069009226603045 4.901512204794126" fill="#ff4f07" stroke="none" /><path d="M 115.9244219780498 86.31012108654704 l 5.7589675143816015 -4.950859004305815 a28.59451853063896,28.59451853063896 0 0,0 0.3176570326497153,0.376005732471458 l -5.843335160518434 4.85099432220525" fill="#ff5307" stroke="none" /><path d="M 116.38621287248628 86.86637796730983 l 11.540883976448336 -9.250069509612352 a35.79039515667185,35.79039515667185 0 0,0 0.381160753843772,0.4840354499010068 l -11.698398810886072 9.050041665758307" fill="#ffb410" stroke="none" /><path d="M 117.04232023915458 87.72973835380427 l 5.9852980835942065 -4.309341244946471 a28.375243393602226,28.375243393602226 0 0,0 0.281978819344668,0.3988390426869874 l -6.058589522742757 4.2056757019276905" fill="#ff5007" stroke="none" /><path d="M 117.2510076193507 88.02491185347247 l 6.055444214496455 -4.203492331290533 a28.37141454634705,28.37141454634705 0 0,0 0.2750345655241177,0.4035792874237874 l -6.126903245689306 4.098635020596339" fill="#ff4f07" stroke="none" /><path d="M 117.65298651832404 88.62581576622439 l 6.191347467145956 -3.9892131948064193 a28.365229485396384,28.365229485396384 0 0,0 0.26092283632043395,0.41271726630424865 l -6.259097899712345 3.8820482807879646" fill="#ff4f07" stroke="none" /><line stroke="#e1ed5e" stroke-width="0.3" x1="172.23445277983987" x2="176.4835382374775" y1="55.19839476539836" y2="52.563006222186495" /><path d="M 173.08426987136738 54.67131705675599 a86.0,86.0 0 0,1 12.851231095245387,41.99856678651699" fill="none" id="id15" stroke="none" /><text fill="#e1ed5e" style="font-size:6.75px; font-family:Arial;" text-anchor="middle"><textPath startOffset="22.20632615414155" xlink:href="#id15">March</textPath></text><path d="M 118.03404312379186 89.2402003453031 l 26.70322418163579 -15.932164537734902 a52.094952139409315,52.094952139409315 0 0,0 0.45282997723716645,0.7740332180921045 l -26.973513833343283 15.470151907288901" fill="#86ff25" stroke="none" /><path d="M 118.3937258080291 89.86733742301442 l 7.108201927248639 -3.9157380298911093 a29.115389020698686,29.115389020698686 0 0,0 0.23804173728369513,0.44105518691226636 l -7.174551763750799 3.792801859646384" fill="#ff5a08" stroke="none" /><path d="M 118.89224826269711 90.83032412892265 l 7.31171806045923 -3.5488674372068476 a29.12746461588808,29.12746461588808 0 0,0 0.21504641537417263,0.4529425944514308 l -7.371722669675158 3.4224824271148764" fill="#ff5a08" stroke="none" /><path d="M 119.04729006885535 91.15688171328212 l 28.19339978663442 -13.08939845598296 a52.08376012435572,52.08376012435572 0 0,0 0.3705330041150268,0.8164203585565376 l -28.414535107712794 12.60215608858436" fill="#86ff25" stroke="none" /><path d="M 119.47837535516314 92.15188598940014 l 7.521897879114014 -3.030679461453555 a29.109498486459955,29.109498486459955 0 0,0 0.18326016474375642,0.4663771301311481 l -7.572951593739471 2.9007533264266225" fill="#ff5a08" stroke="none" /><path d="M 120.08093135843002 93.85539295169968 l 29.758156104703122 -9.105761704056526 a52.12013417327988,52.12013417327988 0 0,0 0.2551258302266673,0.8601574696803215 l -29.91048783204149 8.592174847629675" fill="#86ff25" stroke="none" /><path d="M 120.28053869075195 94.5502522615342 l 7.842332920541848 -2.1073767689172835 a29.120543238157573,29.120543238157573 0 0,0 0.12591676875972196,0.48520867471383755 l -7.877446021171873 1.9720716686545958" fill="#ff5a08" stroke="none" /><path d="M 120.45610955862082 95.25157060432595 l 7.6939033170016335 -1.7859679805306938 a28.89847009735744,28.89847009735744 0 0,0 0.108308181129324,0.48552433890263264 l -7.723505885132996 1.6532654720780973" fill="#ff5708" stroke="none" /><path d="M 120.6074358757038 95.95851677861258 l 29.5346191977797 -5.792262009589641 a51.097242902724375,51.097242902724375 0 0,0 0.16184267247032344,0.8645700278361164 l -29.629947594159884 5.283013904290962" fill="#91ff24" stroke="none" /><path d="M 120.91429891909075 98.10471618934814 l 8.21925274382266 -0.7448404902926692 a29.252932995173033,29.252932995173033 0 0,0 0.04112894983220083,0.5018773637625954 l -8.230856177474354 0.603249209322305" fill="#ff5c08" stroke="none" /><path d="M 120.96714384426684 98.82574320788733 l 31.470785764189525 -1.762509200642841 a52.520101448089676,52.520101448089676 0 0,0 0.042782353856549105,0.9030678719970708 l -31.496461726279573 1.2205302220227703" fill="#81ff25" stroke="none" /><line stroke="#e1ed5e" stroke-width="0.3" x1="184.98032266829074" x2="189.97916517819016" y1="98.17113171792111" y2="98.06355123074" /><path d="M 185.9800911702706 98.14961562048488 a86.0,86.0 0 0,1 -9.607161424134198,41.387399972396054" fill="none" id="id16" stroke="none" /><text fill="#e1ed5e" style="font-size:6.75px; font-family:Arial;" text-anchor="middle"><textPath startOffset="21.466115282336823" xlink:href="#id16">April</textPath></text><path d="M 120.99824983174949 100.27111621757518 l 8.215726916090023 0.10607630750030887 a29.216411682892904,29.216411682892904 0 0,0 -0.010821115173264612,0.5028147013460079 l -8.212683738231751 -0.2474808246364316" fill="#ff5b08" stroke="none" /><path d="M 120.89721153311464 102.0752229133903 l 8.178246499503716 0.8121506785836015 a29.218473369876463,29.218473369876463 0 0,0 -0.05400923285101948,0.5000584189545179 l -8.163054965151645 -0.9528054194229107" fill="#ff5b08" stroke="none" /><path d="M 120.81339534386255 102.79330883721812 l 8.174781452865654 1.0971150500607703 a29.24807330442608,29.24807330442608 0 0,0 -0.07126216316937947,0.4984074032303707 l -8.154685238679674 -1.2376679252715503" fill="#ff5c08" stroke="none" /><path d="M 120.64145759157962 103.86396538481128 l 30.56188285443145 5.7210134953044 a52.09274318906979,52.09274318906979 0 0,0 -0.17257598262595725,0.8799612174141579 l -30.458876938829828 -6.246238439786503" fill="#86ff25" stroke="none" /><path d="M 120.13307415673323 105.97154293290107 l 14.800460234858178 4.389870271728611 a36.43776486950831,36.43776486950831 0 0,0 -0.18353047585288326,0.5997882140894873 l -14.722702986499163 -4.643985458370156" fill="#ffbd11" stroke="none" /><path d="M 120.02730092923936 106.31721596034902 l 14.632679495219428 4.6155893286106835 a36.343369058332655,36.343369058332655 0 0,0 -0.19332552133295813,0.5949947743222727 l -14.551061722870223 -4.8667830029107515" fill="#ffbc11" stroke="none" /><path d="M 119.67450827220406 107.3425965602758 l 7.695871283109426 2.8721265726126415 a29.21434999590935,29.21434999590935 0 0,0 -0.17988488440135675,0.4696226699479637 l -7.645292119114562 -3.004172809393749" fill="#ff5b08" stroke="none" /><path d="M 119.54520255179757 107.68017299344265 l 7.694908392816954 3.023669233864895 a29.26765933076986,29.26765933076986 0 0,0 -0.18828496487582108,0.4673078416842053 l -7.64172081368374 -3.155676443391914" fill="#ff5c08" stroke="none" /><path d="M 119.26925614724726 108.34839909993367 l 28.51762528025376 12.355252086673147 a52.07904769696474,52.07904769696474 0 0,0 -0.36345946374740257,0.8195051402542219 l -28.300724731775084 -12.844305563420058" fill="#86ff25" stroke="none" /><path d="M 118.97047184881838 109.00673069616215 l 7.436710538394673 3.5307740165041777 a29.232316125337476,29.232316125337476 0 0,0 -0.21972504295208067,0.4526986688892436 l -7.374832238827879 -3.6582616413586964" fill="#ff5c08" stroke="none" /><path d="M 118.81262510543309 109.33194174019688 l 7.3710064341173895 3.656363863325723 a29.228045488014402,29.228045488014402 0 0,0 -0.22745171777136908,0.44878381751296725 l -7.306976046559752 -3.7827018925413847" fill="#ff5c08" stroke="none" /><line stroke="#e1ed5e" stroke-width="0.3" x1="174.80103733775053" x2="179.2010983576182" y1="140.37084112569926" y2="142.7455964860345" /><path d="M 175.68104954172406 140.8457921977663 a86.0,86.0 0 0,1 -30.038265399797805,32.042727171017184" fill="none" id="id17" stroke="none" /><text fill="#e1ed5e" style="font-size:6.75px; font-family:Arial;" text-anchor="middle"><textPath startOffset="22.206326154141568" xlink:href="#id17">May</textPath></text><path d="M 118.30583269289576 110.29060199501025 l 13.25976351151072 7.453960228636361 a36.21127382802912,36.21127382802912 0 0,0 -0.31012025308336283,0.5407208013647682 l -13.129491262274978 -7.681100875859444" fill="#ffba11" stroke="none" /><path d="M 117.35343817320211 111.8261652097733 l 12.690861538098398 8.648673750177963 a36.35765360386158,36.35765360386158 0 0,0 -0.3568920824577769,0.5141296630497283 l -12.540108548478484 -8.86584467541471" fill="#ffbc11" stroke="none" /><path d="M 116.498646956653 112.99209946851258 l 11.583858514468126 9.121877839107183 a35.74430172625379,35.74430172625379 0 0,0 -0.38481649363870213,0.4801177440550997 l -11.42512410877457 -9.319923416740533" fill="#ffb410" stroke="none" /><path d="M 116.0416608686014 113.55231037782055 l 6.235250957502868 5.267662553886729 a29.162513294608523,29.162513294608523 0 0,0 -0.32725546179124976,0.38067203524088544 l -6.143652986140839 -5.374211688289143" fill="#ff5b08" stroke="none" /><path d="M 115.56566222782051 114.09645910891815 l 11.357015414688366 10.285055723897965 a36.322015871717255,36.322015871717255 0 0,0 -0.42367658364826377,0.4598172544086683 l -11.17829242304438 -10.47902423310797" fill="#ffbb11" stroke="none" /><path d="M 115.07121518719521 114.62390073753431 l 10.572555831275412 10.258761824990238 a35.731637077640514,35.731637077640514 0 0,0 -0.4321135341895254,0.437728728755046 l -10.394401672030352 -10.439231047725947" fill="#ffb410" stroke="none" /><path d="M 114.81725581225074 114.88116024355365 l 26.00990270045421 26.122079210151938 a57.86296326597398,57.86296326597398 0 0,0 -0.7118523483543832,0.6966973479236437 l -25.55640039972403 -26.56592666099815" fill="#49ff2c" stroke="none" /><path d="M 113.75828350139079 115.86535959552629 l 5.374544061395793 6.197653521780164 a29.203452507567704,29.203452507567704 0 0,0 -0.382613237522594,0.3260713016336738 l -5.2670653472961515 -6.289249213636785" fill="#ff5b08" stroke="none" /><path d="M 112.92097659922987 116.55440617244103 l 27.19090792748678 34.83709846327651 a65.19240775587008,65.19240775587008 0 0,0 -0.8905632812141462,0.6828459484685503 l -26.58721591777914 -35.299983753572434" fill="#35ff68" stroke="none" /><path d="M 112.34349029814194 116.9893568818739 l 4.79581407394879 6.600871785324316 a29.159126237421255,29.159126237421255 0 0,0 -0.40860638073703104,0.29152980348358914 l -4.681480365362875 -6.682445850652125" fill="#ff5b08" stroke="none" /><path d="M 111.45004920935366 117.60387380957326 l 4.466350233893699 6.866788471318799 a29.191524175734273,29.191524175734273 0 0,0 -0.42358041153967674,0.2703490596581558 l -4.347488020307092 -6.942651959800763" fill="#ff5b08" stroke="none" /><line stroke="#e1ed5e" stroke-width="0.3" x1="143.8653032363475" x2="146.44561519142675" y1="172.8068346515853" y2="177.08958963109032" /><path d="M 144.38136562736335 173.6633856474863 a86.0,86.0 0 0,1 -40.68145358897372,12.25698825130547" fill="none" id="id18" stroke="none" /><text fill="#e1ed5e" style="font-size:6.75px; font-family:Arial;" text-anchor="middle"><textPath startOffset="21.466115282336833" xlink:href="#id18">June</textPath></text><path d="M 110.21172684928248 118.3499491758327 l 7.464284064947536 13.41293546599213 a36.34999590935122,36.34999590935122 0 0,0 -0.5493647376331434,0.2995574571717777 l -7.232296515445745 -13.539433574923677" fill="#ffbc11" stroke="none" /><path d="M 108.92500713936063 119.00905698771935 l 3.1368592547405107 6.68108556158409 a28.38083940112902,28.38083940112902 0 0,0 -0.4440006690598051,0.20381893030773343 l -3.021390589913286 -6.734091562225897" fill="#ff5007" stroke="none" /><path d="M 108.59647513512805 119.15986991738527 l 3.020606909193635 6.732344890432022 a28.37892497750143,28.37892497750143 0 0,0 -0.44741311121378063,0.1961327596968015 l -2.9042731233221004 -6.783342203423278" fill="#ff5007" stroke="none" /><path d="M 106.57524785965236 119.94407469862006 l 4.617605195625714 14.006143177569031 a35.747688783441056,35.747688783441056 0 0,0 -0.5860555338319412,0.18763647490921165 l -4.375828316702833 -14.08355249913795" fill="#ffb410" stroke="none" /><path d="M 106.2309692047433 120.05430185196036 l 4.373031841469231 14.07455207615183 a35.73826392865909,35.73826392865909 0 0,0 -0.5890432150365889,0.17747388869535116 l -4.130113651992397 -14.147741333952908" fill="#ffb410" stroke="none" /><path d="M 105.53697534728816 120.25689768951611 l 2.1582691273758763 7.895978247601733 a29.185633641495542,29.185633641495542 0 0,0 -0.48574561382404624,0.12828983148411335 l -2.0220330707403327 -7.931959428389431" fill="#ff5b08" stroke="none" /><path d="M 104.83641907484287 120.43548508189849 l 1.8822132705079735 7.952979387268412 a29.172674466170335,29.172674466170335 0 0,0 -0.4896561875069708,0.11144415409290791 l -1.7450369336081406 -7.984200274939004" fill="#ff5b08" stroke="none" /><path d="M 104.13013068566511 120.58985236759428 l 2.8980956286137896 14.447814290098892 a35.735613188251655,35.735613188251655 0 0,0 -0.6041571426175165,0.11578815428876542 l -2.6489708714245688 -14.495559642736126" fill="#ffb410" stroke="none" /><path d="M 103.7750983002368 120.6578951692458 l 2.650029792652765 14.501354216012055 a35.741503722490386,35.741503722490386 0 0,0 -0.6061606339000241,0.10538879601396922 l -2.400020187280691 -14.54482159054703" fill="#ffb410" stroke="none" /><path d="M 102.70371172650421 120.8252237178851 l 1.9758289599050733 15.2187378983265 a36.34646158880798,36.34646158880798 0 0,0 -0.6211308730161688,0.07521029862123774 l -1.7135706638375243 -15.250493725673088" fill="#ffbc11" stroke="none" /><path d="M 101.98527174616119 120.90594882070398 l 0.7756808771346508 8.168324940871406 a29.205072404483353,29.205072404483353 0 0,0 -0.500874894154494,0.04321759343929017 l -0.634961665238615 -8.18046678658936" fill="#ff5b08" stroke="none" /><path d="M 101.62511606390274 120.93702456842531 l 1.1808506888148105 15.213374867505717 a36.25913441871881,36.25913441871881 0 0,0 -0.6226854349196388,0.04294403330476577 l -0.9188024931162413 -15.231447245326768" fill="#ffba11" stroke="none" /><path d="M 101.26447882468166 120.96189622390904 l 0.9016887791696842 14.947744672574148 a35.97491614170007,35.97491614170007 0 0,0 -0.6184463792846778,0.03196661366274788 l -0.6442543314715267 -14.961051092999098" fill="#ffb711" stroke="none" /><line stroke="#e1ed5e" stroke-width="0.3" x1="102.19456741930631" x2="102.32365962044197" y1="184.97166512339345" y2="189.96999836594603" /><path d="M 102.22038585953345 185.97133177190398 a86.0,86.0 0 0,1 -42.740103519485714,-10.115201625700543" fill="none" id="id19" stroke="none" /><text fill="#e1ed5e" style="font-size:6.75px; font-family:Arial;" text-anchor="middle"><textPath startOffset="22.20632615414155" xlink:href="#id19">July</textPath></text><path d="M 100.18074693466247 120.99922214144158 l 0.07029782136896137 8.167217716543517 a29.167520248711448,29.167520248711448 0 0,0 -0.502089512062828,0.0 l 0.07029782136895574 -8.167217716543517" fill="#ff5b08" stroke="none" /><path d="M 99.45781275523022 120.99299961872073 l -0.3962217012286221 15.341345822978973 a36.34646158880798,36.34646158880798 0 0,0 -0.6252969933655068,-0.02153649276417987 l 0.660239046268772 -15.332252531788699" fill="#ffbc11" stroke="none" /><path d="M 99.09653310690486 120.98055641714683 l -0.3328469982513958 7.7294644424297925 a28.736627669148326,28.736627669148326 0 0,0 -0.4940126410534103,-0.025534810728998266 l 0.46584770771829503 -7.722589824938592" fill="#ff5507" stroke="none" /><path d="M 98.73552117531835 120.96189622390904 l -0.9037016356804863 14.98111279900671 a36.008344923504865,36.008344923504865 0 0,0 -0.6183785762920392,-0.042647007117913575 l 1.1614429727514557 -14.963337447372512" fill="#ffb711" stroke="none" /><path d="M 98.01472825383883 120.90594882070398 l -0.7759175477183318 8.170817205781479 a29.207575881534808,29.207575881534808 0 0,0 -0.5000996294842176,-0.05183737138005205 l 0.9164497738081426 -8.156250465945666" fill="#ff5b08" stroke="none" /><path d="M 97.2962882734958 120.8252237178851 l -1.9682070846531048 15.160030730799779 a36.287261719708745,36.287261719708745 0 0,0 -0.6187348059975375,-0.08575100618686245 l 2.228870481837473 -15.123905159120312" fill="#ffbb11" stroke="none" /><path d="M 96.58105272829116 120.7198165907248 l -3.5993709544757584 21.813236675464818 a43.108205841446456,43.108205841446456 0 0,0 -0.73109675468694,-0.1271105420529252 l 3.974316680634748 -21.74804755489089" fill="#edff19" stroke="none" /><path d="M 96.22490169976321 120.6578951692458 l -2.653153610275934 14.518448207176057 a35.758880798494644,35.758880798494644 0 0,0 -0.6045505119112363,-0.1158635444501306 l 2.9026717367588653 -14.470627464377458" fill="#ffb410" stroke="none" /><path d="M 95.16358092515715 120.4354850818985 l -3.5329865828570006 14.928047692159042 a36.34042379121328,36.34042379121328 0 0,0 -0.6074850668069098,-0.14930504938289388 l 3.789424934407121 -14.86502138446212" fill="#ffbc11" stroke="none" /><path d="M 94.11515582081647 120.15858648285463 l -4.308431425498437 14.758570465396543 a36.37458888979792,36.37458888979792 0 0,0 -0.599531214724136,-0.18063383696683577 l 4.561837614662819 -14.682221259323981" fill="#ffbc11" stroke="none" /><path d="M 93.76903079525671 120.05430185196036 l -4.550345849249739 14.645235146115402 a36.33585862717827,36.33585862717827 0 0,0 -0.5956981206252707,-0.1907237266975811 l 4.801765314965951 -14.564738572758113" fill="#ffbb11" stroke="none" /><path d="M 93.08242187328487 119.8279376855182 l -5.050452149427182 14.476171959056133 a36.33188251656713,36.33188251656713 0 0,0 -0.5887156640898388,-0.21109249164255817 l 5.298887374146747 -14.387091926373618" fill="#ffbb11" stroke="none" /><path d="M 92.40401165467489 119.57807347666478 l -5.537389477249721 14.272193837846824 a36.30876216968011,36.30876216968011 0 0,0 -0.5807308556097259,-0.2310847923660657 l 5.782241408901305 -14.174762201074692" fill="#ffbb11" stroke="none" /><path d="M 91.7346041902142 119.30500536409082 l -5.9769821477433265 13.960090366954889 a36.18579726744662,36.18579726744662 0 0,0 -0.5704937783941858,-0.25008770718129786 l 6.216396600795255 -13.855138106479139" fill="#ffba11" stroke="none" /><path d="M 91.40352486487194 119.15986991738527 l -6.180769269617306 13.775731719542275 a36.098764624069375,36.098764624069375 0 0,0 -0.5647428329650328,-0.25924573572745613 l 6.416980098349758 -13.667298913480744" fill="#ffb811" stroke="none" /><path d="M 90.7491055286396 118.85261126421891 l -2.6552870696269477 5.4112707774973 a27.02763642313671,27.02763642313671 0 0,0 -0.41589881403370094,-0.20854029927424897 l 2.7480397913434094 -5.364762637313749" fill="#ff3c05" stroke="none" /><path d="M 90.42595943632237 118.69057910512821 l -0.8549397450090873 1.6690256144133602 a22.875251574899778,22.875251574899778 0 0,0 -0.3489119612588337,-0.18253424753293992 l 0.8835426087944167 -1.6540619479357035" fill="#ff0000" stroke="none" /><path d="M 90.10565033884886 118.52300852407294 l -3.5440924230100537 6.634822541118881 a28.522064959502575,28.522064959502575 0 0,0 -0.43105965602604307,-0.23504809392176843 l 3.6577748909047374 -6.572833795437346" fill="#ff5207" stroke="none" /><line stroke="#e1ed5e" stroke-width="0.3" x1="58.666819895761336" x2="56.23545636021788" y1="174.27360380694188" y2="178.64263932499728" /><path d="M 58.180547188652646 175.14741091055294 a86.0,86.0 0 0,1 -31.652253787137756,-30.449443065178592" fill="none" id="id20" stroke="none" /><text fill="#e1ed5e" style="font-size:6.75px; font-family:Arial;" text-anchor="middle"><textPath startOffset="22.20632615414155" xlink:href="#id20">August</textPath></text><path d="M 89.1626897886671 117.98757091392108 l -7.63975841994364 12.680332450044373 a35.80394338542093,35.80394338542093 0 0,0 -0.5251599660550322,-0.32259614388311636 l 7.856897585930981 -12.546947839332878" fill="#ffb510" stroke="none" /><path d="M 88.54995079064634 117.60387380957326 l -8.619634408246696 13.252253648261467 a36.80886852654831,36.80886852654831 0 0,0 -0.5281639713239671,-0.35003828029243733 l 8.846473078310625 -13.10191734687771" fill="#ffc212" stroke="none" /><path d="M 88.24862548938628 117.40417183066458 l -4.14540136311108 6.139475647337577 a28.407935858627177,28.407935858627177 0 0,0 -0.40290991036031554,-0.2771251102745334 l 4.250468158094287 -6.067209747697943" fill="#ff5007" stroke="none" /><path d="M 87.95078237400918 117.19931262002967 l -4.289251652141784 6.122570141984548 a28.475529739016608,28.475529739016608 0 0,0 -0.3990271536770907,-0.28469527932057703 l 4.394006133667762 -6.047830600819752" fill="#ff5107" stroke="none" /><path d="M 87.36589467227662 116.77436683061367 l -9.287376439190224 12.330897617508484 a36.437175816084434,36.437175816084434 0 0,0 -0.49775137887935794,-0.3816545321170422 l 9.498256546563068 -12.169203743564076" fill="#ffbd11" stroke="none" /><path d="M 87.07902340077011 116.55440617244103 l -9.47895685617397 12.144476904129775 a36.40580872126319,36.40580872126319 0 0,0 -0.49068530381517167,-0.38983008164896826 l 9.686599652706498 -11.979512908475677" fill="#ffbc11" stroke="none" /><path d="M 86.51685102203217 116.09983520530335 l -9.468823092754333 11.306445670119121 a35.747688783441056,35.747688783441056 0 0,0 -0.4683534912811312,-0.39914100598178565 l 9.66204206061252 -11.141780273914385" fill="#ffb410" stroke="none" /><path d="M 85.97065885151581 115.62618273729859 l -4.979177322840549 5.54591508643484 a28.453145708909435,28.453145708909435 0 0,0 -0.3616265432758648,-0.3303372731999165 l 5.073903415583268 -5.459385046648348" fill="#ff5107" stroke="none" /><path d="M 85.44109423537348 115.13401014063109 l -10.653809102396934 11.074654757624169 a36.36722572199951,36.36722572199951 0 0,0 -0.4474035474875626,-0.4378785371809168 l 10.84286260226029 -10.889626117520681" fill="#ffbc11" stroke="none" /><path d="M 84.67929136418377 114.36230785411682 l -11.196879040269488 10.496448147686541 a36.34749243229976,36.34749243229976 0 0,0 -0.42397375388761355,-0.46013977401164435 l 11.37589920215283 -10.302157118873554" fill="#ffbc11" stroke="none" /><path d="M 84.43433777217949 114.09645910891817 l -5.522689172052068 5.001416640401922 a28.45078949521394,28.45078949521394 0 0,0 -0.3256140702710805,-0.3658308597606212 l 5.607962091971487 -4.9056116109004355" fill="#ff5107" stroke="none" /><path d="M 84.19399662182784 113.82643327865904 l -11.163940110000201 9.765749719567207 a35.83251247647877,35.83251247647877 0 0,0 -0.4021047602847974,-0.46773867925633417 l 11.330387379855779 -9.572133941149342" fill="#ffb510" stroke="none" /><path d="M 83.72743513129214 113.27417163493432 l -11.913409461259 9.718236997174731 a36.37444162644196,36.37444162644196 0 0,0 -0.39160046241640845,-0.4885817881881722 l 12.07892783573027 -9.5117273754083" fill="#ffbc11" stroke="none" /><path d="M 83.28015986056508 112.70617746262583 l -11.748423009162018 8.928168356605733 a35.75593553137528,35.75593553137528 0 0,0 -0.36818181940175193,-0.49323971450166315 l 11.900366095258855 -8.72461576259476" fill="#ffb410" stroke="none" /><path d="M 83.06392112726016 112.41649034213515 l -11.906304342429669 8.728969319826021 a35.76329869917369,35.76329869917369 0 0,0 -0.3597110179320302,-0.499607142692885 l 12.054795152737306 -8.522728571681998" fill="#ffb410" stroke="none" /><path d="M 82.85270091963577 112.12312394758628 l -12.061408690092549 8.527404336227415 a35.77139818375194,35.77139818375194 0 0,0 -0.3511373129114627,-0.5058394883072747 l 12.206406910166146 -8.318523585733127" fill="#ffb410" stroke="none" /><path d="M 82.6465618267979 111.8261652097733 l -12.216750704030563 8.325572760306805 a35.783915569009245,35.783915569009245 0 0,0 -0.34249790026740357,-0.5119878901744233 l 12.358251709708698 -8.114047955926562" fill="#ffb410" stroke="none" /><path d="M 82.05923443525364 110.91462005526583 l -13.248962126608205 8.06026851065314 a36.508156753661126,36.508156753661126 0 0,0 -0.32200042018022834,-0.5396912256516282 l 13.385743422486666 -7.831015191115401" fill="#ffbe11" stroke="none" /><line stroke="#e1ed5e" stroke-width="0.3" x1="26.63291911575756" x2="22.317208475507996" y1="142.92168965132927" y2="145.44649492493687" /><path d="M 25.769776987707644 143.4266507060508 a86.0,86.0 0 0,1 -11.730757126820373,-40.83630448921669" fill="none" id="id21" stroke="none" /><text fill="#e1ed5e" style="font-size:6.75px; font-family:Arial;" text-anchor="middle"><textPath startOffset="21.46611528233685" xlink:href="#id21">September</textPath></text><path d="M 81.69416730710424 110.29060199501025 l -26.32645794456199 14.799386905300487 a51.201063568681995,51.201063568681995 0 0,0 -0.42527015940717433,-0.7719888673919959 l 26.577304513420682 -14.34402751951067" fill="#90ff24" stroke="none" /><path d="M 81.35079622478065 109.6543875284942 l -26.29297754122451 13.61144408740261 a50.60729771741798,50.60729771741798 0 0,0 -0.3938243767382321,-0.7770528574328452 l 26.523380587749006 -13.15683701826708" fill="#96ff23" stroke="none" /><path d="M 81.02952815118164 109.00673069616217 l -13.453579003584695 6.387440647259213 a35.89289045242575,35.89289045242575 0 0,0 -0.260181381040316,-0.5604075479385612 l 13.561535001464838 -6.154913032041825" fill="#ffb610" stroke="none" /><path d="M 80.87730276802145 108.67885076344099 l -13.657147370135615 6.19830677868574 a35.99788922523112,35.99788922523112 0 0,0 -0.25122912365778194,-0.5664553512966326 l 13.761817578524676 -5.962303090896412" fill="#ffb711" stroke="none" /><path d="M 80.58989483394504 108.01547362559985 l -13.929514141105642 5.752243599932295 a36.070490059723475,36.070490059723475 0 0,0 -0.23204899569159626,-0.5759265771069089 l 14.026465751054625 -5.51161765498258" fill="#ffb811" stroke="none" /><path d="M 80.45479744820244 107.68017299344265 l -13.817309856939014 5.429431070057252 a35.845766178515916,35.845766178515916 0 0,0 -0.22071726758264892,-0.5762231376512394 l 13.908721404115171 -5.190784365572854" fill="#ffb510" stroke="none" /><path d="M 80.32549172779594 107.34259656027581 l -27.969483865132215 10.438310995093701 a50.85381657530885,50.85381657530885 0 0,0 -0.2990101229686204,-0.8227474386718103 l 28.14501824910606 -9.955315759415774" fill="#94ff23" stroke="none" /><path d="M 80.0844068197444 106.66101706037122 l -14.312105329667121 4.786861074530098 a36.091401456270965,36.091401456270965 0 0,0 -0.19198520068328054,-0.5908696915242222 l 14.392382781366651 -4.539792483028072" fill="#ffb811" stroke="none" /><path d="M 79.86692584326677 105.97154293290107 l -21.885638249244405 6.49135980933131 a43.82802912541929,43.82802912541929 0 0,0 -0.20830285797557763,-0.7251295753806559 l 21.994133744106087 -6.113672758446058" fill="#e5ff1a" stroke="none" /><path d="M 79.67330655649465 105.27499134158121 l -7.957251561741279 2.0649907082836543 a29.220829583571955,29.220829583571955 0 0,0 -0.12215515354046924,-0.4879491164129423 l 7.991618029576806 -1.9277137524733199" fill="#ff5b08" stroke="none" /><path d="M 79.58551787078972 104.9243191809786 l -16.58020236725291 3.9994258989673783 a38.05574736153154,38.05574736153154 0 0,0 -0.14812644059149316,-0.6381248292390264 l 16.646589373774958 -3.713432412379778" fill="#ffd213" stroke="none" /><path d="M 79.50377843672027 104.57218783832718 l -30.33060384406126 6.76598940915946 a52.07610242984538,52.07610242984538 0 0,0 -0.18763754046851128,-0.876580121315175 l 30.442575423254215 -6.242895468428122" fill="#86ff25" stroke="none" /><path d="M 79.29508885075956 103.50808413554451 l -28.377883434953386 4.808134744502073 a49.782328397283806,49.782328397283806 0 0,0 -0.13587789178773352,-0.8461117618678066 l 28.45644308110241 -4.3189437529410535" fill="#a0ff22" stroke="none" /><path d="M 79.1416061653843 102.43462659150553 l -30.864357531925233 3.6025393984197773 a52.073893479505855,52.073893479505855 0 0,0 -0.09625660460732374,-0.8912166119197366 l 30.921796438033606 -3.0707264646152588" fill="#86ff25" stroke="none" /><path d="M 79.10278846688536 102.07522291339032 l -7.338118073800326 0.7287207072476013 a28.37421255011045,28.37421255011045 0 0,0 -0.04408191141749662,-0.48644021920564817 l 7.349574581494898 -0.6022990994933869" fill="#ff5007" stroke="none" /><path d="M 79.04373962182676 101.35467743843564 l -36.75752710059896 2.3761201548980124 a57.83424691156017,57.83424691156017 0 0,0 -0.05566862732162546,-0.9940007368962824 l 36.79298207880812 -1.7430477016662924" fill="#49ff2c" stroke="none" /><path d="M 79.0095281055655 100.63252640178507 l -20.627387096410132 0.6215852127545369 a41.63675038861163,41.63675038861163 0 0,0 -0.015421334977267272,-0.7165688394213597 l 20.635030494072407 -0.2664265575430483" fill="#ffff18" stroke="none" /><line stroke="#e1ed5e" stroke-width="0.3" x1="15.007084014347285" x2="10.007500721073583" y1="101.09737516637583" y2="101.16192664675087" /><path d="M 14.007167355692545 101.11028546245083 a86.0,86.0 0 0,1 10.666146001902534,-42.60595125391555" fill="none" id="id22" stroke="none" /><text fill="#e1ed5e" style="font-size:6.75px; font-family:Arial;" text-anchor="middle"><textPath startOffset="22.20632615414155" xlink:href="#id22">October</textPath></text><path d="M 79.00486145842228 99.54816195383935 l -44.18497465700181 -0.9509083533381247 a65.19520575963348,65.19520575963348 0 0,0 0.033803110492284676,-1.1217606707488343 l 44.16205985205388 1.7113391715119535" fill="#35ff68" stroke="none" /><path d="M 79.16333360222342 97.38593545837743 l -14.628746927313614 -1.8352498380038882 a35.743418146117975,35.743418146117975 0 0,0 0.08184221675305595,-0.6098195768412994 l 14.594988711502724 2.086787756909847" fill="#ffb410" stroke="none" /><path d="M 79.21141760316559 97.0276538004421 l -15.212370320768114 -2.175060821659869 a36.36707845864354,36.36707845864354 0 0,0 0.09393807996247223,-0.6189345771821728 l 15.172676347366341 2.4365945112341336" fill="#ffbc11" stroke="none" /><path d="M 79.32604984820605 96.31383870115002 l -15.121672467358131 -2.696191265519912 a36.360157080913034,36.360157080913034 0 0,0 0.11516521556003093,-0.6152171865596605 l 15.073021527888239 2.9560865295421452" fill="#ffbc11" stroke="none" /><path d="M 79.46518482838121 95.60439243477599 l -21.641080608582595 -4.6324107058037525 a43.13132618833347,43.13132618833347 0 0,0 0.16165130795561217,-0.7246511169288379 l 21.558134913624944 5.00423999228255" fill="#edff1a" stroke="none" /><path d="M 79.62865764111835 94.90015583598534 l -14.303772286743499 -3.580864153909787 a35.74518530638959,35.74518530638959 0 0,0 0.15456161637122695,-0.5955889575297117 l 14.240014338501963 3.8265495369883626" fill="#ffb410" stroke="none" /><path d="M 79.91906864156998 93.8553929516997 l -35.21810597597911 -10.776463419210014 a57.82997627423709,57.82997627423709 0 0,0 0.2994615616018172,-0.9493749855289351 l 35.02738893060909 11.381088571165362" fill="#4aff2c" stroke="none" /><path d="M 80.14247586403 93.16781622104843 l -13.942297699178766 -4.796989772209076 a35.74444898960975,35.74444898960975 0 0,0 0.20518491446897005,-0.5800853837015203 l 13.857659703899987 5.036272782337208" fill="#ffb410" stroke="none" /><path d="M 80.38941819471856 92.48833698450439 l -13.76575242488053 -5.272851891757539 a35.74106193242248,35.74106193242248 0 0,0 0.2250094724544858,-0.5726245644402711 l 13.672949402544354 5.509025461093573" fill="#ffb410" stroke="none" /><path d="M 80.65960295795068 91.81776055985345 l -40.70482118983513 -17.220773318120603 a65.19770923668494,65.19770923668494 0 0,0 0.44616745306129957,-1.0298159964191702 l 40.40236302693115 17.91888845912637" fill="#35ff68" stroke="none" /><path d="M 81.10775173730289 90.83032412892265 l -13.268138498912702 -6.43991798942319 a35.7484251002209,35.7484251002209 0 0,0 0.2734584069064466,-0.5512754616652186 l 13.155320079052842 6.667353039587369" fill="#ffb410" stroke="none" /><line stroke="#e1ed5e" stroke-width="0.3" x1="26.266209847984243" x2="21.928928074336255" y1="57.711370442889674" y2="55.22380399835377" /><path d="M 25.398753493254645 57.213857153982495 a86.0,86.0 0 0,1 29.58750427330803,-30.492523968695096" fill="none" id="id23" stroke="none" /><text fill="#e1ed5e" style="font-size:6.75px; font-family:Arial;" text-anchor="middle"><textPath startOffset="21.46611528233685" xlink:href="#id23">November</textPath></text><path d="M 81.78341655067845 89.55222093294921 l -13.339211979955389 -7.650454328213861 a36.37738689356132,36.37738689356132 0 0,0 0.31620666883188653,-0.5404996969313732 l 13.205545636653177 7.878933437499127" fill="#ffbc11" stroke="none" /><path d="M 81.96595687620814 89.24020034530311 l -54.1021293713756 -32.27939896409068 a84.0,84.0 0 0,0 0.7515368068551322,-1.2353289071717022 l 53.53847676623425 33.20589564446946" fill="#4dd2ff" stroke="none" /><path d="M 82.54541684631803 88.32363383020206 l -6.148201015482138 -4.112882313499963 a28.39703837028553,28.39703837028553 0 0,0 0.2752829647455314,-0.40394378263035924 l 6.076493585067865 4.218104119400738" fill="#ff5007" stroke="none" /><path d="M 82.7489923806493 88.02491185347247 l -2.478139977903947 -1.7202441346988675 a24.016689847009737,24.016689847009737 0 0,0 0.23866571834072658,-0.3375757329803773 l 2.4481616397593418 1.762646368011031" fill="#ff1101" stroke="none" /><path d="M 83.39014120810768 87.1503855733568 l -24.6055991636587 -19.035228772918906 a52.10908942158226,52.10908942158226 0 0,0 0.5549516768143211,-0.7047322733290545 l 24.274293406250408 19.455953440201007" fill="#86ff25" stroke="none" /><line stroke="#e1ed5e" stroke-width="0.3" x1="56.762969772571076" x2="54.21961505331055" y1="26.818313649435495" y2="22.513508569990535" /><path d="M 56.25429882871897 25.957352633546506 a86.0,86.0 0 0,1 42.265352541879196,-11.944610805530505" fill="none" id="id24" stroke="none" /><text fill="#e1ed5e" style="font-size:6.75px; font-family:Arial;" text-anchor="middle"><textPath startOffset="22.20632615414155" xlink:href="#id24">December</textPath></text></svg>