<?xml version="1.0" encoding="utf-8" ?>
<svg baseProfile="full" height="200mm" version="1.1" viewBox="0,0,200,200" width="200mm" xmlns="http://www.w3.org/2000/svg" xmlns:ev="http://www.w3.org/2001/xml-events" xmlns:xlink="http://www.w3.org/1999/xlink"><defs /><rect fill="#1a1a1a" height="200" width="200" x="0" y="0" /><text alignment-baseline="middle" fill="#e1ed5e" style="dominant-baseline: central; font-size:9.0px; font-family:Arial;" text-anchor="middle" x="100.0" y="100.0">2025</text><line stroke="#e1ed5e" stroke-width="0.3" x1="100.0" x2="100.0" y1="15.0" y2="10.0" /><path d="M 100.0 14.0 a86.0,86.0 0 0,1 42.46469731375804,11.215312516191453" fill="none" id="id13" stroke="none" /><text fill="#e1ed5e" style="font-size:6.75px; font-family:Arial;" text-anchor="middle"><textPath startOffset="22.20632615414155" xlink:href="#id13">January</textPath></text><path d="M 101.44485096284872 79.0497635885617 l 1.732816824691648 -25.125720969470642 a46.185402684563755,46.185402684563755 0 0,0 0.7926510588460782,0.06152497765813609 l -2.1650580729000675 25.09217072962404" fill="#ffd313" stroke="none" /><path d="M 103.95276090670814 79.375362276772 l 4.739902268475414 -24.731768360921645 a46.18187919463087,46.18187919463087 0 0,0 0.7794480600242134,0.156349948174216 l -5.164916737966752 24.64651445667022" fill="#ffd313" stroke="none" /><path d="M 106.40334571778207 80.00007090966166 l 13.81277799309198 -43.142224795901235 a66.2994966442953,66.2994966442953 0 0,0 1.0838931464127513,0.3573425289835739 l -14.553353961747149 42.89806854265842" fill="#32ff49" stroke="none" /><path d="M 108.43124777332544 80.76684994638697 l 22.232060583497866 -50.71521662027731 a76.3741610738255,76.3741610738255 0 0,0 1.1995030480593345,0.5381820529896144 l -23.10174575002398 50.32501423677117" fill="#41ffd2" stroke="none" /><line stroke="#e1ed5e" stroke-width="0.3" x1="143.23703022742887" x2="145.7803849466894" y1="26.81831364943548" y2="22.513508569990506" /><path d="M 143.74570117128098 25.957352633546492 a86.0,86.0 0 0,1 28.547481713284135,27.462654790039103" fill="none" id="id14" stroke="none" /><text fill="#e1ed5e" style="font-size:6.75px; font-family:Arial;" text-anchor="middle"><textPath startOffset="19.985693538727396" xlink:href="#id14">February</textPath></text><path d="M 114.94478906791727 85.2469230424477 l 26.888261855739977 -26.543338591785997 a58.782634228187916,58.782634228187916 0 0,0 0.7046518909001767,0.7262057142225389 l -27.341178010343263 26.07656868201334" fill="#78ff26" stroke="none" /><path d="M 115.4437574822437 85.77008943001954 l 9.265884312992375 -8.537605260718625 a33.5994966442953,33.5994966442953 0 0,0 0.38824435870659163,0.42870911785643173 l -9.411472312315002 8.376843355592644" fill="#ff0000" stroke="none" /><path d="M 115.9244219780498 86.31012108654704 l 9.84226229422348 -8.46117863669323 a33.97927852348994,33.97927852348994 0 0,0 0.3774764305188258,0.4468130315391263 l -9.986449338229423 8.290506655524997" fill="#ff0701" stroke="none" /><path d="M 116.38621287248628 86.86637796730983 l 19.7237450844698 -15.80866885011071 a46.277265100671144,46.277265100671144 0 0,0 0.49284388100173615,0.6258616797924865 l -19.992943046065502 15.466814776365185" fill="#ffd413" stroke="none" /><path d="M 117.04232023915458 87.72973835380427 l 10.229068578827174 -7.364803976087904 a33.60453020134228,33.60453020134228 0 0,0 0.3339448271637817,0.47234127543981674 l -10.35432602579484 7.187636200316295" fill="#ff0000" stroke="none" /><path d="M 117.2510076193507 88.02491185347247 l 10.3489505919729 -7.183904749072173 a33.59798657718121,33.59798657718121 0 0,0 0.32570133666211376,0.4779265221176153 l -10.471076394303745 7.004700203684152" fill="#ff0000" stroke="none" /><path d="M 117.65298651832404 88.62581576622439 l 10.58121365924567 -6.817694753931609 a33.58741610738255,33.58741610738255 0 0,0 0.30896009073097114,0.48870066661011896 l -10.697001346222596 6.634546439607284" fill="#ff0000" stroke="none" /><line stroke="#e1ed5e" stroke-width="0.3" x1="172.23445277983987" x2="176.4835382374775" y1="55.19839476539836" y2="52.563006222186495" /><path d="M 173.08426987136738 54.67131705675599 a86.0,86.0 0 0,1 12.851231095245387,41.99856678651699" fill="none" id="id15" stroke="none" /><text fill="#e1ed5e" style="font-size:6.75px; font-family:Arial;" text-anchor="middle"><textPath startOffset="22.20632615414155" xlink:href="#id15">March</textPath></text><path d="M 118.03404312379186 89.2402003453031 l 45.63667633838565 -27.228586010169696 a74.14228187919463,74.14228187919463 0 0,0 0.644474108082902,1.1016151600652118 l -46.09861012093888 26.438991437750587" fill="#3effb5" stroke="none" /><path d="M 118.3937258080291 89.86733742301442 l 12.148147672925067 -6.692123313668764 a34.86946308724832,34.86946308724832 0 0,0 0.2850859236514877,0.5282209194781221 l -12.26154169579502 6.4820214108581835" fill="#ff1702" stroke="none" /><path d="M 118.89224826269711 90.83032412892265 l 12.495963346335735 -6.065129570047442 a34.89010067114094,34.89010067114094 0 0,0 0.25759162976650696,0.5425536663441023 l -12.598513169943999 5.849133488062799" fill="#ff1702" stroke="none" /><path d="M 119.04729006885535 91.15688171328212 l 48.18343478635801 -22.370206561448505 a74.1231543624161,74.1231543624161 0 0,0 0.5273251200530069,1.1618910024433249 l -48.56136222337437 21.53749355016312" fill="#3effb5" stroke="none" /><path d="M 119.47837535516314 92.15188598940014 l 12.855167474330337 -5.179529510255424 a34.85939597315436,34.85939597315436 0 0,0 0.21945890451804215,0.558498974471413 l -12.942419928730079 4.957481530888227" fill="#ff1702" stroke="none" /><path d="M 120.08093135843002 93.85539295169968 l 50.857654092252005 -15.562042129290122 a74.18531879194632,74.18531879194632 0 0,0 0.3631339663190712,1.2243072108632864 l -51.11799395568278 14.684305531680305" fill="#3effb6" stroke="none" /><path d="M 120.28053869075195 94.5502522615342 l 13.402801354555791 -3.6015752581761693 a34.87827181208054,34.87827181208054 0 0,0 0.150813096121978,0.5811443798917026 l -13.462810782548072 3.3703344527356163" fill="#ff1702" stroke="none" /><path d="M 120.45610955862082 95.25157060432595 l 13.14913034727503 -3.0522772128113367 a34.49874161073826,34.49874161073826 0 0,0 0.12929736219673657,0.5796147220630238 l -13.199722096473803 2.825484321198349" fill="#ff1001" stroke="none" /><path d="M 120.6074358757038 95.95851677861258 l 50.475622267122674 -9.899163666556793 a72.43716442953021,72.43716442953021 0 0,0 0.22943359781203299,1.225643453726721 l -50.63854158884456 9.02884213536751" fill="#3bff9e" stroke="none" /><path d="M 120.91429891909075 98.10471618934814 l 14.046969559248371 -1.2729565594025858 a35.10453020134228,35.10453020134228 0 0,0 0.04935616068898889,0.6022701749763422 l -14.066800203756856 1.0309724672184748" fill="#ff1b02" stroke="none" /><path d="M 120.96714384426684 98.82574320788733 l 53.784593735415065 -3.0121853970158616 a74.86887583892619,74.86887583892619 0 0,0 0.060987443867541985,1.2873485488122802 l -53.82847478751611 2.085925741580582" fill="#3fffbe" stroke="none" /><line stroke="#e1ed5e" stroke-width="0.3" x1="184.98032266829074" x2="189.97916517819016" y1="98.17113171792111" y2="98.06355123074" /><path d="M 185.9800911702706 98.14961562048488 a86.0,86.0 0 0,1 -9.607161424134198,41.387399972396054" fill="none" id="id16" stroke="none" /><text fill="#e1ed5e" style="font-size:6.75px; font-family:Arial;" text-anchor="middle"><textPath startOffset="21.466115282336823" xlink:href="#id16">April</textPath></text><path d="M 120.99824983174949 100.27111621757518 l 14.040943805280818 0.18128785047207438 a35.04211409395973,35.04211409395973 0 0,0 -0.01297882699083979,0.6030750909429429 l -14.03574291560497 -0.42295275720513203" fill="#ff1a02" stroke="none" /><path d="M 120.89721153311464 102.0752229133903 l 13.976888557527117 1.387991854631902 a35.04563758389262,35.04563758389262 0 0,0 -0.0647805234969023,0.5997871928354095 l -13.950925732529162 -1.6283753693521028" fill="#ff1a02" stroke="none" /><path d="M 120.81339534386255 102.79330883721812 l 13.97096668042183 1.875005209297092 a35.096224832214766,35.096224832214766 0 0,0 -0.08551103091785665,0.5980639510762692 l -13.936621598487372 -2.11521463235377" fill="#ff1b02" stroke="none" /><path d="M 120.64145759157962 103.86396538481128 l 52.23124917921079 9.7773976444499 a74.1385067114094,74.1385067114094 0 0,0 -0.24561051814271084,1.2523627405501678 l -52.05520872809242 -10.675024112068012" fill="#3effb5" stroke="none" /><path d="M 120.13307415673323 105.97154293290107 l 25.2944666457874 7.502430695097707 a47.38364093959731,47.38364093959731 0 0,0 -0.23866288726627385,0.7799641245284235 l -25.161576986014992 -7.936721792178187" fill="#ffe515" stroke="none" /><path d="M 120.02730092923936 106.31721596034902 l 25.00772391919282 7.888191885291999 a47.222315436241615,47.222315436241615 0 0,0 -0.25119516948491827,0.7730992377416861 l -24.868236498691655 -8.31749002301148" fill="#ffe315" stroke="none" /><path d="M 119.67450827220406 107.3425965602758 l 13.152493665191065 4.908557480011789 a35.038590604026844,35.038590604026844 0 0,0 -0.21574715238485126,0.5632477352048144 l -13.066052233212707 -5.134228782049747" fill="#ff1a02" stroke="none" /><path d="M 119.54520255179757 107.68017299344265 l 13.150848054446541 5.167548803905288 a35.129697986577185,35.129697986577185 0 0,0 -0.22599668380542484,0.5609052353519224 l -13.059948756383724 -5.393153407100025" fill="#ff1b02" stroke="none" /><path d="M 119.26925614724726 108.34839909993367 l 48.73754667233524 21.115526601706634 a74.11510067114094,74.11510067114094 0 0,0 -0.5172489885426155,1.1662599194185925 l -48.36685659906136 -21.951334857617915" fill="#3effb5" stroke="none" /><path d="M 118.97047184881838 109.00673069616215 l 12.70957954569325 6.034207327143537 a35.06929530201342,35.06929530201342 0 0,0 -0.2635987645828437,0.543091530415707 l -12.603827524495692 -6.252087813524518" fill="#ff1a02" stroke="none" /><path d="M 118.81262510543309 109.33194174019688 l 12.597289100142177 6.248844449305133 a35.061996644295306,35.061996644295306 0 0,0 -0.2728513395981005,0.5383615784403469 l -12.487859090757807 -6.464760239448174" fill="#ff1a02" stroke="none" /><line stroke="#e1ed5e" stroke-width="0.3" x1="174.80103733775053" x2="179.2010983576182" y1="140.37084112569926" y2="142.7455964860345" /><path d="M 175.68104954172406 140.8457921977663 a86.0,86.0 0 0,1 -30.038265399797805,32.042727171017184" fill="none" id="id17" stroke="none" /><text fill="#e1ed5e" style="font-size:6.75px; font-family:Arial;" text-anchor="middle"><textPath startOffset="22.206326154141568" xlink:href="#id17">May</textPath></text><path d="M 118.30583269289576 110.29060199501025 l 22.66136596772869 12.739059825870005 a46.996560402684565,46.996560402684565 0 0,0 -0.4024875036250924,0.701770888342992 l -22.438726467951216 -13.127250560071312" fill="#ffdf14" stroke="none" /><path d="M 117.35343817320211 111.8261652097733 l 21.689094040852442 14.78086398887377 a47.246728187919466,47.246728187919466 0 0,0 -0.46378084229594513,0.6681108937370251 l -21.43145229139436 -15.152016144797814" fill="#ffe315" stroke="none" /><path d="M 116.498646956653 112.99209946851258 l 19.797189963974255 15.58958512687459 a46.198489932885906,46.198489932885906 0 0,0 -0.49736433637807886,0.6205384828944058 l -19.525907715541322 -15.928051443347247" fill="#ffd313" stroke="none" /><path d="M 116.0416608686014 113.55231037782055 l 10.656246148428075 9.002606179552226 a34.95,34.95 0 0,0 -0.39220139478577537,0.45621882782402845 l -10.49970224407152 -9.184702106537783" fill="#ff1802" stroke="none" /><path d="M 115.56566222782051 114.09645910891815 l 19.40950774800558 17.57749386370314 a47.18582214765101,47.18582214765101 0 0,0 -0.5503969822258158,0.5973472194819242 l -19.104064357784043 -17.908992337986398" fill="#ffe215" stroke="none" /><path d="M 115.07121518719521 114.62390073753431 l 18.068840873277317 17.53255673753575 a46.176845637583895,46.176845637583895 0 0,0 -0.5584306121441821,0.5656872618217111 l -17.7643696360776 -17.840984493338127" fill="#ffd313" stroke="none" /><path d="M 114.81725581225074 114.88116024355365 l 44.45176743675221 44.643480730660954 a84.0,84.0 0 0,0 -1.033400190496823,1.011399588309712 l -43.67671729387959 -45.40203042189324" fill="#4dd2ff" stroke="none" /><line stroke="#e1ed5e" stroke-width="0.3" x1="143.8653032363475" x2="146.44561519142675" y1="172.8068346515853" y2="177.08958963109032" /><path d="M 144.38136562736335 173.6633856474863 a86.0,86.0 0 0,1 -40.68145358897372,12.25698825130547" fill="none" id="id18" stroke="none" /><text fill="#e1ed5e" style="font-size:6.75px; font-family:Arial;" text-anchor="middle"><textPath startOffset="21.466115282336833" xlink:href="#id18">June</textPath></text><line stroke="#e1ed5e" stroke-width="0.3" x1="102.19456741930631" x2="102.32365962044197" y1="184.97166512339345" y2="189.96999836594603" /><path d="M 102.22038585953345 185.97133177190398 a86.0,86.0 0 0,1 -42.740103519485714,-10.115201625700543" fill="none" id="id19" stroke="none" /><text fill="#e1ed5e" style="font-size:6.75px; font-family:Arial;" text-anchor="middle"><textPath startOffset="22.20632615414155" xlink:href="#id19">July</textPath></text><line stroke="#e1ed5e" stroke-width="0.3" x1="58.666819895761336" x2="56.23545636021788" y1="174.27360380694188" y2="178.64263932499728" /><path d="M 58.180547188652646 175.14741091055294 a86.0,86.0 0 0,1 -31.652253787137756,-30.449443065178592" fill="none" id="id20" stroke="none" /><text fill="#e1ed5e" style="font-size:6.75px; font-family:Arial;" text-anchor="middle"><textPath startOffset="22.20632615414155" xlink:href="#id20">August</textPath></text><line stroke="#e1ed5e" stroke-width="0.3" x1="26.63291911575756" x2="22.317208475507996" y1="142.92168965132927" y2="145.44649492493687" /><path d="M 25.769776987707644 143.4266507060508 a86.0,86.0 0 0,1 -11.730757126820373,-40.83630448921669" fill="none" id="id21" stroke="none" /><text fill="#e1ed5e" style="font-size:6.75px; font-family:Arial;" text-anchor="middle"><textPath startOffset="21.46611528233685" xlink:href="#id21">September</textPath></text><line stroke="#e1ed5e" stroke-width="0.3" x1="15.007084014347285" x2="10.007500721073583" y1="101.09737516637583" y2="101.16192664675087" /><path d="M 14.007167355692545 101.11028546245083 a86.0,86.0 0 0,1 10.666146001902534,-42.60595125391555" fill="none" id="id22" stroke="none" /><text fill="#e1ed5e" style="font-size:6.75px; font-family:Arial;" text-anchor="middle"><textPath startOffset="22.20632615414155" xlink:href="#id22">October</textPath></text><line stroke="#e1ed5e" stroke-width="0.3" x1="26.266209847984243" x2="21.928928074336255" y1="57.711370442889674" y2="55.22380399835377" /><path d="M 25.398753493254645 57.213857153982495 a86.0,86.0 0 0,1 29.58750427330803,-30.492523968695096" fill="none" id="id23" stroke="none" /><text fill="#e1ed5e" style="font-size:6.75px; font-family:Arial;" text-anchor="middle"><textPath startOffset="21.46611528233685" xlink:href="#id23">November</textPath></text><line stroke="#e1ed5e" stroke-width="0.3" x1="56.762969772571076" x2="54.21961505331055" y1="26.818313649435495" y2="22.513508569990535" /><path d="M 56.25429882871897 25.957352633546506 a86.0,86.0 0 0,1 42.265352541879196,-11.944610805530505" fill="none" id="id24" stroke="none" /><text fill="#e1ed5e" style="font-size:6.75px; font-family:Arial;" text-anchor="middle"><textPath startOffset="22.20632615414155" xlink:href="#id24">December</textPath></text></svg>