<?xml version="1.0" encoding="utf-8" ?>
<svg baseProfile="full" height="200mm" version="1.1" viewBox="0,0,200,200" width="200mm" xmlns="http://www.w3.org/2000/svg" xmlns:ev="http://www.w3.org/2001/xml-events" xmlns:xlink="http://www.w3.org/1999/xlink"><defs /><rect fill="#1a1a1a" height="200" width="200" x="0" y="0" /><text alignment-baseline="middle" fill="#e1ed5e" style="dominant-baseline: central; font-size:9.0px; font-family:Arial;" text-anchor="middle" x="100.0" y="100.0">2025</text><line stroke="#e1ed5e" stroke-width="0.3" x1="100.0" x2="100.0" y1="15.0" y2="10.0" /><path d="M 100.0 14.0 a86.0,86.0 0 0,1 42.46469731375804,11.215312516191453" fill="none" id="id13" stroke="none" /><text fill="#e1ed5e" style="font-size:6.75px; font-family:Arial;" text-anchor="middle"><textPath startOffset="22.20632615414155" xlink:href="#id13">January</textPath></text><path d="M 101.44485096284872 79.0497635885617 l 1.4452505357958911 -20.9560301908122 a42.00580754147411,42.00580754147411 0 0,0 0.720919292462125,0.055957212025455144 l -1.8057600176203574 20.92804771659828" fill="#fffc17" stroke="none" /><path d="M 103.95276090670814 79.375362276772 l 3.953300888772971 -20.627455230971904 a42.00286878554745,42.00286878554745 0 0,0 0.708915599825847,0.1422018001933589 l -4.307782898065943 20.55634947470134" fill="#fffc17" stroke="none" /><path d="M 106.40334571778207 80.00007090966166 l 11.520504943676459 -35.98263971888566 a58.781905659937294,58.781905659937294 0 0,0 0.9609922835420066,0.31682404679015364 l -12.138180049460884 35.77900194783627" fill="#43ff2d" stroke="none" /><path d="M 108.43124777332544 80.76684994638697 l 18.542581657968746 -42.298870226230285 a67.18464849880218,67.18464849880218 0 0,0 1.0551761161632833,0.4734267656769415 l -19.267939892598807 41.973423130036814" fill="#38ff7d" stroke="none" /><line stroke="#e1ed5e" stroke-width="0.3" x1="143.23703022742887" x2="145.7803849466894" y1="26.81831364943548" y2="22.513508569990506" /><path d="M 143.74570117128098 25.957352633546492 a86.0,86.0 0 0,1 28.547481713284135,27.462654790039103" fill="none" id="id14" stroke="none" /><text fill="#e1ed5e" style="font-size:6.75px; font-family:Arial;" text-anchor="middle"><textPath startOffset="19.985693538727396" xlink:href="#id14">February</textPath></text><path d="M 114.94478906791727 85.2469230424477 l 22.426071988620922 -22.138389802636453 a52.51248971268829,52.51248971268829 0 0,0 0.629489060124119,0.6487438101084587 l -22.803825312448147 21.74908179697788" fill="#86ff25" stroke="none" /><path d="M 115.4437574822437 85.77008943001954 l 7.72818227359835 -7.120763373049032 a31.508571371452753,31.508571371452753 0 0,0 0.36408358182793,0.4020301845761547 l -7.849609496042315 6.986680401203328" fill="#ff720a" stroke="none" /><path d="M 115.9244219780498 86.31012108654704 l 8.208908553679011 -7.057019982664167 a31.82532727811893,31.82532727811893 0 0,0 0.35354814648971805,0.4184894906179623 l -8.329167313655846 6.914671542417098" fill="#ff760a" stroke="none" /><path d="M 116.38621287248628 86.86637796730983 l 16.45052884127213 -13.185171565902811 a42.08242510670483,42.08242510670483 0 0,0 0.44816965018212634,0.5691299433907521 l -16.675052572048223 12.90004922855902" fill="#fffd17" stroke="none" /><path d="M 117.04232023915458 87.72973835380427 l 8.531523144042417 -6.142592073669895 a31.512769594205118,31.512769594205118 0 0,0 0.31315796806373913,0.44293973739806586 l -8.63599373191004 5.994825835940035" fill="#ff720a" stroke="none" /><path d="M 117.2510076193507 88.02491185347247 l 8.63151036788645 -5.991713630522235 a31.507311904627045,31.507311904627045 0 0,0 0.3054341836345871,0.4481869758850498 l -8.733369017189771 5.842248631366779" fill="#ff710a" stroke="none" /><path d="M 117.65298651832404 88.62581576622439 l 8.825228663806907 -5.686277311951808 a31.498495636847068,31.498495636847068 0 0,0 0.2897447674669536,0.45830663977630637 l -8.921801027519816 5.533523024461295" fill="#ff710a" stroke="none" /><line stroke="#e1ed5e" stroke-width="0.3" x1="172.23445277983987" x2="176.4835382374775" y1="55.19839476539836" y2="52.563006222186495" /><path d="M 173.08426987136738 54.67131705675599 a86.0,86.0 0 0,1 12.851231095245387,41.99856678651699" fill="none" id="id15" stroke="none" /><text fill="#e1ed5e" style="font-size:6.75px; font-family:Arial;" text-anchor="middle"><textPath startOffset="22.20632615414155" xlink:href="#id15">March</textPath></text><path d="M 118.03404312379186 89.2402003453031 l 38.06312934532613 -22.709918301471305 a65.32315653040213,65.32315653040213 0 0,0 0.5678147741754938,0.9705795089292645 l -38.448403793971956 22.051359380188146" fill="#35ff67" stroke="none" /><path d="M 118.3937258080291 89.86733742301442 l 10.132125151974341 -5.581544838943398 a32.56778297187524,32.56778297187524 0 0,0 0.26626783631817974,0.49335386162165934 l -10.226701087510985 5.4063099939892805" fill="#ff800b" stroke="none" /><path d="M 118.89224826269711 90.83032412892265 l 10.422219743157935 -5.058602638130778 a32.58499568515995,32.58499568515995 0 0,0 0.24057317069932288,0.5067084513004405 l -10.507751107699015 4.878451771189797" fill="#ff800b" stroke="none" /><path d="M 119.04729006885535 91.15688171328212 l 40.18724538519073 -18.65780188540781 a65.30720328394312,65.30720328394312 0 0,0 0.46460689791546667,1.0236997135786399 l -40.50245460006954 17.963280162987108" fill="#35ff67" stroke="none" /><path d="M 119.47837535516314 92.15188598940014 l 10.721812839812378 -4.319970635787975 a32.5593865263705,32.5593865263705 0 0,0 0.2049790909848113,0.5216494284181021 l -10.79458548067889 4.134772202474089" fill="#ff800b" stroke="none" /><path d="M 120.08093135843002 93.85539295169968 l 42.41766976104289 -12.979473308978875 a65.35905133493488,65.35905133493488 0 0,0 0.31992976417165847,1.0786441191815912 l -42.63480542232625 12.247399803050753" fill="#35ff67" stroke="none" /><path d="M 120.28053869075195 94.5502522615342 l 11.178565190977169 -3.0038827517239652 a32.575129861691885,32.575129861691885 0 0,0 0.1408543467258506,0.5427692560388748 l -11.228615869573323 2.8110170701362396" fill="#ff800b" stroke="none" /><path d="M 120.45610955862082 95.25157060432595 l 10.96699166862656 -2.545742408750074 a32.25858386616332,32.25858386616332 0 0,0 0.12090150560155069,0.5419777432088451 l -11.00918756123015 2.356586495991265" fill="#ff7c0b" stroke="none" /><path d="M 120.6074358757038 95.95851677861258 l 42.0990372938994 -8.25636696802519 a63.901008573037416,63.901008573037416 0 0,0 0.2023966346031171,1.0812109151549005 l -42.23491965241237 7.5304779754077265" fill="#33ff56" stroke="none" /><path d="M 120.91429891909075 98.10471618934814 l 11.71583169815129 -1.0617054978380993 a32.76383997441083,32.76383997441083 0 0,0 0.046065204157140556,0.5621121696005712 l -11.732371386127925 0.8598794110297594" fill="#ff830c" stroke="none" /><path d="M 120.96714384426684 98.82574320788733 l 44.85887475585035 -2.512303953263153 a65.92916998470648,65.92916998470648 0 0,0 0.05370524812375211,1.1336329062400858 l -44.895473612207596 1.7397599404000677" fill="#36ff6e" stroke="none" /><line stroke="#e1ed5e" stroke-width="0.3" x1="184.98032266829074" x2="189.97916517819016" y1="98.17113171792111" y2="98.06355123074" /><path d="M 185.9800911702706 98.14961562048488 a86.0,86.0 0 0,1 -9.607161424134198,41.387399972396054" fill="none" id="id16" stroke="none" /><text fill="#e1ed5e" style="font-size:6.75px; font-family:Arial;" text-anchor="middle"><textPath startOffset="21.466115282336823" xlink:href="#id16">April</textPath></text><path d="M 120.99824983174949 100.27111621757518 l 11.710805936613149 0.15120257334451634 a32.71178201228147,32.71178201228147 0 0,0 -0.012115723331105997,0.5629700553758216 l -11.706468150597034 -0.35276244451045274" fill="#ff820c" stroke="none" /><path d="M 120.89721153311464 102.0752229133903 l 11.657380854505549 1.157650331531177 a32.714720768208124,32.714720768208124 0 0,0 -0.0604719127265514,0.5598948082193335 l -11.635726640277944 -1.3581414616353018" fill="#ff820c" stroke="none" /><path d="M 120.81339534386255 102.79330883721812 l 11.652441731144455 1.5638423200553364 a32.756912906869424,32.756912906869424 0 0,0 -0.07981135879269113,0.5582004575079331 l -11.623796321335163 -1.764188249543679" fill="#ff830c" stroke="none" /><path d="M 120.64145759157962 103.86396538481128 l 43.563312512836376 8.154808392309583 a65.32000786333785,65.32000786333785 0 0,0 -0.21639606309916956,1.1033988636825238 l -43.41648651676154 -8.903470983060052" fill="#35ff67" stroke="none" /><path d="M 120.13307415673323 105.97154293290107 l 21.096772002430647 6.2573792147886005 a43.00519446767535,43.00519446767535 0 0,0 -0.21660943894511564,0.7078921794108982 l -20.985935790979397 -6.619598366751555" fill="#f5ff19" stroke="none" /><path d="M 120.02730092923936 106.31721596034902 l 20.857615114442705 6.579122147378586 a42.87064142846195,42.87064142846195 0 0,0 -0.2280468024506243,0.7018558896077487 l -20.741276060975835 -6.93717693696413" fill="#f7ff19" stroke="none" /><path d="M 119.67450827220406 107.3425965602758 l 10.969796833575879 4.093967248519964 a32.70884325635481,32.70884325635481 0 0,0 -0.20140193052028701,0.525796887594954 l -10.897700623462086 -4.282187702948062" fill="#ff820c" stroke="none" /><path d="M 119.54520255179757 107.68017299344265 l 10.96842431700266 4.309978164555576 a32.78483108817267,32.78483108817267 0 0,0 -0.21091166533452835,0.5234654566205179 l -10.892610037410739 -4.498142989018908" fill="#ff830c" stroke="none" /><path d="M 119.26925614724726 108.34839909993367 l 40.64940069710143 17.611339929227313 a65.30048612753934,65.30048612753934 0 0,0 -0.4557318292082252,1.0275549651753118 l -40.34022778316193 -18.30844323089531" fill="#35ff66" stroke="none" /><path d="M 118.97047184881838 109.00673069616215 l 10.60038567632347 5.032812036673041 a32.734452415144254,32.734452415144254 0 0,0 -0.24604889096338672,0.5069335926587655 l -10.512183528745368 -5.214534585297082" fill="#ff830c" stroke="none" /><path d="M 118.81262510543309 109.33194174019688 l 10.50673017605077 5.211829467359021 a32.728364992153324,32.728364992153324 0 0,0 -0.25469109251134286,0.5025296880750867 l -10.415460413753157 -5.391913367136802" fill="#ff820c" stroke="none" /><line stroke="#e1ed5e" stroke-width="0.3" x1="174.80103733775053" x2="179.2010983576182" y1="140.37084112569926" y2="142.7455964860345" /><path d="M 175.68104954172406 140.8457921977663 a86.0,86.0 0 0,1 -30.038265399797805,32.042727171017184" fill="none" id="id17" stroke="none" /><text fill="#e1ed5e" style="font-size:6.75px; font-family:Arial;" text-anchor="middle"><textPath startOffset="22.206326154141568" xlink:href="#id17">May</textPath></text><path d="M 118.30583269289576 110.29060199501025 l 18.900642491484753 10.62497361320967 a42.682351138018234,42.682351138018234 0 0,0 -0.3655397929378948,0.6373494404280609 l -18.71495070239448 -10.948742899496047" fill="#f9ff18" stroke="none" /><path d="M 117.35343817320211 111.8261652097733 l 18.08972208533782 12.327934086886158 a42.89100280881094,42.89100280881094 0 0,0 -0.4210244004721217,0.6065170503636902 l -17.87483677770356 -12.637492399436868" fill="#f7ff19" stroke="none" /><path d="M 116.498646956653 112.99209946851258 l 16.511785316822667 13.00244546128555 a42.01672292063027,42.01672292063027 0 0,0 -0.45234421173851275,0.5643689552459318 l -16.2855231930293 -13.284742250109733" fill="#fffc17" stroke="none" /><path d="M 116.0416608686014 113.55231037782055 l 8.887809280319715 7.508595957263135 a32.63495453591313,32.63495453591313 0 0,0 -0.36622245172404855,0.4259994479102932 l -8.757244319024888 -7.660472504334956" fill="#ff810b" stroke="none" /><path d="M 115.56566222782051 114.09645910891815 l 16.18844015860205 14.660454620751116 a42.840204313507286,42.840204313507286 0 0,0 -0.4997077108947988,0.5423340267047788 l -15.933686039711528 -14.93693990225723" fill="#f7ff18" stroke="none" /><path d="M 115.07121518719521 114.62390073753431 l 15.070261080805052 14.622974949071388 a41.998670562795084,41.998670562795084 0 0,0 -0.5079026726012341,0.5145027258311173 l -14.816317783148282 -14.88021816888317" fill="#fffc17" stroke="none" /><path d="M 114.81725581225074 114.88116024355365 l 37.07485972527568 37.23475760760961 a73.54495596863994,73.54495596863994 0 0,0 -0.904778232238964,0.8855159308206945 l -36.42843154066092 -37.86742364135288" fill="#40ffc4" stroke="none" /><path d="M 113.75828350139079 115.86535959552629 l 7.660946273362367 8.834217397585565 a32.69330983217105,32.69330983217105 0 0,0 -0.4283361057044437,0.3650373218346874 l -7.507744691080877 -8.9647791096432" fill="#ff820c" stroke="none" /><path d="M 112.92097659922987 116.55440617244103 l 38.7582802144375 49.657261452924956 a83.99244319904574,83.99244319904574 0 0,0 -1.1473818560689646,0.8797634803613914 l -37.897769629875036 -50.317064275113715" fill="#4dd2ff" stroke="none" /><path d="M 112.34349029814194 116.9893568818739 l 6.8360168858705235 9.40897004974784 a32.63012657974791,32.63012657974791 0 0,0 -0.45724545434531205,0.3262324910555968 l -6.673044103676327 -9.525246802647656" fill="#ff810b" stroke="none" /><path d="M 111.45004920935366 117.60387380957326 l 6.3663947655855475 9.78801121516071 a32.676307030023956,32.676307030023956 0 0,0 -0.4741459711404818,0.3026223922220381 l -6.196966992398135 -9.896148036206556" fill="#ff820b" stroke="none" /><line stroke="#e1ed5e" stroke-width="0.3" x1="143.8653032363475" x2="146.44561519142675" y1="172.8068346515853" y2="177.08958963109032" /><path d="M 144.38136562736335 173.6633856474863 a86.0,86.0 0 0,1 -40.68145358897372,12.25698825130547" fill="none" id="id18" stroke="none" /><text fill="#e1ed5e" style="font-size:6.75px; font-family:Arial;" text-anchor="middle"><textPath startOffset="21.466115282336833" xlink:href="#id18">June</textPath></text><path d="M 110.21172684928248 118.3499491758327 l 10.639689346193048 19.11897582366386 a42.88008742965478,42.88008742965478 0 0,0 -0.6480553131071589,0.3533714277647673 l -10.309011221217242 -19.2992879031884" fill="#f7ff19" stroke="none" /><path d="M 108.92500713936063 119.00905698771935 l 4.47132071914311 9.523307828597499 a31.52074621743462,31.52074621743462 0 0,0 -0.4931225680819204,0.22636838487178376 l -4.30673015529377 -9.598863283803357" fill="#ff720a" stroke="none" /><path d="M 108.59647513512805 119.15986991738527 l 4.305613086418694 9.596373554699417 a31.51801737264558,31.51801737264558 0 0,0 -0.49690304418384257,0.2178276919358123 l -4.139789367577097 -9.669065799929683" fill="#ff720a" stroke="none" /><path d="M 106.57524785965236 119.94407469862006 l 6.581995590915373 19.964541950840538 a42.02155087679549,42.02155087679549 0 0,0 -0.6889106196693222,0.22056742533778467 l -6.23736362615511 -20.074882222838028" fill="#fffd17" stroke="none" /><path d="M 106.2309692047433 120.05430185196036 l 6.233377493326973 20.062052900732468 a42.00811656398791,42.00811656398791 0 0,0 -0.6923838294965452,0.20860956811614928 l -5.8871186893901815 -20.166377837954343" fill="#fffc17" stroke="none" /><path d="M 105.53697534728816 120.25689768951611 l 3.076425393373594 11.255031950525142 a32.66791058451922,32.66791058451922 0 0,0 -0.5437022363175671,0.143596702244197 l -2.8822327142445294 -11.306320002072923" fill="#ff820b" stroke="none" /><path d="M 104.83641907484287 120.43548508189849 l 2.6829317195376072 11.336282129799592 a32.6494384044088,32.6494384044088 0 0,0 -0.5480128176758555,0.12472593312646997 l -2.4873987524688896 -11.380784796503747" fill="#ff810b" stroke="none" /><path d="M 104.13013068566511 120.58985236759428 l 4.130983884819168 20.5941058031292 a42.00433816351078,42.00433816351078 0 0,0 -0.7101381131680012,0.13609965953160164 l -3.7758781570794624 -20.66216266100927" fill="#fffc17" stroke="none" /><path d="M 103.7750983002368 120.6578951692458 l 3.7773875574200786 20.670422322486935 a42.01273460901551,42.01273460901551 0 0,0 -0.7125180305844132,0.12388039272428382 l -3.4210205553636155 -20.732381293732224" fill="#fffc17" stroke="none" /><path d="M 102.70371172650421 120.8252237178851 l 2.816372762837699 21.692990522657308 a42.87504956235194,42.87504956235194 0 0,0 -0.7326990249162395,0.08871964807649418 l -2.442546314870079 -21.738255699459152" fill="#f7ff19" stroke="none" /><path d="M 101.98527174616119 120.90594882070398 l 1.105665793622664 11.643238533452477 a32.69561885468485,32.69561885468485 0 0,0 -0.5607387102605493,0.04838289538672202 l -0.9050827656205729 -11.660545681117863" fill="#ff820c" stroke="none" /><path d="M 101.62511606390274 120.93702456842531 l 1.6832002083398692 21.68534598750956 a42.75057225774422,42.75057225774422 0 0,0 -0.7341642073406536,0.050632262139346254 l -1.309673240220285 -21.71110659416519" fill="#f8ff18" stroke="none" /><path d="M 101.26447882468166 120.96189622390904 l 1.2852791257457234 21.306713190251404 a42.34544376214069,42.34544376214069 0 0,0 -0.7279624022123229,0.03762734111151703 l -0.9183286551199208 -21.325680338125125" fill="#fdff18" stroke="none" /><line stroke="#e1ed5e" stroke-width="0.3" x1="102.19456741930631" x2="102.32365962044197" y1="184.97166512339345" y2="189.96999836594603" /><path d="M 102.22038585953345 185.97133177190398 a86.0,86.0 0 0,1 -42.740103519485714,-10.115201625700543" fill="none" id="id19" stroke="none" /><text fill="#e1ed5e" style="font-size:6.75px; font-family:Arial;" text-anchor="middle"><textPath startOffset="22.20632615414155" xlink:href="#id19">July</textPath></text><path d="M 100.18074693466247 120.99922214144158 l 0.10020344544392375 11.641660281233934 a32.64209151459215,32.64209151459215 0 0,0 -0.5619007602127504,0.0 l 0.10020344544391573 -11.641660281233934" fill="#ff810b" stroke="none" /><path d="M 99.45781275523022 120.99299961872073 l -0.5647796595911421 21.86775748199769 a42.87504956235194,42.87504956235194 0 0,0 -0.7376134679913695,-0.02540489924740784 l 0.9411134792571546 -21.85479578432419" fill="#f7ff19" stroke="none" /><path d="M 99.09653310690486 120.98055641714683 l -0.47444451877684574 11.017680967702598 a32.027891525920694,32.027891525920694 0 0,0 -0.5505929040198038,-0.02845936404156746 l 0.6640254912101384 -11.007881796898829" fill="#ff790b" stroke="none" /><path d="M 98.73552117531835 120.96189622390904 l -1.2881482780699192 21.35427655952003 a42.393093590380076,42.393093590380076 0 0,0 -0.7280251540226241,-0.050208877079467286 l 1.6555361928714734 -21.328939337924275" fill="#fdff18" stroke="none" /><path d="M 98.01472825383883 120.90594882070398 l -1.1060031470065703 11.64679104085719 a32.69918734402436,32.69918734402436 0 0,0 -0.5598838993522897,-0.05803425539500874 l 1.3063196429644535 -11.626027417006421" fill="#ff820c" stroke="none" /><path d="M 97.2962882734958 120.8252237178851 l -2.805508440926746 21.60930854868039 a42.790665285029334,42.790665285029334 0 0,0 -0.7296244667934865,-0.1011193027442899 l 3.1770614989070634 -21.557814680443492" fill="#f8ff18" stroke="none" /><path d="M 96.58105272829116 120.7198165907248 l -5.130591020399704 31.092876402147184 a52.513329357238774,52.513329357238774 0 0,0 -0.8906036315241707,-0.15484285716165724 l 5.665043623395924 -30.99995496646452" fill="#86ff25" stroke="none" /><path d="M 96.22490169976321 120.6578951692458 l -3.7818402884248865 20.694788323846083 a42.03750412325449,42.03750412325449 0 0,0 -0.7106988269681547,-0.13620712166590757 l 4.137506729964736 -20.626624003831708" fill="#fffd17" stroke="none" /><path d="M 95.16358092515715 120.4354850818985 l -5.035965858050558 21.278636853545674 a42.86644320570959,42.86644320570959 0 0,0 -0.7165773372431462,-0.17611727525436777 l 5.401496480036914 -21.188798319977273" fill="#f7ff18" stroke="none" /><path d="M 94.11515582081647 120.15858648285463 l -6.141295204981089 21.03706177034712 a42.91514258963706,42.91514258963706 0 0,0 -0.7073335631304105,-0.21311380022549795 l 6.502503742551745 -20.928232601015896" fill="#f6ff19" stroke="none" /><path d="M 93.76903079525671 120.05430185196036 l -6.486123227961112 20.87551210548834 a42.85993596044341,42.85993596044341 0 0,0 -0.7026552905690424,-0.2249680349174739 l 6.8444998636210945 -20.76077122391116" fill="#f7ff18" stroke="none" /><path d="M 93.08242187328487 119.8279376855182 l -7.198981370505472 20.634527199965383 a42.85426835972772,42.85426835972772 0 0,0 -0.694403298397131,-0.24898831711923397 l 7.553104229532329 -20.50755134180619" fill="#f7ff18" stroke="none" /><path d="M 92.40401165467489 119.57807347666478 l -7.893068285475206 20.3437740849709 a42.82131231112162,42.82131231112162 0 0,0 -0.6848941095969079,-0.2725335008121312 l 8.242083471113972 -20.204893739752702" fill="#f8ff18" stroke="none" /><path d="M 91.7346041902142 119.30500536409082 l -8.519669498963218 19.89889766477237 a42.646036511210255,42.646036511210255 0 0,0 -0.6723438569834637,-0.2947357885369334 l 8.860934030604426 -19.749297322940983" fill="#faff18" stroke="none" /><path d="M 91.40352486487194 119.15986991738527 l -8.81015036097596 19.63611040752343 a42.52197902887777,42.52197902887777 0 0,0 -0.6652300473472845,-0.30537448726371946 l 9.146848404090663 -19.481548849925634" fill="#fbff18" stroke="none" /><path d="M 90.7491055286396 118.85261126421891 l -3.7848813496345093 7.7132970208186284 a29.591872773859066,29.591872773859066 0 0,0 -0.4553570500581651,-0.2283254779564583 l 3.917092307375435 -7.647003701952868" fill="#ff5708" stroke="none" /><path d="M 90.42595943632237 118.69057910512821 l -1.2186424334152295 2.3790512115674614 a23.67300842643281,23.67300842643281 0 0,0 -0.3610799982644456,-0.1888999893973315 l 1.2594133342061709 -2.357721803225413" fill="#ff0000" stroke="none" /><path d="M 90.10565033884886 118.52300852407294 l -5.05179626966523 9.457363906624074 a31.722050998410673,31.722050998410673 0 0,0 -0.47942168322072204,-0.2614189271727819 l 5.213840764754592 -9.369004327691526" fill="#ff740a" stroke="none" /><line stroke="#e1ed5e" stroke-width="0.3" x1="58.666819895761336" x2="56.23545636021788" y1="174.27360380694188" y2="178.64263932499728" /><path d="M 58.180547188652646 175.14741091055294 a86.0,86.0 0 0,1 -31.652253787137756,-30.449443065178592" fill="none" id="id20" stroke="none" /><text fill="#e1ed5e" style="font-size:6.75px; font-family:Arial;" text-anchor="middle"><textPath startOffset="22.20632615414155" xlink:href="#id20">August</textPath></text><path d="M 89.1626897886671 117.98757091392108 l -10.889812815388115 18.0747137838023 a42.10173693136572,42.10173693136572 0 0,0 -0.6175338425637493,-0.3793397235224763 l 11.199325857884173 -17.884585593451444" fill="#fffe18" stroke="none" /><path d="M 88.54995079064634 117.60387380957326 l -12.286541024366283 18.889937832965707 a43.534170534473745,43.534170534473745 0 0,0 -0.6246641453050562,-0.4139933336134487 l 12.6098798684113 -18.67564647826094" fill="#efff19" stroke="none" /><path d="M 88.24862548938628 117.40417183066458 l -5.908909995254463 8.751289884979535 a31.559369866756406,31.559369866756406 0 0,0 -0.4476067162120575,-0.3078679809065967 l 6.0586735960894105 -8.648281114707837" fill="#ff720a" stroke="none" /><path d="M 87.95078237400918 117.19931262002967 l -6.1139561020651785 8.727192553791227 a31.655719078923255,31.655719078923255 0 0,0 -0.443591097248558,-0.3164904698127316 l 6.263274527162624 -8.620657822134277" fill="#ff740a" stroke="none" /><path d="M 87.36589467227662 116.77436683061367 l -13.23834935733131 17.576624746384756 a43.004354823124885,43.004354823124885 0 0,0 -0.5874625689727186,-0.4504412471992383 l 13.538940654797516 -17.346144157358154" fill="#f5ff19" stroke="none" /><path d="M 87.07902340077011 116.55440617244103 l -13.511430620555647 17.310898193002423 a42.959643750812155,42.959643750812155 0 0,0 -0.5790192990094739,-0.4600079498085275 l 13.80740741228248 -17.075756329188764" fill="#f6ff19" stroke="none" /><path d="M 86.51685102203217 116.09983520530335 l -13.496985819988758 16.116357375062254 a42.02155087679549,42.02155087679549 0 0,0 -0.5505513987609569,-0.4691918459816138 l 13.772402695326772 -15.88164113885769" fill="#fffd17" stroke="none" /><path d="M 85.97065885151581 115.62618273729859 l -7.097385288887039 7.905220801701466 a31.623812586005258,31.623812586005258 0 0,0 -0.4019242774657408,-0.3671482979323124 l 7.2324091158196335 -7.781879737182577" fill="#ff730a" stroke="none" /><path d="M 85.44109423537348 115.13401014063109 l -15.186080569395354 15.78595953907981 a42.90464703275613,42.90464703275613 0 0,0 -0.5278294097243945,-0.516592170779803 l 15.455559931495543 -15.522217265377437" fill="#f6ff19" stroke="none" /><path d="M 84.67929136418377 114.36230785411682 l -15.96017965002312 14.961776180820257 a42.876518940315265,42.876518940315265 0 0,0 -0.5001313012890183,-0.5427937504175817 l 16.215357359307866 -14.684831175601332" fill="#f7ff19" stroke="none" /><path d="M 84.43433777217949 114.09645910891817 l -7.872114275789035 7.1290855066260095 a31.620454007803364,31.620454007803364 0 0,0 -0.3618902995655844,-0.406587587934663 l 7.993663425002957 -6.992523748950482" fill="#ff730a" stroke="none" /><path d="M 84.19399662182784 113.82643327865904 l -15.913228062648937 13.920228965669367 a42.142459692063696,42.142459692063696 0 0,0 -0.4729136329307782,-0.550105395202704 l 16.150484205150494 -13.644246471305133" fill="#fffe18" stroke="none" /><path d="M 83.72743513129214 113.27417163493432 l -16.98153160020227 13.852503702020599 a42.91493267849944,42.91493267849944 0 0,0 -0.46201417066572537,-0.5764337158317847 l 17.217463682922855 -13.558142152610555" fill="#f6ff19" stroke="none" /><path d="M 83.28015986056508 112.70617746262583 l -16.746357726677562 12.726329399879766 a42.03330590050212,42.03330590050212 0 0,0 -0.4328204202163136,-0.5798336833819463 l 16.96293941358896 -12.436182836988513" fill="#fffd17" stroke="none" /><path d="M 83.06392112726016 112.41649034213515 l -16.971403869738893 12.442388455114571 a42.04380145738304,42.04380145738304 0 0,0 -0.4228809749117706,-0.5873446879371735 l 17.18306463702627 -12.148410161726261" fill="#fffd17" stroke="none" /><path d="M 82.85270091963577 112.12312394758628 l -17.19249166074709 12.155075058424496 a42.05534656995205,42.05534656995205 0 0,0 -0.4128214757577134,-0.5947001255095576 l 17.39917404366694 -11.857333670727925" fill="#fffd17" stroke="none" /><path d="M 82.6465618267979 111.8261652097733 l -17.413918224410985 11.8673816575085 a42.07318901664962,42.07318901664962 0 0,0 -0.4026943018006638,-0.6019733429116338 l 17.61561563162238 -11.565871400391044" fill="#fffd17" stroke="none" /><path d="M 82.05923443525364 110.91462005526583 l -18.885246054415713 11.489213466965543 a43.10553199145695,43.10553199145695 0 0,0 -0.3801889946675956,-0.637218623493007 l 19.08021592478154 -11.162432749586426" fill="#f4ff19" stroke="none" /><line stroke="#e1ed5e" stroke-width="0.3" x1="26.63291911575756" x2="22.317208475507996" y1="142.92168965132927" y2="145.44649492493687" /><path d="M 25.769776987707644 143.4266507060508 a86.0,86.0 0 0,1 -11.730757126820373,-40.83630448921669" fill="none" id="id21" stroke="none" /><text fill="#e1ed5e" style="font-size:6.75px; font-family:Arial;" text-anchor="middle"><textPath startOffset="21.46611528233685" xlink:href="#id21">September</textPath></text><path d="M 81.69416730710424 110.29060199501025 l -37.526081761965244 21.095242064266376 a64.04899592505839,64.04899592505839 0 0,0 -0.5319836114416129,-0.9657047798519627 l 37.88364178285837 -20.446166766016592" fill="#34ff58" stroke="none" /><path d="M 81.35079622478065 109.6543875284942 l -37.478358351709616 19.401932641219464 a63.20263421818097,63.20263421818097 0 0,0 -0.49184088366415,-0.9704487244261056 l 37.80677790516003 -18.753929705090673" fill="#32ff4d" stroke="none" /><path d="M 81.02952815118164 109.00673069616217 l -19.17690966033896 9.104742479352835 a42.22852325848724,42.22852325848724 0 0,0 -0.3061072920624529,-0.6593278745193943 l 19.330791569241242 -8.773294537554614" fill="#ffff18" stroke="none" /><path d="M 80.87730276802145 108.67885076344099 l -19.467078705617517 8.835148558629026 a42.37818989960917,42.37818989960917 0 0,0 -0.29575721632088336,-0.6668544451787755 l 19.61627700666968 -8.498745776957556" fill="#fdff18" stroke="none" /><path d="M 80.58989483394504 108.01547362559985 l -19.85531390756479 8.199324196986725 a42.48167609045504,42.48167609045504 0 0,0 -0.27329349437071004,-0.6782920403917503 l 19.993510016192886 -7.856332788752169" fill="#fcff18" stroke="none" /><path d="M 80.45479744820244 107.68017299344265 l -19.695376435135106 7.73918294230723 a42.16135169444935,42.16135169444935 0 0,0 -0.25960495019819996,-0.6777466058335718 l 19.825675664926813 -7.399012769640501" fill="#fffe18" stroke="none" /><path d="M 80.32549172779594 107.34259656027581 l -39.86807266564784 14.87890671367808 a63.55402546255419,63.55402546255419 0 0,0 -0.37368477428960306,-1.0282200076205767 l 40.11828170094267 -14.190438909051387" fill="#33ff52" stroke="none" /><path d="M 80.0844068197444 106.66101706037122 l -20.400664453908654 6.823255161945937 a42.511483471996854,42.511483471996854 0 0,0 -0.22613629164841384,-0.695975941964188 l 20.515092996573316 -6.471080320003946" fill="#fbff18" stroke="none" /><path d="M 79.86692584326677 105.97154293290107 l -31.196078564134524 9.252870229039642 a53.53937499791755,53.53937499791755 0 0,0 -0.25445827815753325,-0.8858026480563138 l 31.350729479178163 -8.714510105478734" fill="#7bff26" stroke="none" /><path d="M 79.67330655649465 105.27499134158121 l -11.34237174386419 2.9434650996321183 a32.71807934641002,32.71807934641002 0 0,0 -0.13677510402911078,-0.5463485511987225 l 11.391358162188359 -2.747788709036004" fill="#ff820c" stroke="none" /><path d="M 79.58551787078972 104.9243191809786 l -23.63364000480673 5.700834635696685 a45.311488136688794,45.311488136688794 0 0,0 -0.1763683522446336,-0.759790245481256 l 23.72826892298192 -5.293175732866855" fill="#d9ff1c" stroke="none" /><path d="M 79.50377843672027 104.57218783832718 l -43.233644348921054 9.64433089720506 a65.29628790478698,65.29628790478698 0 0,0 -0.2352717329543514,-1.0991112103697949 l 43.393250120599845 -8.898705867419102" fill="#35ff66" stroke="none" /><path d="M 79.29508885075956 103.50808413554451 l -40.450210820386815 6.853578932824137 a62.026712025242645,62.026712025242645 0 0,0 -0.1692982055249685,-1.0542200874117529 l 40.56219078027308 -6.15627961571917" fill="#31ff3f" stroke="none" /><path d="M 79.1416061653843 102.43462659150553 l -43.994463923423325 5.135107362353179 a65.2931392377227,65.2931392377227 0 0,0 -0.12069187585617899,-1.1174568760822188 l 44.07633810078055 -4.377054164386179" fill="#35ff66" stroke="none" /><path d="M 79.10278846688536 102.07522291339032 l -10.459850671756117 1.0387281456318826 a31.511300216241793,31.511300216241793 0 0,0 -0.04895566149472246,-0.5402216451847922 l 10.476180929527915 -0.8585251118985242" fill="#ff720a" stroke="none" /><path d="M 79.04373962182676 101.35467743843564 l -52.39466586235741 3.386953132727626 a73.50402329680435,73.50402329680435 0 0,0 -0.07075164453696683,-1.2633181414740764 l 52.4452038577819 -2.484563274918112" fill="#40ffc3" stroke="none" /><path d="M 79.0095281055655 100.63252640178507 l -29.402550709465448 0.8860157931224271 a50.41589727015563,50.41589727015563 0 0,0 -0.01867293755458925,-0.8676580342625185 l 29.413445709705044 -0.37976794306977973" fill="#9dff22" stroke="none" /><line stroke="#e1ed5e" stroke-width="0.3" x1="15.007084014347285" x2="10.007500721073583" y1="101.09737516637583" y2="101.16192664675087" /><path d="M 14.007167355692545 101.11028546245083 a86.0,86.0 0 0,1 10.666146001902534,-42.60595125391555" fill="none" id="id22" stroke="none" /><text fill="#e1ed5e" style="font-size:6.75px; font-family:Arial;" text-anchor="middle"><textPath startOffset="22.20632615414155" xlink:href="#id22">October</textPath></text><path d="M 79.00486145842228 99.54816195383935 l -62.98184796149183 -1.3554373585176156 a83.99643151066049,83.99643151066049 0 0,0 0.04355137194874068,-1.445258010217786 l 62.94918489508744 2.439365516160396" fill="#4dd2ff" stroke="none" /><path d="M 79.16333360222342 97.38593545837743 l -20.85200958007577 -2.615989420969301 a42.01546345380456,42.01546345380456 0 0,0 0.09620340877610882,-0.7168271383405147 l 20.803890172241825 2.9745349013744753" fill="#fffc17" stroke="none" /><path d="M 79.21141760316559 97.0276538004421 l -21.683914093287854 -3.10036049675704 a42.904437121618514,42.904437121618514 0 0,0 0.11082442186437297,-0.7301944718849587 l 21.627333777984177 3.473154081034091" fill="#f6ff19" stroke="none" /><path d="M 79.32604984820605 96.31383870115002 l -21.55463217204099 -3.8431867321025637 a42.89457129815045,42.89457129815045 0 0,0 0.1358619694330145,-0.7257800733370271 l 21.485284478698112 4.213644882902163" fill="#f7ff19" stroke="none" /><path d="M 79.46518482838121 95.60439243477599 l -30.8474828647695 -6.603099561173684 a52.546285405844856,52.546285405844856 0 0,0 0.19693750493490028,-0.8828322190590688 l 30.729250972832563 7.133109949782712" fill="#86ff25" stroke="none" /><path d="M 79.62865764111835 94.90015583598534 l -20.388786424181443 -5.104211181810957 a42.01798238745597,42.01798238745597 0 0,0 0.181685091818563,-0.7001067727902729 l 20.297905000492573 5.4544143801500935" fill="#fffc17" stroke="none" /><path d="M 79.91906864156998 93.8553929516997 l -50.200354606728965 -15.360913656735782 a73.49793587381342,73.49793587381342 0 0,0 0.38059511812540076,-1.2065905314523446 l 49.92850400483536 16.22275435461454" fill="#40ffc3" stroke="none" /><path d="M 80.14247586403 93.16781622104843 l -19.87353576051862 -6.837692741739009 a42.01693283176788,42.01693283176788 0 0,0 0.2411910384138468,-0.6818795447304833 l 19.752891641294962 7.1787699128961036" fill="#fffc17" stroke="none" /><path d="M 80.38941819471856 92.48833698450439 l -19.621885788769468 -7.515992908179983 a42.01210487560266,42.01210487560266 0 0,0 0.26448910702864403,-0.6730959281819079 l 19.489603131859134 7.852637841257653" fill="#fffc17" stroke="none" /><path d="M 80.65960295795068 91.81776055985345 l -58.02119112614798 -24.546718320439627 a84.0,84.0 0 0,0 0.574837160629277,-1.3268034216536029 l 57.59006325567602 25.54182088667983" fill="#4dd2ff" stroke="none" /><path d="M 81.10775173730289 90.83032412892265 l -18.912580309426836 -9.179544377764037 a42.022600432483586,42.022600432483586 0 0,0 0.32145285662562256,-0.6480293436380572 l 18.7517674398478 9.503733309901056" fill="#fffd17" stroke="none" /><line stroke="#e1ed5e" stroke-width="0.3" x1="26.266209847984243" x2="21.928928074336255" y1="57.711370442889674" y2="55.22380399835377" /><path d="M 25.398753493254645 57.213857153982495 a86.0,86.0 0 0,1 29.58750427330803,-30.492523968695096" fill="none" id="id23" stroke="none" /><text fill="#e1ed5e" style="font-size:6.75px; font-family:Arial;" text-anchor="middle"><textPath startOffset="21.46611528233685" xlink:href="#id23">November</textPath></text><path d="M 81.78341655067845 89.55222093294921 l -19.01388939044076 -10.905058904668792 a42.919130901251805,42.919130901251805 0 0,0 0.3730701012459638,-0.6376977354794681 l 18.82335961472447 11.230736052502152" fill="#f6ff19" stroke="none" /><line stroke="#e1ed5e" stroke-width="0.3" x1="56.762969772571076" x2="54.21961505331055" y1="26.818313649435495" y2="22.513508569990535" /><path d="M 56.25429882871897 25.957352633546506 a86.0,86.0 0 0,1 42.265352541879196,-11.944610805530505" fill="none" id="id24" stroke="none" /><text fill="#e1ed5e" style="font-size:6.75px; font-family:Arial;" text-anchor="middle"><textPath startOffset="22.20632615414155" xlink:href="#id24">December</textPath></text></svg>