<?xml version="1.0" encoding="utf-8" ?>
<svg baseProfile="full" height="200mm" version="1.1" viewBox="0,0,200,200" width="200mm" xmlns="http://www.w3.org/2000/svg" xmlns:ev="http://www.w3.org/2001/xml-events" xmlns:xlink="http://www.w3.org/1999/xlink"><defs /><rect fill="#1a1a1a" height="200" width="200" x="0" y="0" /><text alignment-baseline="middle" fill="#e1ed5e" style="dominant-baseline: central; font-size:9.0px; font-family:Arial;" text-anchor="middle" x="100.0" y="100.0">2024</text><line stroke="#e1ed5e" stroke-width="0.3" x1="100.0" x2="100.0" y1="15.0" y2="10.0" /><path d="M 100.0 14.0 a86.0,86.0 0 0,1 42.35913384403234,11.155469271406648" fill="none" id="id1" stroke="none" /><text fill="#e1ed5e" style="font-size:6.75px; font-family:Arial;" text-anchor="middle"><textPath startOffset="22.145653131862478" xlink:href="#id1">January</textPath></text><line stroke="#e1ed5e" stroke-width="0.3" x1="143.13028292997686" x2="145.6673583964461" y1="26.7553504044142" y2="22.446841604673864" /><path d="M 143.63769802327073 25.89364864446614 a86.0,86.0 0 0,1 29.32050498858742,28.57503671076993" fill="none" id="id2" stroke="none" /><text fill="#e1ed5e" style="font-size:6.75px; font-family:Arial;" text-anchor="middle"><textPath startOffset="20.669276256404974" xlink:href="#id2">February</textPath></text><line stroke="#e1ed5e" stroke-width="0.3" x1="172.87174338648825" x2="177.1583165268699" y1="56.24261187166439" y2="53.66864786411523" /><path d="M 173.72905801456457 55.72781907015455 a86.0,86.0 0 0,1 12.242430191666344,42.057860355516425" fill="none" id="id3" stroke="none" /><text fill="#e1ed5e" style="font-size:6.75px; font-family:Arial;" text-anchor="middle"><textPath startOffset="22.145653131862474" xlink:href="#id3">March</textPath></text><line stroke="#e1ed5e" stroke-width="0.3" x1="184.99686870605535" x2="189.99668451229388" y1="99.2704041080226" y2="99.22748670261217" /><path d="M 185.99683186730306 99.26182062694052 a86.0,86.0 0 0,1 -10.086455211305974,41.156179273409016" fill="none" id="id4" stroke="none" /><text fill="#e1ed5e" style="font-size:6.75px; font-family:Arial;" text-anchor="middle"><textPath startOffset="21.40746469413373" xlink:href="#id4">April</textPath></text><line stroke="#e1ed5e" stroke-width="0.3" x1="174.33088141563837" x2="178.70328620479359" y1="141.23008692659167" y2="143.65538615756765" /><path d="M 175.20536237346943 141.71514677278685 a86.0,86.0 0 0,1 -30.301960400862466,31.631185727798858" fill="none" id="id5" stroke="none" /><text fill="#e1ed5e" style="font-size:6.75px; font-family:Arial;" text-anchor="middle"><textPath startOffset="22.145653131862474" xlink:href="#id5">May</textPath></text><line stroke="#e1ed5e" stroke-width="0.3" x1="143.1302829299769" x2="145.66735839644613" y1="173.24464959558577" y2="177.55315839532614" /><path d="M 143.63769802327073 174.10635135553383 a86.0,86.0 0 0,1 -40.68552437913181,11.842963189579606" fill="none" id="id6" stroke="none" /><text fill="#e1ed5e" style="font-size:6.75px; font-family:Arial;" text-anchor="middle"><textPath startOffset="21.407464694133747" xlink:href="#id6">June</textPath></text><line stroke="#e1ed5e" stroke-width="0.3" x1="101.45913802915013" x2="101.54496967792366" y1="184.9874750549273" y2="189.98673829345242" /><path d="M 101.47630435890484 185.9873277026323 a86.0,86.0 0 0,1 -42.54439059252881,-10.42667462771756" fill="none" id="id7" stroke="none" /><text fill="#e1ed5e" style="font-size:6.75px; font-family:Arial;" text-anchor="middle"><textPath startOffset="22.145653131862474" xlink:href="#id7">July</textPath></text><path d="M 97.84075906011543 120.88869738790638 l -1.0820624030077284 10.467972181218252 a31.523749361836877,31.523749361836877 0 0,0 -0.537801316346708,-0.06026175924284782 l 1.2615996209552356 -10.447854661468433" fill="#ff0300" stroke="none" /><path d="M 95.35216902796893 120.47920084513623 l -2.3022744069521455 10.144245835167748 a31.402220484551606,31.402220484551606 0 0,0 -0.5246680699618951,-0.12382023591391925 l 2.4760746306539287 -10.1032294556076" fill="#ff0100" stroke="none" /><path d="M 94.6519064749342 120.30758222061772 l -2.651529892850142 10.068290888540021 a31.411584518647288,31.411584518647288 0 0,0 -0.5202634915093961,-0.141800128119867 l 2.8239747852942334 -10.02129026627601" fill="#ff0100" stroke="none" /><path d="M 93.27111125876986 119.89276391827306 l -3.351507628571806 9.908136779994049 a31.45962608487731,31.45962608487731 0 0,0 -0.5100867188344091,-0.17743463925232983 l 3.5211001194512366 -9.849143708173129" fill="#ff0200" stroke="none" /><path d="M 91.92203290615298 119.3841803445677 l -3.995654935321588 9.588117277666449 a31.387360169573675,31.387360169573675 0 0,0 -0.49556893882015707,-0.21152891163168505 l 4.159658949312177 -9.51811371637536" fill="#ff0100" stroke="none" /><path d="M 91.59046798132341 119.24265499422711 l -4.177756119178076 9.55952358262333 a31.43255181238327,31.43255181238327 0 0,0 -0.4925729293095786,-0.2203216060054504 l 4.341242451343289 -9.486398225708026" fill="#ff0100" stroke="none" /><path d="M 89.97174638481275 118.45085714620012 l -4.951102291526328 9.109470562135416 a31.368021403506503,31.368021403506503 0 0,0 -0.47090243111900915,-0.2612016405457992 l 5.106748910801439 -9.023136006156466" fill="#ff0000" stroke="none" /><line stroke="#e1ed5e" stroke-width="0.3" x1="58.13341422392154" x2="55.67067388415222" y1="173.97424548756322" y2="178.32567169271397" /><path d="M 57.64086615596768 174.84453072859336 a86.0,86.0 0 0,1 -31.369924170532247,-30.572349798747897" fill="none" id="id8" stroke="none" /><text fill="#e1ed5e" style="font-size:6.75px; font-family:Arial;" text-anchor="middle"><textPath startOffset="22.145653131862474" xlink:href="#id8">August</textPath></text><path d="M 88.72937992617639 117.7192867562869 l -5.568301484117665 8.754294803326276 a31.375146212057565,31.375146212057565 0 0,0 -0.4519729771040225,-0.29296342317623664 l 5.717760093478697 -8.657417538446145" fill="#ff0000" stroke="none" /><path d="M 87.54013794807813 116.9041958592261 l -6.167809263964712 8.367817828635337 a31.395299241959144,31.395299241959144 0 0,0 -0.4310828904129049,-0.3234926375863074 l 6.310545143288383 -8.260706163785015" fill="#ff0100" stroke="none" /><path d="M 86.68645165197938 116.24036423190432 l -13.221574125390323 16.128170635094783 a41.85492532683645,41.85492532683645 0 0,0 -0.5517389320097982,-0.46028024035768395 l 13.496487391562013 -15.898828210825227" fill="#ffab0f" stroke="none" /><path d="M 85.60350026404147 115.28858382429668 l -7.121309010148189 7.562583387434828 a31.387767301490875,31.387767301490875 0 0,0 -0.38909997313500416,-0.37274897246585265 l 7.250081469148507 -7.439222284663392" fill="#ff0100" stroke="none" /><path d="M 85.08716467003676 114.78537596483092 l -7.413146243295365 7.349786399717865 a31.439065923058532,31.439065923058532 0 0,0 -0.3766897117014922,-0.3865168287581042 l 7.538222756147667 -7.221446878892023" fill="#ff0200" stroke="none" /><path d="M 84.1078160697243 113.72728997021213 l -7.863314289875306 6.792143600754203 a31.390617224911303,31.390617224911303 0 0,0 -0.3487429358780521,-0.41081830156270543 l 7.97875178926047 -6.656158516741944" fill="#ff0100" stroke="none" /><path d="M 83.4222238831116 112.89097897827486 l -16.116624661907853 12.532384817632337 a41.41583355413239,41.41583355413239 0 0,0 -0.4316082514069291,-0.5649890559026651 l 16.32938489066908 -12.253874848488802" fill="#ffa40f" stroke="none" /><path d="M 82.576782715395 111.72311816256416 l -8.586739680820882 5.777541671272558 a31.349496901273742,31.349496901273742 0 0,0 -0.29658947078159525,-0.4490742605643046 l 8.684653590523205 -5.629287532369192" fill="#ff0000" stroke="none" /><path d="M 81.99639281039703 110.81064883170644 l -17.805236038723294 10.69153265526931 a41.768613360389296,41.768613360389296 0 0,0 -0.3638370226209587,-0.6178748067810945 l 17.986146771474022 -10.384306680194657" fill="#ffaa0f" stroke="none" /><line stroke="#e1ed5e" stroke-width="0.3" x1="26.387840678322732" x2="22.057713659400548" y1="142.50000000000003" y2="145.00000000000006" /><path d="M 25.521815274538298 143.00000000000003 a86.0,86.0 0 0,1 -11.493303480769221,-40.785679425670985" fill="none" id="id9" stroke="none" /><text fill="#e1ed5e" style="font-size:6.75px; font-family:Arial;" text-anchor="middle"><textPath startOffset="21.40746469413373" xlink:href="#id9">September</textPath></text><path d="M 81.4637452351635 109.86951160357371 l -9.155945073997925 4.875025041246687 a31.372906986512948,31.372906986512948 0 0,0 -0.2490290689262452,-0.4775460753796121 l 9.23828221189912 -4.717132722762572" fill="#ff0000" stroke="none" /><path d="M 81.1358732173502 109.22738970284198 l -9.319359678601321 4.5585658178728155 a31.37453551418176,31.37453551418176 0 0,0 -0.2325013570419076,-0.48583841441553716 l 9.39624029360314 -4.3979149013921734" fill="#ff0000" stroke="none" /><path d="M 80.83023694016515 108.57439118712176 l -18.92769588294625 8.466117617869687 a41.73482141126139,41.73482141126139 0 0,0 -0.2869092453266158,-0.6565045011081264 l 19.070239010289832 -8.139951046985711" fill="#ffa90f" stroke="none" /><path d="M 80.41425534168474 107.57618678355246 l -9.682692152442584 3.745473332483075 a31.381863888691427,31.381863888691427 0 0,0 -0.19003857958825401,-0.5040999102993113 l 9.745561415845275 -3.5787051419896185" fill="#ff0100" stroke="none" /><path d="M 79.83685265289637 105.86919833188381 l -19.938440594529464 5.8037894711207665 a41.765967002927475,41.765967002927475 0 0,0 -0.19447329683379952,-0.6901171238354659 l 20.035132383437837 -5.460664423382305" fill="#ffaa0f" stroke="none" /><path d="M 79.64726062577567 105.17358676015961 l -30.209299277320447 7.679085743748961 a52.170019581106494,52.170019581106494 0 0,0 -0.21318278199753085,-0.8698584993526586 l 30.336669585834272 -7.159371419788203" fill="#bfff1e" stroke="none" /><path d="M 79.2786578344484 103.40968896794605 l -43.68466978555128 7.188295789245998 a65.27213537459367,65.27213537459367 0 0,0 -0.17243812740626008,-1.1071764767143109 l 43.80162940509581 -6.437331130600238" fill="#32ff45" stroke="none" /><path d="M 79.17382384314188 102.69636545807758 l -10.288258341090636 1.332021020361925 a31.37412838226456,31.37412838226456 0 0,0 -0.0645678273382391,-0.5347142347156918 l 10.309608254688536 -1.155213108722834" fill="#ff0000" stroke="none" /><path d="M 79.0935383218832 101.97986365728391 l -10.303600771341928 0.9757617056594118 a31.349700467232342,31.349700467232342 0 0,0 -0.046138365283480684,-0.5361977418527253 l 10.31883275932315 -0.7987429164310245" fill="#ff0000" stroke="none" /><path d="M 79.03789590574601 101.26102812881392 l -44.005097422724106 2.647237386654472 a65.08465112672143,65.08465112672143 0 0,0 -0.057517508365973156,-1.115824296374031 l 44.04405652054665 -1.8914412969037104" fill="#31ff43" stroke="none" /><line stroke="#e1ed5e" stroke-width="0.3" x1="15.003131293944662" x2="10.003315487706104" y1="100.72959589197737" y2="100.7725132973878" /><path d="M 14.003168132696942 100.73817937305945 a86.0,86.0 0 0,1 10.791469493833604,-42.45332614584628" fill="none" id="id10" stroke="none" /><text fill="#e1ed5e" style="font-size:6.75px; font-family:Arial;" text-anchor="middle"><textPath startOffset="22.145653131862435" xlink:href="#id10">October</textPath></text><path d="M 79.22317932658666 96.9465228501225 l -10.268911494128826 -1.509176360248449 a31.3792175312296,31.3792175312296 0 0,0 0.08289867459530166,-0.5322689583984673 l 10.241491327395256 1.685233500578366" fill="#ff0100" stroke="none" /><path d="M 79.407916724674 95.88100663000787 l -43.685435104190034 -8.738310502803246 a65.55081717191953,65.55081717191953 0 0,0 0.2301841578852739,-1.1015145230842052 l 43.52899323548039 9.486941477172861" fill="#32ff49" stroke="none" /><path d="M 79.94057633289273 93.78553927170692 l -60.1782710013218 -18.643382184879226 a84.0,84.0 0 0,0 0.4385411368909713,-1.3737238652344332 l 59.84936514865357 19.67367508380505" fill="#4dd2ff" stroke="none" /><path d="M 81.46374523516351 90.13048839642627 l -9.282621839779548 -4.9424732839282 a31.516420987327212,31.516420987327212 0 0,0 0.2583665922118449,-0.4753654292340453 l 9.196409897952353 5.101093546636864" fill="#ff0300" stroke="none" /><line stroke="#e1ed5e" stroke-width="0.3" x1="26.387840678322718" x2="22.05771365940052" y1="57.49999999999999" y2="54.99999999999999" /><path d="M 25.521815274538284 56.99999999999999 a86.0,86.0 0 0,1 29.574782752854787,-30.34633250058573" fill="none" id="id11" stroke="none" /><text fill="#e1ed5e" style="font-size:6.75px; font-family:Arial;" text-anchor="middle"><textPath startOffset="21.40746469413373" xlink:href="#id11">November</textPath></text><line stroke="#e1ed5e" stroke-width="0.3" x1="56.869717070023135" x2="54.33264160355391" y1="26.7553504044142" y2="22.446841604673864" /><path d="M 56.362301976729285 25.89364864446614 a86.0,86.0 0 0,1 42.16139366436587,-11.88097634709845" fill="none" id="id12" stroke="none" /><text fill="#e1ed5e" style="font-size:6.75px; font-family:Arial;" text-anchor="middle"><textPath startOffset="22.145653131862474" xlink:href="#id12">December</textPath></text></svg>