<?xml version="1.0" encoding="utf-8" ?>
<svg baseProfile="full" height="200mm" version="1.1" viewBox="0,0,200,200" width="200mm" xmlns="http://www.w3.org/2000/svg" xmlns:ev="http://www.w3.org/2001/xml-events" xmlns:xlink="http://www.w3.org/1999/xlink"><defs /><rect fill="#1a1a1a" height="200" width="200" x="0" y="0" /><text alignment-baseline="middle" fill="#e1ed5e" style="dominant-baseline: central; font-size:9.0px; font-family:Arial;" text-anchor="middle" x="100.0" y="100.0">2025</text><line stroke="#e1ed5e" stroke-width="0.3" x1="100.0" x2="100.0" y1="15.0" y2="10.0" /><path d="M 100.0 14.0 a86.0,86.0 0 0,1 42.46469731375804,11.215312516191453" fill="none" id="id13" stroke="none" /><text fill="#e1ed5e" style="font-size:6.75px; font-family:Arial;" text-anchor="middle"><textPath startOffset="22.20632615414155" xlink:href="#id13">January</textPath></text><path d="M 101.44485096284872 79.0497635885617 l 1.4454239132690199 -20.95854415186691 a42.00832747399956,42.00832747399956 0 0,0 0.7209625404813782,0.055960568904107624 l -1.8059766431127393 20.930558320774338" fill="#ffab0f" stroke="none" /><path d="M 103.95276090670814 79.375362276772 l 3.953775141023109 -20.629929774987946 a42.00538836552913,42.00538836552913 0 0,0 0.7089581247677299,0.14221033029664673 l -4.308299675257964 20.55881548861409" fill="#ffab0f" stroke="none" /><path d="M 106.40334571778207 80.00007090966166 l 11.521886985050484 -35.98695632628102 a58.78643811377216,58.78643811377216 0 0,0 0.9610663820781448,0.3168484759125124 l -12.139636189371046 35.78329412610927" fill="#6bff28" stroke="none" /><path d="M 108.43124777332544 80.76684994638697 l 18.544806093022398 -42.30394455144545 a67.1901889760106,67.1901889760106 0 0,0 1.0552631327564055,0.4734658074858026 l -19.270251344245583 41.978458413443114" fill="#34ff5f" stroke="none" /><line stroke="#e1ed5e" stroke-width="0.3" x1="143.23703022742887" x2="145.7803849466894" y1="26.81831364943548" y2="22.513508569990506" /><path d="M 143.74570117128098 25.957352633546492 a86.0,86.0 0 0,1 28.547481713284135,27.462654790039103" fill="none" id="id14" stroke="none" /><text fill="#e1ed5e" style="font-size:6.75px; font-family:Arial;" text-anchor="middle"><textPath startOffset="19.985693538727396" xlink:href="#id14">February</textPath></text><path d="M 114.94478906791727 85.2469230424477 l 22.428762301198073 -22.141045603819745 a52.516270064747026,52.516270064747026 0 0,0 0.6295343767769269,0.6487905129026236 l -22.80656094167811 21.751690895367005" fill="#bbff1f" stroke="none" /><path d="M 115.4437574822437 85.77008943001954 l 7.7291093742506485 -7.121617605536608 a31.50983201762132,31.50983201762132 0 0,0 0.36409814867601265,0.40204626965363593 l -7.850551163542697 6.987518548613424" fill="#ff0000" stroke="none" /><path d="M 115.9244219780498 86.31012108654704 l 8.209893323991793 -7.057866568264457 a31.826625923469884,31.826625923469884 0 0,0 0.3535625731648238,0.41850656725088 l -8.330166510643734 6.91550105138447" fill="#ff0600" stroke="none" /><path d="M 116.38621287248628 86.86637796730983 l 16.452502306115413 -13.18675330669601 a42.08495423055007,42.08495423055007 0 0,0 0.44819658485963393,0.5691641476959274 l -16.67705297156901 12.901596765047044" fill="#ffad10" stroke="none" /><path d="M 117.04232023915458 87.72973835380427 l 8.53254661636643 -6.143328961196185 a31.51403074400765,31.51403074400765 0 0,0 0.313170500732707,0.4429574639695334 l -8.63702973690302 5.995544996894858" fill="#ff0000" stroke="none" /><path d="M 117.2510076193507 88.02491185347247 l 8.632545835038892 -5.992432418125658 a31.508572399705425,31.508572399705425 0 0,0 0.305446402965973,0.4482049062460723 l -8.734416703673599 5.842949488609179" fill="#ff0000" stroke="none" /><path d="M 117.65298651832404 88.62581576622439 l 8.826287370105652 -5.686959458311511 a31.49975507429413,31.49975507429413 0 0,0 0.289756352636431,0.4583249647322353 l -8.922871318988038 5.5341868458650705" fill="#ff0000" stroke="none" /><line stroke="#e1ed5e" stroke-width="0.3" x1="172.23445277983987" x2="176.4835382374775" y1="55.19839476539836" y2="52.563006222186495" /><path d="M 173.08426987136738 54.67131705675599 a86.0,86.0 0 0,1 12.851231095245387,41.99856678651699" fill="none" id="id15" stroke="none" /><text fill="#e1ed5e" style="font-size:6.75px; font-family:Arial;" text-anchor="middle"><textPath startOffset="22.20632615414155" xlink:href="#id15">March</textPath></text><path d="M 118.03404312379186 89.2402003453031 l 38.067695535769815 -22.712642665277134 a65.32847369631213,65.32847369631213 0 0,0 0.5678609930895941,0.970658512035543 l -38.45301620332974 22.054004740887695" fill="#32ff45" stroke="none" /><path d="M 118.3937258080291 89.86733742301442 l 10.13334063829506 -5.582214421217448 a32.56917068489225,32.56917068489225 0 0,0 0.26627918198892403,0.4933748834264397 l -10.227927919502449 5.40695855445855" fill="#ff1202" stroke="none" /><path d="M 118.89224826269711 90.83032412892265 l 10.42347003027335 -5.059209486370051 a32.5863854630762,32.5863854630762 0 0,0 0.24058343135067017,0.5067300628489703 l -10.509011655465777 4.879037007880541" fill="#ff1302" stroke="none" /><path d="M 119.04729006885535 91.15688171328212 l 40.19206639226479 -18.660040142696012 a65.31251853604405,65.31251853604405 0 0,0 0.4646447115511159,1.0237830309124056 l -40.507313420779255 17.965435102941544" fill="#32ff45" stroke="none" /><path d="M 119.47837535516314 92.15188598940014 l 10.723099067197518 -4.320488875065024 a32.560773232119594,32.560773232119594 0 0,0 0.20498782105359442,0.5216716454909212 l -10.795880438132814 4.135268224678319" fill="#ff1202" stroke="none" /><path d="M 120.08093135843002 93.85539295169968 l 42.42275833787925 -12.981030373466393 a65.36437280691524,65.36437280691524 0 0,0 0.31995581254967115,1.0787319413629077 l -42.63992004754062 12.248869045356955" fill="#32ff46" stroke="none" /><path d="M 120.28053869075195 94.5502522615342 l 11.179906212023704 -3.004243108345997 a32.57651845606833,32.57651845606833 0 0,0 0.1408603509859899,0.5427923929024835 l -11.229962894879996 2.811354289894663" fill="#ff1202" stroke="none" /><path d="M 120.45610955862082 95.25157060432595 l 10.968307308549353 -2.5460478052022 a32.25993448653908,32.25993448653908 0 0,0 0.1209065675731984,0.5420004350351888 l -11.010508263124589 2.3568692006170475" fill="#ff0d01" stroke="none" /><path d="M 120.6074358757038 95.95851677861258 l 42.1040876464344 -8.25735743162073 a63.90615513294301,63.90615513294301 0 0,0 0.2024129355415207,1.0812979954196678 l -42.23998630588578 7.531381358738499" fill="#30ff31" stroke="none" /><path d="M 120.91429891909075 98.10471618934814 l 11.717237171628117 -1.0618328638634793 a32.765251207133836,32.765251207133836 0 0,0 0.04606718831783568,0.5621363813867465 l -11.733778843765448 0.8599825652689641" fill="#ff1602" stroke="none" /><path d="M 120.96714384426684 98.82574320788733 l 44.86425618845317 -2.512605338317412 a65.93455985017879,65.93455985017879 0 0,0 0.05370963865472059,1.1337255834095548 l -44.90085943534138 1.7399686482848575" fill="#33ff4e" stroke="none" /><line stroke="#e1ed5e" stroke-width="0.3" x1="184.98032266829074" x2="189.97916517819016" y1="98.17113171792111" y2="98.06355123074" /><path d="M 185.9800911702706 98.14961562048488 a86.0,86.0 0 0,1 -9.607161424134198,41.387399972396054" fill="none" id="id16" stroke="none" /><text fill="#e1ed5e" style="font-size:6.75px; font-family:Arial;" text-anchor="middle"><textPath startOffset="21.466115282336823" xlink:href="#id16">April</textPath></text><path d="M 120.99824983174949 100.27111621757518 l 11.712210807181464 0.1512207121512129 a32.713186999943346,32.713186999943346 0 0,0 -0.012116243707580398,0.5629942352258069 l -11.707872500788877 -0.35280476316713466" fill="#ff1502" stroke="none" /><path d="M 120.89721153311464 102.0752229133903 l 11.658779316008102 1.157789207445267 a32.71612610841378,32.71612610841378 0 0,0 -0.060474510444284334,0.5599188598592818 l -11.637122504062765 -1.3583043891893403" fill="#ff1502" stroke="none" /><path d="M 120.81339534386255 102.79330883721812 l 11.653839600131931 1.5640299242271438 a32.75832330859639,32.75832330859639 0 0,0 -0.07981479519949151,0.5582244917290913 l -11.625190753915838 -1.7643998879366445" fill="#ff1602" stroke="none" /><path d="M 120.64145759157962 103.86396538481128 l 43.5685385251142 8.155786672571649 a65.32532465152238,65.32532465152238 0 0,0 -0.216413676875853,1.1034886759503595 l -43.421694915262684 -8.904539075589954" fill="#32ff45" stroke="none" /><path d="M 120.13307415673323 105.97154293290107 l 21.09930284738131 6.258129872594842 a43.00783429026529,43.00783429026529 0 0,0 -0.21662273525727516,0.7079356325283549 l -20.9884533396179 -6.620392477675254" fill="#ffbb11" stroke="none" /><path d="M 120.02730092923936 106.31721596034902 l 20.860117269269477 6.579911402628846 a42.87326510958343,42.87326510958343 0 0,0 -0.22806075890358296,0.7018988431532569 l -20.743764259349646 -6.9380091457598985" fill="#ffb911" stroke="none" /><path d="M 119.67450827220406 107.3425965602758 l 10.971112810016384 4.0944583756145665 a32.71024789147292,32.71024789147292 0 0,0 -0.2014105794419944,0.5258194672003383 l -10.899007950980884 -4.282701409648048" fill="#ff1502" stroke="none" /><path d="M 119.54520255179757 107.68017299344265 l 10.969740128791123 4.3104952050996905 a32.78624483906548,32.78624483906548 0 0,0 -0.21092076028927645,0.5234880295523309 l -10.893916754244454 -4.498682602494835" fill="#ff1602" stroke="none" /><path d="M 119.26925614724726 108.34839909993367 l 40.654277145995586 17.613452649160443 a65.30580057382595,65.30580057382595 0 0,0 -0.45576891870741654,1.0276385922046465 l -40.34506714255689 -18.310639577857778" fill="#32ff45" stroke="none" /><path d="M 118.97047184881838 109.00673069616215 l 10.601657336867596 5.033415790978636 a32.73586012242953,32.73586012242953 0 0,0 -0.2460594720115115,0.5069553927519054 l -10.51344460824137 -5.215160139695817" fill="#ff1502" stroke="none" /><path d="M 118.81262510543309 109.33194174019688 l 10.507990601342893 5.212454697242039 a32.729771969169356,32.729771969169356 0 0,0 -0.2547020415616067,0.5025512915899939 l -10.416709889995017 -5.392560200534728" fill="#ff1502" stroke="none" /><line stroke="#e1ed5e" stroke-width="0.3" x1="174.80103733775053" x2="179.2010983576182" y1="140.37084112569926" y2="142.7455964860345" /><path d="M 175.68104954172406 140.8457921977663 a86.0,86.0 0 0,1 -30.038265399797805,32.042727171017184" fill="none" id="id17" stroke="none" /><text fill="#e1ed5e" style="font-size:6.75px; font-family:Arial;" text-anchor="middle"><textPath startOffset="22.206326154141568" xlink:href="#id17">May</textPath></text><path d="M 118.30583269289576 110.29060199501025 l 18.902909880808966 10.626248223411494 a42.684952231156544,42.684952231156544 0 0,0 -0.36556206919545414,0.6373882809607869 l -18.717195815461135 -10.950056350230597" fill="#ffb610" stroke="none" /><path d="M 117.35343817320211 111.8261652097733 l 18.09189219372185 12.329412990375861 a42.89362893255713,42.89362893255713 0 0,0 -0.4210501788895845,0.6065541860966907 l -17.87698110767013 -12.639008438659571" fill="#ffb911" stroke="none" /><path d="M 116.498646956653 112.99209946851258 l 16.513766130213952 13.004005281595408 a42.01924416260401,42.01924416260401 0 0,0 -0.45237135495992403,0.5644028205881035 l -16.287476863199174 -13.286335935761763" fill="#ffac0f" stroke="none" /><path d="M 116.0416608686014 113.55231037782055 l 8.888875494015197 7.509496715547993 a32.63635030707352,32.63635030707352 0 0,0 -0.36623811476828044,0.4260176675693119 l -8.758294869676138 -7.661391482278832" fill="#ff1402" stroke="none" /><path d="M 115.56566222782051 114.09645910891815 l 16.19038218234055 14.662213341826881 a42.842824343282544,42.842824343282544 0 0,0 -0.49973827211882776,0.5423671948775473 l -15.935597502226 -14.938731791505763" fill="#ffb811" stroke="none" /><path d="M 115.07121518719521 114.62390073753431 l 15.07206896374359 14.624729173950398 a42.001189639142794,42.001189639142794 0 0,0 -0.50793313655622,0.514533585656681 l -14.818095202131834 -14.882003253587742" fill="#ffab0f" stroke="none" /><path d="M 114.81725581225074 114.88116024355365 l 37.07930735932706 37.239224423588354 a73.55125945129979,73.55125945129979 0 0,0 -0.9048557800982674,0.8855918277226835 l -36.432801626853 -37.87196635423361" fill="#3effb3" stroke="none" /><path d="M 113.75828350139079 115.86535959552629 l 7.661865308141283 8.83527718220527 a32.6947126038435,32.6947126038435 0 0,0 -0.4283544843194708,0.36505298448912904 l -7.508645347244765 -8.965854556917344" fill="#ff1502" stroke="none" /><path d="M 112.92097659922987 116.55440617244103 l 38.762929797689644 49.6632185173231 a84.0,84.0 0 0,0 -1.147485086026025,0.8798426326905142 l -37.90231598317012 -50.32310049184099" fill="#4dd2ff" stroke="none" /><path d="M 112.34349029814194 116.9893568818739 l 6.836836959141267 9.410098783771152 a32.63152177172924,32.63152177172924 0 0,0 -0.4572650051487649,0.3262464400347544 l -6.673844626143617 -9.526389485650126" fill="#ff1302" stroke="none" /><path d="M 111.45004920935366 117.60387380957326 l 6.367158501290921 9.78918542033096 a32.677707761978866,32.677707761978866 0 0,0 -0.4741662963079635,0.3026353647055769 l -6.197710402936027 -9.897335213860345" fill="#ff1402" stroke="none" /><line stroke="#e1ed5e" stroke-width="0.3" x1="143.8653032363475" x2="146.44561519142675" y1="172.8068346515853" y2="177.08958963109032" /><path d="M 144.38136562736335 173.6633856474863 a86.0,86.0 0 0,1 -40.68145358897372,12.25698825130547" fill="none" id="id18" stroke="none" /><text fill="#e1ed5e" style="font-size:6.75px; font-family:Arial;" text-anchor="middle"><textPath startOffset="21.466115282336833" xlink:href="#id18">June</textPath></text><path d="M 110.21172684928248 118.3499491758327 l 10.64096572174734 19.121269405043016 a42.88271224395267,42.88271224395267 0 0,0 -0.6480949824491222,0.35339305865294085 l -10.31024792742957 -19.301603115455727" fill="#ffb911" stroke="none" /><path d="M 108.92500713936063 119.00905698771935 l 4.471857114922688 9.524450278993646 a31.52200832414168,31.52200832414168 0 0,0 -0.4931423129603026,0.22637744877702387 l -4.307246806194966 -9.600014798104743" fill="#ff0000" stroke="none" /><path d="M 108.59647513512805 119.15986991738527 l 4.306129603312273 9.597524770323908 a31.519279151990563,31.519279151990563 0 0,0 -0.4969229369959506,0.21783641236004458 l -4.140285991658568 -9.670225735978407" fill="#ff0000" stroke="none" /><path d="M 106.57524785965236 119.94407469862006 l 6.582785190874297 19.966936969385685 a42.02407269794829,42.02407269794829 0 0,0 -0.688951962964294,0.22058066215525643 l -6.238111882819062 -20.07729047820065" fill="#ffac0f" stroke="none" /><path d="M 106.2309692047433 120.05430185196036 l 6.234125271800035 20.064459617043273 a42.01063677351203,42.01063677351203 0 0,0 -0.6924253679530191,0.20862208331233972 l -5.8878249294067695 -20.168797069461338" fill="#ffab0f" stroke="none" /><path d="M 105.53697534728816 120.25689768951611 l 3.076794452472873 11.256382144800277 a32.66931030920621,32.66931030920621 0 0,0 -0.5437255323725926,0.14360285494406377 l -2.882578477288783 -11.307676349047926" fill="#ff1402" stroke="none" /><path d="M 104.83641907484287 120.43548508189849 l 2.6832535737148513 11.337642071139628 a32.650835913106356,32.650835913106356 0 0,0 -0.548036274516662,0.12473127182706861 l -2.487697149805327 -11.38215007654438" fill="#ff1402" stroke="none" /><path d="M 104.13013068566511 120.58985236759428 l 4.131479452563131 20.596576346427437 a42.006857919764336,42.006857919764336 0 0,0 -0.7101807129334011,0.13610782387802883 l -3.7763311250580247 -20.664641368653935" fill="#ffab0f" stroke="none" /><path d="M 103.7750983002368 120.6578951692458 l 3.777840706471758 20.672902020990428 a42.015255372537,42.015255372537 0 0,0 -0.7125607816568348,0.12388782554621063 l -3.421430953342873 -20.734868425057645" fill="#ffac0f" stroke="none" /><path d="M 102.70371172650421 120.8252237178851 l 2.8167106250843577 21.695592892134616 a42.87767377228907,42.87767377228907 0 0,0 -0.7327438704868392,0.0887250782505576 l -2.4428393315461383 -21.740863499110525" fill="#ffb911" stroke="none" /><path d="M 101.98527174616119 120.90594882070398 l 1.105798433283868 11.644635298391124 a32.69702190335598,32.69702190335598 0 0,0 -0.5607627729249014,0.04838497161465272 l -0.9051913426174248 -11.66194452228444" fill="#ff1502" stroke="none" /><path d="M 101.62511606390274 120.93702456842531 l 1.6834021311149614 21.68794743992083 a42.7531815349344,42.7531815349344 0 0,0 -0.7342090169845693,0.0506353524747432 l -1.309830353351462 -21.713711136911858" fill="#ffb711" stroke="none" /><path d="M 101.26447882468166 120.96189622390904 l 1.2854333124708395 21.30926922050506 a42.348004438653604,42.348004438653604 0 0,0 -0.7280064229158513,0.037629616479067055 l -0.9184388211415087 -21.328238643746328" fill="#ffb110" stroke="none" /><line stroke="#e1ed5e" stroke-width="0.3" x1="102.19456741930631" x2="102.32365962044197" y1="184.97166512339345" y2="189.96999836594603" /><path d="M 102.22038585953345 185.97133177190398 a86.0,86.0 0 0,1 -42.740103519485714,-10.115201625700543" fill="none" id="id19" stroke="none" /><text fill="#e1ed5e" style="font-size:6.75px; font-family:Arial;" text-anchor="middle"><textPath startOffset="22.20632615414155" xlink:href="#id19">July</textPath></text><path d="M 100.18074693466247 120.99922214144158 l 0.10021546621107764 11.643056856839747 a32.64348814193028,32.64348814193028 0 0,0 -0.5619248017470582,0.0 l 0.10021546621106962 -11.643056856839747" fill="#ff1402" stroke="none" /><path d="M 99.45781275523022 120.99299961872073 l -0.5648474125985474 21.87038081715053 a42.87767377228907,42.87767377228907 0 0,0 -0.7376586143553323,-0.025406454179465934 l 0.9412263786285228 -21.85741756454497" fill="#ffb911" stroke="none" /><path d="M 99.09653310690486 120.98055641714683 l -0.4745014348545555 11.019002688496752 a32.02921447161028,32.02921447161028 0 0,0 -0.550615646837841,-0.028460539585482256 l 0.6641051501058854 -11.009202342149067" fill="#ff0901" stroke="none" /><path d="M 98.73552117531835 120.96189622390904 l -1.2883028089889081 21.356838295647204 a42.395659983138444,42.395659983138444 0 0,0 -0.7280692272035353,-0.050211916624063574 l 1.6557347969713736 -21.331498034506858" fill="#ffb110" stroke="none" /><path d="M 98.01472825383883 120.90594882070398 l -1.1061358271379051 11.648188231967461 a32.70059082078436,32.70059082078436 0 0,0 -0.5599079300424954,-0.05803674627430412 l 1.3064763537859938 -11.627422117237396" fill="#ff1502" stroke="none" /><path d="M 97.2962882734958 120.8252237178851 l -2.805844999850117 21.61190087936592 a42.793279371923845,42.793279371923845 0 0,0 -0.729669039640014,-0.10112548013466992 l 3.177442630676962 -21.560400833738644" fill="#ffb711" stroke="none" /><line stroke="#e1ed5e" stroke-width="0.3" x1="58.666819895761336" x2="56.23545636021788" y1="174.27360380694188" y2="178.64263932499728" /><path d="M 58.180547188652646 175.14741091055294 a86.0,86.0 0 0,1 -31.652253787137756,-30.449443065178592" fill="none" id="id20" stroke="none" /><text fill="#e1ed5e" style="font-size:6.75px; font-family:Arial;" text-anchor="middle"><textPath startOffset="22.20632615414155" xlink:href="#id20">August</textPath></text><line stroke="#e1ed5e" stroke-width="0.3" x1="26.63291911575756" x2="22.317208475507996" y1="142.92168965132927" y2="145.44649492493687" /><path d="M 25.769776987707644 143.4266507060508 a86.0,86.0 0 0,1 -11.730757126820373,-40.83630448921669" fill="none" id="id21" stroke="none" /><text fill="#e1ed5e" style="font-size:6.75px; font-family:Arial;" text-anchor="middle"><textPath startOffset="21.46611528233685" xlink:href="#id21">September</textPath></text><line stroke="#e1ed5e" stroke-width="0.3" x1="15.007084014347285" x2="10.007500721073583" y1="101.09737516637583" y2="101.16192664675087" /><path d="M 14.007167355692545 101.11028546245083 a86.0,86.0 0 0,1 10.666146001902534,-42.60595125391555" fill="none" id="id22" stroke="none" /><text fill="#e1ed5e" style="font-size:6.75px; font-family:Arial;" text-anchor="middle"><textPath startOffset="22.20632615414155" xlink:href="#id22">October</textPath></text><line stroke="#e1ed5e" stroke-width="0.3" x1="26.266209847984243" x2="21.928928074336255" y1="57.711370442889674" y2="55.22380399835377" /><path d="M 25.398753493254645 57.213857153982495 a86.0,86.0 0 0,1 29.58750427330803,-30.492523968695096" fill="none" id="id23" stroke="none" /><text fill="#e1ed5e" style="font-size:6.75px; font-family:Arial;" text-anchor="middle"><textPath startOffset="21.46611528233685" xlink:href="#id23">November</textPath></text><line stroke="#e1ed5e" stroke-width="0.3" x1="56.762969772571076" x2="54.21961505331055" y1="26.818313649435495" y2="22.513508569990535" /><path d="M 56.25429882871897 25.957352633546506 a86.0,86.0 0 0,1 42.265352541879196,-11.944610805530505" fill="none" id="id24" stroke="none" /><text fill="#e1ed5e" style="font-size:6.75px; font-family:Arial;" text-anchor="middle"><textPath startOffset="22.20632615414155" xlink:href="#id24">December</textPath></text></svg>