<?xml version="1.0" encoding="utf-8" ?>
<svg baseProfile="full" height="200mm" version="1.1" viewBox="0,0,200,200" width="200mm" xmlns="http://www.w3.org/2000/svg" xmlns:ev="http://www.w3.org/2001/xml-events" xmlns:xlink="http://www.w3.org/1999/xlink"><defs /><rect fill="#1a1a1a" height="200" width="200" x="0" y="0" /><text alignment-baseline="middle" fill="#e1ed5e" style="dominant-baseline: central; font-size:9.0px; font-family:Arial;" text-anchor="middle" x="100.0" y="100.0">2024</text><line stroke="#e1ed5e" stroke-width="0.3" x1="100.0" x2="100.0" y1="15.0" y2="10.0" /><path d="M 100.0 14.0 a86.0,86.0 0 0,1 42.35913384403234,11.155469271406648" fill="none" id="id1" stroke="none" /><text fill="#e1ed5e" style="font-size:6.75px; font-family:Arial;" text-anchor="middle"><textPath startOffset="22.145653131862478" xlink:href="#id1">January</textPath></text><line stroke="#e1ed5e" stroke-width="0.3" x1="143.13028292997686" x2="145.6673583964461" y1="26.7553504044142" y2="22.446841604673864" /><path d="M 143.63769802327073 25.89364864446614 a86.0,86.0 0 0,1 29.32050498858742,28.57503671076993" fill="none" id="id2" stroke="none" /><text fill="#e1ed5e" style="font-size:6.75px; font-family:Arial;" text-anchor="middle"><textPath startOffset="20.669276256404974" xlink:href="#id2">February</textPath></text><line stroke="#e1ed5e" stroke-width="0.3" x1="172.87174338648825" x2="177.1583165268699" y1="56.24261187166439" y2="53.66864786411523" /><path d="M 173.72905801456457 55.72781907015455 a86.0,86.0 0 0,1 12.242430191666344,42.057860355516425" fill="none" id="id3" stroke="none" /><text fill="#e1ed5e" style="font-size:6.75px; font-family:Arial;" text-anchor="middle"><textPath startOffset="22.145653131862474" xlink:href="#id3">March</textPath></text><line stroke="#e1ed5e" stroke-width="0.3" x1="184.99686870605535" x2="189.99668451229388" y1="99.2704041080226" y2="99.22748670261217" /><path d="M 185.99683186730306 99.26182062694052 a86.0,86.0 0 0,1 -10.086455211305974,41.156179273409016" fill="none" id="id4" stroke="none" /><text fill="#e1ed5e" style="font-size:6.75px; font-family:Arial;" text-anchor="middle"><textPath startOffset="21.40746469413373" xlink:href="#id4">April</textPath></text><line stroke="#e1ed5e" stroke-width="0.3" x1="174.33088141563837" x2="178.70328620479359" y1="141.23008692659167" y2="143.65538615756765" /><path d="M 175.20536237346943 141.71514677278685 a86.0,86.0 0 0,1 -30.301960400862466,31.631185727798858" fill="none" id="id5" stroke="none" /><text fill="#e1ed5e" style="font-size:6.75px; font-family:Arial;" text-anchor="middle"><textPath startOffset="22.145653131862474" xlink:href="#id5">May</textPath></text><line stroke="#e1ed5e" stroke-width="0.3" x1="143.1302829299769" x2="145.66735839644613" y1="173.24464959558577" y2="177.55315839532614" /><path d="M 143.63769802327073 174.10635135553383 a86.0,86.0 0 0,1 -40.68552437913181,11.842963189579606" fill="none" id="id6" stroke="none" /><text fill="#e1ed5e" style="font-size:6.75px; font-family:Arial;" text-anchor="middle"><textPath startOffset="21.407464694133747" xlink:href="#id6">June</textPath></text><line stroke="#e1ed5e" stroke-width="0.3" x1="101.45913802915013" x2="101.54496967792366" y1="184.9874750549273" y2="189.98673829345242" /><path d="M 101.47630435890484 185.9873277026323 a86.0,86.0 0 0,1 -42.54439059252881,-10.42667462771756" fill="none" id="id7" stroke="none" /><text fill="#e1ed5e" style="font-size:6.75px; font-family:Arial;" text-anchor="middle"><textPath startOffset="22.145653131862474" xlink:href="#id7">July</textPath></text><path d="M 97.84075906011543 120.88869738790638 l -2.187035244302754 21.157582070191918 a42.27031739811912,42.27031739811912 0 0,0 -0.7211398643659617,-0.08080522595602145 l 2.549911010269515 -21.116921083728926" fill="#ff0801" stroke="none" /><path d="M 95.35216902796893 120.47920084513623 l -4.6532947231737465 20.503275140800582 a42.02468652037618,42.02468652037618 0 0,0 -0.7021481547219407,-0.1657050526640738 l 5.004575031635575 -20.420373944490283" fill="#ff0200" stroke="none" /><path d="M 94.6519064749342 120.30758222061772 l -5.359200459110814 20.349757058301613 a42.04361285266458,42.04361285266458 0 0,0 -0.696359548669421,-0.1897958915632144 l 5.70774140871493 -20.254760672594255" fill="#ff0300" stroke="none" /><path d="M 93.27111125876986 119.89276391827306 l -6.773976514535393 20.02605790847778 a42.140713166144195,42.140713166144195 0 0,0 -0.6832699807132596,-0.2376767676226455 l 7.116752267293674 -19.906822708286544" fill="#ff0500" stroke="none" /><path d="M 91.92203290615298 119.3841803445677 l -8.07590961790227 19.379243151298112 a41.99465125391849,41.99465125391849 0 0,0 -0.6630453993452116,-0.28301465386390323 l 8.407390092417913 -19.23775384777481" fill="#ff0200" stroke="none" /><path d="M 91.59046798132341 119.24265499422711 l -8.443967602373755 19.321450348729325 a42.08599137931034,42.08599137931034 0 0,0 -0.6595207471649674,-0.2949952414416506 l 8.774401752394358 -19.173651356377817" fill="#ff0400" stroke="none" /><path d="M 89.97174638481275 118.45085714620012 l -10.00703395628364 18.411815363837466 a41.955564263322884,41.955564263322884 0 0,0 -0.629844546342984,-0.3493641525754505 l 10.321622690782728 -18.237318295828867" fill="#ff0100" stroke="none" /><line stroke="#e1ed5e" stroke-width="0.3" x1="58.13341422392154" x2="55.67067388415222" y1="173.97424548756322" y2="178.32567169271397" /><path d="M 57.64086615596768 174.84453072859336 a86.0,86.0 0 0,1 -31.369924170532247,-30.572349798747897" fill="none" id="id8" stroke="none" /><text fill="#e1ed5e" style="font-size:6.75px; font-family:Arial;" text-anchor="middle"><textPath startOffset="22.145653131862474" xlink:href="#id8">August</textPath></text><path d="M 88.72937992617639 117.7192867562869 l -11.254500260630248 17.693943732517134 a41.96996473354232,41.96996473354232 0 0,0 -0.604596064074436,-0.3918918642106351 l 11.556581956961693 -17.498138026602604" fill="#ff0100" stroke="none" /><path d="M 87.54013794807813 116.9041958592261 l -12.466209160333904 16.912806930784495 a42.01069749216301,42.01069749216301 0 0,0 -0.5768409074113889,-0.43287217088911634 l 12.754703056656059 -16.696315732631366" fill="#ff0200" stroke="none" /><path d="M 86.68645165197938 116.24036423190432 l -26.723087796983073 32.59782199902301 a63.151410658307206,63.151410658307206 0 0,0 -0.8324729192429352,-0.6944785171578147 l 27.2787350503879 -32.13428129795333" fill="#74ff27" stroke="none" /><path d="M 85.60350026404147 115.28858382429668 l -14.393397042049907 15.285288870886268 a41.995474137931026,41.995474137931026 0 0,0 -0.5205989232016696,-0.4987219920031249 l 14.653668451116891 -15.03595474857756" fill="#ff0200" stroke="none" /><path d="M 85.08716467003676 114.78537596483092 l -14.98325055947973 14.855189358395272 a42.099157523510975,42.099157523510975 0 0,0 -0.5044144615879316,-0.5175736740779203 l 15.23605182221847 -14.595792992249615" fill="#ff0400" stroke="none" /><path d="M 84.1078160697243 113.72728997021213 l -15.893118031995753 13.728096825030125 a42.00123432601881,42.00123432601881 0 0,0 -0.4666245860796134,-0.5496825890909511 l 16.126437181582478 -13.453247453489618" fill="#ff0200" stroke="none" /><path d="M 83.4222238831116 112.89097897827486 l -32.57448559049482 25.330117020183458 a62.2639302507837,62.2639302507837 0 0,0 -0.6488732389301953,-0.8493958988704126 l 33.00451080677931 -24.767200208072172" fill="#82ff25" stroke="none" /><path d="M 82.576782715395 111.72311816256416 l -17.35528585357764 11.677410864085514 a41.918123040752356,41.918123040752356 0 0,0 -0.39657650545292805,-0.6004673749008254 l 17.553186797951298 -11.377763610845626" fill="#ff0000" stroke="none" /><path d="M 81.99639281039703 110.81064883170644 l -35.98746120517347 21.609436449961184 a62.9769592476489,62.9769592476489 0 0,0 -0.5485781667848134,-0.9316056578431566 l 36.35311308208805 -20.988479623824468" fill="#77ff27" stroke="none" /><line stroke="#e1ed5e" stroke-width="0.3" x1="26.387840678322732" x2="22.057713659400548" y1="142.50000000000003" y2="145.00000000000006" /><path d="M 25.521815274538298 143.00000000000003 a86.0,86.0 0 0,1 -11.493303480769221,-40.785679425670985" fill="none" id="id9" stroke="none" /><text fill="#e1ed5e" style="font-size:6.75px; font-family:Arial;" text-anchor="middle"><textPath startOffset="21.40746469413373" xlink:href="#id9">September</textPath></text><path d="M 81.4637452351635 109.86951160357371 l -18.505748389439823 9.853268676953416 a41.96543887147335,41.96543887147335 0 0,0 -0.3331095257999819,-0.6387814378587995 l 18.672165984214754 -9.534140995990112" fill="#ff0100" stroke="none" /><path d="M 81.1358732173502 109.22738970284198 l -18.8360375656537 9.213649859240562 a41.96873040752351,41.96873040752351 0 0,0 -0.3110097604047245,-0.6498907825107967 l 18.99142658401834 -8.888946574664661" fill="#ff0100" stroke="none" /><path d="M 80.83023694016515 108.57439118712176 l -38.256146664354574 17.11148780442494 a62.90865987460815,62.90865987460815 0 0,0 -0.43247042921962436,-0.989576976007292 l 38.54425097559116 -16.452248758641797" fill="#78ff26" stroke="none" /><path d="M 80.41425534168474 107.57618678355246 l -19.57039532864574 7.570249333095134 a41.98354231974922,41.98354231974922 0 0,0 -0.25423896989762845,-0.6743990730601382 l 19.697464982357808 -7.233181979840851" fill="#ff0100" stroke="none" /><path d="M 79.83685265289637 105.86919833188381 l -40.299036520873614 11.73046220677506 a62.971610501567405,62.971610501567405 0 0,0 -0.2932123348255136,-1.0405071363386091 l 40.4944673477737 -11.036947146533455" fill="#77ff27" stroke="none" /><path d="M 79.64726062577567 105.17358676015961 l -61.05821812267298 15.520760280478815 a84.0,84.0 0 0,0 -0.34324989393482586,-1.4005767015676016 l 61.3156555431241 -14.470327754303112" fill="#4dd2ff" stroke="none" /><line stroke="#e1ed5e" stroke-width="0.3" x1="15.003131293944662" x2="10.003315487706104" y1="100.72959589197737" y2="100.7725132973878" /><path d="M 14.003168132696942 100.73817937305945 a86.0,86.0 0 0,1 10.791469493833604,-42.45332614584628" fill="none" id="id10" stroke="none" /><text fill="#e1ed5e" style="font-size:6.75px; font-family:Arial;" text-anchor="middle"><textPath startOffset="22.145653131862435" xlink:href="#id10">October</textPath></text><line stroke="#e1ed5e" stroke-width="0.3" x1="26.387840678322718" x2="22.05771365940052" y1="57.49999999999999" y2="54.99999999999999" /><path d="M 25.521815274538284 56.99999999999999 a86.0,86.0 0 0,1 29.574782752854787,-30.34633250058573" fill="none" id="id11" stroke="none" /><text fill="#e1ed5e" style="font-size:6.75px; font-family:Arial;" text-anchor="middle"><textPath startOffset="21.40746469413373" xlink:href="#id11">November</textPath></text><line stroke="#e1ed5e" stroke-width="0.3" x1="56.869717070023135" x2="54.33264160355391" y1="26.7553504044142" y2="22.446841604673864" /><path d="M 56.362301976729285 25.89364864446614 a86.0,86.0 0 0,1 42.16139366436587,-11.88097634709845" fill="none" id="id12" stroke="none" /><text fill="#e1ed5e" style="font-size:6.75px; font-family:Arial;" text-anchor="middle"><textPath startOffset="22.145653131862474" xlink:href="#id12">December</textPath></text></svg>