<?xml version="1.0" encoding="utf-8" ?>
<svg baseProfile="full" height="200mm" version="1.1" viewBox="0,0,200,200" width="200mm" xmlns="http://www.w3.org/2000/svg" xmlns:ev="http://www.w3.org/2001/xml-events" xmlns:xlink="http://www.w3.org/1999/xlink"><defs /><rect fill="#1a1a1a" height="200" width="200" x="0" y="0" /><text alignment-baseline="middle" fill="#e1ed5e" style="dominant-baseline: central; font-size:9.0px; font-family:Arial;" text-anchor="middle" x="100.0" y="100.0">2026</text><line stroke="#e1ed5e" stroke-width="0.3" x1="100.0" x2="100.0" y1="15.0" y2="10.0" /><path d="M 100.0 14.0 a86.0,86.0 0 0,1 42.46469731375804,11.215312516191453" fill="none" id="id25" stroke="none" /><text fill="#e1ed5e" style="font-size:6.75px; font-family:Arial;" text-anchor="middle"><textPath startOffset="22.20632615414155" xlink:href="#id25">January</textPath></text><path d="M 101.44485096284872 79.0497635885617 l 4.334552888546152 -62.8507092343149 a84.0,84.0 0 0,0 1.4416392425506352,0.11189895124614191 l -5.415782320459128 62.76678502088029" fill="#4dd2ff" stroke="none" /><path d="M 102.52436894288641 79.15227682838746 l 4.5450508577839965 -37.53570267571015 a58.80987255544717,58.80987255544717 0 0,0 1.003927291878974,0.13033857539209182 l -5.190492878170817 37.451905777153925" fill="#78ff26" stroke="none" /><path d="M 102.88285421437855 79.19881850522331 l 6.919216596607212 -49.92547993229803 a71.40266961958521,71.40266961958521 0 0,0 1.2159909302937193,0.17920545402781662 l -7.777576507329587 49.798979994109246" fill="#3aff90" stroke="none" /><path d="M 104.307194497241 79.44645832069477 l 7.753425327968403 -36.998642791231845 a58.80231702831923,58.80231702831923 0 0,0 0.9888793378658016,0.21613072167969458 l -8.389147389987732 36.85969857145628" fill="#78ff26" stroke="none" /><path d="M 105.01212808612495 79.60689891045804 l 9.024607634804632 -36.71888120726588 a58.81163551177703,58.81163551177703 0 0,0 0.9810091981748391,0.2500810876957286 l -9.655325721664495 36.55809712340129" fill="#78ff26" stroke="none" /><path d="M 107.76421540070413 80.48803036053334 l 9.325047787352077 -23.434441205339102 a46.22160880758591,46.22160880758591 0 0,0 0.7367199067368791,0.30052654789319266 l -9.727051563677342 23.270453771262332" fill="#ffd213" stroke="none" /><path d="M 108.43124777332544 80.76684994638697 l 20.396637275835342 -46.52829520161656 a71.80260885555751,71.80260885555751 0 0,0 1.127704016252304,0.5059679203093422 l -21.194523410554424 46.17030695079068" fill="#3aff95" stroke="none" /><path d="M 109.41281617654863 81.2277094730956 l 22.5913909907209 -45.05475801612905 a71.4014103650639,71.4014103650639 0 0,0 1.0939359503014683,0.5603564824472395 l -23.363587428611122 44.65920900836931" fill="#3aff90" stroke="none" /><path d="M 109.73455568895987 81.39251694778311 l 11.689382175373995 -22.344109753857573 a46.217075491309146,46.217075491309146 0 0,0 0.7017401645418528,0.3748452930973496 l -12.072267386444159 22.139585734258468" fill="#ffd213" stroke="none" /><line stroke="#e1ed5e" stroke-width="0.3" x1="143.23703022742887" x2="145.7803849466894" y1="26.81831364943548" y2="22.513508569990506" /><path d="M 143.74570117128098 25.957352633546492 a86.0,86.0 0 0,1 28.547481713284135,27.462654790039103" fill="none" id="id26" stroke="none" /><text fill="#e1ed5e" style="font-size:6.75px; font-family:Arial;" text-anchor="middle"><textPath startOffset="19.985693538727396" xlink:href="#id26">February</textPath></text><path d="M 113.34407831869373 83.78471172551755 l 32.02556391698554 -38.91641960309023 a71.39964740873404,71.39964740873404 0 0,0 0.9422797211003393,0.789132167907455 l -32.690701175045 38.35938627778896" fill="#3aff90" stroke="none" /><path d="M 113.89432698308785 84.25364557470407 l 33.34815107214594 -37.79325237195642 a71.40266961958521,71.40266961958521 0 0,0 0.9145968373324777,0.8211340709356286 l -33.99375889707441 37.213619292251494" fill="#3aff90" stroke="none" /><path d="M 114.16331599549186 84.49514656593476 l 17.01089283544769 -18.622150369317342 a46.22211250939444,46.22211250939444 0 0,0 0.5828214755635828,0.5416690433573316 l -17.328922194806122 18.326576739885372" fill="#ffd213" stroke="none" /><path d="M 116.82858285166822 87.43820079747576 l 40.40910411309715 -30.163624370325614 a71.42558805187329,71.42558805187329 0 0,0 0.7269675518993018,0.9915829238080808 l -40.922334277510075 29.463579002846043" fill="#3aff90" stroke="none" /><path d="M 117.45458315368197 88.32363383020206 l 20.97497359961622 -14.03135611974215 a46.23546060732046,46.23546060732046 0 0,0 0.4368224262032619,0.6653105237716231 l -21.213392661177405 13.668227531992853" fill="#ffd213" stroke="none" /><path d="M 117.65298651832404 88.62581576622439 l 42.392488220447525 -27.314356732047756 a71.43012136815005,71.43012136815005 0 0,0 0.657063249768032,1.0393162670522853 l -42.856379066461514 26.580592817281264" fill="#3aff90" stroke="none" /><line stroke="#e1ed5e" stroke-width="0.3" x1="172.23445277983987" x2="176.4835382374775" y1="55.19839476539836" y2="52.563006222186495" /><path d="M 173.08426987136738 54.67131705675599 a86.0,86.0 0 0,1 12.851231095245387,41.99856678651699" fill="none" id="id27" stroke="none" /><text fill="#e1ed5e" style="font-size:6.75px; font-family:Arial;" text-anchor="middle"><textPath startOffset="22.20632615414155" xlink:href="#id27">March</textPath></text><path d="M 118.3937258080291 89.86733742301442 l 17.690324697168304 -9.745175768330535 a41.19693141660137,41.19693141660137 0 0,0 0.3368180695848968,0.6240727291413984 l -17.855450865971665 9.439222055856678" fill="#ff810b" stroke="none" /><path d="M 118.73160827565052 90.50648371742162 l 27.00338489014057 -13.685801580237133 a51.273486096231025,51.273486096231025 0 0,0 0.3922177210634362,0.7906869922141346 l -27.234962624157415 13.218954999524048" fill="#e0ff1b" stroke="none" /><path d="M 119.196687751892 91.48605970444005 l 34.64433179068945 -15.365138833204616 a58.89877592465261,58.89877592465261 0 0,0 0.40306196567937297,0.9303225884290132 l -34.9036844662115 14.766517100189" fill="#77ff27" stroke="none" /><path d="M 119.34039704204932 91.81776055985345 l 11.740484158307215 -4.966984510072812 a33.747937221165074,33.747937221165074 0 0,0 0.2217373070879461,0.5369544771588924 l -11.824243152281358 4.764155462460616" fill="#ff0000" stroke="none" /><path d="M 119.7369772167798 92.82701384747503 l 35.5576145022706 -12.922661542354536 a58.83304283863953,58.83304283863953 0 0,0 0.337721050513452,0.9547828878072866 l -35.774788633593865 12.308681028120635" fill="#78ff26" stroke="none" /><path d="M 119.97218684219823 93.5106431181261 l 24.57640553924575 -7.985358222308447 a46.84116203207701,46.84116203207701 0 0,0 0.24255807166253726,0.7689753721405563 l -24.710219094676493 7.561132683741471" fill="#ffdb14" stroke="none" /><path d="M 120.18372546131832 94.20196356495316 l 36.35447626036204 -10.443293946828046 a58.8247317587988,58.8247317587988 0 0,0 0.27119105962555884,0.9756185310000867 l -36.52885409055396 9.815964112409008" fill="#78ff26" stroke="none" /><path d="M 120.37134235888165 94.90015583598534 l 24.44434041098323 -6.119494954822604 a46.19869037529782,46.19869037529782 0 0,0 0.18648255308244902,0.7730905750416242 l -24.5460557643265 5.697819148121574" fill="#ffd113" stroke="none" /><path d="M 120.53481517161879 95.60439243477599 l 49.277793647341525 -10.548224600198681 a71.39410668884021,71.39410668884021 0 0,0 0.24689001406016214,1.2039233897611863 l -49.452062957316684 9.698425554274083" fill="#3aff90" stroke="none" /><path d="M 120.78858239683441 97.02765380044208 l 37.677788925615246 -5.387160633803063 a59.06096790699906,59.06096790699906 0 0,0 0.1352327445945357,1.0076410238564417 l -37.764937669267624 4.737801267881958" fill="#75ff27" stroke="none" /><path d="M 120.87857604477298 97.74499172005257 l 25.08103340543276 -2.7088982446697263 a46.22689767657547,46.22689767657547 0 0,0 0.07863607884765622,0.7918545825660237 l -25.123946609962644 2.2767681313992676" fill="#ffd213" stroke="none" /><path d="M 120.94382443527127 98.46500227214037 l 53.61201431477691 -3.929288101774274 a74.75581255896509,74.75581255896509 0 0,0 0.08301244608855993,1.2841657988117032 l -53.671707351869884 3.0058632387095354" fill="#3fffbd" stroke="none" /><line stroke="#e1ed5e" stroke-width="0.3" x1="184.98032266829074" x2="189.97916517819016" y1="98.17113171792111" y2="98.06355123074" /><path d="M 185.9800911702706 98.14961562048488 a86.0,86.0 0 0,1 -9.607161424134198,41.387399972396054" fill="none" id="id28" stroke="none" /><text fill="#e1ed5e" style="font-size:6.75px; font-family:Arial;" text-anchor="middle"><textPath startOffset="21.466115282336823" xlink:href="#id28">April</textPath></text><line stroke="#e1ed5e" stroke-width="0.3" x1="174.80103733775053" x2="179.2010983576182" y1="140.37084112569926" y2="142.7455964860345" /><path d="M 175.68104954172406 140.8457921977663 a86.0,86.0 0 0,1 -30.038265399797805,32.042727171017184" fill="none" id="id29" stroke="none" /><text fill="#e1ed5e" style="font-size:6.75px; font-family:Arial;" text-anchor="middle"><textPath startOffset="22.206326154141568" xlink:href="#id29">May</textPath></text><line stroke="#e1ed5e" stroke-width="0.3" x1="143.8653032363475" x2="146.44561519142675" y1="172.8068346515853" y2="177.08958963109032" /><path d="M 144.38136562736335 173.6633856474863 a86.0,86.0 0 0,1 -40.68145358897372,12.25698825130547" fill="none" id="id30" stroke="none" /><text fill="#e1ed5e" style="font-size:6.75px; font-family:Arial;" text-anchor="middle"><textPath startOffset="21.466115282336833" xlink:href="#id30">June</textPath></text><line stroke="#e1ed5e" stroke-width="0.3" x1="102.19456741930631" x2="102.32365962044197" y1="184.97166512339345" y2="189.96999836594603" /><path d="M 102.22038585953345 185.97133177190398 a86.0,86.0 0 0,1 -42.740103519485714,-10.115201625700543" fill="none" id="id31" stroke="none" /><text fill="#e1ed5e" style="font-size:6.75px; font-family:Arial;" text-anchor="middle"><textPath startOffset="22.20632615414155" xlink:href="#id31">July</textPath></text><line stroke="#e1ed5e" stroke-width="0.3" x1="58.666819895761336" x2="56.23545636021788" y1="174.27360380694188" y2="178.64263932499728" /><path d="M 58.180547188652646 175.14741091055294 a86.0,86.0 0 0,1 -31.652253787137756,-30.449443065178592" fill="none" id="id32" stroke="none" /><text fill="#e1ed5e" style="font-size:6.75px; font-family:Arial;" text-anchor="middle"><textPath startOffset="22.20632615414155" xlink:href="#id32">August</textPath></text><line stroke="#e1ed5e" stroke-width="0.3" x1="26.63291911575756" x2="22.317208475507996" y1="142.92168965132927" y2="145.44649492493687" /><path d="M 25.769776987707644 143.4266507060508 a86.0,86.0 0 0,1 -11.730757126820373,-40.83630448921669" fill="none" id="id33" stroke="none" /><text fill="#e1ed5e" style="font-size:6.75px; font-family:Arial;" text-anchor="middle"><textPath startOffset="21.46611528233685" xlink:href="#id33">September</textPath></text><line stroke="#e1ed5e" stroke-width="0.3" x1="15.007084014347285" x2="10.007500721073583" y1="101.09737516637583" y2="101.16192664675087" /><path d="M 14.007167355692545 101.11028546245083 a86.0,86.0 0 0,1 10.666146001902534,-42.60595125391555" fill="none" id="id34" stroke="none" /><text fill="#e1ed5e" style="font-size:6.75px; font-family:Arial;" text-anchor="middle"><textPath startOffset="22.20632615414155" xlink:href="#id34">October</textPath></text><line stroke="#e1ed5e" stroke-width="0.3" x1="26.266209847984243" x2="21.928928074336255" y1="57.711370442889674" y2="55.22380399835377" /><path d="M 25.398753493254645 57.213857153982495 a86.0,86.0 0 0,1 29.58750427330803,-30.492523968695096" fill="none" id="id35" stroke="none" /><text fill="#e1ed5e" style="font-size:6.75px; font-family:Arial;" text-anchor="middle"><textPath startOffset="21.46611528233685" xlink:href="#id35">November</textPath></text><line stroke="#e1ed5e" stroke-width="0.3" x1="56.762969772571076" x2="54.21961505331055" y1="26.818313649435495" y2="22.513508569990535" /><path d="M 56.25429882871897 25.957352633546506 a86.0,86.0 0 0,1 42.265352541879196,-11.944610805530505" fill="none" id="id36" stroke="none" /><text fill="#e1ed5e" style="font-size:6.75px; font-family:Arial;" text-anchor="middle"><textPath startOffset="22.20632615414155" xlink:href="#id36">December</textPath></text></svg>